<?xml version="1.0" standalone="no"?>
<!DOCTYPE svg PUBLIC "-//W3C//DTD SVG 1.1//EN" "http://www.w3.org/Graphics/SVG/1.1/DTD/svg11.dtd" >
<svg xmlns="http://www.w3.org/2000/svg" xmlns:xlink="http://www.w3.org/1999/xlink" version="1.1">
<metadata>
Created by FontForge 20161003 at Sun Jun 10 03:03:00 2018
 By www-data
Copyright (c) 2013 by Eduilson Coan. All rights reserved.
</metadata>
<defs>
<font id="dooTypeEncorpadaClassicLight" horiz-adv-x="357" >
  <font-face 
    font-family="dooTypeEncorpadaClassicLight"
    font-weight="300"
    font-stretch="normal"
    units-per-em="1000"
    panose-1="0 0 4 0 0 0 0 0 0 0"
    ascent="750"
    descent="-250"
    x-height="500"
    cap-height="700"
    bbox="-226 -327 1216 1026"
    underline-thickness="50"
    underline-position="-200"
    unicode-range="U+0020-25CA"
  />
<missing-glyph horiz-adv-x="500" 
d="M0 0v700h500v-700h-500zM250 395l170 255h-340zM280 350l170 -255v510zM80 50h340l-170 255zM50 605v-510l170 255z" />
    <glyph glyph-name=".notdef" horiz-adv-x="500" 
d="M0 0v700h500v-700h-500zM250 395l170 255h-340zM280 350l170 -255v510zM80 50h340l-170 255zM50 605v-510l170 255z" />
    <glyph glyph-name=".null" horiz-adv-x="0" 
 />
    <glyph glyph-name="nonmarkingreturn" horiz-adv-x="333" 
 />
    <glyph glyph-name="space" unicode=" " horiz-adv-x="244" 
 />
    <glyph glyph-name="exclam" unicode="!" horiz-adv-x="235" 
d="M122 191h-10q-2 133 -14.5 236t-24.5 159.5t-12 77.5q0 28 15.5 44.5t39.5 16.5q23 0 39 -16.5t16 -44.5q0 -22 -10.5 -77.5t-23 -159.5t-15.5 -236zM117 99q23 0 39 -16t16 -39t-16 -39t-39 -16t-39 16t-16 39t16 39t39 16z" />
    <glyph glyph-name="quotedbl" unicode="&#x22;" horiz-adv-x="389" 
d="M119 508h-10q-1 57 -20 117.5t-19 75.5q0 21 12 35t32 14q19 0 30.5 -14t11.5 -35q0 -15 -18 -75.5t-19 -117.5zM282 508h-10q-1 57 -19.5 117.5t-18.5 75.5q0 21 12 35t31 14q20 0 31 -13.5t11 -35.5q0 -15 -18 -75.5t-19 -117.5z" />
    <glyph glyph-name="numbersign" unicode="#" horiz-adv-x="826" 
d="M561 464l-81 -229h208l-3 -10h-209l-80 -226h-10l80 226h-199l-80 -226h-10l80 226h-192l3 10h193l81 229h-197l4 10h197l78 223h10l-78 -223h199l78 223h10l-78 -223h194l-4 -10h-194zM551 464h-199l-81 -229h199z" />
    <glyph glyph-name="dollar" unicode="$" horiz-adv-x="591" 
d="M319 697v-301q30 -12 37 -14.5t34.5 -14.5t36 -17t30.5 -18t30 -22t22.5 -24.5t19.5 -30t10 -33.5t5 -40q0 -90 -60.5 -140.5t-164.5 -51.5v-85h-10v85q-39 1 -77.5 19t-67 35t-44.5 17q-34 0 -34 -60h-10v264h10q4 -68 27 -121t57.5 -83t69.5 -45t69 -16v291
q-31 13 -39 16.5t-36 16t-38 18.5t-33 20.5t-32 24.5t-24 27t-21.5 33.5t-11.5 37.5t-5 44q0 79 57.5 130t157.5 51q17 0 25 -1v86h10v-88q39 -5 89 -27.5t66 -22.5q29 0 29 57h10v-214h-10q-3 83 -57.5 134t-126.5 63zM309 400v299q-8 1 -25 1q-71 0 -111 -34.5t-40 -91.5
q0 -35 13.5 -62.5t41.5 -48t53.5 -33.5t67.5 -30zM319 287v-287q79 1 120.5 37t41.5 101q0 53 -41 85t-121 64z" />
    <glyph glyph-name="percent" unicode="%" horiz-adv-x="846" 
d="M215 727q67 0 112.5 -44.5t45.5 -109.5q0 -69 -46 -116t-113 -47t-113.5 45t-46.5 111q0 68 46.5 114.5t114.5 46.5zM751 715l-639 -727l-8 7l639 727zM214 717q-39 0 -64 -42t-25 -109q0 -65 25 -105.5t64 -40.5q38 0 63 42.5t25 109.5q0 64 -25 104.5t-63 40.5z
M633 306q67 0 112.5 -44.5t45.5 -109.5q0 -69 -46 -116t-113 -47t-113.5 45t-46.5 111q0 68 46.5 114.5t114.5 46.5zM632 296q-39 0 -64 -42t-25 -109q0 -65 25 -105.5t64 -40.5q38 0 63 42.5t25 109.5q0 64 -25 104.5t-63 40.5z" />
    <glyph glyph-name="ampersand" unicode="&#x26;" horiz-adv-x="1001" 
d="M974 152l10 -2q-57 -161 -229 -161q-97 0 -184 49q-91 -48 -205 -48q-134 0 -220 68t-86 191q0 100 67 169.5t176 101.5q-2 34 -2 52q0 86 38 137t101 51q41 0 65 -25t24 -66q0 -49 -36.5 -84t-99.5 -52q15 -128 77 -253.5t151 -195.5q51 42 81 95.5t30 96.5q0 68 -84 68
h-38v10h294v-10h-34q-55 0 -82 -17t-40 -63q-28 -114 -118 -187q76 -57 160 -57q68 0 115.5 34.5t68.5 97.5zM455 742q-32 0 -49 -38.5t-17 -105.5q0 -28 3 -56q59 17 93 50.5t34 76.5q0 33 -17.5 53t-46.5 20zM399 6q85 0 161 38q-108 66 -176 192.5t-80 274.5
q-77 -26 -118.5 -87.5t-41.5 -152.5q0 -112 67.5 -188.5t187.5 -76.5z" />
    <glyph glyph-name="quotesingle" unicode="'" horiz-adv-x="226" 
d="M119 508h-10q-1 57 -20 117.5t-19 75.5q0 21 12 35t32 14q19 0 30.5 -14t11.5 -35q0 -15 -18 -75.5t-19 -117.5z" />
    <glyph glyph-name="parenleft" unicode="(" horiz-adv-x="342" 
d="M319 772l4 -6q-85 -74 -126.5 -192t-41.5 -255q0 -128 41.5 -241t127.5 -194l-5 -8q-129 79 -195 196.5t-66 246.5q0 130 66 252t195 201z" />
    <glyph glyph-name="parenright" unicode=")" horiz-adv-x="342" 
d="M20 766l4 6q129 -78 194.5 -200.5t65.5 -252.5q0 -129 -66 -246.5t-194 -196.5l-5 8q167 157 169 435q-1 137 -42 255.5t-126 191.5z" />
    <glyph glyph-name="asterisk" unicode="*" horiz-adv-x="593" 
d="M304 508h-14q0 54 -5 91t-11.5 51.5t-11.5 29t-5 27.5q0 20 11 31.5t29 11.5t29 -11.5t11 -31.5q0 -13 -5 -27.5t-11.5 -29t-11.5 -51.5t-5 -91zM270 496l-5 -12q-64 23 -107 29.5t-53 2.5t-37 4q-40 13 -28 52q6 18 21 24t35 -1q14 -5 27.5 -18.5t48 -35t98.5 -45.5z
M326 484l-4 12q64 24 98 45.5t47.5 35t27.5 18.5q42 16 57 -23q10 -40 -28 -52q-27 -8 -37.5 -4t-53.5 -2.5t-107 -29.5zM270 459l10 -8q-44 -54 -63 -89.5t-24 -54t-15 -30.5q-11 -15 -27.5 -17t-30.5 10q-29 26 -3 59q10 11 28.5 20t49.5 34t75 76zM311 450l10 9
q44 -51 75.5 -76t49.5 -34t28 -20q28 -33 -3 -59q-14 -12 -30.5 -10t-27.5 17q-9 11 -14 29.5t-24.5 54t-63.5 89.5z" />
    <glyph glyph-name="plus" unicode="+" horiz-adv-x="644" 
d="M616 345h-288v-259h-10v259h-290v10h290v260h10v-260h288v-10z" />
    <glyph glyph-name="comma" unicode="," horiz-adv-x="217" 
d="M54 -79v10q45 0 70.5 26t25.5 73q-3 -18 -16.5 -29t-32.5 -11q-23 0 -37 13.5t-14 35.5q0 24 15 39t39 15q26 0 41.5 -17t14.5 -46q0 -53 -28 -81t-78 -28z" />
    <glyph glyph-name="hyphen" unicode="-" horiz-adv-x="460" 
d="M420 235h-380v10h380v-10z" />
    <glyph glyph-name="period" unicode="." horiz-adv-x="228" 
d="M114 99q23 0 39 -16t16 -39t-16 -39t-39 -16t-39 16t-16 39t16 39t39 16z" />
    <glyph glyph-name="slash" unicode="/" horiz-adv-x="271" 
d="M22 -39h-10l248 749h10z" />
    <glyph glyph-name="zero" unicode="0" horiz-adv-x="640" 
d="M337 711q114 0 183.5 -100t69.5 -261t-79.5 -261t-210.5 -100q-113 0 -181.5 98.5t-68.5 262.5q0 161 79 261t208 100zM318 701q-81 0 -125 -88.5t-44 -262.5t43.5 -262.5t122.5 -88.5q85 0 130.5 88.5t45.5 262.5q0 173 -45.5 262t-127.5 89z" />
    <glyph glyph-name="one" unicode="1" horiz-adv-x="457" 
d="M283 710v-622q0 -46 28.5 -62t111.5 -16v-10h-374v10q85 0 114 15.5t29 62.5v486q0 30 -10.5 44t-38.5 15q-36 2 -108 -16l-3 10q175 30 241 87z" />
    <glyph glyph-name="two" unicode="2" horiz-adv-x="597" 
d="M55 2h-8q-4 24 -4 43q0 62 21.5 110t56.5 77t77 53t84.5 45.5t77 45.5t56.5 62t22 88q0 77 -46.5 124t-124.5 47q-83 0 -140 -46.5t-57 -119.5q4 21 20 34t36 13q24 0 39.5 -16t15.5 -39q0 -27 -16 -43.5t-44 -16.5q-27 0 -44 18.5t-17 49.5q0 82 64 131t166 49
q110 0 176 -51t66 -136q0 -48 -18.5 -85t-55 -62.5t-75.5 -41.5t-94 -32q-41 -14 -70 -26.5t-61 -33t-52.5 -44.5t-34.5 -60t-15 -80q26 77 111 77q57 0 137 -32.5t126 -32.5q51 0 78.5 21.5t27.5 62.5q0 33 -15 63l9 3q24 -45 24 -102q0 -60 -38 -95t-100 -35
q-61 0 -153 42t-139 42q-61 0 -69 -71z" />
    <glyph glyph-name="three" unicode="3" horiz-adv-x="580" 
d="M215 364v10q106 0 154.5 45t46.5 124q0 70 -41.5 112t-114.5 42q-75 0 -128 -42.5t-53 -101.5q16 43 60 43q22 0 36 -15t14 -38q0 -27 -15.5 -42.5t-43.5 -15.5q-27 0 -44 19t-17 49q0 70 61.5 114t153.5 44q95 0 157.5 -45t62.5 -123q0 -75 -66.5 -124t-170.5 -49
q117 0 189.5 -51t72.5 -137q0 -89 -70 -141t-188 -52q-103 0 -165.5 45t-62.5 116q0 32 17.5 52t45.5 20q26 0 41 -16.5t15 -43.5q0 -24 -16 -39t-40 -15q-39 0 -53 42q0 -63 55 -105t141 -42q85 0 135 48.5t49 130.5q-1 182 -218 182z" />
    <glyph glyph-name="four" unicode="4" horiz-adv-x="620" 
d="M12 224l-3 6q46 23 88.5 60.5t83 95t64.5 143t24 186.5q21 -9 50 -9q32 0 53 9q0 -87 -35 -173t-88 -147.5t-110.5 -104.5t-106.5 -56h364v213q34 21 57.5 64.5t23.5 94.5h10v-372h124v-10h-124v-140q0 -43 22.5 -58.5t83.5 -15.5v-10h-327v10q75 0 102.5 15.5t27.5 58.5
v140h-384z" />
    <glyph glyph-name="five" unicode="5" horiz-adv-x="586" 
d="M89 710v-61q40 68 106 68q37 0 109.5 -29.5t108.5 -29.5t51 19.5t10 41.5l7 3q18 -28 18 -58q0 -41 -28 -64t-73 -23q-39 0 -83 18.5t-85 39.5t-68 25q-45 5 -73 -22v-290q52 25 96.5 36t107.5 11q112 0 177 -55t65 -144q0 -95 -75 -151t-194 -56q-101 0 -162 44.5
t-61 111.5q0 32 18 51t46 19q26 0 41.5 -16t15.5 -44q0 -23 -16 -39t-41 -16q-22 0 -36.5 12t-17.5 33q0 -60 54 -101.5t140 -41.5q88 0 140.5 52t52.5 140q0 84 -46.5 136t-122.5 52q-91 0 -187 -47l-5 2v373h10z" />
    <glyph glyph-name="six" unicode="6" horiz-adv-x="623" 
d="M356 416q102 0 162 -54t60 -147q0 -99 -72 -161.5t-186 -64.5q-133 -1 -201.5 91t-68.5 259q0 159 87.5 265.5t229.5 106.5q79 0 125.5 -34.5t46.5 -93.5q0 -32 -16.5 -51t-45.5 -19q-28 0 -44 15.5t-16 41.5q0 25 16.5 41.5t40.5 16.5q20 0 35.5 -12.5t19.5 -32.5
q0 54 -43 86t-115 32q-101 0 -162 -102t-61 -254v-1q41 34 97 53t111 19zM322 -1q74 0 118.5 55t44.5 157q0 89 -40.5 140.5t-110.5 51.5q-101 0 -186 -72q3 -332 174 -332z" />
    <glyph glyph-name="seven" unicode="7" horiz-adv-x="502" 
d="M461 717h10q0 -86 -21 -158.5t-51 -125t-60 -103.5t-51 -116t-21 -139q0 -86 -51 -86q-52 0 -52 81q0 58 25.5 111.5t63.5 99t78 93t74.5 113.5t47.5 139q-25 23 -55 26t-62.5 -9t-64.5 -27.5t-72.5 -28.5t-74.5 -13q-43 0 -70 24.5t-27 64.5q0 31 19 60l4 -2
q-4 -18 -3 -24q3 -38 61 -38q38 0 111.5 28.5t115.5 28.5q36 0 68.5 -21.5t51.5 -57.5q6 38 6 80z" />
    <glyph glyph-name="eight" unicode="8" horiz-adv-x="615" 
d="M299 711q112 0 172.5 -42.5t60.5 -122.5t-55.5 -125.5t-141.5 -49.5q106 -4 168 -55.5t62 -133.5q0 -92 -69 -142.5t-188 -50.5q-125 0 -191.5 49t-66.5 143q0 82 59.5 134t159.5 56q-85 4 -137 47t-52 116q0 76 59 126.5t160 50.5zM304 701q-60 0 -95.5 -44t-35.5 -121
q0 -74 34.5 -117.5t96.5 -43.5q63 0 99.5 46t36.5 123q0 76 -35.5 116.5t-100.5 40.5zM304 365q-71 0 -114.5 -50t-43.5 -131q0 -89 41.5 -137t119.5 -48q76 0 119 48.5t43 136.5q0 81 -45 131t-120 50z" />
    <glyph glyph-name="nine" unicode="9" horiz-adv-x="623" 
d="M303 711q133 1 201.5 -91t68.5 -259q0 -160 -86 -266t-233 -106q-83 0 -136.5 38.5t-53.5 97.5q0 32 17 51t45 19t44 -15.5t16 -41.5q0 -25 -16.5 -41.5t-40.5 -16.5q-20 0 -35.5 12.5t-19.5 32.5q0 -55 50 -90.5t126 -35.5q105 0 165 94.5t60 261.5v1q-41 -33 -97 -52.5
t-110 -19.5q-102 0 -162.5 54.5t-60.5 147.5q0 96 72.5 160t185.5 65zM289 297q101 0 186 72q-3 332 -174 332q-73 0 -117.5 -56.5t-44.5 -154.5q0 -89 40 -141t110 -52z" />
    <glyph glyph-name="colon" unicode=":" horiz-adv-x="208" 
d="M104 488q23 0 38.5 -15.5t15.5 -38.5t-15.5 -39.5t-38.5 -16.5t-39 16.5t-16 39.5t16 38.5t39 15.5zM104 100q23 0 38.5 -15.5t15.5 -38.5t-15.5 -39t-38.5 -16t-39 16t-16 39t16 38.5t39 15.5z" />
    <glyph glyph-name="semicolon" unicode=";" horiz-adv-x="236" 
d="M117 488q23 0 38.5 -15.5t15.5 -38.5t-15.5 -39.5t-38.5 -16.5t-39.5 16.5t-16.5 39.5t16.5 38.5t39.5 15.5zM66 -85v11q46 0 71.5 26t25.5 74q-3 -18 -16.5 -29t-32.5 -11q-24 0 -38 13.5t-14 35.5q0 24 15 39t40 15q26 0 41.5 -17t14.5 -46q0 -54 -28 -82.5t-79 -28.5z
" />
    <glyph glyph-name="less" unicode="&#x3c;" horiz-adv-x="642" 
d="M39 353l571 -268l-5 -10l-577 272v12l579 271l5 -10z" />
    <glyph glyph-name="equal" unicode="=" horiz-adv-x="638" 
d="M613 460h-588v10h588v-10zM613 237h-588v10h588v-10z" />
    <glyph glyph-name="greater" unicode="&#x3e;" horiz-adv-x="642" 
d="M614 359v-12l-577 -272l-5 10l571 268l-573 267l5 10z" />
    <glyph glyph-name="question" unicode="?" horiz-adv-x="569" 
d="M239 202l-9 -3q-10 29 -10 51q0 35 22 64.5t53 52.5t62 49t53 67t22 93q0 80 -45 127.5t-124 47.5q-81 0 -135 -50.5t-54 -125.5q10 45 56 45q25 0 40 -15.5t15 -41.5t-16.5 -42t-44.5 -16t-44 19t-16 51q0 84 61.5 137t161.5 53q104 0 168.5 -52.5t64.5 -136.5
q0 -60 -30 -104t-72 -69t-84.5 -46t-72.5 -48.5t-30 -62.5q0 -21 8 -44zM250 102q24 0 40 -16t16 -40t-16 -40.5t-40 -16.5t-40.5 16.5t-16.5 40.5t16.5 40t40.5 16z" />
    <glyph glyph-name="at" unicode="@" horiz-adv-x="1063" 
d="M750 -142l6 -10q-45 -28 -112 -45t-132 -17q-209 0 -335.5 118.5t-126.5 314.5q0 217 138 349t365 132q208 0 336.5 -122.5t128.5 -322.5q0 -122 -57 -198t-152 -76q-66 0 -109 39.5t-53 103.5q-19 -57 -72 -97t-123 -40t-113 34.5t-43 92.5q0 55 40.5 87.5t113.5 32.5
h185v129q0 60 -37 96.5t-99 36.5q-73 0 -121.5 -38.5t-48.5 -95.5q7 20 22.5 31.5t34.5 11.5q21 0 36 -14.5t15 -38.5q0 -26 -15.5 -41.5t-41.5 -15.5q-27 0 -44 17.5t-17 48.5q0 68 58.5 109.5t154.5 41.5q100 0 148 -46.5t48 -141.5v-175q0 -151 99 -151q80 0 130.5 72
t50.5 185q0 196 -125.5 315.5t-329.5 119.5q-223 0 -358 -129t-135 -342q0 -190 124.5 -306.5t327.5 -116.5q65 0 130.5 17t107.5 45zM635 224h-164q-43 0 -66.5 -28.5t-23.5 -77.5q0 -51 26.5 -81t69.5 -30q51 0 94 34t64 78v105z" />
    <glyph glyph-name="A" unicode="A" horiz-adv-x="749" 
d="M735 10v-10h-308v10h29q70 0 70 49q0 18 -12 52l-41 116h-277l-47 -115q-15 -37 -15 -57q0 -45 65 -45h52v-10h-237v10h28q31 0 52 23.5t45 80.5l244 586h16l217 -599q19 -52 36 -71.5t54 -19.5h29zM470 237l-124 352l-145 -352h269z" />
    <glyph glyph-name="B" unicode="B" horiz-adv-x="719" 
d="M26 700h379q102 0 159 -41.5t57 -117.5q0 -63 -47.5 -104.5t-125.5 -48.5q94 -8 152 -59.5t58 -127.5q0 -93 -63.5 -147t-176.5 -54h-392v10h34q42 0 57 15.5t15 56.5v536q0 41 -15 56.5t-57 15.5h-34v10zM381 690h-135q-20 0 -20 -20v-278h149q152 0 152 145
q0 74 -38 113.5t-108 39.5zM246 10h147q81 0 123.5 49t42.5 141q0 89 -47.5 135.5t-136.5 46.5h-149v-352q0 -11 4.5 -15.5t15.5 -4.5z" />
    <glyph glyph-name="C" unicode="C" horiz-adv-x="732" 
d="M670 404h-10q-8 155 -70.5 224.5t-190.5 70.5q-109 0 -180.5 -100.5t-71.5 -256.5q0 -162 68.5 -250.5t194.5 -88.5q165 0 274 156l9 -6q-58 -83 -131.5 -123.5t-174.5 -40.5q-163 0 -252 91t-89 258q0 164 96.5 268.5t244.5 104.5q73 0 140.5 -24t88.5 -24q43 0 44 54
h10v-313z" />
    <glyph glyph-name="D" unicode="D" horiz-adv-x="769" 
d="M26 700h364q151 0 242 -94.5t91 -249.5q0 -161 -94.5 -258.5t-249.5 -97.5h-353v10h34q40 0 56 16t16 56v536q0 41 -15 56.5t-57 15.5h-34v10zM377 690h-131q-11 0 -15.5 -4.5t-4.5 -15.5v-640q0 -11 4.5 -15.5t15.5 -4.5h124q118 0 186 92t68 254q0 156 -66.5 245
t-180.5 89z" />
    <glyph glyph-name="E" unicode="E" horiz-adv-x="701" 
d="M644 270l-38 -265l-5 -5h-575v10h34q42 0 57 15.5t15 56.5v536q0 41 -15 56.5t-57 15.5h-34v10h562l5 -5l34 -255l-10 -2q-31 146 -67 199t-99 53h-205q-20 0 -20 -20v-312h146q57 0 80 28.5t23 100.5h10v-272h-10q0 74 -23 103.5t-80 29.5h-146v-318q0 -20 20 -20h233
q57 0 92 59t63 202z" />
    <glyph glyph-name="F" unicode="F" horiz-adv-x="640" 
d="M604 440l-8 -2q-31 145 -66 198.5t-94 53.5h-190q-11 0 -15.5 -4.5t-4.5 -15.5v-322h120q104 0 104 134h10v-277h-10q0 133 -104 133h-120v-254q0 -43 19 -58.5t71 -15.5h52v-10h-342v10h32q43 0 59 16t16 58v532q0 43 -16 58.5t-59 15.5h-32v10h543l5 -5z" />
    <glyph glyph-name="G" unicode="G" horiz-adv-x="760" 
d="M692 96l-5 -5q-79 -51 -146.5 -76.5t-150.5 -25.5q-156 0 -250 95t-94 255q0 161 99.5 266.5t250.5 105.5q66 0 132.5 -24t83.5 -24q24 -1 34.5 10t11.5 36h10v-297h-10q-8 147 -70 217t-181 71q-113 0 -186.5 -101.5t-73.5 -259.5q0 -155 68.5 -247.5t181.5 -92.5
q94 0 148.5 40.5t54.5 106.5v99q0 40 -16 56t-56 16h-40v10h252v-10q-27 0 -37.5 -11.5t-10.5 -40.5v-169z" />
    <glyph glyph-name="H" unicode="H" horiz-adv-x="828" 
d="M802 690h-34q-42 0 -57 -15.5t-15 -56.5v-536q0 -41 15 -56.5t57 -15.5h34v-10h-305v10h33q41 0 56.5 15.5t15.5 56.5v253h-376v-253q0 -41 15.5 -56.5t56.5 -15.5h33v-10h-305v10h34q42 0 57 15.5t15 56.5v536q0 41 -15 56.5t-57 15.5h-34v10h305v-10h-33
q-41 0 -56.5 -15.5t-15.5 -56.5v-273h376v273q0 41 -15.5 56.5t-56.5 15.5h-33v10h305v-10z" />
    <glyph glyph-name="I" unicode="I" 
d="M331 690h-32q-42 0 -57.5 -15.5t-15.5 -56.5v-536q0 -41 15.5 -56.5t57.5 -15.5h32v-10h-305v10h34q42 0 57 15.5t15 56.5v536q0 41 -15 56.5t-57 15.5h-34v10h305v-10z" />
    <glyph glyph-name="J" unicode="J" horiz-adv-x="428" 
d="M411 690h-36q-42 0 -57 -15.5t-15 -56.5v-459q0 -76 -45 -122.5t-117 -46.5q-57 0 -92.5 31.5t-35.5 80.5q0 31 18.5 51t45.5 20q26 0 42.5 -16.5t16.5 -42.5t-15.5 -42t-39.5 -16q-45 0 -58 46q0 -46 33 -74t83 -28q57 0 90.5 37t33.5 99q0 60 -54 87v395
q0 41 -15.5 56.5t-56.5 15.5h-44v10h318v-10z" />
    <glyph glyph-name="K" unicode="K" horiz-adv-x="784" 
d="M423 363l231 -298q25 -32 47.5 -43.5t63.5 -11.5v-10h-291v10h44q36 0 36 24q0 12 -23 44l-222 284l-83 -76v-204q0 -41 15.5 -56.5t57.5 -15.5h31v-10h-304v10h34q42 0 57 15.5t15 56.5v536q0 41 -15 56.5t-57 15.5h-34v10h305v-10h-32q-41 0 -57 -15.5t-16 -56.5v-314
l287 262q46 41 46 76q0 22 -20 35t-56 13h-37v10h279v-10q-42 0 -78.5 -24.5t-119.5 -104.5l-194 -177l8 -10h58q15 0 24 -11z" />
    <glyph glyph-name="L" unicode="L" horiz-adv-x="673" 
d="M335 690h-32q-42 0 -57.5 -15.5t-15.5 -56.5v-588q0 -11 4.5 -15.5t15.5 -4.5h202q42 0 69.5 19t53 72.5t51.5 155.5l9 -2l-39 -250l-5 -5h-565v10h38q42 0 57.5 15.5t15.5 56.5v536q0 41 -15.5 56.5t-57.5 15.5h-34v10h305v-10z" />
    <glyph glyph-name="M" unicode="M" horiz-adv-x="985" 
d="M959 690h-35q-41 0 -58 -17t-17 -58v-531q0 -42 15.5 -58t56.5 -16h38v-10h-305v10h29q41 0 56.5 16t15.5 58v569l-292 -653h-8l-311 607v-480q0 -66 18.5 -91.5t65.5 -25.5h42v-10h-247v10h34q43 0 60 25.5t17 91.5v491q0 40 -16.5 56t-57.5 16h-35v10h182l296 -585
l261 585h195v-10z" />
    <glyph glyph-name="N" unicode="N" horiz-adv-x="731" 
d="M724 690h-21q-49 0 -67 -31t-18 -113v-546h-79l-411 607v-479q0 -65 34 -91.5t112 -26.5h51v-10h-318v10h21q52 0 71 25t19 93v490q0 41 -15.5 56.5t-56.5 15.5h-27v10h162l427 -632v478q0 82 -31 113t-114 31h-33v10h294v-10z" />
    <glyph glyph-name="O" unicode="O" horiz-adv-x="779" 
d="M401 711q145 0 238.5 -93.5t93.5 -249.5q0 -183 -99.5 -281t-251.5 -98q-148 0 -242 95.5t-94 256.5q0 162 97 266t258 104zM395 701q-110 0 -179 -96t-69 -264q0 -154 67 -248t178 -94q105 0 172.5 97.5t67.5 274.5q0 151 -64.5 240.5t-172.5 89.5z" />
    <glyph glyph-name="P" unicode="P" horiz-adv-x="673" 
d="M26 700h369q110 0 171 -50t61 -142q0 -91 -62 -144t-172 -53h-163v-226q0 -43 19 -59t71 -16h60v-10h-354v10h38q41 0 56.5 15.5t15.5 56.5v536q0 40 -16.5 56t-55.5 16h-38v10zM230 321h141q77 0 119.5 49.5t42.5 135.5q0 89 -41.5 136.5t-118.5 47.5h-123
q-11 0 -15.5 -4.5t-4.5 -15.5v-349z" />
    <glyph glyph-name="Q" unicode="Q" horiz-adv-x="782" 
d="M65 -239l-9 4q88 208 254 231q-120 33 -192 121.5t-72 228.5q0 157 100.5 261t250.5 104q141 0 239 -94t98 -245q0 -180 -101 -281.5t-258 -101.5q-178 0 -268 -152q55 58 150 58q43 0 84.5 -13.5t71 -29t74 -29t91.5 -13.5q69 0 109.5 41t37.5 109h10q1 -7 1 -26
q0 -96 -49.5 -152.5t-133.5 -56.5q-52 0 -102 21t-82.5 45.5t-73.5 45.5t-79 21q-104 0 -151 -97zM390 701q-105 0 -174 -97t-69 -259t66 -254t170 -92q115 1 182.5 98.5t67.5 276.5q0 152 -68.5 239.5t-174.5 87.5z" />
    <glyph glyph-name="R" unicode="R" horiz-adv-x="757" 
d="M742 93h10q0 -47 -26 -75t-71 -28q-61 0 -93.5 43t-32.5 126q0 113 -34.5 155t-120.5 42h-144v-274q0 -41 16 -56.5t57 -15.5h45v-10h-322v10h38q42 0 57.5 15.5t15.5 56.5v536q0 41 -15.5 56.5t-57.5 15.5h-38v10h389q106 0 161 -43t55 -117q0 -73 -55.5 -123
t-132.5 -50v-2q85 0 134 -52t49 -157q0 -79 12.5 -112.5t41.5 -33.5q28 0 45 23t17 60zM230 371h144q80 0 121.5 45t41.5 122q0 71 -38.5 110t-109.5 39h-139q-20 0 -20 -21v-295z" />
    <glyph glyph-name="S" unicode="S" horiz-adv-x="625" 
d="M71 281h10q6 -131 79.5 -205t183.5 -76q69 -2 117.5 35.5t48.5 98.5q0 35 -19 62t-49.5 43.5t-70 32.5t-81 28.5t-81 32t-70 42.5t-49.5 61t-19 86q0 82 61 136t152 54q55 0 101.5 -15t76.5 -30.5t45 -15.5q17 0 24 14t7 47h10v-230h-10q-13 103 -80.5 161t-169.5 58
q-67 0 -112.5 -41.5t-45.5 -96.5q0 -42 24.5 -74t64 -52t87.5 -37.5t96 -36t87.5 -41t64 -60t24.5 -86.5q0 -84 -61.5 -135.5t-165.5 -51.5q-60 0 -110.5 21.5t-81.5 42.5t-44 21q-34 0 -34 -74h-10v281z" />
    <glyph glyph-name="T" unicode="T" horiz-adv-x="710" 
d="M676 448l-10 -1q-22 135 -55 189t-87 54h-109q-11 0 -15.5 -4.5t-4.5 -17.5v-586q0 -41 17 -56.5t58 -15.5h35v-10h-314v10h34q43 0 59.5 15.5t16.5 56.5v586q0 13 -4.5 17.5t-16.5 4.5h-104q-48 0 -78.5 -53.5t-54.5 -189.5l-10 1l26 252h595z" />
    <glyph glyph-name="U" unicode="U" horiz-adv-x="767" 
d="M761 690h-22q-52 0 -70 -24.5t-18 -97.5v-341q0 -115 -63 -176.5t-181 -61.5q-283 0 -283 240v389q0 41 -15 56.5t-57 15.5h-38v10h317v-10h-41q-41 0 -56.5 -15.5t-15.5 -56.5v-391q0 -224 210 -224q100 0 156.5 58.5t56.5 165.5v341q0 72 -23.5 97t-90.5 25h-32v10h266
v-10z" />
    <glyph glyph-name="V" unicode="V" horiz-adv-x="761" 
d="M748 691h-22q-44 0 -71 -30t-59 -116l-219 -545h-12l-225 591q-24 63 -44.5 81.5t-59.5 18.5h-23v9h299v-9h-30q-55 0 -55 -48q0 -19 17 -61l171 -462l170 429q18 44 18 78q0 64 -84 64h-43v9h272v-9z" />
    <glyph glyph-name="W" unicode="W" horiz-adv-x="1200" 
d="M1187 700v-10h-23q-52 0 -81 -32t-66 -125l-212 -533h-12l-176 470l-216 -470h-12l-228 593q-23 59 -47.5 78t-78.5 19h-22v10h343v-10h-41q-30 0 -46.5 -13.5t-16.5 -37.5q0 -17 10 -41l182 -481l168 367l-49 129q-16 46 -33.5 61.5t-51.5 15.5h-24v10h297v-10h-45
q-49 0 -49 -43q0 -16 12 -49l173 -479l164 417q21 54 21 85q0 32 -21.5 50.5t-61.5 18.5h-51v10h294z" />
    <glyph glyph-name="X" unicode="X" horiz-adv-x="783" 
d="M770 10v-10h-330v10q83 0 83 38q0 18 -20 49l-148 222l-136 -187q-36 -51 -36 -77q0 -45 99 -45v-10h-267v10q56 0 95.5 21.5t76.5 72.5l162 225l-182 273q-37 55 -60.5 71.5t-74.5 16.5h-16v10h328v-10h-47q-45 0 -45 -30q0 -15 24 -50l155 -235l140 199q26 35 26 63
q0 53 -81 53h-43v10h286v-10h-22q-67 0 -153 -117l-147 -207l183 -276q31 -47 58.5 -63.5t63.5 -16.5h28z" />
    <glyph glyph-name="Y" unicode="Y" horiz-adv-x="753" 
d="M740 700v-10h-16q-38 0 -68.5 -27.5t-69.5 -97.5l-158 -286v-196q0 -42 17 -57.5t63 -15.5h43v-10h-343v10h41q49 0 67 15.5t18 57.5v189l-195 361q-18 33 -40 45t-64 12h-22v10h310v-10h-41q-20 0 -31.5 -9.5t-11.5 -25.5q0 -12 10 -32l175 -326l146 264q25 45 25 72
q0 57 -91 57h-27v10h263z" />
    <glyph glyph-name="Z" unicode="Z" horiz-adv-x="662" 
d="M615 695l-473 -685h283q70 0 110 52.5t82 195.5l10 -1l-52 -251l-7 -6h-538l-3 5l471 685h-259q-64 0 -98.5 -53.5t-66.5 -197.5l-10 2l32 255l6 4h509z" />
    <glyph glyph-name="bracketleft" unicode="[" horiz-adv-x="312" 
d="M292 774v-10h-131v-874h131v-10h-222v894h222z" />
    <glyph glyph-name="backslash" unicode="\" horiz-adv-x="273" 
d="M233 -39h-10l-178 749h10z" />
    <glyph glyph-name="bracketright" unicode="]" horiz-adv-x="312" 
d="M242 -120h-222v10h131v874h-131v10h222v-894z" />
    <glyph glyph-name="asciicircum" unicode="^" horiz-adv-x="499" 
d="M482 235l-10 -4l-227 455l-218 -454l-10 4l220 458h16z" />
    <glyph glyph-name="underscore" unicode="_" horiz-adv-x="581" 
d="M541 -103h-501v10h501v-10z" />
    <glyph glyph-name="grave" unicode="`" horiz-adv-x="258" 
d="M197 591l-6 -5q-23 25 -46.5 44t-52.5 39t-35 24q-29 21 -29 45q0 16 11 27t28 11q28 0 48 -38q48 -98 82 -147z" />
    <glyph glyph-name="a" unicode="a" horiz-adv-x="598" 
d="M584 76v-17q0 -32 -23.5 -51t-62.5 -19q-43 0 -72.5 20.5t-36.5 60.5q-70 -79 -170 -81q-79 -1 -122.5 30.5t-43.5 89.5t44.5 93.5t120.5 35.5h169v108q0 151 -139 151q-65 0 -113 -37.5t-48 -94.5q13 38 54 38q25 0 40.5 -15.5t15.5 -40.5t-16 -40.5t-42 -15.5
q-28 0 -45 19.5t-17 52.5q0 66 55.5 106t145.5 42q103 1 153 -48t50 -141v-259q0 -55 42 -55q22 0 36.5 14.5t14.5 37.5v16h10zM387 228h-138q-48 0 -76.5 -31t-28.5 -80q0 -51 26.5 -79t75.5 -28q82 0 141 75v143z" />
    <glyph glyph-name="b" unicode="b" horiz-adv-x="640" 
d="M204 750v-353h2q16 47 61.5 80t104.5 33q99 0 160.5 -64t62.5 -180q2 -117 -71.5 -197t-195.5 -80q-105 0 -212 40v651q0 34 -13.5 47t-49.5 13h-41v10l187 5zM206 351v-263q0 -89 122 -89q86 0 129.5 71.5t41.5 199.5q-2 107 -43.5 163t-107.5 56q-56 0 -98.5 -43
t-43.5 -95z" />
    <glyph glyph-name="c" unicode="c" horiz-adv-x="558" 
d="M521 87l7 -9q-105 -89 -225 -89t-189 67t-69 186q0 116 74.5 192.5t200.5 76.5q89 0 142.5 -44t53.5 -113q0 -31 -16 -49.5t-43 -18.5q-26 0 -42 15.5t-16 40.5q0 24 15.5 40t40.5 16q19 0 33 -11.5t18 -32.5q0 62 -48.5 103t-123.5 41q-89 0 -141.5 -71.5t-52.5 -183.5
q0 -111 47.5 -176t133.5 -65q102 0 200 85z" />
    <glyph glyph-name="d" unicode="d" horiz-adv-x="638" 
d="M526 750v-668q0 -41 15.5 -56.5t56.5 -15.5h30v-10h-187l-5 5v98h-2q-16 -47 -61 -80.5t-103 -33.5q-100 0 -162 64t-63 180q-1 122 75.5 199.5t199.5 77.5q57 0 114 -19v188q0 35 -13.5 48t-49.5 13h-36v10l185 6zM434 149v332q-57 19 -113 19q-80 0 -130.5 -72.5
t-48.5 -189.5q1 -111 43 -169t108 -58q56 0 98 43t43 95z" />
    <glyph glyph-name="e" unicode="e" horiz-adv-x="549" 
d="M510 87l6 -7q-104 -91 -222 -91q-115 0 -182 67t-67 188q0 117 69.5 192t180.5 75q98 0 154.5 -58.5t56.5 -157.5l-5 -5h-360q-2 -18 -2 -29q0 -259 174 -259q100 0 197 85zM141 300h252q25 0 25 32q0 75 -35 122t-92 47q-59 0 -100.5 -56.5t-49.5 -144.5z" />
    <glyph glyph-name="f" unicode="f" horiz-adv-x="339" 
d="M118 500v87q0 81 43.5 127.5t114.5 46.5q57 0 93 -33.5t36 -84.5q0 -28 -15.5 -45t-41.5 -17t-41.5 14.5t-15.5 39.5q0 24 15 39.5t40 15.5q20 0 34 -13.5t15 -33.5q0 47 -33.5 77.5t-85.5 30.5q-62 0 -100.5 -39t-38.5 -102q0 -57 26 -83.5t80 -26.5h77v-10h-112v-408
q0 -40 20 -56t70 -16h22v-10h-307v10h32q42 0 57.5 15.5t15.5 56.5v408h-82v10h82z" />
    <glyph glyph-name="g" unicode="g" horiz-adv-x="538" 
d="M210 161v2q-71 13 -110 56t-39 107q0 81 57 132.5t155 51.5q63 0 109 -29q55 2 100 38.5t44 85.5q-1 -18 -14 -29.5t-32 -11.5q-22 0 -36.5 14.5t-14.5 37.5t15 38t40 15q24 0 38 -18t14 -45q0 -52 -44 -91t-98 -42q66 -47 66 -127q0 -89 -56.5 -140t-145.5 -51
q-160 0 -160 -79q0 -65 123 -57q25 0 85 4t82 4q65 0 100.5 -34t35.5 -96q0 -74 -66 -115.5t-186 -41.5q-97 0 -150 30.5t-53 85.5q0 53 38 82t108 29v4h-26q-63 0 -98 22t-35 62q0 48 40 76t114 30zM146 326q0 -80 30 -120.5t82 -40.5q54 0 85.5 45t31.5 131
q0 78 -30 118.5t-85 40.5q-50 0 -82 -46t-32 -128zM357 -43h-142q-65 0 -100.5 -26.5t-35.5 -74.5q0 -50 50.5 -78t142.5 -28q107 0 164.5 33t57.5 92q0 38 -37 60t-100 22z" />
    <glyph glyph-name="h" unicode="h" horiz-adv-x="659" 
d="M207 750v-352h3q15 47 62.5 80t108.5 33q84 0 128.5 -42t44.5 -118v-269q0 -41 15 -56.5t56 -15.5h25v-10h-278v10h22q40 0 55 15.5t15 56.5v285q0 122 -108 122q-58 0 -102 -42.5t-44 -94.5v-270q0 -41 14.5 -56.5t54.5 -15.5h23v-10h-288v10h33q42 0 57 15.5t15 56.5
v598q0 34 -13.5 47t-49.5 13h-42v10l189 5z" />
    <glyph glyph-name="i" unicode="i" horiz-adv-x="324" 
d="M157 780q28 0 46.5 -19t18.5 -46t-18.5 -45.5t-46.5 -18.5q-27 0 -45.5 18.5t-18.5 45.5t18.5 46t45.5 19zM206 500v-418q0 -41 15.5 -56.5t57.5 -15.5h29v-10h-294v10h30q41 0 56.5 15.5t15.5 56.5v347q0 35 -13.5 48t-49.5 13h-36v10l184 6z" />
    <glyph glyph-name="j" unicode="j" horiz-adv-x="286" 
d="M145 780q28 0 46.5 -19t18.5 -46t-18.5 -45.5t-46.5 -18.5q-27 0 -45.5 18.5t-18.5 45.5t18.5 46t45.5 19zM194 500v-605q0 -70 -39 -113t-102 -43q-53 0 -85.5 29t-32.5 76q0 29 17 47.5t42 18.5q23 0 38.5 -15t15.5 -37q0 -24 -14 -39t-38 -15q-43 0 -50 40
q0 -43 29.5 -69t77.5 -26q52 0 83.5 34t31.5 91q0 33 -17.5 57t-46.5 30v468q0 35 -13.5 48t-49.5 13h-36v10l184 6z" />
    <glyph glyph-name="k" unicode="k" horiz-adv-x="624" 
d="M369 345l136 -280q15 -31 39 -43t71 -12v-10h-174l-7 4l-136 288l-90 -68v-144q0 -40 14.5 -55t52.5 -15h30v-10h-291v10h30q41 0 56.5 15.5t15.5 56.5v597q0 35 -13.5 48t-49.5 13h-36v10l185 6l6 -6v-513l173 130q23 17 31 23.5t20.5 17.5t16.5 19t4 17q0 46 -70 46
h-50v10h270v-10q-16 0 -33 -5.5t-40.5 -20.5t-38.5 -26t-49 -37t-50 -38z" />
    <glyph glyph-name="l" unicode="l" horiz-adv-x="319" 
d="M206 750v-668q0 -41 15.5 -56.5t57.5 -15.5h29v-10h-294v10h30q41 0 56.5 15.5t15.5 56.5v597q0 35 -13.5 48t-49.5 13h-36v10l184 6z" />
    <glyph glyph-name="m" unicode="m" horiz-adv-x="1004" 
d="M548 391h3q14 47 62.5 83.5t111.5 36.5q82 0 127.5 -42t45.5 -118v-269q0 -41 15.5 -56.5t56.5 -15.5h24v-10h-278v10h22q40 0 55 15.5t15 56.5v285q0 122 -108 122q-60 0 -103 -42t-43 -95v-270q0 -41 15 -56.5t56 -15.5h21v-10h-275v10h23q40 0 55 15.5t15 56.5v285
q0 122 -108 122q-60 0 -103 -42t-43 -95v-270q0 -42 14.5 -57t54.5 -15h23v-10h-288v10h33q42 0 57 15.5t15 56.5v347q0 35 -13.5 48t-49.5 13h-42v10l193 5l5 -5l-5 -102h3q18 47 63.5 80t107.5 33q64 0 108.5 -35t58.5 -85z" />
    <glyph glyph-name="n" unicode="n" horiz-adv-x="658" 
d="M207 398h2q16 46 63 79.5t108 33.5q84 0 128.5 -42t44.5 -118v-269q0 -41 15.5 -56.5t56.5 -15.5h24v-10h-278v10h22q40 0 55 15.5t15 56.5v285q0 122 -108 122q-57 0 -101.5 -43t-44.5 -94v-270q0 -41 14.5 -56.5t54.5 -15.5h23v-10h-287v10h32q42 0 57.5 15.5
t15.5 56.5v347q0 35 -14 48t-50 13h-41v10l192 5l5 -5z" />
    <glyph glyph-name="o" unicode="o" horiz-adv-x="602" 
d="M306 511q109 0 179.5 -62.5t71.5 -181.5q2 -116 -70.5 -197t-187.5 -81q-116 0 -185 69t-69 185q0 114 72 191t189 77zM302 501q-70 0 -115 -71.5t-45 -186.5t43 -180.5t116 -63.5q78 1 120 72.5t40 195.5q-2 116 -45.5 175t-113.5 59z" />
    <glyph glyph-name="p" unicode="p" horiz-adv-x="640" 
d="M204 398h2q16 46 61.5 79.5t104.5 33.5q100 0 161 -63.5t62 -180.5q2 -122 -75.5 -199.5t-199.5 -77.5q-55 0 -114 19v-177q0 -41 15.5 -56.5t57.5 -15.5h30v-10h-295v10h29q42 0 57 15.5t15 56.5v586q0 41 -16 56.5t-57 15.5h-28v10h185l5 -5v-97zM206 352v-333
q57 -19 114 -19q81 0 130.5 72.5t48.5 194.5q-2 107 -44 164.5t-108 57.5q-57 0 -99 -42.5t-42 -94.5z" />
    <glyph glyph-name="q" unicode="q" horiz-adv-x="631" 
d="M436 103h-2q-16 -47 -61 -80t-104 -33q-100 0 -161.5 63.5t-62.5 181.5q-1 116 72 196t195 80q105 0 212 -40v-639q0 -41 15.5 -56.5t56.5 -15.5h25v-10h-290v10h32q41 0 56.5 15.5t16.5 56.5v271zM434 149v264q0 88 -122 88q-86 0 -129 -72.5t-41 -196.5
q1 -108 42.5 -164.5t107.5 -56.5q56 0 98.5 43t43.5 95z" />
    <glyph glyph-name="r" unicode="r" horiz-adv-x="472" 
d="M207 396h2q15 46 61.5 80t104.5 34q33 0 54 -17.5t21 -47.5q0 -27 -18.5 -45.5t-46.5 -18.5t-44.5 16.5t-16.5 43.5q0 24 15 40.5t36 18.5q-65 0 -115.5 -47.5t-50.5 -106.5v-264q0 -40 20 -56t69 -16h23v-10h-307v10h32q42 0 57.5 15.5t15.5 56.5v347q0 35 -14 48
t-50 13h-41v10l192 5l5 -5z" />
    <glyph glyph-name="s" unicode="s" horiz-adv-x="502" 
d="M55 205h10q12 -102 77.5 -153.5t133.5 -51.5q54 0 86 27.5t32 67.5q0 37 -35 61t-84.5 38.5t-99 31.5t-84 52.5t-33.5 89.5q1 61 47 102t117 41q56 0 105 -20.5t64 -20.5q31 0 31 35h9v-197h-9q-10 94 -60 143t-133 49q-49 0 -80 -28t-31 -68q0 -42 35 -68t85 -40
t100.5 -29.5t85.5 -47t35 -81.5q0 -69 -48.5 -109t-128.5 -40q-46 0 -84.5 16.5t-63.5 32.5t-39 16q-30 0 -30 -51h-10v202z" />
    <glyph glyph-name="t" unicode="t" horiz-adv-x="328" 
d="M176 500h113v-10h-113v-402q0 -38 16.5 -59.5t43.5 -21.5q34 0 53.5 21t19.5 58h10q0 -47 -29 -72t-82 -25q-59 0 -90.5 31t-31.5 90v380h-72v10h27q65 0 95 43.5t30 156.5h10v-200z" />
    <glyph glyph-name="u" unicode="u" horiz-adv-x="655" 
d="M540 495v-424q0 -35 13.5 -48t49.5 -13h42v-10l-188 -5l-5 5v102h-2q-16 -46 -63.5 -79.5t-107.5 -33.5q-84 0 -129 42t-45 118v269q0 41 -15 56.5t-56 15.5h-24v10h181l5 -5v-362q0 -122 108 -122q57 0 101.5 43t44.5 94v270q0 41 -15 56.5t-55 15.5h-22v10h177z" />
    <glyph glyph-name="v" unicode="v" horiz-adv-x="607" 
d="M598 490h-27q-32 0 -52 -19.5t-42 -69.5l-169 -401h-10l-182 416q-19 44 -36.5 59t-52.5 15h-18v10h273v-10h-38q-41 0 -41 -33q0 -11 12 -40l129 -307l123 294q10 25 10 37q0 49 -62 49h-47v10h230v-10z" />
    <glyph glyph-name="w" unicode="w" horiz-adv-x="900" 
d="M890 500v-10h-26q-32 0 -54 -21t-40 -69l-152 -400h-10l-158 383l-150 -383h-10l-173 418q-19 44 -36.5 58t-53.5 14h-18v10h275v-10h-38q-42 0 -42 -33q0 -10 13 -42l119 -297l150 382h10l154 -388l109 291q10 23 10 38q0 23 -16.5 36t-44.5 13h-48v10h230z" />
    <glyph glyph-name="x" unicode="x" horiz-adv-x="587" 
d="M331 277l150 -216q22 -33 39.5 -41.5t57.5 -9.5v-10h-258v10q65 0 65 26q0 17 -16 39l-108 153l-103 -137q-19 -25 -19 -45q0 -34 42 -36h40v-10h-209v10q44 0 72 21t72 77l98 130l-139 197q-23 32 -41 43.5t-49 11.5h-13v10h268v-10h-40q-33 0 -33 -23q0 -11 14 -32
l103 -148l88 118q21 27 21 51q0 34 -47 34h-26v10h195v-10h-16q-29 0 -52.5 -19t-61.5 -69z" />
    <glyph glyph-name="y" unicode="y" horiz-adv-x="625" 
d="M616 490h-26q-30 0 -51.5 -19t-43.5 -69l-205 -487q-37 -87 -75.5 -131t-89.5 -44t-83.5 28.5t-32.5 75.5q0 28 17 47.5t42 19.5q26 0 43 -15.5t17 -40.5q0 -24 -15.5 -40t-40.5 -16q-20 0 -35.5 13t-17.5 32q-1 -43 29 -68.5t77 -25.5q46 0 82.5 43t72.5 127l33 77
l-180 419q-19 45 -36 59.5t-52 14.5h-18v10h273v-10h-38q-42 0 -42 -33q0 -12 12 -41l127 -309l125 297q10 21 10 37q0 23 -19.5 36t-52.5 13h-37v10h231v-10z" />
    <glyph glyph-name="z" unicode="z" horiz-adv-x="531" 
d="M483 496l-343 -486h189q58 0 94.5 42t59.5 135l10 -2l-37 -185h-416l-4 5l337 485h-160q-60 0 -90.5 -37.5t-58.5 -143.5l-10 1l31 190h395z" />
    <glyph glyph-name="braceleft" unicode="{" horiz-adv-x="356" 
d="M19 315v10q65 0 103 32.5t38 94.5q0 41 -16.5 113t-16.5 105q0 48 27.5 76.5t72.5 28.5q46 0 106 -28l-3 -8q-28 10 -49 10q-61 0 -63 -96l-4 -178q-1 -75 -42.5 -114.5t-92.5 -39.5v-2q52 0 93.5 -36.5t42.5 -108.5l4 -186q0 -81 65 -81q20 0 49 12l3 -7
q-72 -31 -117 -31t-69.5 23.5t-24.5 65.5q0 36 17 106t17 119q0 58 -38 89t-102 31z" />
    <glyph glyph-name="bar" unicode="|" horiz-adv-x="156" 
d="M83 -229h-10v1000h10v-1000z" />
    <glyph glyph-name="braceright" unicode="}" horiz-adv-x="356" 
d="M26 739l-3 8q60 28 105 28q46 0 73.5 -28.5t27.5 -76.5q0 -33 -16.5 -105t-16.5 -113q0 -61 38 -94t102 -33v-10q-64 0 -101.5 -31t-37.5 -89q0 -49 17 -119t17 -106q0 -42 -24.5 -65.5t-69.5 -23.5t-117 31l3 7q29 -12 49 -12q65 0 65 81l4 186q1 72 42.5 108.5
t93.5 36.5v2q-51 0 -92.5 39.5t-42.5 114.5l-4 178q-2 96 -63 96q-21 0 -49 -10z" />
    <glyph glyph-name="asciitilde" unicode="~" horiz-adv-x="634" 
d="M48 230h-10q0 43 27.5 67.5t70.5 24.5q45 0 104 -27t126 -54.5t131 -27.5q39 0 64 23.5t25 63.5h10q0 -45 -27.5 -71t-71.5 -26q-65 0 -133 27.5t-126.5 54.5t-101.5 27q-39 0 -63.5 -22t-24.5 -60z" />
    <glyph glyph-name="exclamdown" unicode="&#xa1;" horiz-adv-x="235" 
d="M117 406q-23 0 -39 16t-16 39t16 39t39 16t38.5 -16t15.5 -39t-15.5 -39t-38.5 -16zM112 314h10q3 -132 15.5 -236t23 -159.5t10.5 -77.5q0 -28 -16 -44.5t-39 -16.5q-24 0 -39.5 16.5t-15.5 44.5q0 21 12 77.5t24.5 159.5t14.5 236z" />
    <glyph glyph-name="cent" unicode="&#xa2;" horiz-adv-x="487" 
d="M440 201l5 -8q-85 -61 -180 -62v-117h-10v117q-97 1 -154.5 56t-57.5 146q0 92 59.5 154t152.5 67v123h10v-122h7q67 0 111 -31.5t44 -79.5q0 -24 -14.5 -39.5t-36.5 -15.5q-21 0 -34.5 12.5t-13.5 33.5t13 34.5t33 13.5q18 0 30 -10.5t13 -28.5q0 42 -38 70.5t-95 28.5
q-68 0 -112.5 -58.5t-44.5 -148.5q0 -88 39.5 -140.5t106.5 -52.5q89 0 167 58z" />
    <glyph glyph-name="sterling" unicode="&#xa3;" horiz-adv-x="691" 
d="M602 218l8 2q23 -55 23 -104q0 -60 -35.5 -95.5t-96.5 -35.5q-27 0 -50 6t-46.5 22t-35.5 25.5t-37.5 35t-32.5 31.5q-14 -54 -49 -84.5t-84 -30.5q-48 0 -76.5 26t-28.5 69q0 44 30 71t80 27q60 0 124 -44q2 11 2 35q0 79 -59 155h-130v10h122q-4 5 -21.5 26.5t-23.5 29
t-18.5 27t-17.5 33t-9.5 34t-4.5 41.5q0 83 65 132t176 49q90 0 143 -41t53 -110q0 -32 -16.5 -51t-44.5 -19q-26 0 -43 16t-17 42q0 27 17 44t41 17q21 0 36 -14t17 -35q1 63 -46.5 100.5t-125.5 37.5q-75 0 -120 -45.5t-45 -121.5q0 -37 7.5 -74.5t15 -58t22.5 -59.5h142
v-10h-138q33 -86 33 -154q0 -29 -2 -43q4 -3 20.5 -14.5t22.5 -15.5t20.5 -13t24.5 -13t24 -9t28.5 -7t29.5 -2q63 0 96.5 31.5t33.5 89.5q0 18 -3 39zM166 0q47 0 79.5 30t45.5 82q-64 57 -128 57q-42 0 -67 -23.5t-25 -60.5q0 -39 25.5 -62t69.5 -23z" />
    <glyph glyph-name="currency" unicode="&#xa4;" horiz-adv-x="536" 
d="M479 595l-72 -72q68 -62 68 -154q0 -95 -73 -157l73 -74l-7 -7l-73 75q-55 -44 -127 -44q-76 0 -133 49l-71 -76l-7 7l71 75q-67 62 -67 152q0 95 73 158l-73 72l7 7l74 -73q56 43 126 43q74 0 132 -47l72 72zM268 172q82 0 139.5 57.5t57.5 139.5t-57.5 139.5
t-139.5 57.5t-139.5 -57.5t-57.5 -139.5t57.5 -139.5t139.5 -57.5z" />
    <glyph glyph-name="yen" unicode="&#xa5;" horiz-adv-x="692" 
d="M407 282h220v-10h-220v-88h220v-10h-220v-91q0 -44 23 -58.5t92 -14.5v-10h-326v10q70 0 94 14.5t24 58.5v91h-223v10h223v88h-223v10h219l-202 364q-14 25 -34.5 34.5t-60.5 9.5v10h301v-10q-90 0 -90 -35q0 -15 12 -37l165 -311l114 253q18 42 18 69q0 33 -28.5 47.5
t-89.5 14.5v9h264v-8q-53 -3 -82.5 -25t-54.5 -76l-135 -297v-12z" />
    <glyph glyph-name="brokenbar" unicode="&#xa6;" horiz-adv-x="156" 
d="M83 406h-10v365h10v-365zM83 -229h-10v365h10v-365z" />
    <glyph glyph-name="section" unicode="&#xa7;" horiz-adv-x="562" 
d="M464 586h-10q-5 74 -59.5 119t-117.5 45q-58 0 -95 -32t-37 -76q0 -48 37 -79t89.5 -47t105 -33.5t89.5 -51.5t37 -87q0 -62 -45.5 -104.5t-106.5 -54.5q64 -25 99.5 -58.5t35.5 -90.5q0 -73 -50.5 -118t-133.5 -45q-49 0 -91.5 17.5t-68 35t-33.5 17.5q-26 0 -26 -54
h-10v189h10q3 -50 25.5 -89t55 -61t66.5 -33.5t64 -11.5q57 0 91 31t34 78q0 36 -26.5 62t-66 39.5t-85.5 30.5t-85.5 35t-66 53.5t-26.5 84.5q0 51 32 94.5t86 64.5q-95 49 -95 145q0 69 50 114t134 45q49 0 97 -22t61 -22q26 0 26 39h10v-169zM113 345q0 -24 10.5 -43.5
t23.5 -32t39.5 -25t45 -19t53.5 -18t52 -17.5q43 9 75 36t32 73q0 35 -26.5 60t-59 36t-85.5 27t-83 30q-77 -32 -77 -107z" />
    <glyph glyph-name="dieresis" unicode="&#xa8;" horiz-adv-x="418" 
d="M325 716q21 0 36 -14.5t15 -36.5t-15 -36.5t-36 -14.5t-35.5 14.5t-14.5 36.5t14.5 36.5t35.5 14.5zM93 716q22 0 36.5 -15t14.5 -37t-14.5 -36t-36.5 -14q-21 0 -36 14.5t-15 35.5q0 22 15 37t36 15z" />
    <glyph glyph-name="copyright" unicode="&#xa9;" horiz-adv-x="850" 
d="M428 720q162 -2 267.5 -106.5t105.5 -265.5t-105.5 -265.5t-267.5 -106.5h-3h-3q-162 2 -267 106.5t-105 265.5t105 265.5t267 106.5h3h3zM425 -14q160 0 263 101.5t103 260.5q0 158 -103 259.5t-263 102.5q-159 -1 -262 -102t-103 -260t102.5 -260t262.5 -102zM617 374
h-10q-33 189 -172 189q-59 0 -103 -61.5t-44 -158.5t44 -156t110 -59q52 0 99 28.5t76 76.5l8 -5q-67 -113 -199 -113q-94 0 -157 60t-63 165q0 103 64 168.5t156 65.5q44 0 92 -19t63 -19q14 0 20 7t6 24h10v-193z" />
    <glyph glyph-name="ordfeminine" unicode="&#xaa;" horiz-adv-x="379" 
d="M227 552v62q0 86 -75 86q-45 0 -72 -22t-27 -58q3 28 32 28q15 0 24 -9t9 -24t-10 -24.5t-26 -9.5q-17 0 -27 10.5t-10 27.5q0 41 33 65t91 26q118 3 118 -115v-132q0 -41 27 -41q28 0 28 40h8q0 -52 -52 -52q-57 0 -68 42q-40 -42 -94 -42q-49 0 -76 18t-27 51
q0 35 25 54t70 19h99zM227 544h-82q-25 0 -39.5 -16t-14.5 -42q0 -30 15.5 -46.5t43.5 -16.5q42 0 78 39q-1 5 -1 16v66zM40 353h299v-10h-299v10z" />
    <glyph glyph-name="guillemotleft" unicode="&#xab;" horiz-adv-x="661" 
d="M373 495l5 -6q-206 -208 -248 -237q31 -19 107.5 -93t141.5 -146l-5 -6q-186 157 -354 240v6q173 88 353 242zM624 495l5 -6q-207 -210 -248 -237q31 -19 107.5 -93t141.5 -146l-5 -6q-186 157 -354 240v6q173 88 353 242z" />
    <glyph glyph-name="logicalnot" unicode="&#xac;" horiz-adv-x="606" 
d="M549 380v-260h-10v250h-501v10h511z" />
    <glyph glyph-name="softhyphen" unicode="&#xad;" horiz-adv-x="460" 
d="M420 235h-380v10h380v-10z" />
    <glyph glyph-name="registered" unicode="&#xae;" horiz-adv-x="327" 
d="M164 760q59 0 98.5 -39t39.5 -97q0 -59 -39.5 -98.5t-98.5 -39.5t-99 39.5t-40 98.5q0 58 40 97t99 39zM164 752q-56 0 -93 -36.5t-37 -91.5q0 -56 37 -93t93 -37q55 0 92 37t37 93q0 54 -37 91t-92 37zM87 693h88q44 0 44 -31q0 -13 -11.5 -21.5t-24.5 -8.5q37 0 37 -37
q0 -20 7 -20q8 0 8 15h5q0 -27 -27 -27q-29 0 -29 31q0 19 -5 26.5t-18 7.5h-17v-37q0 -12 5 -16.5t18 -4.5v-5h-80v5q13 0 17.5 3t4.5 12v86q0 10 -4.5 13.5t-17.5 3.5v5zM164 688h-8q-12 0 -12 -11v-44h20q21 0 21 29q0 26 -21 26z" />
    <glyph glyph-name="macron" unicode="&#xaf;" horiz-adv-x="390" 
d="M352 618h-314v10h314v-10z" />
    <glyph glyph-name="degree" unicode="&#xb0;" horiz-adv-x="327" 
d="M164 763q59 0 98.5 -40t39.5 -99t-39.5 -98.5t-98.5 -39.5t-99 39.5t-40 98.5t40 99t99 40zM164 753q-56 0 -92.5 -36.5t-36.5 -92.5q0 -55 37 -91.5t92 -36.5t91.5 36.5t36.5 91.5t-36.5 92t-91.5 37z" />
    <glyph glyph-name="plusminus" unicode="&#xb1;" horiz-adv-x="604" 
d="M576 425v-10h-268v-239h-10v239h-270v10h270v240h10v-240h268zM28 120h548v-10h-548v10z" />
    <glyph glyph-name="twosuperior" unicode="&#xb2;" horiz-adv-x="346" 
d="M30 469v16q0 50 23 84.5t55 53t64.5 35.5t55.5 43.5t23 64.5q0 41 -25 66t-65 25q-46 0 -78 -25.5t-32 -61.5q8 31 38 31q15 0 26 -11t11 -27q0 -18 -11.5 -29.5t-30.5 -11.5t-30.5 13t-11.5 35q0 42 37.5 70.5t94.5 28.5q60 0 99 -29t39 -76q0 -94 -155 -136
q-60 -19 -88.5 -51.5t-31.5 -89.5q5 26 22 40t40 14q22 0 66.5 -12.5t71.5 -12.5t43.5 12.5t18.5 33.5q3 13 -2 29l5 3q15 -25 15 -53q0 -37 -23 -59t-64 -22q-36 0 -85 20t-66 20q-30 0 -40 -32z" />
    <glyph glyph-name="threesuperior" unicode="&#xb3;" horiz-adv-x="347" 
d="M133 672v10q49 0 77.5 25.5t28.5 67.5q0 37 -21.5 59t-56.5 22q-44 0 -70.5 -19.5t-26.5 -53.5q9 30 37 30q16 0 25 -10.5t9 -27.5t-11 -27t-29 -10q-41 0 -41 46q0 38 33.5 61.5t88.5 23.5t89 -26t34 -68q0 -43 -39 -70t-102 -27q71 0 111 -28.5t40 -76.5
q0 -52 -40.5 -82.5t-108.5 -30.5q-56 0 -89 24t-33 61q0 20 12 33t29 13t28 -11t11 -27t-10.5 -26t-26.5 -10q-27 0 -33 28q0 -33 27.5 -53.5t72.5 -20.5q43 0 70 28.5t27 72.5q0 48 -29 74.5t-83 25.5z" />
    <glyph glyph-name="acute" unicode="&#xb4;" horiz-adv-x="232" 
d="M40 586l-7 5q34 49 82 147q20 38 48 38q17 0 28 -11t11 -27q0 -24 -29 -45q-5 -4 -35 -24t-52.5 -39t-45.5 -44z" />
    <glyph glyph-name="paragraph" unicode="&#xb6;" horiz-adv-x="469" 
d="M456 690h-113v-632q0 -79 -40.5 -123t-111.5 -44q-56 0 -89.5 30t-33.5 80q0 28 17 47.5t44 19.5t43 -16.5t16 -43.5q-1 -26 -16 -41.5t-40 -15.5t-39.5 13.5t-14.5 36.5q0 -45 31 -72.5t82 -27.5q67 0 104.5 42t37.5 116v315h-97q-79 0 -127.5 44t-48.5 116
q0 75 48 120.5t128 45.5h220v-10z" />
    <glyph glyph-name="periodcentered" unicode="&#xb7;" horiz-adv-x="228" 
d="M114 310q23 0 39 -16t16 -39t-16 -39t-39 -16t-39 16t-16 39t16 39t39 16z" />
    <glyph glyph-name="cedilla" unicode="&#xb8;" horiz-adv-x="307" 
d="M135 0l-53 -95q31 29 81 29q44 0 71 -21t27 -56q0 -42 -36 -67.5t-89 -25.5q-52 0 -97 28l5 8q37 -23 79 -23q34 0 56 21.5t22 53.5q0 29 -15.5 46.5t-41.5 17.5q-41 0 -78 -36l-6 4l65 116h10z" />
    <glyph glyph-name="onesuperior" unicode="&#xb9;" horiz-adv-x="254" 
d="M158 868v-347q0 -22 15.5 -30.5t57.5 -8.5v-10h-205v10q42 0 57.5 8.5t15.5 30.5v255q0 33 -27 34q-16 1 -57 -7l-2 9q88 14 138 60z" />
    <glyph glyph-name="ordmasculine" unicode="&#xba;" horiz-adv-x="387" 
d="M205 710q67 0 107.5 -37t40.5 -103q0 -69 -46.5 -114.5t-121.5 -45.5q-68 0 -110 38.5t-42 104.5q0 69 45.5 113t126.5 44zM194 702q-99 0 -99 -149q0 -135 98 -135q46 0 72.5 38.5t26.5 116.5q0 61 -26.5 95t-71.5 34zM332 343h-270v10h270v-10z" />
    <glyph glyph-name="guillemotright" unicode="&#xbb;" horiz-adv-x="661" 
d="M283 489l5 6q180 -154 353 -242v-6q-168 -83 -354 -240l-5 6q63 70 140.5 144.5t108.5 94.5q-41 27 -248 237zM31 489l6 6q182 -155 352 -242v-6q-165 -82 -353 -240l-6 6q65 72 141.5 146t107.5 93q-42 29 -248 237z" />
    <glyph glyph-name="onequarter" unicode="&#xbc;" horiz-adv-x="919" 
d="M218 709v-348q0 -23 15 -31t57 -8v-10h-205v10q42 0 57.5 8.5t15.5 30.5v256q0 17 -6 25t-21 9q-21 0 -57 -7l-1 9q86 14 138 59zM784 699l-661 -738l-11 11l662 737zM510 117l-3 12q58 26 98.5 92.5t40.5 160.5q31 -11 64 0q-1 -92 -54 -159.5t-136 -95.5h186v91
q24 10 37.5 34.5t13.5 53.5h9v-179h71v-10h-71v-70q0 -23 13.5 -30t52.5 -7v-10h-205v10q46 0 62.5 7t16.5 30v70h-196z" />
    <glyph glyph-name="onehalf" unicode="&#xbd;" horiz-adv-x="919" 
d="M194 729v-347q0 -23 15 -31t57 -8v-10h-205v10q42 0 57.5 8.5t15.5 30.5v255q0 33 -27 34q-20 2 -57 -7l-1 9q90 17 138 60zM761 707l-661 -738l-11 11l662 737zM547 -2v16q0 50 23 84.5t55.5 53t64.5 35t55 43.5t23 65q0 41 -25 66t-65 25q-46 0 -78 -25.5t-32 -61.5
q8 31 38 31q15 0 26 -11t11 -27q0 -18 -11.5 -29.5t-30.5 -11.5t-30.5 13t-11.5 35q0 42 37.5 70.5t94.5 28.5q61 0 100 -29t39 -76q0 -93 -156 -136q-60 -19 -88.5 -51.5t-31.5 -89.5q5 26 22 40t40 14q22 0 66.5 -12.5t71.5 -12.5t43.5 12.5t18.5 33.5q3 13 -2 29l5 3
q15 -25 15 -53q0 -37 -23 -59t-64 -22q-36 0 -84.5 20t-65.5 20q-31 0 -41 -32z" />
    <glyph glyph-name="threequarters" unicode="&#xbe;" horiz-adv-x="919" 
d="M173 513v10q48 0 77 25t29 67q0 37 -22 59.5t-57 22.5q-43 0 -70 -20t-27 -53q8 29 37 29q16 0 25.5 -10.5t9.5 -27.5t-11 -26.5t-29 -9.5q-42 0 -42 45q0 39 33.5 62.5t88.5 23.5t89 -26t34 -68q0 -44 -38.5 -70.5t-102.5 -26.5q71 -1 111 -29t40 -76q0 -52 -40 -82.5
t-108 -30.5q-57 0 -89.5 23.5t-32.5 60.5q0 20 11.5 33t29.5 13q16 0 27 -10.5t11 -26.5t-10 -26t-27 -10q-27 0 -33 27q0 -32 28 -53t72 -21t71 28t27 73q0 48 -29.5 75t-82.5 26zM811 699l-660 -738l-11 11l661 737zM522 117l-3 12q57 26 98 93t41 160q31 -11 64 0
q-1 -92 -54.5 -159.5t-135.5 -95.5h186v91q23 10 36.5 34.5t13.5 54.5h10v-180h71v-10h-71v-70q0 -23 13.5 -30t52.5 -7v-10h-206v10q47 0 63.5 7t16.5 30v70h-196z" />
    <glyph glyph-name="questiondown" unicode="&#xbf;" horiz-adv-x="569" 
d="M319 413q-23 0 -39.5 16t-16.5 40t16.5 40.5t39.5 16.5q24 0 40.5 -16.5t16.5 -40.5t-16.5 -40t-40.5 -16zM330 313l9 3q10 -25 10 -51q0 -35 -22 -64.5t-53 -52.5t-62 -49t-53 -67t-22 -93q0 -80 45 -127.5t124 -47.5q81 0 135.5 50.5t54.5 125.5q-5 -21 -20.5 -33
t-36.5 -12q-25 0 -40 15.5t-15 41.5t16.5 42t44.5 16t44.5 -19t16.5 -51q0 -84 -62 -137t-162 -53q-104 0 -168.5 52.5t-64.5 136.5q0 60 30 104t72.5 69t84.5 46t72 48.5t30 62.5q0 25 -8 44z" />
    <glyph glyph-name="Agrave" unicode="&#xc0;" horiz-adv-x="749" 
d="M398 804l-7 -5q-23 25 -45.5 44t-52.5 39t-35 24q-29 21 -29 45q0 16 11 27t28 11q28 0 48 -38q48 -98 82 -147zM735 10v-10h-308v10h29q70 0 70 49q0 18 -12 52l-41 116h-277l-47 -115q-15 -37 -15 -57q0 -45 65 -45h52v-10h-237v10h28q31 0 52 23.5t45 80.5l244 586h16
l217 -599q19 -52 36 -71.5t54 -19.5h29zM470 237l-124 352l-145 -352h269z" />
    <glyph glyph-name="Aacute" unicode="&#xc1;" horiz-adv-x="749" 
d="M397 799l-7 5q34 49 82 147q20 38 48 38q17 0 28 -11t11 -27q0 -24 -29 -45q-5 -4 -35 -24t-52.5 -39t-45.5 -44zM735 10v-10h-308v10h29q70 0 70 49q0 18 -12 52l-41 116h-277l-47 -115q-15 -37 -15 -57q0 -45 65 -45h52v-10h-237v10h28q31 0 52 23.5t45 80.5l244 586
h16l217 -599q19 -52 36 -71.5t54 -19.5h29zM470 237l-124 352l-145 -352h269z" />
    <glyph glyph-name="Acircumflex" unicode="&#xc2;" horiz-adv-x="749" 
d="M239 800l-7 8l162 165h10l164 -165l-6 -8l-163 109zM735 10v-10h-308v10h29q70 0 70 49q0 18 -12 52l-41 116h-277l-47 -115q-15 -37 -15 -57q0 -45 65 -45h52v-10h-237v10h28q31 0 52 23.5t45 80.5l244 586h16l217 -599q19 -52 36 -71.5t54 -19.5h29zM470 237l-124 352
l-145 -352h269z" />
    <glyph glyph-name="Atilde" unicode="&#xc3;" horiz-adv-x="749" 
d="M263 793l-9 -6q-28 41 -28 77q0 37 22 60t57 23q34 0 99.5 -31.5t94.5 -31.5q17 0 27 9.5t10 24.5q0 24 -16 48l9 6q39 -42 39 -85q0 -30 -18.5 -47t-51.5 -17q-35 0 -101.5 33.5t-102.5 33.5q-44 0 -44 -48q0 -29 13 -49zM735 10v-10h-308v10h29q70 0 70 49q0 18 -12 52
l-41 116h-277l-47 -115q-15 -37 -15 -57q0 -45 65 -45h52v-10h-237v10h28q31 0 52 23.5t45 80.5l244 586h16l217 -599q19 -52 36 -71.5t54 -19.5h29zM470 237l-124 352l-145 -352h269z" />
    <glyph glyph-name="Adieresis" unicode="&#xc4;" horiz-adv-x="749" 
d="M508 827q-22 0 -36.5 14.5t-14.5 36.5t14.5 36.5t36.5 14.5q21 0 36 -14.5t15 -36.5t-15 -36.5t-36 -14.5zM276 827q-22 0 -36.5 14t-14.5 36t14.5 37t36.5 15q21 0 35.5 -15t14.5 -37t-14.5 -36t-35.5 -14zM735 10v-10h-308v10h29q70 0 70 49q0 18 -12 52l-41 116h-277
l-47 -115q-15 -37 -15 -57q0 -45 65 -45h52v-10h-237v10h28q31 0 52 23.5t45 80.5l244 586h16l217 -599q19 -52 36 -71.5t54 -19.5h29zM470 237l-124 352l-145 -352h269z" />
    <glyph glyph-name="Aring" unicode="&#xc5;" horiz-adv-x="749" 
d="M393 778q-43 0 -71.5 28.5t-28.5 71.5t28.5 71.5t71.5 28.5t71.5 -28.5t28.5 -71.5t-28.5 -71.5t-71.5 -28.5zM393 968q-38 0 -63.5 -26t-25.5 -64t25.5 -64t63.5 -26t63.5 26t25.5 64t-25.5 64t-63.5 26zM735 10v-10h-308v10h29q70 0 70 49q0 18 -12 52l-41 116h-277
l-47 -115q-15 -37 -15 -57q0 -45 65 -45h52v-10h-237v10h28q31 0 52 23.5t45 80.5l244 586h16l217 -599q19 -52 36 -71.5t54 -19.5h29zM470 237l-124 352l-145 -352h269z" />
    <glyph glyph-name="AE" unicode="&#xc6;" horiz-adv-x="1106" 
d="M1049 270l-38 -265l-5 -5h-574v10h34q41 0 56.5 15.5t15.5 56.5v158h-286l-87 -130q-27 -39 -27 -65q0 -35 53 -35h60v-10h-237v10h20q49 0 119 104l374 555q-14 21 -61 21h-34v10h561l5 -5l35 -255l-10 -2q-31 145 -67.5 198.5t-99.5 53.5h-204q-20 0 -20 -20v-312h145
q57 0 80 28.5t23 100.5h10v-272h-10q0 74 -23 103.5t-80 29.5h-145v-318q0 -20 20 -20h232q57 0 92 59t63 202zM538 250v368q0 24 -6 41l-274 -409h280z" />
    <glyph glyph-name="Ccedilla" unicode="&#xc7;" horiz-adv-x="732" 
d="M684 159l9 -6q-114 -163 -302 -164l-51 -90q31 29 81 29q44 0 71 -21t27 -56q0 -42 -36 -67.5t-89 -25.5q-52 0 -97 28l5 8q37 -23 79 -23q34 0 56.5 21.5t22.5 53.5q0 29 -16 46.5t-42 17.5q-41 0 -78 -36l-5 4l62 111q-160 2 -247.5 93t-87.5 256q0 164 96.5 268.5
t244.5 104.5q73 0 140.5 -24t88.5 -24q43 0 44 54h10v-313h-10q-8 155 -70.5 224.5t-190.5 70.5q-109 0 -180.5 -100.5t-71.5 -256.5q0 -162 68.5 -250.5t194.5 -88.5q165 0 274 156z" />
    <glyph glyph-name="Egrave" unicode="&#xc8;" horiz-adv-x="701" 
d="M349 791l-6 -5q-23 25 -46.5 44t-52.5 39t-35 24q-29 22 -29 45q0 16 11.5 27t27.5 11q28 0 48 -38q3 -7 13.5 -28l18 -36t21.5 -38.5t29 -44.5zM644 270l-38 -265l-5 -5h-575v10h34q42 0 57 15.5t15 56.5v536q0 41 -15 56.5t-57 15.5h-34v10h562l5 -5l34 -255l-10 -2
q-31 146 -67 199t-99 53h-205q-20 0 -20 -20v-312h146q57 0 80 28.5t23 100.5h10v-272h-10q0 74 -23 103.5t-80 29.5h-146v-318q0 -20 20 -20h233q57 0 92 59t63 202z" />
    <glyph glyph-name="Eacute" unicode="&#xc9;" horiz-adv-x="701" 
d="M348 786l-6 5q34 49 82 147q20 38 48 38q17 0 28 -11t11 -27q0 -24 -29 -45q-6 -4 -35 -24t-52.5 -39t-46.5 -44zM644 270l-38 -265l-5 -5h-575v10h34q42 0 57 15.5t15 56.5v536q0 41 -15 56.5t-57 15.5h-34v10h562l5 -5l34 -255l-10 -2q-31 146 -67 199t-99 53h-205
q-20 0 -20 -20v-312h146q57 0 80 28.5t23 100.5h10v-272h-10q0 74 -23 103.5t-80 29.5h-146v-318q0 -20 20 -20h233q57 0 92 59t63 202z" />
    <glyph glyph-name="Ecircumflex" unicode="&#xca;" horiz-adv-x="701" 
d="M190 787l-6 8l162 165h10l164 -165l-7 -8l-163 109zM644 270l-38 -265l-5 -5h-575v10h34q42 0 57 15.5t15 56.5v536q0 41 -15 56.5t-57 15.5h-34v10h562l5 -5l34 -255l-10 -2q-31 146 -67 199t-99 53h-205q-20 0 -20 -20v-312h146q57 0 80 28.5t23 100.5h10v-272h-10
q0 74 -23 103.5t-80 29.5h-146v-318q0 -20 20 -20h233q57 0 92 59t63 202z" />
    <glyph glyph-name="Edieresis" unicode="&#xcb;" horiz-adv-x="701" 
d="M459 814q-21 0 -35.5 14.5t-14.5 36.5t14.5 36.5t35.5 14.5q22 0 37 -14.5t15 -36.5t-15 -36.5t-37 -14.5zM227 814q-21 0 -36 14.5t-15 35.5q0 22 15 37t36 15q22 0 36.5 -15t14.5 -37t-14.5 -36t-36.5 -14zM644 270l-38 -265l-5 -5h-575v10h34q42 0 57 15.5t15 56.5
v536q0 41 -15 56.5t-57 15.5h-34v10h562l5 -5l34 -255l-10 -2q-31 146 -67 199t-99 53h-205q-20 0 -20 -20v-312h146q57 0 80 28.5t23 100.5h10v-272h-10q0 74 -23 103.5t-80 29.5h-146v-318q0 -20 20 -20h233q57 0 92 59t63 202z" />
    <glyph glyph-name="Igrave" unicode="&#xcc;" 
d="M183 791l-6 -5q-18 20 -38.5 37.5t-34 27t-33.5 23t-28 19.5q-28 21 -28 45q0 16 11 27t27 11q29 0 49 -38q48 -99 81 -147zM331 690h-32q-42 0 -57.5 -15.5t-15.5 -56.5v-536q0 -41 15.5 -56.5t57.5 -15.5h32v-10h-305v10h34q42 0 57 15.5t15 56.5v536q0 41 -15 56.5
t-57 15.5h-34v10h305v-10z" />
    <glyph glyph-name="Iacute" unicode="&#xcd;" 
d="M183 786l-7 5q34 49 82 147q20 38 48 38q17 0 28 -11t11 -27q0 -24 -29 -45q-5 -4 -35 -24t-52.5 -39t-45.5 -44zM331 690h-32q-42 0 -57.5 -15.5t-15.5 -56.5v-536q0 -41 15.5 -56.5t57.5 -15.5h32v-10h-305v10h34q42 0 57 15.5t15 56.5v536q0 41 -15 56.5t-57 15.5h-34
v10h305v-10z" />
    <glyph glyph-name="Icircumflex" unicode="&#xce;" 
d="M354 795l-6 -8l-163 109l-161 -109l-6 8l162 165h10zM331 690h-32q-42 0 -57.5 -15.5t-15.5 -56.5v-536q0 -41 15.5 -56.5t57.5 -15.5h32v-10h-305v10h34q42 0 57 15.5t15 56.5v536q0 41 -15 56.5t-57 15.5h-34v10h305v-10z" />
    <glyph glyph-name="Idieresis" unicode="&#xcf;" 
d="M294 916q21 0 36 -14.5t15 -36.5t-15 -36.5t-36 -14.5q-22 0 -36.5 14.5t-14.5 36.5t14.5 36.5t36.5 14.5zM62 916q21 0 35.5 -15t14.5 -37t-14.5 -36t-35.5 -14q-22 0 -37 14t-15 36t15 37t37 15zM331 690h-32q-42 0 -57.5 -15.5t-15.5 -56.5v-536q0 -41 15.5 -56.5
t57.5 -15.5h32v-10h-305v10h34q42 0 57 15.5t15 56.5v536q0 41 -15 56.5t-57 15.5h-34v10h305v-10z" />
    <glyph glyph-name="Eth" unicode="&#xd0;" horiz-adv-x="769" 
d="M26 700h364q151 0 242 -94.5t91 -249.5q0 -161 -94.5 -258.5t-249.5 -97.5h-353v10h34q40 0 56 16t16 56v253h-93v10h93v273q0 41 -15 56.5t-57 15.5h-34v10zM246 10h124q118 0 186 92t68 254q0 156 -66.5 245t-180.5 89h-131q-11 0 -15.5 -4.5t-4.5 -15.5v-325h193v-10
h-193v-305q0 -11 4.5 -15.5t15.5 -4.5z" />
    <glyph glyph-name="Ntilde" unicode="&#xd1;" horiz-adv-x="731" 
d="M494 953l8 6q39 -42 39 -84q0 -31 -18.5 -48t-51.5 -17q-35 0 -101.5 33.5t-102.5 33.5q-44 0 -44 -48q0 -29 13 -49l-8 -6q-29 40 -29 77t22 60t57 23q34 0 100 -31.5t95 -31.5q16 0 26.5 9.5t10.5 24.5q0 24 -16 48zM724 690h-21q-49 0 -67 -31t-18 -113v-546h-79
l-411 607v-479q0 -65 34 -91.5t112 -26.5h51v-10h-318v10h21q52 0 71 25t19 93v490q0 41 -15.5 56.5t-56.5 15.5h-27v10h162l427 -632v478q0 82 -31 113t-114 31h-33v10h294v-10z" />
    <glyph glyph-name="Ograve" unicode="&#xd2;" horiz-adv-x="779" 
d="M395 791l-7 -5q-23 25 -45.5 44t-52.5 39t-35 24q-29 21 -29 45q0 16 11 27t28 11q28 0 48 -38q48 -98 82 -147zM401 711q145 0 238.5 -93.5t93.5 -249.5q0 -183 -99.5 -281t-251.5 -98q-148 0 -242 95.5t-94 256.5q0 162 97 266t258 104zM395 701q-110 0 -179 -96
t-69 -264q0 -154 67 -248t178 -94q105 0 172.5 97.5t67.5 274.5q0 151 -64.5 240.5t-172.5 89.5z" />
    <glyph glyph-name="Oacute" unicode="&#xd3;" horiz-adv-x="779" 
d="M394 786l-7 5q34 49 82 147q20 38 48 38q17 0 28 -11t11 -27q0 -24 -29 -45q-5 -4 -35 -24t-52.5 -39t-45.5 -44zM401 711q145 0 238.5 -93.5t93.5 -249.5q0 -183 -99.5 -281t-251.5 -98q-148 0 -242 95.5t-94 256.5q0 162 97 266t258 104zM395 701q-110 0 -179 -96
t-69 -264q0 -154 67 -248t178 -94q105 0 172.5 97.5t67.5 274.5q0 151 -64.5 240.5t-172.5 89.5z" />
    <glyph glyph-name="Ocircumflex" unicode="&#xd4;" horiz-adv-x="779" 
d="M565 795l-6 -8l-163 109l-160 -109l-7 8l162 165h10zM401 711q145 0 238.5 -93.5t93.5 -249.5q0 -183 -99.5 -281t-251.5 -98q-148 0 -242 95.5t-94 256.5q0 162 97 266t258 104zM395 701q-110 0 -179 -96t-69 -264q0 -154 67 -248t178 -94q105 0 172.5 97.5t67.5 274.5
q0 151 -64.5 240.5t-172.5 89.5z" />
    <glyph glyph-name="Otilde" unicode="&#xd5;" horiz-adv-x="779" 
d="M517 953l9 6q39 -42 39 -85q0 -30 -18.5 -47t-51.5 -17q-35 0 -101.5 33.5t-102.5 33.5q-44 0 -44 -48q0 -29 13 -49l-9 -6q-28 41 -28 77q0 37 22 60t57 23q34 0 99.5 -31.5t94.5 -31.5q17 0 27 9.5t10 24.5q0 24 -16 48zM401 711q145 0 238.5 -93.5t93.5 -249.5
q0 -183 -99.5 -281t-251.5 -98q-148 0 -242 95.5t-94 256.5q0 162 97 266t258 104zM395 701q-110 0 -179 -96t-69 -264q0 -154 67 -248t178 -94q105 0 172.5 97.5t67.5 274.5q0 151 -64.5 240.5t-172.5 89.5z" />
    <glyph glyph-name="Odieresis" unicode="&#xd6;" horiz-adv-x="779" 
d="M505 916q21 0 36 -14.5t15 -36.5t-15 -36.5t-36 -14.5q-22 0 -36.5 14.5t-14.5 36.5t14.5 36.5t36.5 14.5zM273 916q21 0 35.5 -15t14.5 -37t-14.5 -36t-35.5 -14q-22 0 -36.5 14t-14.5 36t14.5 37t36.5 15zM401 711q145 0 238.5 -93.5t93.5 -249.5q0 -183 -99.5 -281
t-251.5 -98q-148 0 -242 95.5t-94 256.5q0 162 97 266t258 104zM395 701q-110 0 -179 -96t-69 -264q0 -154 67 -248t178 -94q105 0 172.5 97.5t67.5 274.5q0 151 -64.5 240.5t-172.5 89.5z" />
    <glyph glyph-name="multiply" unicode="&#xd7;" horiz-adv-x="558" 
d="M508 563l-450 -450l-8 8l451 449z" />
    <glyph glyph-name="Oslash" unicode="&#xd8;" horiz-adv-x="783" 
d="M645 754l-56 -96q68 -44 106 -118.5t38 -171.5q0 -183 -99.5 -281t-251.5 -98q-90 0 -161 36l-56 -96h-10l58 100q-78 42 -122.5 122.5t-44.5 189.5q0 162 97 266t258 104q102 0 181 -48l53 91h10zM235 67l324 556q-64 78 -164 78q-110 0 -179 -96t-69 -264
q0 -178 88 -274zM564 616l-322 -555q60 -62 150 -62q105 0 172.5 97.5t67.5 274.5q0 153 -68 245z" />
    <glyph glyph-name="Ugrave" unicode="&#xd9;" horiz-adv-x="767" 
d="M400 791l-6 -5q-18 20 -38.5 37.5t-34 27t-33.5 23t-28 19.5q-28 21 -28 45q0 16 11 27t27 11q29 0 49 -38q48 -99 81 -147zM761 690h-22q-52 0 -70 -24.5t-18 -97.5v-341q0 -115 -63 -176.5t-181 -61.5q-283 0 -283 240v389q0 41 -15 56.5t-57 15.5h-38v10h317v-10h-41
q-41 0 -56.5 -15.5t-15.5 -56.5v-391q0 -224 210 -224q100 0 156.5 58.5t56.5 165.5v341q0 72 -23.5 97t-90.5 25h-32v10h266v-10z" />
    <glyph glyph-name="Uacute" unicode="&#xda;" horiz-adv-x="767" 
d="M400 786l-7 5q34 49 82 147q20 38 48 38q17 0 28 -11t11 -27q0 -24 -29 -45q-5 -4 -35 -24t-52.5 -39t-45.5 -44zM761 690h-22q-52 0 -70 -24.5t-18 -97.5v-341q0 -115 -63 -176.5t-181 -61.5q-283 0 -283 240v389q0 41 -15 56.5t-57 15.5h-38v10h317v-10h-41
q-41 0 -56.5 -15.5t-15.5 -56.5v-391q0 -224 210 -224q100 0 156.5 58.5t56.5 165.5v341q0 72 -23.5 97t-90.5 25h-32v10h266v-10z" />
    <glyph glyph-name="Ucircumflex" unicode="&#xdb;" horiz-adv-x="767" 
d="M571 795l-6 -8l-163 109l-161 -109l-6 8l162 165h10zM761 690h-22q-52 0 -70 -24.5t-18 -97.5v-341q0 -115 -63 -176.5t-181 -61.5q-283 0 -283 240v389q0 41 -15 56.5t-57 15.5h-38v10h317v-10h-41q-41 0 -56.5 -15.5t-15.5 -56.5v-391q0 -224 210 -224
q100 0 156.5 58.5t56.5 165.5v341q0 72 -23.5 97t-90.5 25h-32v10h266v-10z" />
    <glyph glyph-name="Udieresis" unicode="&#xdc;" horiz-adv-x="767" 
d="M511 916q21 0 36 -14.5t15 -36.5t-15 -36.5t-36 -14.5q-22 0 -36.5 14.5t-14.5 36.5t14.5 36.5t36.5 14.5zM279 916q21 0 35.5 -15t14.5 -37t-14.5 -36t-35.5 -14q-22 0 -37 14t-15 36t15 37t37 15zM761 690h-22q-52 0 -70 -24.5t-18 -97.5v-341q0 -115 -63 -176.5
t-181 -61.5q-283 0 -283 240v389q0 41 -15 56.5t-57 15.5h-38v10h317v-10h-41q-41 0 -56.5 -15.5t-15.5 -56.5v-391q0 -224 210 -224q100 0 156.5 58.5t56.5 165.5v341q0 72 -23.5 97t-90.5 25h-32v10h266v-10z" />
    <glyph glyph-name="Yacute" unicode="&#xdd;" horiz-adv-x="753" 
d="M382 786l-6 5q15 21 29 44.5t21.5 38.5l18 36t13.5 28q20 38 48 38q16 0 27.5 -11t11.5 -27q0 -23 -29 -45q-6 -4 -35 -24t-52.5 -39t-46.5 -44zM740 700v-10h-16q-38 0 -68.5 -27.5t-69.5 -97.5l-158 -286v-196q0 -42 17 -57.5t63 -15.5h43v-10h-343v10h41q49 0 67 15.5
t18 57.5v189l-195 361q-18 33 -40 45t-64 12h-22v10h310v-10h-41q-20 0 -31.5 -9.5t-11.5 -25.5q0 -12 10 -32l175 -326l146 264q25 45 25 72q0 57 -91 57h-27v10h263z" />
    <glyph glyph-name="Thorn" unicode="&#xde;" horiz-adv-x="669" 
d="M228 573h174q104 0 163 -50.5t59 -139.5q0 -92 -58.5 -143.5t-162.5 -51.5h-175v-89q0 -53 26 -71t104 -18v-10h-331v10q65 0 86.5 18t21.5 71v514q0 46 -22 61.5t-87 15.5v10h324v-10q-74 0 -98.5 -16t-23.5 -63v-38zM228 198h153q71 0 109.5 46.5t38.5 131.5
q0 89 -38 138t-109 49h-154v-365z" />
    <glyph glyph-name="germandbls" unicode="&#xdf;" horiz-adv-x="711" 
d="M121 73v464q0 104 61.5 164t169.5 60q64 0 103 -32t39 -85q0 -39 -18.5 -70.5t-40.5 -48.5t-40.5 -40t-18.5 -48q0 -36 29 -61.5t70 -42t82 -35.5t70 -53.5t29 -83.5q0 -78 -49 -125t-129 -47q-81 0 -161 48v127h10q7 -82 47 -123.5t104 -41.5q57 0 91.5 32t34.5 81
q0 38 -30.5 65t-73.5 43.5t-86 34t-73.5 49t-30.5 76.5q0 37 18 66t43.5 48l51 38t43.5 47t18 65q0 49 -36.5 78t-95.5 29q-64 0 -102.5 -47.5t-38.5 -124.5v-579h-197v10q71 0 89 12.5t18 50.5z" />
    <glyph glyph-name="agrave" unicode="&#xe0;" horiz-adv-x="598" 
d="M287 591l-6 -5q-23 25 -46.5 44t-52.5 39t-35 24q-29 21 -29 45q0 16 11 27t28 11q28 0 48 -38q48 -98 82 -147zM584 76v-17q0 -32 -23.5 -51t-62.5 -19q-43 0 -72.5 20.5t-36.5 60.5q-70 -79 -170 -81q-79 -1 -122.5 30.5t-43.5 89.5t44.5 93.5t120.5 35.5h169v108
q0 151 -139 151q-65 0 -113 -37.5t-48 -94.5q13 38 54 38q25 0 40.5 -15.5t15.5 -40.5t-16 -40.5t-42 -15.5q-28 0 -45 19.5t-17 52.5q0 66 55.5 106t145.5 42q103 1 153 -48t50 -141v-259q0 -55 42 -55q22 0 36.5 14.5t14.5 37.5v16h10zM387 228h-138q-48 0 -76.5 -31
t-28.5 -80q0 -51 26.5 -79t75.5 -28q82 0 141 75v143z" />
    <glyph glyph-name="aacute" unicode="&#xe1;" horiz-adv-x="598" 
d="M286 586l-6 5q15 21 29 44.5t21.5 38.5l18 36t13.5 28q20 38 48 38q16 0 27.5 -11t11.5 -27q0 -23 -29 -45q-6 -4 -35 -24t-52.5 -39t-46.5 -44zM584 76v-17q0 -32 -23.5 -51t-62.5 -19q-43 0 -72.5 20.5t-36.5 60.5q-70 -79 -170 -81q-79 -1 -122.5 30.5t-43.5 89.5
t44.5 93.5t120.5 35.5h169v108q0 151 -139 151q-65 0 -113 -37.5t-48 -94.5q13 38 54 38q25 0 40.5 -15.5t15.5 -40.5t-16 -40.5t-42 -15.5q-28 0 -45 19.5t-17 52.5q0 66 55.5 106t145.5 42q103 1 153 -48t50 -141v-259q0 -55 42 -55q22 0 36.5 14.5t14.5 37.5v16h10z
M387 228h-138q-48 0 -76.5 -31t-28.5 -80q0 -51 26.5 -79t75.5 -28q82 0 141 75v143z" />
    <glyph glyph-name="acircumflex" unicode="&#xe2;" horiz-adv-x="598" 
d="M128 587l-7 8l162 165h11l164 -165l-7 -8l-163 109zM584 76v-17q0 -32 -23.5 -51t-62.5 -19q-43 0 -72.5 20.5t-36.5 60.5q-70 -79 -170 -81q-79 -1 -122.5 30.5t-43.5 89.5t44.5 93.5t120.5 35.5h169v108q0 151 -139 151q-65 0 -113 -37.5t-48 -94.5q13 38 54 38
q25 0 40.5 -15.5t15.5 -40.5t-16 -40.5t-42 -15.5q-28 0 -45 19.5t-17 52.5q0 66 55.5 106t145.5 42q103 1 153 -48t50 -141v-259q0 -55 42 -55q22 0 36.5 14.5t14.5 37.5v16h10zM387 228h-138q-48 0 -76.5 -31t-28.5 -80q0 -51 26.5 -79t75.5 -28q82 0 141 75v143z" />
    <glyph glyph-name="atilde" unicode="&#xe3;" horiz-adv-x="598" 
d="M152 580l-8 -6q-29 40 -29 77t22 60t58 23q33 0 99 -31.5t95 -31.5q16 0 26.5 9.5t10.5 24.5q0 24 -16 48l8 6q39 -42 39 -85q0 -30 -18.5 -47t-51.5 -17q-35 0 -101.5 33.5t-102.5 33.5q-44 0 -44 -48q0 -26 13 -49zM584 76v-17q0 -32 -23.5 -51t-61.5 -19
q-43 0 -73 20.5t-37 60.5q-70 -79 -170 -81q-79 -1 -122.5 30.5t-43.5 89.5t44.5 93.5t120.5 35.5h169v108q0 151 -139 151q-65 0 -113 -37.5t-48 -94.5q13 38 54 38q25 0 40.5 -15.5t15.5 -40.5q0 -26 -16 -41.5t-42 -15.5q-28 0 -45 20t-17 53q0 66 55.5 106t145.5 42
q103 1 153 -48t50 -141v-259q0 -55 42 -55q22 0 36.5 14.5t14.5 37.5v16h10zM387 228h-138q-48 0 -76.5 -31t-28.5 -80q0 -51 26.5 -79t75.5 -28q82 0 141 75v143z" />
    <glyph glyph-name="adieresis" unicode="&#xe4;" horiz-adv-x="598" 
d="M397 614q-21 0 -35.5 14.5t-14.5 36.5t14.5 36.5t35.5 14.5t36 -14.5t15 -36.5t-15 -36.5t-36 -14.5zM165 614q-21 0 -36 14.5t-15 35.5q0 22 15 37t36 15t36 -15t15 -37q0 -21 -15 -35.5t-36 -14.5zM584 76v-17q0 -32 -23.5 -51t-62.5 -19q-43 0 -72.5 20.5t-36.5 60.5
q-70 -79 -170 -81q-79 -1 -122.5 30.5t-43.5 89.5t44.5 93.5t120.5 35.5h169v108q0 151 -139 151q-65 0 -113 -37.5t-48 -94.5q13 38 54 38q25 0 40.5 -15.5t15.5 -40.5t-16 -40.5t-42 -15.5q-28 0 -45 19.5t-17 52.5q0 66 55.5 106t145.5 42q103 1 153 -48t50 -141v-259
q0 -55 42 -55q22 0 36.5 14.5t14.5 37.5v16h10zM387 228h-138q-48 0 -76.5 -31t-28.5 -80q0 -51 26.5 -79t75.5 -28q82 0 141 75v143z" />
    <glyph glyph-name="aring" unicode="&#xe5;" horiz-adv-x="598" 
d="M282 565q-43 0 -71.5 28.5t-28.5 71.5t28.5 71.5t71.5 28.5t71.5 -28.5t28.5 -71.5t-28.5 -71.5t-71.5 -28.5zM282 755q-38 0 -63.5 -26t-25.5 -64t25.5 -64t63.5 -26t63.5 26t25.5 64t-25.5 64t-63.5 26zM584 76v-17q0 -32 -23.5 -51t-62.5 -19q-43 0 -72.5 20.5
t-36.5 60.5q-70 -79 -170 -81q-79 -1 -123 30.5t-44 89.5t44.5 93.5t121.5 35.5h169v108q0 151 -139 151q-65 0 -113 -37.5t-48 -94.5q13 38 54 38q25 0 40.5 -15.5t15.5 -40.5t-16 -40.5t-42 -15.5q-28 0 -45 19.5t-17 52.5q0 66 55.5 106t145.5 42q103 1 153 -48t50 -141
v-259q0 -55 42 -55q22 0 36.5 14.5t14.5 37.5v16h10zM387 228h-138q-48 0 -76.5 -31t-28.5 -80q0 -51 26.5 -79t75.5 -28q82 0 141 75v143z" />
    <glyph glyph-name="ae" unicode="&#xe6;" horiz-adv-x="907" 
d="M395 231l-2 113q-2 72 -42 112.5t-112 40.5q-66 0 -114 -37.5t-48 -94.5q15 38 56 38q25 0 40 -15.5t15 -40.5q0 -26 -16 -41.5t-42 -15.5q-28 0 -45.5 20t-17.5 53q0 65 56 105.5t140 42.5q78 2 130.5 -26.5t68.5 -80.5q30 50 80.5 78.5t110.5 28.5q98 0 154.5 -58.5
t56.5 -156.5l-5 -7h-370v-11q0 -272 183 -272q101 0 195 84l8 -10q-105 -91 -223 -91q-107 0 -174.5 60t-71.5 168v-30q0 -93 -52 -145t-135 -53q-78 -1 -122.5 31t-44.5 89t44.5 89.5t121.5 32.5h177zM489 301h262q26 0 26 29q0 75 -35 122.5t-92 47.5q-74 0 -117.5 -55.5
t-43.5 -143.5zM395 221h-150q-49 0 -77 -27.5t-28 -76.5q0 -51 26.5 -78.5t75.5 -27.5q69 0 111 47t42 125v38z" />
    <glyph glyph-name="ccedilla" unicode="&#xe7;" horiz-adv-x="558" 
d="M306 -11l-50 -91q29 29 80 29q44 0 71 -21t27 -56q0 -42 -36 -67.5t-89 -25.5q-52 0 -97 28l5 8q37 -23 79 -23q34 0 56.5 21.5t22.5 53.5q0 29 -16 46.5t-42 17.5q-41 0 -78 -36l-5 4l62 112q-117 2 -184 69t-67 184q0 116 74.5 192.5t200.5 76.5q89 0 142.5 -44
t53.5 -113q0 -32 -16 -50t-43 -18q-26 0 -42 15.5t-16 40.5q0 24 15.5 40t40.5 16q19 0 33 -11.5t18 -32.5q0 62 -48.5 103t-123.5 41q-89 0 -141.5 -71.5t-52.5 -183.5q0 -111 47.5 -176t133.5 -65q102 0 200 85l7 -9q-102 -88 -222 -89z" />
    <glyph glyph-name="egrave" unicode="&#xe8;" horiz-adv-x="549" 
d="M291 591l-6 -5q-23 25 -46.5 44t-52.5 39t-35 24q-29 21 -29 45q0 16 11 27t28 11q28 0 48 -38q48 -98 82 -147zM510 87l6 -7q-104 -91 -222 -91q-115 0 -182 67t-67 188q0 117 69.5 192t180.5 75q98 0 154.5 -58.5t56.5 -157.5l-5 -5h-360q-2 -18 -2 -29
q0 -259 174 -259q100 0 197 85zM141 300h252q25 0 25 32q0 75 -35 122t-92 47q-59 0 -100.5 -56.5t-49.5 -144.5z" />
    <glyph glyph-name="eacute" unicode="&#xe9;" horiz-adv-x="549" 
d="M290 586l-6 5q15 21 29 44.5t21.5 38.5l18 36t13.5 28q20 38 48 38q16 0 27.5 -11t11.5 -27q0 -23 -29 -45q-6 -4 -35 -24t-52.5 -39t-46.5 -44zM510 87l6 -7q-104 -91 -222 -91q-115 0 -182 67t-67 188q0 117 69.5 192t180.5 75q98 0 154.5 -58.5t56.5 -157.5l-5 -5
h-360q-2 -18 -2 -29q0 -259 174 -259q100 0 197 85zM141 300h252q25 0 25 32q0 75 -35 122t-92 47q-59 0 -100.5 -56.5t-49.5 -144.5z" />
    <glyph glyph-name="ecircumflex" unicode="&#xea;" horiz-adv-x="549" 
d="M132 587l-7 8l162 165h11l164 -165l-7 -8l-163 109zM510 87l6 -7q-104 -91 -222 -91q-115 0 -182 67t-67 188q0 117 69.5 192t180.5 75q98 0 154.5 -58.5t56.5 -157.5l-5 -5h-360q-2 -18 -2 -29q0 -259 174 -259q100 0 197 85zM141 300h252q25 0 25 32q0 75 -35 122
t-92 47q-59 0 -100.5 -56.5t-49.5 -144.5z" />
    <glyph glyph-name="edieresis" unicode="&#xeb;" horiz-adv-x="549" 
d="M401 614q-21 0 -35.5 14.5t-14.5 36.5t14.5 36.5t35.5 14.5t36 -14.5t15 -36.5t-15 -36.5t-36 -14.5zM169 614q-21 0 -36 14.5t-15 35.5q0 22 15 37t36 15t36 -15t15 -37q0 -21 -15 -35.5t-36 -14.5zM510 87l6 -7q-104 -91 -222 -91q-115 0 -182 67t-67 188
q0 117 69.5 192t180.5 75q98 0 154.5 -58.5t56.5 -157.5l-5 -5h-360q-2 -18 -2 -29q0 -259 174 -259q100 0 197 85zM141 300h252q25 0 25 32q0 75 -35 122t-92 47q-59 0 -100.5 -56.5t-49.5 -144.5z" />
    <glyph glyph-name="igrave" unicode="&#xec;" horiz-adv-x="324" 
d="M162 591l-6 -5q-23 25 -46.5 44t-52.5 39t-35 24q-29 21 -29 45q0 16 11 27t28 11q28 0 48 -38q48 -98 82 -147zM206 500v-418q0 -41 15.5 -56.5t57.5 -15.5h29v-10h-294v10h30q41 0 56.5 15.5t15.5 56.5v347q0 35 -13.5 48t-49.5 13h-36v10l184 6z" />
    <glyph glyph-name="iacute" unicode="&#xed;" horiz-adv-x="324" 
d="M161 586l-6 5q15 21 29 44.5t21.5 38.5l18 36t13.5 28q20 38 48 38q16 0 27.5 -11t11.5 -27q0 -23 -29 -45q-6 -4 -35 -24t-52.5 -39t-46.5 -44zM206 500v-418q0 -41 15.5 -56.5t57.5 -15.5h29v-10h-294v10h30q41 0 56.5 15.5t15.5 56.5v347q0 35 -13.5 48t-49.5 13h-36
v10l184 6z" />
    <glyph glyph-name="icircumflex" unicode="&#xee;" horiz-adv-x="324" 
d="M333 595l-7 -8l-163 109l-160 -109l-7 8l162 165h11zM206 500v-418q0 -41 15.5 -56.5t57.5 -15.5h29v-10h-294v10h30q41 0 56.5 15.5t15.5 56.5v347q0 35 -13.5 48t-49.5 13h-36v10l184 6z" />
    <glyph glyph-name="idieresis" unicode="&#xef;" horiz-adv-x="324" 
d="M272 716q21 0 36 -14.5t15 -36.5t-15 -36.5t-36 -14.5t-35.5 14.5t-14.5 36.5t14.5 36.5t35.5 14.5zM40 716q21 0 36 -15t15 -37q0 -21 -15 -35.5t-36 -14.5t-36 14.5t-15 35.5q0 22 15 37t36 15zM206 500v-418q0 -41 15.5 -56.5t57.5 -15.5h29v-10h-294v10h30
q41 0 56.5 15.5t15.5 56.5v347q0 35 -13.5 48t-49.5 13h-36v10l184 6z" />
    <glyph glyph-name="eth" unicode="&#xf0;" horiz-adv-x="639" 
d="M414 822l-70 -111q108 -20 174.5 -111.5t66.5 -227.5q0 -172 -80.5 -277t-213.5 -105q-112 0 -178 60.5t-66 160.5q0 97 71 167.5t192 70.5q105 0 180 -67q0 31 -3 64q-5 98 -45.5 165t-106.5 86l-95 -151l-14 10l92 145q-16 3 -34 3q-101 0 -179 -44l-6 11q79 44 193 44
q12 0 34 -2l74 118zM291 0q92 0 146 96.5t53 273.5q-68 66 -161 66q-89 0 -139.5 -71.5t-50.5 -168.5q0 -91 40.5 -143.5t111.5 -52.5z" />
    <glyph glyph-name="ntilde" unicode="&#xf1;" horiz-adv-x="658" 
d="M458 753l8 6q39 -42 39 -85q0 -30 -18.5 -47t-51.5 -17q-35 0 -101.5 33.5t-102.5 33.5q-44 0 -44 -48q0 -29 13 -49l-8 -6q-29 40 -29 77t22 60t57 23q34 0 100 -31.5t95 -31.5q16 0 26.5 9.5t10.5 24.5q0 24 -16 48zM207 398h2q16 45 63.5 79t107.5 34q84 0 128.5 -42
t44.5 -118v-269q0 -41 15.5 -56.5t56.5 -15.5h24v-10h-278v10h22q40 0 55 15.5t15 56.5v285q0 122 -108 122q-57 0 -101.5 -43t-44.5 -94v-270q0 -41 14.5 -56.5t54.5 -15.5h23v-10h-287v10h32q42 0 57.5 15.5t15.5 56.5v347q0 35 -14 48t-50 13h-41v10l192 5l5 -5z" />
    <glyph glyph-name="ograve" unicode="&#xf2;" horiz-adv-x="602" 
d="M306 591l-6 -5q-18 20 -38.5 37.5t-34 27t-33.5 23t-28 19.5q-28 21 -28 45q0 16 11 27t27 11q29 0 49 -38q48 -99 81 -147zM306 511q109 0 179.5 -62.5t71.5 -181.5q2 -116 -70.5 -197t-187.5 -81q-116 0 -185 69t-69 185q0 114 72 191t189 77zM302 501
q-70 0 -115 -71.5t-45 -186.5t43 -180.5t116 -63.5q78 1 120 72.5t40 195.5q-2 116 -45.5 175t-113.5 59z" />
    <glyph glyph-name="oacute" unicode="&#xf3;" horiz-adv-x="602" 
d="M306 586l-7 5q34 49 82 147q20 38 48 38q17 0 28 -11t11 -27q0 -24 -29 -45q-5 -4 -35 -24t-52.5 -39t-45.5 -44zM306 511q109 0 179.5 -62.5t71.5 -181.5q2 -116 -70.5 -197t-187.5 -81q-116 0 -185 69t-69 185q0 114 72 191t189 77zM302 501q-70 0 -115 -71.5
t-45 -186.5t43 -180.5t116 -63.5q78 1 120 72.5t40 195.5q-2 116 -45.5 175t-113.5 59z" />
    <glyph glyph-name="ocircumflex" unicode="&#xf4;" horiz-adv-x="602" 
d="M477 595l-6 -8l-163 109l-161 -109l-6 8l162 165h10zM306 511q109 0 179.5 -62.5t71.5 -181.5q2 -116 -70.5 -197t-187.5 -81q-116 0 -185 69t-69 185q0 114 72 191t189 77zM302 501q-70 0 -115 -71.5t-45 -186.5t43 -180.5t116 -63.5q78 1 120 72.5t40 195.5
q-2 116 -45.5 175t-113.5 59z" />
    <glyph glyph-name="otilde" unicode="&#xf5;" horiz-adv-x="602" 
d="M429 753l9 6q39 -42 39 -85q0 -30 -18.5 -47t-51.5 -17q-35 0 -102 33.5t-102 33.5q-45 0 -45 -48q0 -27 14 -49l-9 -6q-28 39 -28 77q0 37 22 60t57 23q33 0 99 -31.5t95 -31.5q17 0 27 9.5t10 24.5q0 24 -16 48zM306 511q109 0 179.5 -62.5t71.5 -181.5
q2 -116 -70.5 -197t-187.5 -81q-116 0 -185 69t-69 185q0 114 72 191t189 77zM302 501q-70 0 -115 -71.5t-45 -186.5t43 -180.5t116 -63.5q78 1 120 72.5t40 195.5q-2 116 -45.5 175t-113.5 59z" />
    <glyph glyph-name="odieresis" unicode="&#xf6;" horiz-adv-x="602" 
d="M417 716q21 0 36 -14.5t15 -36.5t-15 -36.5t-36 -14.5q-22 0 -36.5 14.5t-14.5 36.5t14.5 36.5t36.5 14.5zM185 716q21 0 35.5 -15t14.5 -37t-14.5 -36t-35.5 -14q-22 0 -37 14t-15 36t15 37t37 15zM306 511q109 0 179.5 -62.5t71.5 -181.5q2 -116 -70.5 -197t-187.5 -81
q-116 0 -185 69t-69 185q0 114 72 191t189 77zM302 501q-70 0 -115 -71.5t-45 -186.5t43 -180.5t116 -63.5q78 1 120 72.5t40 195.5q-2 116 -45.5 175t-113.5 59z" />
    <glyph glyph-name="divide" unicode="&#xf7;" horiz-adv-x="551" 
d="M278 605q22 0 37.5 -15.5t15.5 -37.5q0 -23 -15.5 -38.5t-37.5 -15.5q-23 0 -39 15.5t-16 38.5q0 22 16 37.5t39 15.5zM524 344h-497v10h497v-10zM278 206q22 0 37.5 -15t15.5 -38t-15.5 -39t-37.5 -16q-23 0 -39 16t-16 39q0 22 16 37.5t39 15.5z" />
    <glyph glyph-name="oslash" unicode="&#xf8;" horiz-adv-x="602" 
d="M438 621l-41 -123q73 -23 116 -81.5t44 -149.5q2 -116 -70.5 -197t-187.5 -81q-39 0 -68 7l-41 -124h-10l41 126q-82 21 -129 86t-47 159q0 114 72 191t189 77q41 0 82 -11l40 121h10zM228 19l152 459q-35 23 -78 23q-70 0 -115 -71.5t-45 -186.5q0 -168 86 -224z
M388 472l-151 -458q31 -16 64 -15q78 1 120 72.5t40 195.5q-3 146 -73 205z" />
    <glyph glyph-name="ugrave" unicode="&#xf9;" horiz-adv-x="655" 
d="M314 591l-7 -5q-23 25 -45.5 44t-52.5 39t-35 24q-29 21 -29 45q0 16 11 27t28 11q28 0 48 -38q48 -98 82 -147zM540 495v-424q0 -35 13.5 -48t49.5 -13h42v-10l-188 -5l-5 5v102h-2q-16 -46 -63.5 -79.5t-107.5 -33.5q-84 0 -129 42t-45 118v269q0 41 -15 56.5t-56 15.5
h-24v10h181l5 -5v-362q0 -122 108 -122q57 0 101.5 43t44.5 94v270q0 41 -15 56.5t-55 15.5h-22v10h177z" />
    <glyph glyph-name="uacute" unicode="&#xfa;" horiz-adv-x="655" 
d="M313 586l-7 5q34 49 82 147q20 38 48 38q17 0 28 -11t11 -27q0 -24 -29 -45q-5 -4 -35 -24t-52.5 -39t-45.5 -44zM540 495v-424q0 -35 13.5 -48t49.5 -13h42v-10l-188 -5l-5 5v102h-2q-16 -45 -63.5 -79t-107.5 -34q-84 0 -129 42t-45 118v269q0 41 -15 56.5t-56 15.5
h-24v10h181l5 -5v-362q0 -122 108 -122q57 0 101.5 43t44.5 94v270q0 41 -15 56.5t-55 15.5h-22v10h177z" />
    <glyph glyph-name="ucircumflex" unicode="&#xfb;" horiz-adv-x="655" 
d="M484 595l-6 -8l-163 109l-160 -109l-7 8l162 165h10zM540 495v-424q0 -35 13.5 -48t49.5 -13h42v-10l-188 -5l-5 5v102h-2q-16 -46 -63.5 -79.5t-107.5 -33.5q-84 0 -129 42t-45 118v269q0 41 -15 56.5t-56 15.5h-24v10h181l5 -5v-362q0 -122 108 -122q57 0 101.5 43
t44.5 94v270q0 41 -15 56.5t-55 15.5h-22v10h177z" />
    <glyph glyph-name="udieresis" unicode="&#xfc;" horiz-adv-x="655" 
d="M424 716q21 0 36 -14.5t15 -36.5t-15 -36.5t-36 -14.5q-22 0 -36.5 14.5t-14.5 36.5t14.5 36.5t36.5 14.5zM192 716q21 0 35.5 -15t14.5 -37t-14.5 -36t-35.5 -14q-22 0 -36.5 14t-14.5 36t14.5 37t36.5 15zM540 495v-424q0 -35 13.5 -48t49.5 -13h42v-10l-188 -5l-5 5
v102h-2q-16 -46 -63.5 -79.5t-107.5 -33.5q-84 0 -129 42t-45 118v269q0 41 -15 56.5t-56 15.5h-24v10h181l5 -5v-362q0 -122 108 -122q57 0 101.5 43t44.5 94v270q0 41 -15 56.5t-55 15.5h-22v10h177z" />
    <glyph glyph-name="yacute" unicode="&#xfd;" horiz-adv-x="625" 
d="M335 587l-6 5q31 44 82 146q20 39 48 39q17 0 28 -11t11 -27q0 -24 -29 -45q-6 -4 -35 -24t-52.5 -39t-46.5 -44zM616 490h-26q-30 0 -51.5 -19t-43.5 -69l-205 -486q-37 -88 -75.5 -132t-89.5 -44t-83.5 28.5t-32.5 75.5q0 28 17 47.5t42 19.5q26 0 43 -15.5t17 -40.5
q0 -24 -15.5 -40t-40.5 -16q-20 0 -35.5 13t-17.5 32q-1 -43 29 -68.5t77 -25.5q46 0 82.5 43t72.5 127l33 77l-180 419q-19 45 -36 59.5t-52 14.5h-18v10h273v-10h-38q-42 0 -42 -33q0 -12 12 -41l127 -309l125 297q10 21 10 37q0 23 -19.5 36t-52.5 13h-37v10h231v-10z
" />
    <glyph glyph-name="thorn" unicode="&#xfe;" horiz-adv-x="640" 
d="M204 398h2q16 46 61.5 79.5t104.5 33.5q100 0 161 -63.5t62 -181.5q2 -121 -75.5 -198.5t-199.5 -77.5q-55 0 -114 19v-177q0 -41 15.5 -56.5t57.5 -15.5h30v-10h-295v10h29q42 0 57 15.5t15 56.5v824q0 41 -16 56.5t-57 15.5h-28v10l185 12l5 -5v-347zM206 352v-333
q57 -19 114 -19q81 0 130.5 72.5t48.5 194.5q-2 107 -44 164.5t-108 57.5q-57 0 -99 -42.5t-42 -94.5z" />
    <glyph glyph-name="ydieresis" unicode="&#xff;" horiz-adv-x="625" 
d="M446 615q-21 0 -35.5 14.5t-14.5 36.5t14.5 36.5t35.5 14.5q22 0 37 -14.5t15 -36.5t-15 -36.5t-37 -14.5zM214 614q-21 0 -36 14.5t-15 36.5t15 37t36 15q22 0 36.5 -15t14.5 -37t-14.5 -36.5t-36.5 -14.5zM616 490h-26q-30 0 -51.5 -19t-43.5 -69l-205 -487
q-37 -87 -75.5 -131t-89.5 -44t-83.5 28.5t-32.5 75.5q0 28 17 47.5t42 19.5q26 0 43 -15.5t17 -40.5q0 -24 -15.5 -40t-40.5 -16q-20 0 -35.5 13t-17.5 32q-1 -43 29 -68.5t77 -25.5q46 0 82.5 43t72.5 127l33 77l-180 419q-19 45 -36 59.5t-52 14.5h-18v10h273v-10h-38
q-42 0 -42 -33q0 -12 12 -41l127 -309l125 297q10 21 10 37q0 23 -19.5 36t-52.5 13h-37v10h231v-10z" />
    <glyph glyph-name="Amacron" unicode="&#x100;" horiz-adv-x="749" 
d="M546 831h-314v10h314v-10zM735 10v-10h-308v10h29q70 0 70 49q0 18 -12 52l-41 116h-277l-47 -115q-15 -37 -15 -57q0 -45 65 -45h52v-10h-237v10h28q31 0 52 23.5t45 80.5l244 586h16l217 -599q19 -52 36 -71.5t54 -19.5h29zM470 237l-124 352l-145 -352h269z" />
    <glyph glyph-name="amacron" unicode="&#x101;" horiz-adv-x="598" 
d="M435 618h-314v10h314v-10zM584 76v-17q0 -32 -23.5 -51t-62.5 -19q-43 0 -72.5 20.5t-36.5 60.5q-70 -79 -170 -81q-79 -1 -122.5 30.5t-43.5 89.5t44.5 93.5t120.5 35.5h169v108q0 151 -139 151q-65 0 -113 -37.5t-48 -94.5q13 38 54 38q25 0 40.5 -15.5t15.5 -40.5
t-16 -40.5t-42 -15.5q-28 0 -45 19.5t-17 52.5q0 66 55.5 106t145.5 42q103 1 153 -48t50 -141v-259q0 -55 42 -55q22 0 36.5 14.5t14.5 37.5v16h10zM387 228h-138q-48 0 -76.5 -31t-28.5 -80q0 -51 26.5 -79t75.5 -28q82 0 141 75v143z" />
    <glyph glyph-name="Abreve" unicode="&#x102;" horiz-adv-x="749" 
d="M540 979h9q-1 -82 -44 -126.5t-113 -44.5q-67 0 -110 45t-43 126h9q8 -53 46 -83t98 -30q61 0 100.5 30t47.5 83zM735 10v-10h-308v10h29q70 0 70 49q0 18 -12 52l-41 116h-277l-47 -115q-15 -37 -15 -57q0 -45 65 -45h52v-10h-237v10h28q31 0 52 23.5t45 80.5l244 586
h16l217 -599q19 -52 36 -71.5t54 -19.5h29zM470 237l-124 352l-145 -352h269z" />
    <glyph glyph-name="abreve" unicode="&#x103;" horiz-adv-x="598" 
d="M429 767h9q-1 -82 -44 -127t-113 -45q-67 0 -110 45t-43 127h10q7 -54 45.5 -84t97.5 -30q62 0 101 30t47 84zM584 76v-17q0 -32 -23.5 -51t-62.5 -19q-43 0 -72.5 20.5t-36.5 60.5q-70 -79 -170 -81q-79 -1 -122.5 30.5t-43.5 89.5t44.5 93.5t120.5 35.5h169v108
q0 151 -139 151q-65 0 -113 -37.5t-48 -94.5q13 38 54 38q25 0 40.5 -15.5t15.5 -40.5t-16 -40.5t-42 -15.5q-28 0 -45 19.5t-17 52.5q0 66 55.5 106t145.5 42q103 1 153 -48t50 -141v-259q0 -55 42 -55q22 0 36.5 14.5t14.5 37.5v16h10zM387 228h-138q-48 0 -76.5 -31
t-28.5 -80q0 -51 26.5 -79t75.5 -28q82 0 141 75v143z" />
    <glyph glyph-name="Aogonek" unicode="&#x104;" horiz-adv-x="749" 
d="M755 -191l4 -4q-41 -51 -104 -51q-40 0 -65 25t-25 66q0 55 43.5 94.5t115.5 60.5h-297v10h29q70 0 70 49q0 18 -12 52l-41 116h-277l-47 -115q-15 -37 -15 -57q0 -45 65 -45h52v-10h-237v10h28q31 0 52 23.5t45 80.5l244 586h16l217 -599q19 -52 36 -71.5t54 -19.5h29
v-10q-51 -14 -82.5 -51.5t-31.5 -81.5q0 -38 19 -59t53 -21q30 0 62 22zM470 237l-124 352l-145 -352h269z" />
    <glyph glyph-name="aogonek" unicode="&#x105;" horiz-adv-x="598" 
d="M584 76v-17q0 -47 -49 -65q-1 0 -3 -0.5t-3 -0.5q-48 -16 -78 -52.5t-30 -79.5q0 -37 19 -58t53 -21q32 0 62 22l4 -5q-42 -50 -104 -50q-40 0 -65 24.5t-25 66.5q0 51 38.5 89.5t103.5 59.5h-9q-43 0 -72.5 20.5t-36.5 60.5q-70 -79 -170 -81q-79 -1 -122.5 30.5
t-43.5 89.5t44.5 93.5t120.5 35.5h169v108q0 151 -139 151q-65 0 -113 -37.5t-48 -94.5q13 38 54 38q25 0 40.5 -15.5t15.5 -40.5t-16 -40.5t-42 -15.5q-28 0 -45 19.5t-17 52.5q0 66 55.5 106t145.5 42q103 1 153 -48t50 -141v-259q0 -55 42 -55q22 0 36.5 14.5t14.5 37.5
v16h10zM387 228h-138q-48 0 -76.5 -31t-28.5 -80q0 -51 26.5 -79t75.5 -28q82 0 141 75v143z" />
    <glyph glyph-name="Cacute" unicode="&#x106;" horiz-adv-x="732" 
d="M391 789l-6 5q15 21 29 44.5t21.5 38.5l18 36t13.5 28q20 38 48 38q16 0 27.5 -11t11.5 -27q0 -24 -29 -45q-6 -4 -35 -24t-52.5 -39t-46.5 -44zM670 404h-10q-8 155 -70.5 224.5t-190.5 70.5q-109 0 -180.5 -100.5t-71.5 -256.5q0 -162 68.5 -250.5t194.5 -88.5
q165 0 274 156l9 -6q-58 -83 -131.5 -123.5t-174.5 -40.5q-163 0 -252 91t-89 258q0 164 96.5 268.5t244.5 104.5q73 0 140.5 -24t88.5 -24q43 0 44 54h10v-313z" />
    <glyph glyph-name="cacute" unicode="&#x107;" horiz-adv-x="558" 
d="M297 586l-6 5q33 48 81 147q20 38 49 38q16 0 27 -11t11 -27q0 -24 -28 -45q-8 -6 -28 -19.5t-33.5 -23t-34 -27t-38.5 -37.5zM521 87l7 -9q-105 -89 -225 -89t-189 67t-69 186q0 116 74.5 192.5t200.5 76.5q89 0 142.5 -44t53.5 -113q0 -31 -16 -49.5t-43 -18.5
q-26 0 -42 15.5t-16 40.5q0 24 15.5 40t40.5 16q19 0 33 -11.5t18 -32.5q0 62 -48.5 103t-123.5 41q-89 0 -141.5 -71.5t-52.5 -183.5q0 -111 47.5 -176t133.5 -65q102 0 200 85z" />
    <glyph glyph-name="Ccircumflex" unicode="&#x108;" horiz-adv-x="732" 
d="M563 798l-7 -8l-163 109l-160 -109l-6 8l162 165h10zM670 404h-10q-8 155 -70.5 224.5t-190.5 70.5q-109 0 -180.5 -100.5t-71.5 -256.5q0 -162 68.5 -250.5t194.5 -88.5q165 0 274 156l9 -6q-58 -83 -131.5 -123.5t-174.5 -40.5q-163 0 -252 91t-89 258
q0 164 96.5 268.5t244.5 104.5q73 0 140.5 -24t88.5 -24q43 0 44 54h10v-313z" />
    <glyph glyph-name="ccircumflex" unicode="&#x109;" horiz-adv-x="558" 
d="M469 595l-7 -8l-163 109l-160 -109l-7 8l162 165h10zM521 87l7 -9q-105 -89 -225 -89t-189 67t-69 186q0 116 74.5 192.5t200.5 76.5q89 0 142.5 -44t53.5 -113q0 -31 -16 -49.5t-43 -18.5q-26 0 -42 15.5t-16 40.5q0 24 15.5 40t40.5 16q19 0 33 -11.5t18 -32.5
q0 62 -48.5 103t-123.5 41q-89 0 -141.5 -71.5t-52.5 -183.5q0 -111 47.5 -176t133.5 -65q102 0 200 85z" />
    <glyph glyph-name="Cdotaccent" unicode="&#x10a;" horiz-adv-x="732" 
d="M384 922q22 0 36.5 -15t14.5 -37t-14.5 -36.5t-36.5 -14.5t-36.5 14.5t-14.5 36.5t14.5 37t36.5 15zM670 404h-10q-8 155 -70.5 224.5t-190.5 70.5q-109 0 -180.5 -100.5t-71.5 -256.5q0 -162 68.5 -250.5t194.5 -88.5q165 0 274 156l9 -6q-58 -83 -131.5 -123.5
t-174.5 -40.5q-163 0 -252 91t-89 258q0 164 96.5 268.5t244.5 104.5q73 0 140.5 -24t88.5 -24q43 0 44 54h10v-313z" />
    <glyph glyph-name="cdotaccent" unicode="&#x10b;" horiz-adv-x="558" 
d="M290 719q22 0 36.5 -15t14.5 -37t-14.5 -36.5t-36.5 -14.5t-37 14.5t-15 36.5t15 37t37 15zM521 87l7 -9q-105 -89 -225 -89t-189 67t-69 186q0 116 74.5 192.5t200.5 76.5q89 0 142.5 -44t53.5 -113q0 -31 -16 -49.5t-43 -18.5q-26 0 -42 15.5t-16 40.5q0 24 15.5 40
t40.5 16q19 0 33 -11.5t18 -32.5q0 62 -48.5 103t-123.5 41q-89 0 -141.5 -71.5t-52.5 -183.5q0 -111 47.5 -176t133.5 -65q102 0 200 85z" />
    <glyph glyph-name="Ccaron" unicode="&#x10c;" horiz-adv-x="732" 
d="M217 955l7 8l163 -109l160 109l7 -8l-163 -165h-10zM670 404h-10q-8 155 -70.5 224.5t-190.5 70.5q-109 0 -180.5 -100.5t-71.5 -256.5q0 -162 68.5 -250.5t194.5 -88.5q165 0 274 156l9 -6q-58 -83 -131.5 -123.5t-174.5 -40.5q-163 0 -252 91t-89 258q0 164 96.5 268.5
t244.5 104.5q73 0 140.5 -24t88.5 -24q43 0 44 54h10v-313z" />
    <glyph glyph-name="ccaron" unicode="&#x10d;" horiz-adv-x="558" 
d="M123 752l6 8l163 -109l161 109l6 -8l-162 -165h-10zM521 87l7 -9q-105 -89 -225 -89t-189 67t-69 186q0 116 74.5 192.5t200.5 76.5q89 0 142.5 -44t53.5 -113q0 -31 -16 -49.5t-43 -18.5q-26 0 -42 15.5t-16 40.5q0 24 15.5 40t40.5 16q19 0 33 -11.5t18 -32.5
q0 62 -48.5 103t-123.5 41q-89 0 -141.5 -71.5t-52.5 -183.5q0 -111 47.5 -176t133.5 -65q102 0 200 85z" />
    <glyph glyph-name="Dcaron" unicode="&#x10e;" horiz-adv-x="769" 
d="M209 952l7 8l163 -109l160 109l6 -8l-162 -165h-10zM26 700h364q151 0 242 -94.5t91 -249.5q0 -161 -94.5 -258.5t-249.5 -97.5h-353v10h34q40 0 56 16t16 56v536q0 41 -15 56.5t-57 15.5h-34v10zM377 690h-131q-11 0 -15.5 -4.5t-4.5 -15.5v-640q0 -11 4.5 -15.5
t15.5 -4.5h124q118 0 186 92t68 254q0 156 -66.5 245t-180.5 89z" />
    <glyph glyph-name="dcaron" unicode="&#x10f;" horiz-adv-x="747" 
d="M526 750v-668q0 -41 15.5 -56.5t56.5 -15.5h30v-10h-187l-5 5v98h-2q-16 -47 -61 -80.5t-103 -33.5q-100 0 -162 64t-63 180q-1 122 75.5 199.5t199.5 77.5q57 0 114 -19v188q0 35 -13.5 48t-49.5 13h-36v10l185 6zM631 584v10q45 0 70.5 26t25.5 74q-3 -18 -16.5 -29.5
t-32.5 -11.5q-23 0 -37 13.5t-14 36.5t14.5 38t39.5 15q26 0 41 -17t15 -45q0 -54 -28 -82t-78 -28zM434 149v332q-57 19 -113 19q-80 0 -130.5 -72.5t-48.5 -189.5q1 -111 43 -169t108 -58q56 0 98 43t43 95z" />
    <glyph glyph-name="Dcroat" unicode="&#x110;" horiz-adv-x="772" 
d="M26 700h364q151 0 242 -94.5t91 -249.5q0 -161 -94.5 -258.5t-249.5 -97.5h-353v10h34q40 0 56 16t16 56v257h-95v10h95v269q0 41 -15 56.5t-57 15.5h-34v10zM246 10h124q118 0 186 92t68 254q0 156 -66.5 245t-180.5 89h-131q-11 0 -15.5 -4.5t-4.5 -15.5v-321h125v-10
h-125v-309q0 -11 4.5 -15.5t15.5 -4.5z" />
    <glyph glyph-name="dcroat" unicode="&#x111;" horiz-adv-x="638" 
d="M526 609v-527q0 -41 15.5 -56.5t56.5 -15.5h30v-10h-187l-5 5v98h-2q-16 -47 -61 -80.5t-103 -33.5q-100 0 -162 64t-63 180q-1 122 75.5 199.5t199.5 77.5q57 0 114 -19v118h-119v10h119v60q0 35 -13.5 48t-49.5 13h-36v10l185 6l6 -6v-131h104v-10h-104zM434 149v332
q-57 19 -113 19q-80 0 -130.5 -72.5t-48.5 -189.5q1 -111 43 -169t108 -58q56 0 98 43t43 95z" />
    <glyph glyph-name="Emacron" unicode="&#x112;" horiz-adv-x="701" 
d="M498 818h-315v10h315v-10zM644 270l-38 -265l-5 -5h-575v10h34q42 0 57 15.5t15 56.5v536q0 41 -15 56.5t-57 15.5h-34v10h562l5 -5l34 -255l-10 -2q-31 146 -67 199t-99 53h-205q-20 0 -20 -20v-312h146q57 0 80 28.5t23 100.5h10v-272h-10q0 74 -23 103.5t-80 29.5
h-146v-318q0 -20 20 -20h233q57 0 92 59t63 202z" />
    <glyph glyph-name="emacron" unicode="&#x113;" horiz-adv-x="549" 
d="M439 618h-314v10h314v-10zM510 87l6 -7q-104 -91 -222 -91q-115 0 -182 67t-67 188q0 117 69.5 192t180.5 75q98 0 154.5 -58.5t56.5 -157.5l-5 -5h-360q-2 -18 -2 -29q0 -259 174 -259q100 0 197 85zM141 300h252q25 0 25 32q0 75 -35 122t-92 47q-59 0 -100.5 -56.5
t-49.5 -144.5z" />
    <glyph glyph-name="Edotaccent" unicode="&#x116;" horiz-adv-x="701" 
d="M341 816q-22 0 -36.5 14.5t-14.5 36.5t14.5 37t36.5 15t36.5 -15t14.5 -37t-14.5 -36.5t-36.5 -14.5zM644 270l-38 -265l-5 -5h-575v10h34q42 0 57 15.5t15 56.5v536q0 41 -15 56.5t-57 15.5h-34v10h562l5 -5l34 -255l-10 -2q-31 146 -67 199t-99 53h-205q-20 0 -20 -20
v-312h146q57 0 80 28.5t23 100.5h10v-272h-10q0 74 -23 103.5t-80 29.5h-146v-318q0 -20 20 -20h233q57 0 92 59t63 202z" />
    <glyph glyph-name="edotaccent" unicode="&#x117;" horiz-adv-x="549" 
d="M283 616q-22 0 -36.5 14.5t-14.5 36.5t14.5 37t36.5 15t36.5 -15t14.5 -37t-14.5 -36.5t-36.5 -14.5zM510 87l6 -7q-104 -91 -222 -91q-115 0 -182 67t-67 188q0 117 69.5 192t180.5 75q98 0 154.5 -58.5t56.5 -157.5l-5 -5h-360q-2 -18 -2 -29q0 -259 174 -259
q100 0 197 85zM141 300h252q25 0 25 32q0 75 -35 122t-92 47q-59 0 -100.5 -56.5t-49.5 -144.5z" />
    <glyph glyph-name="Eogonek" unicode="&#x118;" horiz-adv-x="701" 
d="M606 5l-5 -5q-51 -14 -82.5 -51.5t-31.5 -81.5q0 -38 19 -59t53 -21q30 0 62 22l4 -4q-41 -51 -104 -51q-40 0 -65 24.5t-25 66.5q0 55 43.5 94.5t115.5 60.5h-564v10h34q42 0 57 15.5t15 56.5v536q0 41 -15 56.5t-57 15.5h-34v10h562l5 -5l34 -255l-10 -2
q-31 146 -67 199t-99 53h-205q-20 0 -20 -20v-312h146q57 0 80 28.5t23 100.5h10v-272h-10q0 74 -23 103.5t-80 29.5h-146v-318q0 -20 20 -20h233q57 0 92 59t63 202l10 -1z" />
    <glyph glyph-name="eogonek" unicode="&#x119;" horiz-adv-x="549" 
d="M425 19l-1 -1q-28 -12 -35 -14q-36 -20 -57 -51.5t-21 -67.5q0 -37 19 -58t53 -21q32 0 62 22l4 -5q-42 -50 -104 -50q-40 0 -65 24.5t-25 66.5q0 82 96 130q-32 -5 -57 -5q-115 0 -182 67t-67 188q0 117 69.5 192t180.5 75q98 0 154.5 -58.5t56.5 -157.5l-5 -5h-360
q-2 -18 -2 -29q0 -259 174 -259q100 0 197 85l6 -7q-48 -42 -91 -61zM141 300h252q25 0 25 32q0 75 -35 122t-92 47q-59 0 -100.5 -56.5t-49.5 -144.5z" />
    <glyph glyph-name="Ecaron" unicode="&#x11a;" horiz-adv-x="701" 
d="M338 787l-164 165l7 8l163 -109l160 109l7 -8l-163 -165h-10zM644 270l-38 -265l-5 -5h-575v10h34q42 0 57 15.5t15 56.5v536q0 41 -15 56.5t-57 15.5h-34v10h562l5 -5l34 -255l-10 -2q-31 146 -67 199t-99 53h-205q-20 0 -20 -20v-312h146q57 0 80 28.5t23 100.5h10
v-272h-10q0 74 -23 103.5t-80 29.5h-146v-318q0 -20 20 -20h233q57 0 92 59t63 202z" />
    <glyph glyph-name="ecaron" unicode="&#x11b;" horiz-adv-x="549" 
d="M280 587l-164 165l6 8l164 -109l160 109l6 -8l-162 -165h-10zM510 87l6 -7q-104 -91 -222 -91q-115 0 -182 67t-67 188q0 117 69.5 192t180.5 75q98 0 154.5 -58.5t56.5 -157.5l-5 -5h-360q-2 -18 -2 -29q0 -259 174 -259q100 0 197 85zM141 300h252q25 0 25 32
q0 75 -35 122t-92 47q-59 0 -100.5 -56.5t-49.5 -144.5z" />
    <glyph glyph-name="Gcircumflex" unicode="&#x11c;" horiz-adv-x="760" 
d="M567 798l-6 -8l-164 109l-160 -109l-6 8l162 165h10zM692 96l-5 -5q-79 -51 -146.5 -76.5t-150.5 -25.5q-156 0 -250 95t-94 255q0 161 99.5 266.5t250.5 105.5q66 0 132.5 -24t83.5 -24q24 -1 34.5 10t11.5 36h10v-297h-10q-8 147 -70 217t-181 71q-113 0 -186.5 -101.5
t-73.5 -259.5q0 -155 68.5 -247.5t181.5 -92.5q94 0 148.5 40.5t54.5 106.5v99q0 40 -16 56t-56 16h-40v10h252v-10q-27 0 -37.5 -11.5t-10.5 -40.5v-169z" />
    <glyph glyph-name="gcircumflex" unicode="&#x11d;" horiz-adv-x="534" 
d="M128 587l-6 8l141 165h9l143 -165l-6 -8l-142 109zM210 161v2q-71 13 -110 56t-39 107q0 81 57 132.5t155 51.5q81 0 135 -48q48 8 82 42.5t33 78.5q-1 -19 -13.5 -29.5t-31.5 -10.5q-22 0 -36 14t-14 36q0 23 15 37.5t39 14.5q23 0 37 -18t14 -43q0 -48 -34.5 -85
t-82.5 -45q44 -44 44 -108q0 -89 -56.5 -140t-145.5 -51q-160 0 -160 -79q0 -65 123 -57q25 0 85 4t82 4q65 0 100.5 -34t35.5 -96q0 -74 -66 -115.5t-186 -41.5q-97 0 -150 30.5t-53 85.5q0 53 38 82t108 29v4h-28q-63 0 -97 22t-34 62q0 48 40 76t114 30zM146 326
q0 -80 30 -120.5t82 -40.5q54 0 85.5 45t31.5 131q0 78 -30 118.5t-85 40.5q-50 0 -82 -46t-32 -128zM357 -43h-142q-65 0 -100.5 -26.5t-35.5 -74.5q0 -50 50.5 -78t142.5 -28q107 0 164.5 33t57.5 92q0 38 -37 60t-100 22z" />
    <glyph glyph-name="Gbreve" unicode="&#x11e;" horiz-adv-x="760" 
d="M539 969h9q-1 -82 -44 -126.5t-113 -44.5q-67 0 -110 44.5t-43 126.5h9q8 -54 46 -83.5t98 -29.5q62 0 101 29.5t47 83.5zM692 96l-5 -5q-79 -51 -147 -76.5t-151 -25.5q-156 0 -249.5 95.5t-93.5 254.5q0 161 99 266.5t250 105.5q67 0 133.5 -24t83.5 -24q24 -1 34.5 10
t11.5 36h10v-297h-10q-8 147 -70 217t-181 71q-113 0 -186.5 -101.5t-73.5 -259.5q0 -155 68.5 -247.5t181.5 -92.5q94 0 148.5 40.5t54.5 106.5v99q0 40 -16 56t-56 16h-40v10h252v-10q-27 0 -37.5 -11.5t-10.5 -40.5v-169z" />
    <glyph glyph-name="gbreve" unicode="&#x11f;" horiz-adv-x="534" 
d="M409 767h9q-1 -83 -44 -127.5t-113 -44.5q-67 0 -109.5 45t-42.5 127h9q7 -54 45.5 -84t97.5 -30q62 0 101 30t47 84zM210 161v2q-71 13 -110 56t-39 107q0 81 57 132.5t155 51.5q81 0 135 -48q48 8 82 42.5t33 78.5q-1 -19 -13.5 -29.5t-31.5 -10.5q-22 0 -36 14t-14 36
q0 23 15 37.5t39 14.5q23 0 37 -18t14 -43q0 -48 -34.5 -85t-82.5 -45q44 -44 44 -108q0 -89 -56.5 -140t-145.5 -51q-160 0 -160 -79q0 -65 123 -57q25 0 85 4t82 4q65 0 100.5 -34t35.5 -96q0 -74 -66 -115.5t-186 -41.5q-97 0 -150 30.5t-53 85.5q0 53 38 82t108 29v4
h-28q-63 0 -97 22t-34 62q0 48 40 76t114 30zM146 326q0 -80 30 -120.5t82 -40.5q54 0 85.5 45t31.5 131q0 78 -30 118.5t-85 40.5q-50 0 -82 -46t-32 -128zM357 -43h-142q-65 0 -100.5 -26.5t-35.5 -74.5q0 -50 50.5 -78t142.5 -28q107 0 164.5 33t57.5 92q0 38 -37 60
t-100 22z" />
    <glyph glyph-name="Gdotaccent" unicode="&#x120;" horiz-adv-x="760" 
d="M388 921q22 0 36.5 -14.5t14.5 -36.5t-14.5 -36.5t-36.5 -14.5t-36.5 14.5t-14.5 36.5t14.5 36.5t36.5 14.5zM692 96l-5 -5q-79 -51 -146.5 -76.5t-150.5 -25.5q-156 0 -250 95t-94 255q0 161 99.5 266.5t250.5 105.5q66 0 132.5 -24t83.5 -24q24 -1 34.5 10t11.5 36h10
v-297h-10q-8 147 -70 217t-181 71q-113 0 -186.5 -101.5t-73.5 -259.5q0 -155 68.5 -247.5t181.5 -92.5q94 0 148.5 40.5t54.5 106.5v99q0 40 -16 56t-56 16h-40v10h252v-10q-27 0 -37.5 -11.5t-10.5 -40.5v-169z" />
    <glyph glyph-name="gdotaccent" unicode="&#x121;" horiz-adv-x="534" 
d="M259 616q-22 0 -36.5 14.5t-14.5 36.5t14.5 37t36.5 15t36.5 -15t14.5 -37t-14.5 -36.5t-36.5 -14.5zM210 161v2q-71 13 -110 56t-39 107q0 81 57 132.5t155 51.5q81 0 135 -48q48 8 82 42.5t33 78.5q-1 -19 -13.5 -29.5t-31.5 -10.5q-22 0 -36 14t-14 36q0 23 15 37.5
t39 14.5q23 0 37 -18t14 -43q0 -48 -34.5 -85t-82.5 -45q44 -44 44 -108q0 -89 -56.5 -140t-145.5 -51q-160 0 -160 -79q0 -65 123 -57q25 0 85 4t82 4q65 0 100.5 -34t35.5 -96q0 -74 -66 -115.5t-186 -41.5q-97 0 -150 30.5t-53 85.5q0 53 38 82t108 29v4h-28
q-63 0 -97 22t-34 62q0 48 40 76t114 30zM146 326q0 -80 30 -120.5t82 -40.5q54 0 85.5 45t31.5 131q0 78 -30 118.5t-85 40.5q-50 0 -82 -46t-32 -128zM357 -43h-142q-65 0 -100.5 -26.5t-35.5 -74.5q0 -50 50.5 -78t142.5 -28q107 0 164.5 33t57.5 92q0 38 -37 60t-100 22
z" />
    <glyph glyph-name="Gcommaaccent" unicode="&#x122;" horiz-adv-x="760" 
d="M692 96l-5 -5q-79 -51 -146.5 -76.5t-150.5 -25.5q-156 0 -250 95t-94 255q0 161 99.5 266.5t250.5 105.5q66 0 132.5 -24t83.5 -24q24 -1 34.5 10t11.5 36h10v-297h-10q-8 147 -70 217t-181 71q-113 0 -186.5 -101.5t-73.5 -259.5q0 -155 68.5 -247.5t181.5 -92.5
q94 0 148.5 40.5t54.5 106.5v99q0 40 -16 56t-56 16h-40v10h252v-10q-27 0 -37.5 -11.5t-10.5 -40.5v-169zM345 -265v10q45 0 70.5 26t25.5 74q-3 -18 -16.5 -29.5t-32.5 -11.5q-23 0 -37 13.5t-14 36.5q0 24 14.5 38.5t39.5 14.5t40.5 -17t15.5 -45q0 -54 -28 -82t-78 -28z
" />
    <glyph glyph-name="gcommaaccent" unicode="&#x123;" horiz-adv-x="534" 
d="M310 763v-10q-46 0 -71.5 -26t-25.5 -74q4 18 17 29.5t32 11.5q24 0 38 -13.5t14 -36.5t-15 -38t-39 -15q-26 0 -41.5 17t-15.5 45q2 110 107 110zM210 161v2q-71 13 -110 56t-39 107q0 81 57 132.5t155 51.5q81 0 135 -48q48 8 82 42.5t33 78.5q-1 -19 -13.5 -29.5
t-31.5 -10.5q-22 0 -36 14t-14 36q0 23 15 37.5t39 14.5q23 0 37 -18t14 -43q0 -48 -34.5 -85t-82.5 -45q44 -44 44 -108q0 -89 -56.5 -140t-145.5 -51q-160 0 -160 -79q0 -65 123 -57q25 0 85 4t82 4q65 0 100.5 -34t35.5 -96q0 -74 -66 -115.5t-186 -41.5q-97 0 -150 30.5
t-53 85.5q0 53 38 82t108 29v4h-28q-63 0 -97 22t-34 62q0 48 40 76t114 30zM146 326q0 -80 30 -120.5t82 -40.5q54 0 85.5 45t31.5 131q0 78 -30 118.5t-85 40.5q-50 0 -82 -46t-32 -128zM357 -43h-142q-65 0 -100.5 -26.5t-35.5 -74.5q0 -50 50.5 -78t142.5 -28
q107 0 164.5 33t57.5 92q0 38 -37 60t-100 22z" />
    <glyph glyph-name="Hcircumflex" unicode="&#x124;" horiz-adv-x="828" 
d="M260 787l-7 8l162 165h11l164 -165l-7 -8l-163 109zM802 690h-34q-42 0 -57 -15.5t-15 -56.5v-536q0 -41 15 -56.5t57 -15.5h34v-10h-305v10h33q41 0 56.5 15.5t15.5 56.5v253h-376v-253q0 -41 15.5 -56.5t56.5 -15.5h33v-10h-305v10h34q42 0 57 15.5t15 56.5v536
q0 41 -15 56.5t-57 15.5h-34v10h305v-10h-33q-41 0 -56.5 -15.5t-15.5 -56.5v-273h376v273q0 41 -15.5 56.5t-56.5 15.5h-33v10h305v-10z" />
    <glyph glyph-name="hcircumflex" unicode="&#x125;" horiz-adv-x="659" 
d="M330 845l-7 -8l-163 109l-160 -109l-7 8l162 165h11zM207 750v-352h3q15 47 62.5 80t108.5 33q84 0 128.5 -42t44.5 -118v-269q0 -41 15 -56.5t56 -15.5h25v-10h-278v10h22q40 0 55 15.5t15 56.5v285q0 122 -108 122q-58 0 -102 -42.5t-44 -94.5v-270q0 -41 14.5 -56.5
t54.5 -15.5h23v-10h-288v10h33q42 0 57 15.5t15 56.5v598q0 34 -13.5 47t-49.5 13h-42v10l189 5z" />
    <glyph glyph-name="Hbar" unicode="&#x126;" horiz-adv-x="830" 
d="M802 690h-34q-42 0 -57 -15.5t-15 -56.5v-79h94v-10h-94v-447q0 -41 15 -56.5t57 -15.5h34v-10h-305v10h33q41 0 56.5 15.5t15.5 56.5v253h-376v-253q0 -41 15.5 -56.5t56.5 -15.5h33v-10h-305v10h34q42 0 57 15.5t15 56.5v447h-91v10h91v79q0 41 -15 56.5t-57 15.5h-34
v10h305v-10h-33q-41 0 -56.5 -15.5t-15.5 -56.5v-79h376v79q0 41 -15.5 56.5t-56.5 15.5h-33v10h305v-10zM602 529h-376v-183h376v183z" />
    <glyph glyph-name="hbar" unicode="&#x127;" horiz-adv-x="695" 
d="M668 10v-10h-279v10h23q40 0 54.5 15t14.5 57v285q0 122 -107 122q-58 0 -102 -42.5t-44 -94.5v-270q0 -42 14.5 -57t54.5 -15h23v-10h-288v10h33q41 0 56.5 15.5t15.5 56.5v518h-104v10h104v70q0 34 -13.5 47t-49.5 13h-42v10l188 5l5 -5v-140h152v-10h-152v-202h3
q15 47 62.5 80t108.5 33q84 0 128.5 -42t44.5 -118v-269q0 -41 15 -56.5t56 -15.5h25z" />
    <glyph glyph-name="Itilde" unicode="&#x128;" 
d="M306 953l9 6q39 -42 39 -85q0 -30 -18.5 -47t-51.5 -17q-36 0 -102 33.5t-102 33.5q-45 0 -45 -48q0 -27 14 -49l-9 -6q-28 39 -28 77q0 37 22 60t57 23q33 0 99 -31.5t95 -31.5q17 0 27 9.5t10 24.5q0 24 -16 48zM331 690h-32q-42 0 -57.5 -15.5t-15.5 -56.5v-536
q0 -41 15.5 -56.5t57.5 -15.5h32v-10h-305v10h34q42 0 57 15.5t15 56.5v536q0 41 -15 56.5t-57 15.5h-34v10h305v-10z" />
    <glyph glyph-name="itilde" unicode="&#x129;" horiz-adv-x="324" 
d="M285 753l8 6q39 -42 39 -85q0 -30 -18.5 -47t-51.5 -17q-35 0 -101.5 33.5t-102.5 33.5q-44 0 -44 -48q0 -26 13 -49l-8 -6q-29 40 -29 77t22 60t58 23q33 0 99 -31.5t95 -31.5q16 0 26.5 9.5t10.5 24.5q0 24 -16 48zM206 500v-418q0 -41 15.5 -56.5t57.5 -15.5h30v-10
h-295v10h30q41 0 56.5 15.5t15.5 56.5v347q0 35 -13.5 48t-49.5 13h-36v10l184 6z" />
    <glyph glyph-name="Imacron" unicode="&#x12a;" 
d="M332 818h-315v10h315v-10zM331 690h-32q-42 0 -57.5 -15.5t-15.5 -56.5v-536q0 -41 15.5 -56.5t57.5 -15.5h32v-10h-305v10h34q42 0 57 15.5t15 56.5v536q0 41 -15 56.5t-57 15.5h-34v10h305v-10z" />
    <glyph glyph-name="imacron" unicode="&#x12b;" horiz-adv-x="324" 
d="M310 618h-314v10h314v-10zM206 500v-418q0 -41 15.5 -56.5t57.5 -15.5h29v-10h-294v10h30q41 0 56.5 15.5t15.5 56.5v347q0 35 -13.5 48t-49.5 13h-36v10l184 6z" />
    <glyph glyph-name="Iogonek" unicode="&#x12e;" 
d="M350 -191l4 -4q-40 -51 -103 -51q-40 0 -65.5 25t-25.5 66q0 55 43.5 94.5t116.5 60.5h-294v10h34q42 0 57 15.5t15 56.5v536q0 41 -15 56.5t-57 15.5h-34v10h305v-10h-33q-41 0 -56.5 -15.5t-15.5 -56.5v-536q0 -41 15.5 -56.5t56.5 -15.5h33v-10q-51 -14 -82.5 -51.5
t-31.5 -81.5q0 -38 19 -59t53 -21q31 0 61 22z" />
    <glyph glyph-name="iogonek" unicode="&#x12f;" horiz-adv-x="324" 
d="M154 616q-22 0 -36.5 14.5t-14.5 36.5t14.5 37t36.5 15t36.5 -15t14.5 -37t-14.5 -36.5t-36.5 -14.5zM313 -191l4 -4q-41 -51 -103 -51q-40 0 -65.5 25t-25.5 66q0 55 43.5 94.5t116.5 60.5h-269v10h30q41 0 56.5 15.5t15.5 56.5v347q0 35 -13.5 48t-49.5 13h-36v10
l183 6l6 -6v-418q0 -41 15.5 -56.5t57.5 -15.5h29v-10h-14q-51 -14 -82.5 -51.5t-31.5 -81.5q0 -38 19 -59t53 -21q31 0 61 22z" />
    <glyph glyph-name="Idotaccent" unicode="&#x130;" 
d="M175 919q23 0 37.5 -14.5t14.5 -37.5q0 -22 -15 -36.5t-37 -14.5t-36.5 14.5t-14.5 36.5t14.5 37t36.5 15zM331 690h-32q-42 0 -57.5 -15.5t-15.5 -56.5v-536q0 -41 15.5 -56.5t57.5 -15.5h32v-10h-305v10h34q42 0 57 15.5t15 56.5v536q0 41 -15 56.5t-57 15.5h-34v10
h305v-10z" />
    <glyph glyph-name="dotlessi" unicode="&#x131;" horiz-adv-x="324" 
d="M206 500v-418q0 -41 15.5 -56.5t57.5 -15.5h29v-10h-294v10h30q41 0 56.5 15.5t15.5 56.5v347q0 35 -13.5 48t-49.5 13h-36v10l184 6z" />
    <glyph glyph-name="IJ" unicode="&#x132;" horiz-adv-x="785" 
d="M331 690h-32q-42 0 -57.5 -15.5t-15.5 -56.5v-536q0 -41 15.5 -56.5t57.5 -15.5h32v-10h-305v10h34q42 0 57 15.5t15 56.5v536q0 41 -15 56.5t-57 15.5h-34v10h305v-10zM767 690h-35q-42 0 -57 -15.5t-15 -56.5v-459q0 -76 -45 -122.5t-117 -46.5q-58 0 -93 31.5
t-35 80.5q0 31 18 51t45 20q26 0 43 -16.5t17 -42.5t-15.5 -42t-39.5 -16q-45 0 -58 46q0 -46 33 -74t83 -28q57 0 90.5 37t33.5 99q0 60 -54 87v395q0 41 -15.5 56.5t-56.5 15.5h-44v10h317v-10z" />
    <glyph glyph-name="ij" unicode="&#x133;" horiz-adv-x="610" 
d="M157 780q28 0 46.5 -19t18.5 -46t-18.5 -45.5t-46.5 -18.5q-27 0 -45.5 18.5t-18.5 45.5t18.5 46t45.5 19zM469 780q27 0 46 -19t19 -46t-19 -45.5t-46 -18.5q-28 0 -46.5 18.5t-18.5 45.5t18.5 46t46.5 19zM206 500v-418q0 -41 15.5 -56.5t57.5 -15.5h29v-10h-294v10h30
q41 0 56.5 15.5t15.5 56.5v347q0 35 -13.5 48t-49.5 13h-36v10l184 6zM518 500v-605q0 -70 -39 -113t-102 -43q-53 0 -85.5 29t-32.5 76q0 29 17 47.5t42 18.5q23 0 38.5 -15t15.5 -37q0 -24 -14.5 -39t-38.5 -15q-19 0 -32.5 11t-17.5 29q0 -43 29.5 -69t78.5 -26
q51 0 82.5 34t31.5 91q0 33 -17.5 57t-45.5 30v468q0 35 -14 48t-50 13h-35v10l183 6z" />
    <glyph glyph-name="Jcircumflex" unicode="&#x134;" horiz-adv-x="428" 
d="M433 795l-6 -8l-163 109l-160 -109l-7 8l162 165h10zM411 690h-36q-42 0 -57 -15.5t-15 -56.5v-459q0 -76 -45 -122.5t-117 -46.5q-57 0 -92.5 31.5t-35.5 80.5q0 31 18.5 51t45.5 20q26 0 42.5 -16.5t16.5 -42.5t-15.5 -42t-39.5 -16q-45 0 -58 46q0 -46 33 -74t83 -28
q57 0 90.5 37t33.5 99q0 60 -54 87v395q0 41 -15.5 56.5t-56.5 15.5h-44v10h318v-10z" />
    <glyph glyph-name="jcircumflex" unicode="&#x135;" horiz-adv-x="271" 
d="M319 595l-6 -8l-163 109l-161 -109l-6 8l162 165h10zM104 -39v468q0 35 -13.5 48t-49.5 13h-36v10l184 6l5 -6v-605q0 -70 -39 -113t-102 -43q-53 0 -85.5 29t-32.5 76q0 29 17 47.5t42 18.5q23 0 38.5 -15t15.5 -37q0 -24 -14 -39t-38 -15q-42 0 -49 40q0 -43 29 -68.5
t77 -25.5q50 0 82.5 34.5t32.5 89.5q0 33 -17.5 56.5t-46.5 30.5z" />
    <glyph glyph-name="Kcommaaccent" unicode="&#x136;" horiz-adv-x="784" 
d="M423 363l231 -298q25 -32 47.5 -43.5t63.5 -11.5v-10h-291v10h44q36 0 36 24q0 12 -23 44l-222 284l-83 -76v-204q0 -41 15.5 -56.5t57.5 -15.5h31v-10h-304v10h34q42 0 57 15.5t15 56.5v536q0 41 -15 56.5t-57 15.5h-34v10h305v-10h-32q-41 0 -57 -15.5t-16 -56.5v-314
l287 262q46 41 46 76q0 22 -20 35t-56 13h-37v10h279v-10q-42 0 -78.5 -24.5t-119.5 -104.5l-194 -177l8 -10h58q15 0 24 -11zM353 -263l1 10q45 0 70.5 26t25.5 74q-3 -18 -16.5 -29.5t-32.5 -11.5q-23 0 -37 13.5t-14 36.5q0 24 15 38.5t39 14.5q25 0 40.5 -17t15.5 -45
q0 -54 -28 -82t-79 -28z" />
    <glyph glyph-name="kcommaaccent" unicode="&#x137;" horiz-adv-x="624" 
d="M369 345l136 -280q15 -31 39 -43t71 -12v-10h-174l-7 4l-136 288l-90 -68v-144q0 -40 14.5 -55t52.5 -15h30v-10h-291v10h30q41 0 56.5 15.5t15.5 56.5v597q0 35 -13.5 48t-49.5 13h-36v10l185 6l6 -6v-513l173 130q23 17 31 23.5t20.5 17.5t16.5 19t4 17q0 46 -70 46
h-50v10h270v-10q-16 0 -33 -5.5t-40.5 -20.5t-38.5 -26t-49 -37t-50 -38zM290 -327v10q46 1 71.5 26.5t25.5 73.5q-3 -18 -16.5 -29t-32.5 -11q-23 0 -37.5 13.5t-14.5 35.5q0 23 15 38t40 15q26 0 41 -17t15 -45q0 -54 -28 -82t-79 -28z" />
    <glyph glyph-name="kgreenlandic" unicode="&#x138;" horiz-adv-x="637" 
d="M372 345l144 -280q17 -33 41 -44t69 -11v-10h-277v10h40q36 0 36 24q0 16 -14 44l-112 213l-91 -67v-144q0 -40 14.5 -55t52.5 -15h30v-10h-291v10h30q41 0 56.5 15.5t15.5 56.5v347q0 35 -13.5 48t-49.5 13h-36v10l185 6l6 -6v-263l174 131q3 2 14 10.5t15 11.5t13 10.5
t13 11.5t9 10t7 10.5t2 9.5q0 22 -21.5 35t-59.5 13h-36v10h283v-10q-38 0 -75.5 -22t-151.5 -106z" />
    <glyph glyph-name="Lacute" unicode="&#x139;" horiz-adv-x="673" 
d="M189 786l-7 5q34 49 82 147q20 38 48 38q17 0 28 -11t11 -27q0 -24 -29 -45q-5 -4 -35 -24t-52.5 -39t-45.5 -44zM335 690h-32q-42 0 -57.5 -15.5t-15.5 -56.5v-588q0 -11 4.5 -15.5t15.5 -4.5h202q42 0 69.5 19t53 72.5t51.5 155.5l9 -2l-39 -250l-5 -5h-565v10h38
q42 0 57.5 15.5t15.5 56.5v536q0 41 -15.5 56.5t-57.5 15.5h-34v10h305v-10z" />
    <glyph glyph-name="lacute" unicode="&#x13a;" horiz-adv-x="319" 
d="M164 836l-7 5q34 49 82 147q20 38 48 38q17 0 28 -11t11 -27q0 -24 -29 -45q-5 -4 -35 -24t-52.5 -39t-45.5 -44zM206 750v-668q0 -41 15.5 -56.5t57.5 -15.5h29v-10h-294v10h30q41 0 56.5 15.5t15.5 56.5v597q0 35 -13.5 48t-49.5 13h-36v10l184 6z" />
    <glyph glyph-name="Lcommaaccent" unicode="&#x13b;" horiz-adv-x="673" 
d="M335 690h-32q-42 0 -57.5 -15.5t-15.5 -56.5v-588q0 -11 4.5 -15.5t15.5 -4.5h202q42 0 69.5 19t53 72.5t51.5 155.5l9 -2l-39 -250l-5 -5h-565v10h38q42 0 57.5 15.5t15.5 56.5v536q0 41 -15.5 56.5t-57.5 15.5h-34v10h305v-10zM290 -263v10q46 0 71 26t25 74
q-3 -18 -16.5 -29.5t-32.5 -11.5q-23 0 -37 13.5t-14 36.5q0 24 15 38.5t39 14.5q26 0 41.5 -17t14.5 -45q0 -54 -28 -82t-78 -28z" />
    <glyph glyph-name="lcommaaccent" unicode="&#x13c;" horiz-adv-x="319" 
d="M206 750v-668q0 -41 15.5 -56.5t57.5 -15.5h29v-10h-294v10h30q41 0 56.5 15.5t15.5 56.5v597q0 35 -13.5 48t-49.5 13h-36v10l184 6zM112 -263v10q46 0 71 26t25 74q-3 -18 -16.5 -29.5t-32.5 -11.5q-23 0 -37 13.5t-14 36.5q0 24 15 38.5t39 14.5q26 0 41.5 -17
t14.5 -45q0 -54 -28 -82t-78 -28z" />
    <glyph glyph-name="Lcaron" unicode="&#x13d;" horiz-adv-x="673" 
d="M335 690h-32q-42 0 -57.5 -15.5t-15.5 -56.5v-588q0 -11 4.5 -15.5t15.5 -4.5h202q42 0 69.5 19t53 72.5t51.5 155.5l9 -2l-39 -250l-5 -5h-565v10h38q42 0 57.5 15.5t15.5 56.5v536q0 41 -15.5 56.5t-57.5 15.5h-34v10h305v-10z" />
    <glyph glyph-name="lcaron" unicode="&#x13e;" horiz-adv-x="319" 
d="M206 750v-668q0 -41 15.5 -56.5t57.5 -15.5h29v-10h-294v10h30q41 0 56.5 15.5t15.5 56.5v597q0 35 -13.5 48t-49.5 13h-36v10l184 6z" />
    <glyph glyph-name="Ldot" unicode="&#x13f;" horiz-adv-x="673" 
d="M335 690h-32q-42 0 -57.5 -15.5t-15.5 -56.5v-588q0 -11 4.5 -15.5t15.5 -4.5h202q42 0 69.5 19t53 72.5t51.5 155.5l9 -2l-39 -250l-5 -5h-565v10h38q42 0 57.5 15.5t15.5 56.5v536q0 41 -15.5 56.5t-57.5 15.5h-34v10h305v-10zM549 498q23 0 38.5 -15.5t15.5 -38.5
t-15.5 -39t-38.5 -16t-39.5 16t-16.5 39t16.5 38.5t39.5 15.5z" />
    <glyph glyph-name="ldot" unicode="&#x140;" horiz-adv-x="506" 
d="M206 750v-668q0 -41 15.5 -56.5t57.5 -15.5h29v-10h-294v10h30q41 0 56.5 15.5t15.5 56.5v597q0 35 -13.5 48t-49.5 13h-36v10l184 6zM422 404q23 0 39 -15.5t16 -38.5t-16 -39t-39 -16t-39 16t-16 39t16 38.5t39 15.5z" />
    <glyph glyph-name="Lslash" unicode="&#x141;" horiz-adv-x="675" 
d="M635 255l-39 -250l-5 -5h-565v10h38q42 0 57.5 15.5t15.5 56.5v231l-97 -43v12l97 43v293q0 41 -15.5 56.5t-57.5 15.5h-34v10h305v-10h-32q-42 0 -57.5 -15.5t-15.5 -56.5v-252l153 67v-12l-153 -67v-324q0 -11 4.5 -15.5t15.5 -4.5h202q42 0 69.5 19t53 72.5
t51.5 155.5z" />
    <glyph glyph-name="lslash" unicode="&#x142;" horiz-adv-x="336" 
d="M217 417v-335q0 -41 15.5 -56.5t56.5 -15.5h30v-10h-294v10h29q42 0 57.5 15.5t15.5 56.5v253l-110 -99v15l110 100v328q0 34 -14 47.5t-50 13.5h-35v10l183 6l6 -6v-318l106 96v-15z" />
    <glyph glyph-name="Nacute" unicode="&#x143;" horiz-adv-x="731" 
d="M370 786l-6 5q33 48 81 147q20 38 49 38q16 0 27 -11t11 -27q0 -24 -28 -45q-8 -6 -28 -19.5t-33.5 -23t-34 -27t-38.5 -37.5zM724 690h-21q-49 0 -67 -31t-18 -113v-546h-79l-411 607v-479q0 -65 34 -91.5t112 -26.5h51v-10h-318v10h21q52 0 71 25t19 93v490
q0 41 -15.5 56.5t-56.5 15.5h-27v10h162l427 -632v478q0 82 -31 113t-114 31h-33v10h294v-10z" />
    <glyph glyph-name="nacute" unicode="&#x144;" horiz-adv-x="658" 
d="M334 586l-6 5q33 48 81 147q20 38 49 38q16 0 27 -11t11 -27q0 -24 -28 -45q-8 -6 -28 -19.5t-33.5 -23t-34 -27t-38.5 -37.5zM207 398h2q16 46 63 79.5t108 33.5q84 0 128.5 -42t44.5 -118v-269q0 -41 15.5 -56.5t56.5 -15.5h24v-10h-278v10h22q40 0 55 15.5t15 56.5
v285q0 122 -108 122q-57 0 -101.5 -43t-44.5 -94v-270q0 -41 14.5 -56.5t54.5 -15.5h23v-10h-287v10h32q42 0 57.5 15.5t15.5 56.5v347q0 35 -14 48t-50 13h-41v10l192 5l5 -5z" />
    <glyph glyph-name="Ncommaaccent" unicode="&#x145;" horiz-adv-x="731" 
d="M724 690h-21q-49 0 -67 -31t-18 -113v-546h-79l-411 607v-479q0 -65 34 -91.5t112 -26.5h51v-10h-318v10h21q52 0 71 25t19 93v490q0 41 -15.5 56.5t-56.5 15.5h-27v10h162l427 -632v478q0 82 -31 113t-114 31h-33v10h294v-10zM321 -263v10q45 0 70.5 26t25.5 74
q-3 -18 -16.5 -29.5t-32.5 -11.5q-23 0 -37 13.5t-14 36.5q0 24 14.5 38.5t39.5 14.5q26 0 41 -17t15 -45q0 -54 -28 -82t-78 -28z" />
    <glyph glyph-name="ncommaaccent" unicode="&#x146;" horiz-adv-x="658" 
d="M207 398h2q16 46 63 79.5t108 33.5q84 0 128.5 -42t44.5 -118v-269q0 -41 15.5 -56.5t56.5 -15.5h24v-10h-278v10h22q40 0 55 15.5t15 56.5v285q0 122 -108 122q-57 0 -101.5 -43t-44.5 -94v-270q0 -41 14.5 -56.5t54.5 -15.5h23v-10h-287v10h32q42 0 57.5 15.5
t15.5 56.5v347q0 35 -14 48t-50 13h-41v10l192 5l5 -5zM282 -263v10q46 0 71.5 26t25.5 74q-4 -18 -17 -29.5t-32 -11.5q-24 0 -38 13.5t-14 36.5t15 38t39 15q26 0 41.5 -17t15.5 -45q-2 -110 -107 -110z" />
    <glyph glyph-name="Ncaron" unicode="&#x147;" horiz-adv-x="731" 
d="M196 952l6 8l163 -109l161 109l6 -8l-162 -165h-10zM724 690h-21q-49 0 -67 -31t-18 -113v-546h-79l-411 607v-479q0 -65 34 -91.5t112 -26.5h51v-10h-318v10h21q52 0 71 25t19 93v490q0 41 -15.5 56.5t-56.5 15.5h-27v10h162l427 -632v478q0 82 -31 113t-114 31h-33v10
h294v-10z" />
    <glyph glyph-name="ncaron" unicode="&#x148;" horiz-adv-x="658" 
d="M160 752l6 8l163 -109l161 109l6 -8l-162 -165h-10zM207 398h2q16 46 63 79.5t108 33.5q84 0 128.5 -42t44.5 -118v-269q0 -41 15.5 -56.5t56.5 -15.5h24v-10h-278v10h22q40 0 55 15.5t15 56.5v285q0 122 -108 122q-57 0 -101.5 -43t-44.5 -94v-270q0 -41 14.5 -56.5
t54.5 -15.5h23v-10h-287v10h32q42 0 57.5 15.5t15.5 56.5v347q0 35 -14 48t-50 13h-41v10l192 5l5 -5z" />
    <glyph glyph-name="Eng" unicode="&#x14a;" horiz-adv-x="731" 
d="M724 690h-21q-49 0 -67 -31t-18 -113v-546h-82l-408 607v-479q0 -65 34 -91.5t112 -26.5h51v-10h-318v10h21q52 0 71 25t19 93v490q0 41 -15.5 56.5t-56.5 15.5h-27v10h165l424 -632v478q0 82 -31 113t-114 31h-33v10h294v-10zM536 0h82q0 -80 -34.5 -123.5t-97.5 -43.5
q-52 0 -79 31t-27 87h10q0 -92 83 -92q39 0 61 19.5t22 52.5t-20 69z" />
    <glyph glyph-name="eng" unicode="&#x14b;" horiz-adv-x="632" 
d="M204 398h2q16 47 63.5 80t108.5 33q84 0 128.5 -42t44.5 -118v-373q0 -69 -36 -107t-102 -38q-51 0 -80 25.5t-29 71.5h10q0 -36 19.5 -55.5t55.5 -19.5q71 0 71 103v409q0 122 -108 122q-57 0 -101.5 -42.5t-44.5 -94.5v-270q0 -41 15 -56.5t55 -15.5h23v-10h-287v10h32
q41 0 56.5 15.5t15.5 56.5v347q0 35 -13.5 48t-49.5 13h-41v10l192 5l5 -5z" />
    <glyph glyph-name="Omacron" unicode="&#x14c;" horiz-adv-x="779" 
d="M543 818h-315v10h315v-10zM401 711q145 0 238.5 -93.5t93.5 -249.5q0 -183 -99.5 -281t-251.5 -98q-148 0 -242 95.5t-94 256.5q0 162 97 266t258 104zM395 701q-110 0 -179 -96t-69 -264q0 -154 67 -248t178 -94q105 0 172.5 97.5t67.5 274.5q0 151 -64.5 240.5
t-172.5 89.5z" />
    <glyph glyph-name="omacron" unicode="&#x14d;" horiz-adv-x="602" 
d="M455 618h-315v10h315v-10zM306 511q109 0 179.5 -62.5t71.5 -181.5q2 -116 -70.5 -197t-187.5 -81q-116 0 -185 69t-69 185q0 114 72 191t189 77zM302 501q-70 0 -115 -71.5t-45 -186.5t43 -180.5t116 -63.5q78 1 120 72.5t40 195.5q-2 116 -45.5 175t-113.5 59z" />
    <glyph glyph-name="Ohungarumlaut" unicode="&#x150;" horiz-adv-x="779" 
d="M319 786l-6 6q31 44 82 146q20 38 48 38q17 0 28 -11t11 -26q0 -24 -29 -46q-6 -4 -35 -24t-52.5 -39t-46.5 -44zM474 784l-6 5q15 21 29 44.5t21.5 38.5l18 36t13.5 28q20 38 48 38q16 0 27.5 -11t11.5 -26q0 -25 -29 -46q-6 -4 -35 -24t-52.5 -39t-46.5 -44zM401 711
q145 0 238.5 -93.5t93.5 -249.5q0 -183 -99.5 -281t-251.5 -98q-148 0 -242 95.5t-94 256.5q0 162 97 266t258 104zM395 701q-110 0 -179 -96t-69 -264q0 -154 67 -248t178 -94q105 0 172.5 97.5t67.5 274.5q0 151 -64.5 240.5t-172.5 89.5z" />
    <glyph glyph-name="ohungarumlaut" unicode="&#x151;" horiz-adv-x="602" 
d="M231 586l-6 5q19 28 34.5 55t30 57t17.5 35q20 38 48 38q16 0 27.5 -11t11.5 -26q0 -23 -29 -46q-6 -4 -35 -24t-52.5 -39t-46.5 -44zM386 584l-6 5q15 21 29 44.5t21.5 38.5l18 36t13.5 28q20 38 48 38q16 0 27.5 -11t11.5 -26q0 -24 -29 -46q-6 -4 -35 -24t-52.5 -39
t-46.5 -44zM306 511q109 0 179.5 -62.5t71.5 -181.5q2 -116 -70.5 -197t-187.5 -81q-116 0 -185 69t-69 185q0 114 72 191t189 77zM302 501q-70 0 -115 -71.5t-45 -186.5t43 -180.5t116 -63.5q78 1 120 72.5t40 195.5q-2 116 -45.5 175t-113.5 59z" />
    <glyph glyph-name="OE" unicode="&#x152;" horiz-adv-x="1130" 
d="M1073 270l-38 -265l-5 -5h-427q-52 0 -118.5 -5.5t-99.5 -5.5q-149 0 -244 91.5t-95 252.5q0 177 100 277.5t251 100.5q26 0 92 -5.5t119 -5.5h405l5 -5l35 -255l-10 -2q-32 146 -68 199t-99 53h-202q-20 0 -20 -20v-314h147q57 0 80 28.5t23 100.5h10v-272h-10
q0 74 -23 103.5t-80 29.5h-147v-316q0 -20 20 -20h234q57 0 92 59t63 202zM563 122v453q0 67 -38.5 96.5t-128.5 29.5q-114 0 -181.5 -92t-67.5 -276q0 -161 61.5 -247.5t179.5 -86.5q95 0 135 28.5t40 94.5z" />
    <glyph glyph-name="oe" unicode="&#x153;" horiz-adv-x="958" 
d="M919 87l6 -7q-104 -91 -220 -91q-72 0 -126 31.5t-81 89.5q-31 -56 -83.5 -88.5t-117.5 -32.5q-114 0 -183 66t-69 190q0 113 70 189.5t189 76.5q68 0 121.5 -29t82.5 -84q31 52 83 82.5t113 30.5q98 0 155 -58.5t57 -156.5l-5 -5h-361q-1 -10 -1 -30q0 -128 44.5 -193.5
t129.5 -65.5q99 0 196 85zM300 -1q77 1 117 72.5t38 197.5q-2 117 -43.5 174.5t-111.5 57.5q-77 0 -117.5 -67.5t-40.5 -188.5q0 -127 42 -187.5t116 -58.5zM551 300h251q26 0 26 33q0 76 -35 122t-92 46q-60 0 -101.5 -54.5t-48.5 -146.5z" />
    <glyph glyph-name="Racute" unicode="&#x154;" horiz-adv-x="757" 
d="M353 786l-6 5q15 21 29 44.5t21.5 38.5l18 36t13.5 28q20 38 48 38q16 0 27.5 -11t11.5 -27q0 -23 -29 -45q-6 -4 -35 -24t-52.5 -39t-46.5 -44zM742 93h10q0 -47 -26 -75t-71 -28q-61 0 -93.5 43t-32.5 126q0 113 -34.5 155t-120.5 42h-144v-274q0 -41 16 -56.5
t57 -15.5h45v-10h-322v10h38q42 0 57.5 15.5t15.5 56.5v536q0 41 -15.5 56.5t-57.5 15.5h-38v10h389q106 0 161 -43t55 -117q0 -73 -55.5 -123t-132.5 -50v-2q85 0 134 -52t49 -157q0 -79 12.5 -112.5t41.5 -33.5q28 0 45 23t17 60zM230 371h144q80 0 121.5 45t41.5 122
q0 71 -38.5 110t-109.5 39h-139q-20 0 -20 -21v-295z" />
    <glyph glyph-name="racute" unicode="&#x155;" horiz-adv-x="472" 
d="M256 586l-6 5q33 48 81 147q20 38 49 38q16 0 27 -11t11 -27q0 -24 -28 -45q-8 -6 -28 -19.5t-33.5 -23t-34 -27t-38.5 -37.5zM207 396h2q15 46 61.5 80t104.5 34q33 0 54 -17.5t21 -47.5q0 -27 -18.5 -45.5t-46.5 -18.5t-44.5 16.5t-16.5 43.5q0 24 15 40.5t36 18.5
q-65 0 -115.5 -47.5t-50.5 -106.5v-264q0 -40 20 -56t69 -16h23v-10h-307v10h32q42 0 57.5 15.5t15.5 56.5v347q0 35 -14 48t-50 13h-41v10l192 5l5 -5z" />
    <glyph glyph-name="Rcommaaccent" unicode="&#x156;" horiz-adv-x="757" 
d="M742 93h10q0 -47 -26 -75t-71 -28q-61 0 -93.5 43t-32.5 126q0 113 -34.5 155t-120.5 42h-144v-274q0 -41 16 -56.5t57 -15.5h45v-10h-322v10h38q42 0 57.5 15.5t15.5 56.5v536q0 41 -15.5 56.5t-57.5 15.5h-38v10h389q106 0 161 -43t55 -117q0 -73 -55.5 -123
t-132.5 -50v-2q85 0 134 -52t49 -157q0 -79 12.5 -112.5t41.5 -33.5q28 0 45 23t17 60zM230 371h144q80 0 121.5 45t41.5 122q0 71 -38.5 110t-109.5 39h-139q-20 0 -20 -21v-295zM346 -263v10q45 0 70.5 26t25.5 74q-3 -18 -16.5 -29.5t-32.5 -11.5q-23 0 -37 13.5
t-14 36.5q0 24 15 38.5t39 14.5q26 0 41 -17t15 -45q0 -54 -28 -82t-78 -28z" />
    <glyph glyph-name="rcommaaccent" unicode="&#x157;" horiz-adv-x="472" 
d="M207 396h2q15 46 61.5 80t104.5 34q33 0 54 -17.5t21 -47.5q0 -27 -18.5 -45.5t-46.5 -18.5t-44.5 16.5t-16.5 43.5q0 24 15 40.5t36 18.5q-65 0 -115.5 -47.5t-50.5 -106.5v-264q0 -40 20 -56t69 -16h23v-10h-307v10h32q42 0 57.5 15.5t15.5 56.5v347q0 35 -14 48
t-50 13h-41v10l192 5l5 -5zM122 -263v10q45 0 70.5 26t25.5 74q-3 -18 -16.5 -29.5t-32.5 -11.5q-23 0 -37 13.5t-14 36.5q0 24 15 38.5t39 14.5q26 0 41 -17t15 -45q0 -54 -28 -82t-78 -28z" />
    <glyph glyph-name="Rcaron" unicode="&#x158;" horiz-adv-x="757" 
d="M343 787l-164 165l7 8l163 -109l160 109l6 -8l-162 -165h-10zM742 93h10q0 -47 -26 -75t-71 -28q-61 0 -93.5 43t-32.5 126q0 113 -34.5 155t-120.5 42h-144v-274q0 -41 16 -56.5t57 -15.5h45v-10h-322v10h38q42 0 57.5 15.5t15.5 56.5v536q0 41 -15.5 56.5t-57.5 15.5
h-38v10h389q106 0 161 -43t55 -117q0 -73 -55.5 -123t-132.5 -50v-2q85 0 134 -52t49 -157q0 -79 12.5 -112.5t41.5 -33.5q28 0 45 23t17 60zM230 371h144q80 0 121.5 45t41.5 122q0 71 -38.5 110t-109.5 39h-139q-20 0 -20 -21v-295z" />
    <glyph glyph-name="rcaron" unicode="&#x159;" horiz-adv-x="472" 
d="M82 752l6 8l163 -109l161 109l6 -8l-162 -165h-10zM207 396h2q15 46 61.5 80t104.5 34q33 0 54 -17.5t21 -47.5q0 -27 -18.5 -45.5t-46.5 -18.5t-44.5 16.5t-16.5 43.5q0 24 15 40.5t36 18.5q-65 0 -115.5 -47.5t-50.5 -106.5v-264q0 -40 20 -56t69 -16h23v-10h-307v10
h32q42 0 57.5 15.5t15.5 56.5v347q0 35 -14 48t-50 13h-41v10l192 5l5 -5z" />
    <glyph glyph-name="Sacute" unicode="&#x15a;" horiz-adv-x="625" 
d="M314 786l-7 5q34 49 82 147q20 38 48 38q17 0 28 -11t11 -27q0 -24 -29 -45q-5 -4 -35 -24t-52.5 -39t-45.5 -44zM71 281h10q6 -131 79.5 -205t183.5 -76q69 -2 117.5 35.5t48.5 98.5q0 35 -19 62t-49.5 43.5t-70 32.5t-81 28.5t-81 32t-70 42.5t-49.5 61t-19 86
q0 82 61 136t152 54q55 0 101.5 -15t76.5 -30.5t45 -15.5q17 0 24 14t7 47h10v-230h-10q-13 103 -80.5 161t-169.5 58q-67 0 -112.5 -41.5t-45.5 -96.5q0 -42 24.5 -74t64 -52t87.5 -37.5t96 -36t87.5 -41t64 -60t24.5 -86.5q0 -84 -61.5 -135.5t-165.5 -51.5
q-60 0 -110.5 21.5t-81.5 42.5t-44 21q-34 0 -34 -74h-10v281z" />
    <glyph glyph-name="sacute" unicode="&#x15b;" horiz-adv-x="502" 
d="M256 589l-7 5q34 49 82 147q20 38 48 38q17 0 28 -11t11 -27q0 -24 -28 -45q-8 -6 -28 -19.5t-33.5 -23t-34 -27t-38.5 -37.5zM55 205h10q12 -102 77.5 -153.5t133.5 -51.5q54 0 86 27.5t32 67.5q0 37 -35 61t-84.5 38.5t-99 31.5t-84 52.5t-33.5 89.5q1 61 47 102
t117 41q56 0 105 -20.5t64 -20.5q31 0 31 35h9v-197h-9q-10 94 -60 143t-133 49q-49 0 -80 -28t-31 -68q0 -42 35 -68t85 -40t100.5 -29.5t85.5 -47t35 -81.5q0 -69 -48.5 -109t-128.5 -40q-46 0 -84.5 16.5t-63.5 32.5t-39 16q-30 0 -30 -51h-10v202z" />
    <glyph glyph-name="Scircumflex" unicode="&#x15c;" horiz-adv-x="625" 
d="M485 795l-6 -8l-163 109l-161 -109l-6 8l162 165h10zM71 281h10q6 -131 79.5 -205t183.5 -76q69 -2 117.5 35.5t48.5 98.5q0 35 -19 62t-49.5 43.5t-70 32.5t-81 28.5t-81 32t-70 42.5t-49.5 61t-19 86q0 82 61 136t152 54q55 0 101.5 -15t76.5 -30.5t45 -15.5
q17 0 24 14t7 47h10v-230h-10q-13 103 -80.5 161t-169.5 58q-67 0 -112.5 -41.5t-45.5 -96.5q0 -42 24.5 -74t64 -52t87.5 -37.5t96 -36t87.5 -41t64 -60t24.5 -86.5q0 -84 -61.5 -135.5t-165.5 -51.5q-60 0 -110.5 21.5t-81.5 42.5t-44 21q-34 0 -34 -74h-10v281z" />
    <glyph glyph-name="scircumflex" unicode="&#x15d;" horiz-adv-x="502" 
d="M428 598l-7 -8l-163 109l-160 -109l-7 8l162 165h10zM55 205h10q12 -102 77.5 -153.5t133.5 -51.5q54 0 86 27.5t32 67.5q0 37 -35 61t-84.5 38.5t-99 31.5t-84 52.5t-33.5 89.5q1 61 47 102t117 41q56 0 105 -20.5t64 -20.5q31 0 31 35h9v-197h-9q-10 94 -60 143
t-133 49q-49 0 -80 -28t-31 -68q0 -42 35 -68t85 -40t100.5 -29.5t85.5 -47t35 -81.5q0 -69 -48.5 -109t-128.5 -40q-46 0 -84.5 16.5t-63.5 32.5t-39 16q-30 0 -30 -51h-10v202z" />
    <glyph glyph-name="Scedilla" unicode="&#x15e;" horiz-adv-x="625" 
d="M548 482h-10q-13 103 -80.5 161t-169.5 58q-67 0 -112.5 -41.5t-45.5 -96.5q0 -42 24.5 -74t64 -52t87.5 -37.5t96 -36t87.5 -41t64 -60t24.5 -86.5q0 -84 -61.5 -135.5t-165.5 -51.5h-16l-50 -90q31 29 81 29q43 0 70 -21t27 -56q0 -42 -36 -67.5t-88 -25.5
q-53 0 -98 28l5 8q34 -23 79 -23q34 0 56.5 21.5t22.5 53.5q0 29 -16 46.5t-42 17.5q-41 0 -78 -36l-5 4l63 112q-53 4 -98 25t-72.5 40t-40.5 19q-34 0 -34 -74h-10v281h10q6 -131 79.5 -205t183.5 -76q69 -2 117.5 35.5t48.5 98.5q0 35 -19 62t-49.5 43.5t-70 32.5
t-81 28.5t-81 32t-70 42.5t-49.5 61t-19 86q0 82 61 136t152 54q55 0 101.5 -15t76.5 -30.5t45 -15.5q17 0 24 14t7 47h10v-230z" />
    <glyph glyph-name="scedilla" unicode="&#x15f;" horiz-adv-x="502" 
d="M431 308h-9q-10 94 -60 143t-133 49q-49 0 -80 -28t-31 -68q0 -42 35 -68t85 -40t100.5 -29.5t85.5 -47t35 -81.5q0 -69 -48.5 -109t-128.5 -40q-19 0 -28 1l-49 -88q32 30 81 30q44 0 71 -21.5t27 -56.5q0 -42 -36 -67.5t-89 -25.5q-52 0 -97 28l5 8q37 -23 79 -23
q34 0 56 21.5t22 54.5q0 29 -16 46t-42 17q-39 0 -78 -36l-5 4l62 111q-44 7 -90.5 34.5t-59.5 27.5q-30 0 -30 -51h-10v202h10q12 -102 77.5 -153.5t133.5 -51.5q54 0 86 27.5t32 67.5q0 37 -35 61t-84.5 38.5t-99 31.5t-84 52.5t-33.5 89.5q1 61 47 102t117 41
q56 0 105 -20.5t64 -20.5q31 0 31 35h9v-197z" />
    <glyph glyph-name="Scaron" unicode="&#x160;" horiz-adv-x="625" 
d="M139 952l7 8l163 -109l160 109l7 -8l-162 -165h-10zM71 281h10q6 -131 79.5 -205t183.5 -76q69 -2 117.5 35.5t48.5 98.5q0 35 -19 62t-49.5 43.5t-70 32.5t-81 28.5t-81 32t-70 42.5t-49.5 61t-19 86q0 82 61 136t152 54q55 0 101.5 -15t76.5 -30.5t45 -15.5q17 0 24 14
t7 47h10v-230h-10q-13 103 -80.5 161t-169.5 58q-67 0 -112.5 -41.5t-45.5 -96.5q0 -42 24.5 -74t64 -52t87.5 -37.5t96 -36t87.5 -41t64 -60t24.5 -86.5q0 -84 -61.5 -135.5t-165.5 -51.5q-60 0 -110.5 21.5t-82 42.5t-44.5 21q-33 0 -33 -74h-10v281z" />
    <glyph glyph-name="scaron" unicode="&#x161;" horiz-adv-x="502" 
d="M82 755l6 8l163 -109l160 109l7 -8l-162 -165h-10zM55 205h10q12 -102 77.5 -153.5t133.5 -51.5q54 0 86 27.5t32 67.5q0 37 -35 61t-84.5 38.5t-99 31.5t-84 52.5t-33.5 89.5q1 61 47 102t117 41q56 0 105 -20.5t64 -20.5q31 0 31 35h9v-197h-9q-10 94 -60 143t-133 49
q-49 0 -80 -28t-31 -68q0 -42 35 -68t85 -40t100.5 -29.5t85.5 -47t35 -81.5q0 -69 -48.5 -109t-128.5 -40q-46 0 -84.5 16.5t-63.5 32.5t-39 16q-30 0 -30 -51h-10v202z" />
    <glyph glyph-name="Tcedilla" unicode="&#x162;" horiz-adv-x="710" 
d="M676 448l-10 -1q-22 135 -55 189t-87 54h-109q-11 0 -15.5 -4.5t-4.5 -17.5v-586q0 -41 17 -56.5t58 -15.5h35v-10h-151l-53 -95q31 29 81 29q44 0 71 -21t27 -56q0 -42 -36 -67.5t-89 -25.5q-52 0 -97 28l5 8q37 -23 79 -23q34 0 56.5 21.5t22.5 53.5q0 29 -16 46.5
t-42 17.5q-41 0 -78 -36l-6 4l65 116h-153v10h34q43 0 59.5 15.5t16.5 56.5v586q0 13 -4.5 17.5t-16.5 4.5h-104q-48 0 -78.5 -53.5t-54.5 -189.5l-10 1l26 252h595z" />
    <glyph glyph-name="tcedilla" unicode="&#x163;" horiz-adv-x="328" 
d="M203 -11l-52 -92q32 29 81 29q44 0 71 -21t27 -56q0 -42 -36 -67.5t-89 -25.5q-52 0 -97 28l5 8q37 -23 79 -23q34 0 56 21.5t22 53.5q0 29 -16 46.5t-42 17.5q-39 0 -78 -36l-5 4l64 113q-52 5 -79.5 35.5t-27.5 85.5v380h-72v10h27q64 0 94.5 43.5t30.5 156.5h10v-200
h113v-10h-113v-402q0 -38 16.5 -59.5t43.5 -21.5q34 0 53.5 21t19.5 58h10q0 -47 -29 -72t-82 -25h-5z" />
    <glyph glyph-name="Tcaron" unicode="&#x164;" horiz-adv-x="710" 
d="M177 952l7 8l163 -109l160 109l7 -8l-162 -165h-11zM676 448l-10 -1q-22 135 -55 189t-87 54h-109q-11 0 -15.5 -4.5t-4.5 -17.5v-586q0 -41 17 -56.5t58 -15.5h35v-10h-314v10h34q43 0 59.5 15.5t16.5 56.5v586q0 13 -4.5 17.5t-16.5 4.5h-104q-48 0 -78.5 -53.5
t-54.5 -189.5l-10 1l26 252h595z" />
    <glyph glyph-name="tcaron" unicode="&#x165;" horiz-adv-x="428" 
d="M312 603v10q46 1 71.5 26.5t25.5 73.5q-3 -18 -16.5 -29t-32.5 -11q-23 0 -37 13.5t-14 35.5q0 24 14.5 38.5t39.5 14.5q26 0 41 -17t15 -45q0 -54 -28 -82t-79 -28zM176 500h113v-10h-113v-402q0 -38 16.5 -59.5t43.5 -21.5q34 0 53.5 21t19.5 58h10q0 -47 -29 -72
t-82 -25q-59 0 -90.5 31t-31.5 90v380h-72v10h27q65 0 95 43.5t30 156.5h10v-200z" />
    <glyph glyph-name="Tbar" unicode="&#x166;" horiz-adv-x="710" 
d="M501 818h-315v10h315v-10zM676 448l-10 -1q-22 135 -55 189t-87 54h-109q-11 0 -15.5 -4.5t-4.5 -17.5v-586q0 -41 17 -56.5t58 -15.5h35v-10h-314v10h34q43 0 59.5 15.5t16.5 56.5v586q0 13 -4.5 17.5t-16.5 4.5h-104q-48 0 -78.5 -53.5t-54.5 -189.5l-10 1l26 252h595z
" />
    <glyph glyph-name="tbar" unicode="&#x167;" horiz-adv-x="328" 
d="M309 86h10q0 -47 -29 -72t-82 -25q-59 0 -90.5 31t-31.5 90v159h-50v10h50v211h-72v10h27q64 0 94.5 43.5t30.5 156.5h10v-200h113v-10h-113v-211h117v-10h-117v-181q0 -38 16.5 -59.5t43.5 -21.5q34 0 53.5 21t19.5 58z" />
    <glyph glyph-name="Utilde" unicode="&#x168;" horiz-adv-x="767" 
d="M523 953l9 6q39 -42 39 -84q0 -31 -18.5 -48t-51.5 -17q-35 0 -101.5 33.5t-102.5 33.5q-44 0 -44 -48q0 -29 13 -49l-9 -6q-28 39 -28 77q0 37 22 60t57 23q33 0 99 -31.5t95 -31.5q17 0 27 9.5t10 24.5q0 24 -16 48zM761 690h-22q-52 0 -70 -24.5t-18 -97.5v-341
q0 -115 -63 -176.5t-181 -61.5q-283 0 -283 240v389q0 41 -15 56.5t-57 15.5h-38v10h317v-10h-41q-41 0 -56.5 -15.5t-15.5 -56.5v-391q0 -224 210 -224q100 0 156.5 58.5t56.5 165.5v341q0 72 -23.5 97t-90.5 25h-32v10h266v-10z" />
    <glyph glyph-name="utilde" unicode="&#x169;" horiz-adv-x="655" 
d="M436 753l9 6q39 -42 39 -85q0 -30 -18.5 -47t-51.5 -17q-35 0 -101.5 33.5t-102.5 33.5q-44 0 -44 -48q0 -29 13 -49l-9 -6q-28 41 -28 77q0 37 22 60t57 23q34 0 99.5 -31.5t94.5 -31.5q17 0 27 9.5t10 24.5q0 24 -16 48zM540 495v-424q0 -35 13.5 -48t49.5 -13h42v-10
l-188 -5l-5 5v102h-2q-16 -46 -63.5 -79.5t-107.5 -33.5q-84 0 -129 42t-45 118v269q0 41 -15 56.5t-56 15.5h-24v10h181l5 -5v-362q0 -122 108 -122q57 0 101.5 43t44.5 94v270q0 41 -15 56.5t-55 15.5h-22v10h177z" />
    <glyph glyph-name="Umacron" unicode="&#x16a;" horiz-adv-x="767" 
d="M549 818h-315v10h315v-10zM761 690h-22q-52 0 -70 -24.5t-18 -97.5v-341q0 -115 -63 -176.5t-181 -61.5q-283 0 -283 240v389q0 41 -15 56.5t-57 15.5h-38v10h317v-10h-41q-41 0 -56.5 -15.5t-15.5 -56.5v-391q0 -224 210 -224q100 0 156.5 58.5t56.5 165.5v341
q0 72 -23.5 97t-90.5 25h-32v10h266v-10z" />
    <glyph glyph-name="umacron" unicode="&#x16b;" horiz-adv-x="655" 
d="M462 618h-315v10h315v-10zM540 495v-424q0 -35 13.5 -48t49.5 -13h42v-10l-188 -5l-5 5v102h-2q-16 -46 -63.5 -79.5t-107.5 -33.5q-84 0 -129 42t-45 118v269q0 41 -15 56.5t-56 15.5h-24v10h181l5 -5v-362q0 -122 108 -122q57 0 101.5 43t44.5 94v270q0 41 -15 56.5
t-55 15.5h-22v10h177z" />
    <glyph glyph-name="Ubreve" unicode="&#x16c;" horiz-adv-x="767" 
d="M543 967h9q-1 -82 -44 -127t-113 -45q-67 0 -110 45t-43 127h9q8 -54 46 -84t98 -30q62 0 101 30t47 84zM761 690h-22q-52 0 -70 -24.5t-18 -97.5v-341q0 -115 -63 -176.5t-181 -61.5q-283 0 -283 240v389q0 41 -15 56.5t-57 15.5h-38v10h317v-10h-41q-41 0 -56.5 -15.5
t-15.5 -56.5v-391q0 -224 210 -224q100 0 156.5 58.5t56.5 165.5v341q0 72 -23.5 97t-90.5 25h-32v10h266v-10z" />
    <glyph glyph-name="ubreve" unicode="&#x16d;" horiz-adv-x="655" 
d="M456 767h9q-1 -82 -44 -127t-113 -45q-67 0 -110 45t-43 127h9q8 -54 46 -84t98 -30q62 0 101 30t47 84zM540 495v-424q0 -35 13.5 -48t49.5 -13h41v-10l-187 -5l-5 5v102h-2q-16 -46 -63.5 -79.5t-107.5 -33.5q-84 0 -129 42t-45 118v269q0 41 -15 56.5t-56 15.5h-24v10
h181l5 -5v-362q0 -122 108 -122q57 0 101.5 43t44.5 94v270q0 41 -15 56.5t-55 15.5h-22v10h177z" />
    <glyph glyph-name="Uring" unicode="&#x16e;" horiz-adv-x="767" 
d="M396 965q43 0 71.5 -28.5t28.5 -71.5t-28.5 -71.5t-71.5 -28.5t-71.5 28.5t-28.5 71.5t28.5 71.5t71.5 28.5zM396 955q-38 0 -63.5 -26t-25.5 -64t25.5 -64t63.5 -26t63.5 26t25.5 64t-25.5 64t-63.5 26zM761 690h-22q-52 0 -70 -24.5t-18 -97.5v-341q0 -115 -63 -176.5
t-181 -61.5q-283 0 -283 240v389q0 41 -15 56.5t-57 15.5h-38v10h317v-10h-41q-41 0 -56.5 -15.5t-15.5 -56.5v-391q0 -224 210 -224q100 0 156.5 58.5t56.5 165.5v341q0 72 -23.5 97t-90.5 25h-32v10h266v-10z" />
    <glyph glyph-name="uring" unicode="&#x16f;" horiz-adv-x="655" 
d="M309 765q43 0 71.5 -28.5t28.5 -71.5t-28.5 -71.5t-71.5 -28.5t-71.5 28.5t-28.5 71.5t28.5 71.5t71.5 28.5zM309 755q-38 0 -63.5 -26t-25.5 -64t25.5 -64t63.5 -26t63.5 26t25.5 64t-25.5 64t-63.5 26zM540 495v-424q0 -35 13.5 -48t49.5 -13h42v-10l-188 -5l-5 5v102
h-2q-16 -46 -63.5 -79.5t-107.5 -33.5q-84 0 -129 42t-45 118v269q0 41 -15 56.5t-56 15.5h-24v10h181l5 -5v-362q0 -122 108 -122q57 0 101.5 43t44.5 94v270q0 41 -15 56.5t-55 15.5h-22v10h177z" />
    <glyph glyph-name="Uhungarumlaut" unicode="&#x170;" horiz-adv-x="767" 
d="M325 786l-6 6q19 27 34.5 54t30.5 57.5t17 34.5q20 38 48 38q17 0 28 -10.5t11 -26.5q0 -23 -29 -46q-6 -4 -35 -24t-52.5 -39t-46.5 -44zM480 784l-6 5q15 21 29 44.5t21.5 38.5l18 36t13.5 28q20 38 48 38q16 0 27.5 -11t11.5 -26q0 -23 -29 -46q-6 -4 -35 -24
t-52.5 -39t-46.5 -44zM761 690h-22q-52 0 -70 -24.5t-18 -97.5v-341q0 -115 -63 -176.5t-181 -61.5q-283 0 -283 240v389q0 41 -15 56.5t-57 15.5h-38v10h317v-10h-41q-41 0 -56.5 -15.5t-15.5 -56.5v-391q0 -224 210 -224q100 0 156.5 58.5t56.5 165.5v341q0 72 -23.5 97
t-90.5 25h-32v10h266v-10z" />
    <glyph glyph-name="uhungarumlaut" unicode="&#x171;" horiz-adv-x="655" 
d="M238 586l-6 6q31 44 82 146q20 38 48 38q17 0 28 -10.5t11 -26.5q0 -24 -29 -46q-6 -4 -35 -24t-52.5 -39t-46.5 -44zM393 584l-6 5q15 21 29 44.5t21.5 38.5l18 36t13.5 28q20 38 48 38q16 0 27.5 -11t11.5 -26q0 -25 -29 -46q-6 -4 -35 -24t-52.5 -39t-46.5 -44z
M540 495v-424q0 -35 13.5 -48t49.5 -13h42v-10l-188 -5l-5 5v102h-2q-16 -45 -63.5 -79t-107.5 -34q-84 0 -129 42t-45 118v269q0 41 -15 56.5t-56 15.5h-24v10h181l5 -5v-362q0 -122 108 -122q57 0 101.5 43t44.5 94v270q0 41 -15 56.5t-55 15.5h-22v10h177z" />
    <glyph glyph-name="Uogonek" unicode="&#x172;" horiz-adv-x="767" 
d="M761 700v-10h-22q-52 0 -70 -24.5t-18 -97.5v-341q0 -187 -161 -229q-50 -14 -81.5 -51.5t-31.5 -81.5q0 -37 19 -58t53 -21q32 0 62 22l4 -5q-42 -50 -104 -50q-40 0 -65 25t-25 66q0 101 140 149q-23 -4 -54 -4q-283 0 -283 240v389q0 41 -15 56.5t-57 15.5h-38v10h317
v-10h-41q-41 0 -56.5 -15.5t-15.5 -56.5v-391q0 -224 210 -224q100 0 156.5 58.5t56.5 165.5v341q0 72 -23.5 97t-90.5 25h-32v10h266z" />
    <glyph glyph-name="uogonek" unicode="&#x173;" horiz-adv-x="655" 
d="M664 -191l4 -4q-41 -51 -104 -51q-40 0 -65 25t-25 66q0 55 43 95t115 60l-175 -5l-5 5v102h-2q-16 -46 -63.5 -79.5t-107.5 -33.5q-84 0 -129 42t-45 118v269q0 41 -15 56.5t-56 15.5h-24v10h181l5 -5v-362q0 -122 108 -122q57 0 101.5 43t44.5 94v270q0 41 -15 56.5
t-55 15.5h-22v10h177l5 -5v-424q0 -35 13.5 -48t49.5 -13h42l-1 -10q-51 -14 -82.5 -51.5t-31.5 -81.5q0 -38 19 -59t53 -21q30 0 62 22z" />
    <glyph glyph-name="Wcircumflex" unicode="&#x174;" horiz-adv-x="1200" 
d="M457 787l-7 8l162 165h11l164 -165l-7 -8l-163 109zM1187 700v-10h-23q-52 0 -81 -32t-66 -125l-212 -533h-12l-176 470l-216 -470h-12l-228 593q-23 59 -47.5 78t-78.5 19h-22v10h343v-10h-41q-30 0 -46.5 -13.5t-16.5 -37.5q0 -17 10 -41l182 -481l168 367l-49 129
q-16 46 -33.5 61.5t-51.5 15.5h-24v10h297v-10h-45q-49 0 -49 -43q0 -16 12 -49l173 -479l164 417q21 54 21 85q0 32 -21.5 50.5t-61.5 18.5h-51v10h294z" />
    <glyph glyph-name="wcircumflex" unicode="&#x175;" horiz-adv-x="900" 
d="M310 587l-7 8l162 165h11l164 -165l-7 -8l-163 109zM890 500v-10h-26q-32 0 -54 -21t-40 -69l-152 -400h-10l-158 383l-150 -383h-10l-174 418q-18 44 -35.5 58t-53.5 14h-18v10h275v-10h-38q-42 0 -42 -33q0 -10 13 -42l119 -297l150 382h10l154 -388l109 291
q10 23 10 38q0 23 -16.5 36t-44.5 13h-48v10h230z" />
    <glyph glyph-name="Ycircumflex" unicode="&#x176;" horiz-adv-x="753" 
d="M224 787l-7 8l163 165h10l164 -165l-7 -8l-163 109zM740 700v-10h-16q-38 0 -68.5 -27.5t-69.5 -97.5l-158 -286v-196q0 -42 17 -57.5t63 -15.5h43v-10h-343v10h41q49 0 67 15.5t18 57.5v189l-195 361q-18 33 -40 45t-64 12h-22v10h310v-10h-41q-20 0 -31.5 -9.5
t-11.5 -25.5q0 -12 10 -32l175 -326l146 264q25 45 25 72q0 57 -91 57h-27v10h263z" />
    <glyph glyph-name="ycircumflex" unicode="&#x177;" horiz-adv-x="625" 
d="M177 588l-6 8l162 165h10l164 -165l-7 -8l-163 109zM616 490h-26q-30 0 -51.5 -19t-43.5 -69l-205 -487q-37 -87 -75.5 -131t-89.5 -44t-83.5 28.5t-32.5 75.5q0 28 17 47.5t42 19.5q26 0 43 -15.5t17 -40.5q0 -24 -15.5 -40t-40.5 -16q-20 0 -35.5 13t-17.5 32
q-1 -43 29 -68.5t77 -25.5q46 0 82.5 43t72.5 127l33 77l-180 419q-19 45 -36 59.5t-52 14.5h-18v10h273v-10h-38q-42 0 -42 -33q0 -12 12 -41l127 -309l125 297q10 21 10 37q0 23 -19.5 36t-52.5 13h-37v10h231v-10z" />
    <glyph glyph-name="Ydieresis" unicode="&#x178;" horiz-adv-x="753" 
d="M493 814q-21 0 -35.5 14.5t-14.5 36.5t14.5 36.5t35.5 14.5q22 0 36.5 -14.5t14.5 -36.5t-14.5 -36.5t-36.5 -14.5zM261 814q-21 0 -36 14.5t-15 35.5q0 22 15 37t36 15q22 0 36.5 -15t14.5 -37t-14.5 -36t-36.5 -14zM740 700v-10h-16q-38 0 -68.5 -27.5t-69.5 -97.5
l-158 -286v-196q0 -42 17 -57.5t63 -15.5h43v-10h-343v10h41q49 0 67 15.5t18 57.5v189l-195 361q-18 33 -40 45t-64 12h-22v10h310v-10h-41q-20 0 -31.5 -9.5t-11.5 -25.5q0 -12 10 -32l175 -326l146 264q25 45 25 72q0 57 -91 57h-27v10h263z" />
    <glyph glyph-name="Zacute" unicode="&#x179;" horiz-adv-x="662" 
d="M335 786l-6 5q15 21 29 44.5t21.5 38.5l18 36t13.5 28q20 38 48 38q16 0 27.5 -11t11.5 -27q0 -24 -29 -45q-6 -4 -35 -24t-52.5 -39t-46.5 -44zM615 695l-473 -685h283q70 0 110 52.5t82 195.5l10 -1l-52 -251l-7 -6h-538l-3 5l471 685h-259q-64 0 -98.5 -53.5
t-66.5 -197.5l-10 2l32 255l6 4h509z" />
    <glyph glyph-name="zacute" unicode="&#x17a;" horiz-adv-x="531" 
d="M276 586l-6 5q33 48 81 147q20 38 49 38q16 0 27 -11t11 -27q0 -24 -28 -45q-8 -6 -28 -19.5t-33.5 -23t-34 -27t-38.5 -37.5zM483 496l-343 -486h189q58 0 94.5 42t59.5 135l10 -2l-37 -185h-416l-4 5l337 485h-160q-60 0 -90.5 -37.5t-58.5 -143.5l-10 1l31 190h395z
" />
    <glyph glyph-name="Zdotaccent" unicode="&#x17b;" horiz-adv-x="662" 
d="M328 919q22 0 36.5 -15t14.5 -37t-14.5 -36.5t-36.5 -14.5t-36.5 14.5t-14.5 36.5t14.5 37t36.5 15zM615 695l-473 -685h283q70 0 110 52.5t82 195.5l10 -1l-52 -251l-7 -6h-538l-3 5l471 685h-259q-64 0 -98.5 -53.5t-66.5 -197.5l-10 2l32 255l6 4h509z" />
    <glyph glyph-name="zdotaccent" unicode="&#x17c;" horiz-adv-x="531" 
d="M269 719q22 0 36.5 -15t14.5 -37t-14.5 -36.5t-36.5 -14.5t-37 14.5t-15 36.5t15 37t37 15zM483 496l-343 -486h189q58 0 94.5 42t59.5 135l10 -2l-37 -185h-416l-4 5l337 485h-160q-60 0 -90.5 -37.5t-58.5 -143.5l-10 1l31 190h395z" />
    <glyph glyph-name="Zcaron" unicode="&#x17d;" horiz-adv-x="662" 
d="M161 952l7 8l163 -109l160 109l7 -8l-163 -165h-10zM615 695l-473 -685h283q70 0 110 52.5t82 195.5l10 -1l-52 -251l-7 -6h-538l-3 5l471 685h-259q-64 0 -98.5 -53.5t-66.5 -197.5l-10 2l32 255l6 4h509z" />
    <glyph glyph-name="zcaron" unicode="&#x17e;" horiz-adv-x="531" 
d="M102 752l6 8l163 -109l161 109l6 -8l-162 -165h-10zM483 496l-343 -486h189q58 0 94.5 42t59.5 135l10 -2l-37 -185h-416l-4 5l337 485h-160q-60 0 -90.5 -37.5t-58.5 -143.5l-10 1l31 190h395z" />
    <glyph glyph-name="florin" unicode="&#x192;" horiz-adv-x="622" 
d="M292 453l21 130q13 85 58 131t114 46q52 0 81.5 -27.5t29.5 -74.5q0 -28 -15 -46t-44 -18q-26 0 -41.5 14t-15.5 39q0 26 15.5 41.5t38.5 15.5q21 0 35 -12.5t17 -33.5q0 42 -26.5 67t-74.5 25q-60 0 -99 -36.5t-48 -102.5q-8 -72 22 -115t93 -43h40l-2 -10h-111
l-84 -536q-13 -80 -55.5 -123.5t-108.5 -43.5q-47 0 -75.5 28t-28.5 73q0 26 16 43.5t40 17.5q22 0 36.5 -14.5t14.5 -36.5q0 -23 -13.5 -37.5t-36.5 -14.5q-21 0 -34 12.5t-13 29.5q0 -41 25.5 -66t68.5 -25q57 0 94 42t37 104q0 23 -14 42.5t-35 23.5l76 481h-75l2 10h75z
" />
    <glyph glyph-name="Acaron" unicode="&#x1cd;" horiz-adv-x="749" 
d="M387 800l-164 165l6 8l163 -109l160 109l7 -8l-162 -165h-10zM735 10v-10h-308v10h29q70 0 70 49q0 18 -12 52l-41 116h-277l-47 -115q-15 -37 -15 -57q0 -45 65 -45h52v-10h-237v10h28q31 0 52 23.5t45 80.5l244 586h16l217 -599q19 -52 36 -71.5t54 -19.5h29zM470 237
l-124 352l-145 -352h269z" />
    <glyph glyph-name="acaron" unicode="&#x1ce;" horiz-adv-x="598" 
d="M276 587l-164 165l6 8l163 -109l161 109l6 -8l-162 -165h-10zM584 76v-17q0 -32 -23.5 -51t-62.5 -19q-43 0 -72.5 20.5t-36.5 60.5q-70 -79 -170 -81q-79 -1 -122.5 30.5t-43.5 89.5t44.5 93.5t120.5 35.5h169v108q0 151 -139 151q-65 0 -113 -37.5t-48 -94.5
q13 38 54 38q25 0 40.5 -15.5t15.5 -40.5t-16 -40.5t-42 -15.5q-28 0 -45 19.5t-17 52.5q0 66 55.5 106t145.5 42q103 1 153 -48t50 -141v-259q0 -55 42 -55q22 0 36.5 14.5t14.5 37.5v16h10zM387 228h-138q-48 0 -76.5 -31t-28.5 -80q0 -51 26.5 -79t75.5 -28q82 0 141 75
v143z" />
    <glyph glyph-name="Icaron" unicode="&#x1cf;" 
d="M8 952l7 8l163 -109l160 109l7 -8l-162 -165h-11zM331 690h-32q-42 0 -57.5 -15.5t-15.5 -56.5v-536q0 -41 15.5 -56.5t57.5 -15.5h32v-10h-305v10h34q42 0 57 15.5t15 56.5v536q0 41 -15 56.5t-57 15.5h-34v10h305v-10z" />
    <glyph glyph-name="icaron" unicode="&#x1d0;" horiz-adv-x="324" 
d="M-13 752l6 8l163 -109l161 109l6 -8l-162 -165h-10zM206 500v-418q0 -41 15.5 -56.5t57.5 -15.5h29v-10h-294v10h30q41 0 56.5 15.5t15.5 56.5v347q0 35 -13.5 48t-49.5 13h-36v10l184 6z" />
    <glyph glyph-name="Ocaron" unicode="&#x1d1;" horiz-adv-x="779" 
d="M220 952l6 8l163 -109l160 109l7 -8l-162 -165h-10zM401 711q145 0 238.5 -93.5t93.5 -249.5q0 -183 -99.5 -281t-251.5 -98q-148 0 -242 95.5t-94 256.5q0 162 97 266t258 104zM395 701q-110 0 -179 -96t-69 -264q0 -154 67 -248t178 -94q105 0 172.5 97.5t67.5 274.5
q0 151 -64.5 240.5t-172.5 89.5z" />
    <glyph glyph-name="ocaron" unicode="&#x1d2;" horiz-adv-x="602" 
d="M131 752l7 8l163 -109l160 109l7 -8l-162 -165h-11zM306 511q109 0 179.5 -62.5t71.5 -181.5q2 -116 -70.5 -197t-187.5 -81q-116 0 -185 69t-69 185q0 114 72 191t189 77zM302 501q-70 0 -115 -71.5t-45 -186.5t43 -180.5t116 -63.5q78 1 120 72.5t40 195.5
q-2 116 -45.5 175t-113.5 59z" />
    <glyph glyph-name="Ucaron" unicode="&#x1d3;" horiz-adv-x="767" 
d="M225 952l7 8l163 -109l160 109l7 -8l-162 -165h-10zM761 690h-22q-52 0 -70 -24.5t-18 -97.5v-341q0 -115 -63 -176.5t-181 -61.5q-283 0 -283 240v389q0 41 -15 56.5t-57 15.5h-38v10h317v-10h-41q-41 0 -56.5 -15.5t-15.5 -56.5v-391q0 -224 210 -224q100 0 156.5 58.5
t56.5 165.5v341q0 72 -23.5 97t-90.5 25h-32v10h266v-10z" />
    <glyph glyph-name="ucaron" unicode="&#x1d4;" horiz-adv-x="655" 
d="M138 752l7 8l163 -109l160 109l7 -8l-162 -165h-10zM540 495v-424q0 -35 13.5 -48t49.5 -13h42v-10l-188 -5l-5 5v102h-2q-16 -46 -63.5 -79.5t-107.5 -33.5q-84 0 -129 42t-45 118v269q0 41 -15 56.5t-56 15.5h-24v10h181l5 -5v-362q0 -122 108 -122q57 0 101.5 43
t44.5 94v270q0 41 -15 56.5t-55 15.5h-22v10h177z" />
    <glyph glyph-name="Gcaron" unicode="&#x1e6;" horiz-adv-x="760" 
d="M221 955l7 8l163 -109l160 109l7 -8l-162 -165h-11zM692 96l-5 -5q-79 -51 -146.5 -76.5t-150.5 -25.5q-156 0 -250 95t-94 255q0 161 99.5 266.5t250.5 105.5q66 0 132.5 -24t83.5 -24q24 -1 34.5 10t11.5 36h10v-297h-10q-8 147 -70 217t-181 71q-113 0 -186.5 -101.5
t-73.5 -259.5q0 -155 68.5 -247.5t181.5 -92.5q94 0 148.5 40.5t54.5 106.5v99q0 40 -16 56t-56 16h-40v10h252v-10q-27 0 -37.5 -11.5t-10.5 -40.5v-169z" />
    <glyph glyph-name="gcaron" unicode="&#x1e7;" horiz-adv-x="534" 
d="M256 587l-164 165l6 8l163 -109l161 109l6 -8l-162 -165h-10zM210 161v2q-71 13 -110 56t-39 107q0 81 57 132.5t155 51.5q81 0 135 -48q48 8 82 42.5t33 78.5q-1 -19 -13.5 -29.5t-31.5 -10.5q-22 0 -36 14t-14 36q0 23 15 37.5t39 14.5q23 0 37 -18t14 -43
q0 -48 -34.5 -85t-82.5 -45q44 -44 44 -108q0 -89 -56.5 -140t-145.5 -51q-160 0 -160 -79q0 -65 123 -57q25 0 85 4t82 4q65 0 100.5 -34t35.5 -96q0 -74 -66 -115.5t-186 -41.5q-97 0 -150 30.5t-53 85.5q0 53 38 82t108 29v4h-28q-63 0 -97 22t-34 62q0 48 40 76t114 30z
M146 326q0 -80 30 -120.5t82 -40.5q54 0 85.5 45t31.5 131q0 78 -30 118.5t-85 40.5q-50 0 -82 -46t-32 -128zM357 -43h-142q-65 0 -100.5 -26.5t-35.5 -74.5q0 -50 50.5 -78t142.5 -28q107 0 164.5 33t57.5 92q0 38 -37 60t-100 22z" />
    <glyph glyph-name="Scommaaccent" unicode="&#x218;" horiz-adv-x="625" 
d="M71 281h10q6 -131 79.5 -205t183.5 -76q69 -2 117.5 35.5t48.5 98.5q0 35 -19 62t-49.5 43.5t-70 32.5t-81 28.5t-81 32t-70 42.5t-49.5 61t-19 86q0 82 61 136t152 54q55 0 101.5 -15t76.5 -30.5t45 -15.5q17 0 24 14t7 47h10v-230h-10q-13 103 -80.5 161t-169.5 58
q-67 0 -112.5 -41.5t-45.5 -96.5q0 -42 24.5 -74t64 -52t87.5 -37.5t96 -36t87.5 -41t64 -60t24.5 -86.5q0 -84 -61.5 -135.5t-165.5 -51.5q-60 0 -110.5 21.5t-81.5 42.5t-44 21q-34 0 -34 -74h-10v281zM283 -269v10q46 0 71 26t25 73q-3 -18 -16.5 -29t-32.5 -11
q-23 0 -37 13.5t-14 35.5q0 24 15 39t39 15q26 0 41.5 -17t14.5 -46q0 -53 -28 -81t-78 -28z" />
    <glyph glyph-name="scommaaccent" unicode="&#x219;" horiz-adv-x="502" 
d="M55 205h10q12 -102 77.5 -153.5t133.5 -51.5q54 0 86 27.5t32 67.5q0 37 -35 61t-84.5 38.5t-99 31.5t-84 52.5t-33.5 89.5q1 61 47 102t117 41q56 0 105 -20.5t64 -20.5q31 0 31 35h9v-197h-9q-10 94 -60 143t-133 49q-49 0 -80 -28t-31 -68q0 -42 35 -68t85 -40
t100.5 -29.5t85.5 -47t35 -81.5q0 -69 -48.5 -109t-128.5 -40q-46 0 -84.5 16.5t-63.5 32.5t-39 16q-30 0 -30 -51h-10v202zM203 -266v10q46 0 71.5 26t25.5 74q-3 -18 -16.5 -29t-32.5 -11q-23 0 -37 13.5t-14 35.5q0 23 15 38t39 15q25 0 40.5 -17t15.5 -45q0 -54 -28 -82
t-79 -28z" />
    <glyph glyph-name="Tcommaaccent" unicode="&#x21a;" horiz-adv-x="710" 
d="M676 448l-10 -1q-22 135 -55 189t-87 54h-109q-11 0 -15.5 -4.5t-4.5 -17.5v-586q0 -41 17 -56.5t58 -15.5h35v-10h-314v10h34q43 0 59.5 15.5t16.5 56.5v586q0 13 -4.5 17.5t-16.5 4.5h-104q-48 0 -78.5 -53.5t-54.5 -189.5l-10 1l26 252h595zM300 -263v10q45 0 70.5 26
t25.5 74q-3 -18 -16.5 -29.5t-32.5 -11.5q-23 0 -37 13.5t-14 36.5q0 24 15 38.5t39 14.5q25 0 40.5 -17t15.5 -45q0 -54 -28 -82t-78 -28z" />
    <glyph glyph-name="tcommaaccent" unicode="&#x21b;" horiz-adv-x="328" 
d="M176 500h113v-10h-113v-402q0 -38 16.5 -59.5t43.5 -21.5q34 0 53.5 21t19.5 58h10q0 -47 -29 -72t-82 -25q-59 0 -90.5 31t-31.5 90v380h-72v10h27q65 0 95 43.5t30 156.5h10v-200zM149 -271v10q46 0 71.5 26t25.5 74q-3 -19 -16.5 -30t-32.5 -11q-23 0 -37 13.5
t-14 35.5q0 24 14.5 39t39.5 15t40.5 -17t15.5 -45q0 -54 -28 -82t-79 -28z" />
    <glyph glyph-name="dotlessj" unicode="&#x237;" horiz-adv-x="271" 
d="M104 -39v468q0 35 -13.5 48t-49.5 13h-36v10l184 6l5 -6v-605q0 -70 -39 -113t-102 -43q-53 0 -85.5 29t-32.5 76q0 29 17 47.5t42 18.5q23 0 38.5 -15t15.5 -37q0 -24 -14 -39t-38 -15q-42 0 -49 40q0 -43 29 -68.5t77 -25.5q50 0 82.5 34.5t32.5 89.5q0 33 -17.5 56.5
t-46.5 30.5z" />
    <glyph glyph-name="circumflex" unicode="&#x2c6;" horiz-adv-x="378" 
d="M366 595l-7 -8l-163 109l-160 -109l-7 8l163 165h10z" />
    <glyph glyph-name="caron" unicode="&#x2c7;" horiz-adv-x="395" 
d="M29 752l7 8l163 -109l160 109l7 -8l-162 -165h-10z" />
    <glyph glyph-name="breve" unicode="&#x2d8;" horiz-adv-x="384" 
d="M338 767h9q-1 -82 -44 -127t-113 -45q-67 0 -110 45t-43 127h9q8 -54 46 -84t98 -30q62 0 101 30t47 84z" />
    <glyph glyph-name="dotaccent" unicode="&#x2d9;" horiz-adv-x="209" 
d="M105 719q22 0 36.5 -15t14.5 -37t-14.5 -36.5t-36.5 -14.5t-37 14.5t-15 36.5q0 23 14.5 37.5t37.5 14.5z" />
    <glyph glyph-name="ring" unicode="&#x2da;" horiz-adv-x="300" 
d="M150 765q43 0 71.5 -28.5t28.5 -71.5t-28.5 -71.5t-71.5 -28.5t-71.5 28.5t-28.5 71.5t28.5 71.5t71.5 28.5zM150 755q-38 0 -63.5 -26t-25.5 -64t25.5 -64t63.5 -26t63.5 26t25.5 64t-25.5 64t-63.5 26z" />
    <glyph glyph-name="ogonek" unicode="&#x2db;" horiz-adv-x="335" 
d="M241 11l1 -3q-51 -14 -83 -51.5t-32 -81.5q1 -38 19.5 -59t52.5 -21q30 0 62 22l4 -4q-41 -51 -103 -51q-40 0 -65.5 25t-25.5 66q0 57 46.5 97.5t123.5 60.5z" />
    <glyph glyph-name="tilde" unicode="&#x2dc;" horiz-adv-x="416" 
d="M331 753l9 6q39 -42 39 -85q0 -30 -18.5 -47t-51.5 -17q-35 0 -102 33.5t-103 33.5q-44 0 -44 -48q0 -27 14 -49l-9 -6q-28 39 -28 77q0 37 22 60t57 23q33 0 99 -31.5t95 -31.5q17 0 27 9.5t10 24.5q0 24 -16 48z" />
    <glyph glyph-name="hungarumlaut" unicode="&#x2dd;" horiz-adv-x="423" 
d="M79 586l-6 6q29 42 81 146q20 38 49 38q16 0 27 -11t11 -26q0 -24 -28 -46q-8 -6 -28 -19.5t-33.5 -23t-34 -27t-38.5 -37.5zM234 584l-7 5q34 49 82 147q20 38 48 38q17 0 28 -11t11 -26q0 -24 -28 -46q-8 -6 -28 -19.5t-33.5 -23t-34 -27t-38.5 -37.5z" />
    <glyph glyph-name="commaaccent" unicode="&#x326;" horiz-adv-x="0" 
d="M55 -263v10q45 0 70.5 26t25.5 74q-3 -18 -16.5 -29.5t-32.5 -11.5q-23 0 -37 13.5t-14 36.5q0 24 14.5 38.5t39.5 14.5t40.5 -17t15.5 -45q0 -54 -28 -82t-78 -28z" />
    <glyph glyph-name="Delta" unicode="&#x394;" horiz-adv-x="652" 
d="M624 13l-9 -13h-577l-10 11l297 690h15zM41 10h489l-243 579z" />
    <glyph glyph-name="Omega" unicode="&#x3a9;" horiz-adv-x="802" 
d="M165 10h168q-123 40 -202.5 144.5t-79.5 223.5q0 144 98 238t247 94q154 0 254.5 -94t100.5 -238q0 -120 -85 -227t-211 -141h188q36 0 56.5 20.5t34.5 72.5l8 -2l-21 -101h-286l-3 9q224 102 224 369q0 139 -74 230.5t-186 91.5q-107 0 -178 -91.5t-71 -230.5
q0 -129 55.5 -223.5t153.5 -145.5l-3 -9h-266l-21 101l9 2q14 -52 34.5 -72.5t55.5 -20.5z" />
    <glyph glyph-name="mu" unicode="&#x3bc;" horiz-adv-x="649" 
d="M639 10v-10l-179 -4l-6 6q0 7 8 169h-5q-8 -84 -58 -133t-129 -49q-112 0 -150 83q4 -8 18 -35.5t18 -37t11.5 -31t10 -40t2.5 -41.5q0 -51 17.5 -79t50.5 -28q40 0 77 31l5 -7q-45 -38 -107 -38q-67 0 -102.5 39t-35.5 113q0 24 10.5 98t9.5 132v1v269q0 41 -15 56.5
t-56 15.5h-24v10h181l5 -5v-357q0 -60 26 -92.5t73 -32.5q70 0 112.5 53t42.5 140v212q0 41 -15 56.5t-55 15.5h-22v10h177l5 -5v-424q0 -35 13.5 -48t49.5 -13h36z" />
    <glyph glyph-name="pi" unicode="&#x3c0;" horiz-adv-x="734" 
d="M676 510h-96l-14 -407q-3 -92 54 -92q25 0 41.5 20t16.5 49h10q0 -39 -25.5 -64.5t-67.5 -25.5q-58 0 -89 29.5t-29 85.5l14 405h-204l-25 -481q-1 -29 -29 -29h-175v10q71 0 93 15t24 58l22 415l-8 10q-60 0 -100 -40.5t-48 -107.5l-10 1q9 82 55.5 120.5t134.5 38.5
h455v-10z" />
    <glyph glyph-name="Bdotaccent" unicode="&#x1e02;" horiz-adv-x="719" 
d="M350 826q-22 0 -36.5 14.5t-14.5 36.5t14.5 37t36.5 15t36.5 -15t14.5 -37t-14.5 -36.5t-36.5 -14.5zM26 700h379q102 0 159 -41.5t57 -117.5q0 -63 -47.5 -104.5t-125.5 -48.5q94 -8 152 -59.5t58 -127.5q0 -93 -63.5 -147t-176.5 -54h-392v10h34q42 0 57 15.5t15 56.5
v536q0 41 -15 56.5t-57 15.5h-34v10zM381 690h-135q-20 0 -20 -20v-278h149q152 0 152 145q0 74 -38 113.5t-108 39.5zM246 10h147q81 0 123.5 49t42.5 141q0 89 -47.5 135.5t-136.5 46.5h-149v-352q0 -11 4.5 -15.5t15.5 -4.5z" />
    <glyph glyph-name="bdotaccent" unicode="&#x1e03;" horiz-adv-x="640" 
d="M204 750v-353h2q16 47 61.5 80t104.5 33q99 0 160.5 -64t62.5 -180q2 -117 -71.5 -197t-195.5 -80q-105 0 -212 40v651q0 34 -13.5 47t-49.5 13h-41v10l187 5zM390 704q22 0 37 -14.5t15 -36.5t-15 -36.5t-37 -14.5t-36.5 14.5t-14.5 36.5t14.5 36.5t36.5 14.5zM206 351
v-263q0 -89 122 -89q86 0 129.5 71.5t41.5 199.5q-2 107 -43.5 163t-107.5 56q-56 0 -98.5 -43t-43.5 -95z" />
    <glyph glyph-name="Ddotaccent" unicode="&#x1e0a;" horiz-adv-x="769" 
d="M376 919q22 0 36.5 -15t14.5 -37t-14.5 -36.5t-36.5 -14.5t-36.5 14.5t-14.5 36.5t14.5 37t36.5 15zM26 700h364q151 0 242 -94.5t91 -249.5q0 -161 -94.5 -258.5t-249.5 -97.5h-353v10h34q40 0 56 16t16 56v536q0 41 -15 56.5t-57 15.5h-34v10zM377 690h-131
q-11 0 -15.5 -4.5t-4.5 -15.5v-640q0 -11 4.5 -15.5t15.5 -4.5h124q118 0 186 92t68 254q0 156 -66.5 245t-180.5 89z" />
    <glyph glyph-name="ddotaccent" unicode="&#x1e0b;" horiz-adv-x="638" 
d="M526 750v-668q0 -41 15.5 -56.5t56.5 -15.5h30v-10h-187l-5 5v98h-2q-16 -47 -61 -80.5t-103 -33.5q-100 0 -162 64t-63 180q-1 122 75.5 199.5t199.5 77.5q57 0 114 -19v188q0 35 -13.5 48t-49.5 13h-36v10l185 6zM163 696q22 0 36.5 -14.5t14.5 -36.5t-14.5 -36.5
t-36.5 -14.5t-36.5 14.5t-14.5 36.5t14.5 36.5t36.5 14.5zM434 149v332q-57 19 -113 19q-80 0 -130.5 -72.5t-48.5 -189.5q1 -111 43 -169t108 -58q56 0 98 43t43 95z" />
    <glyph glyph-name="Fdotaccent" unicode="&#x1e1e;" horiz-adv-x="640" 
d="M330 816q-22 0 -36.5 14.5t-14.5 36.5t14.5 37t36.5 15t36.5 -15t14.5 -37t-14.5 -36.5t-36.5 -14.5zM604 440l-8 -2q-31 145 -66 198.5t-94 53.5h-190q-11 0 -15.5 -4.5t-4.5 -15.5v-322h120q104 0 104 134h10v-277h-10q0 133 -104 133h-120v-254q0 -43 19 -58.5
t71 -15.5h52v-10h-342v10h32q43 0 59 16t16 58v532q0 43 -16 58.5t-59 15.5h-32v10h543l5 -5z" />
    <glyph glyph-name="fdotaccent" unicode="&#x1e1f;" horiz-adv-x="339" 
d="M259 969q22 0 36.5 -15t14.5 -37t-14.5 -36.5t-36.5 -14.5t-36.5 14.5t-14.5 36.5t14.5 37t36.5 15zM118 500v87q0 81 43.5 127.5t114.5 46.5q57 0 93 -33.5t36 -84.5q0 -28 -15.5 -45t-41.5 -17t-41.5 14.5t-15.5 39.5q0 24 15 39.5t40 15.5q20 0 34 -13.5t15 -33.5
q0 47 -33.5 77.5t-85.5 30.5q-62 0 -100.5 -39t-38.5 -102q0 -57 26 -83.5t80 -26.5h77v-10h-112v-408q0 -40 20 -56t70 -16h22v-10h-307v10h32q42 0 57.5 15.5t15.5 56.5v408h-83v10h83z" />
    <glyph glyph-name="Macute" unicode="&#x1e3e;" horiz-adv-x="985" 
d="M495 786l-6 5q34 49 82 147q20 38 48 38q17 0 28 -11t11 -27q0 -24 -29 -45q-6 -4 -35 -24t-52.5 -39t-46.5 -44zM959 690h-35q-41 0 -58 -17t-17 -58v-531q0 -42 15.5 -58t56.5 -16h38v-10h-305v10h29q41 0 56.5 16t15.5 58v569l-292 -653h-8l-311 607v-480
q0 -66 18.5 -91.5t65.5 -25.5h42v-10h-247v10h34q43 0 60 25.5t17 91.5v491q0 40 -16.5 56t-57.5 16h-35v10h182l296 -585l261 585h195v-10z" />
    <glyph glyph-name="macute" unicode="&#x1e3f;" horiz-adv-x="1004" 
d="M523 586l-7 5q34 49 82 147q20 38 48 38q17 0 28 -11t11 -27q0 -24 -28 -45q-8 -6 -28 -19.5t-33.5 -23t-34 -27t-38.5 -37.5zM548 391h3q14 47 62.5 83.5t111.5 36.5q82 0 127.5 -42t45.5 -118v-269q0 -41 15.5 -56.5t56.5 -15.5h24v-10h-278v10h22q40 0 55 15.5
t15 56.5v285q0 122 -108 122q-60 0 -103 -42t-43 -95v-270q0 -41 15 -56.5t56 -15.5h21v-10h-275v10h23q40 0 55 15.5t15 56.5v285q0 122 -108 122q-60 0 -103 -42t-43 -95v-270q0 -42 14.5 -57t54.5 -15h23v-10h-288v10h33q42 0 57 15.5t15 56.5v347q0 35 -13.5 48
t-49.5 13h-42v10l193 5l5 -5l-5 -102h3q18 47 63.5 80t107.5 33q64 0 108.5 -35t58.5 -85z" />
    <glyph glyph-name="Mdotaccent" unicode="&#x1e40;" horiz-adv-x="985" 
d="M488 919q22 0 36.5 -15t14.5 -37t-14.5 -36.5t-36.5 -14.5t-36.5 14.5t-14.5 36.5t14.5 37t36.5 15zM959 690h-35q-41 0 -58 -17t-17 -58v-531q0 -42 15.5 -58t56.5 -16h38v-10h-305v10h29q41 0 56.5 16t15.5 58v569l-292 -653h-8l-311 607v-480q0 -66 18.5 -91.5
t65.5 -25.5h42v-10h-247v10h34q43 0 60 25.5t17 91.5v491q0 40 -16.5 56t-57.5 16h-35v10h182l296 -585l261 585h195v-10z" />
    <glyph glyph-name="mdotaccent" unicode="&#x1e41;" horiz-adv-x="1004" 
d="M516 719q22 0 36.5 -15t14.5 -37t-14.5 -36.5t-36.5 -14.5t-37 14.5t-15 36.5q0 23 15 37.5t37 14.5zM548 391h3q14 47 62.5 83.5t111.5 36.5q82 0 127.5 -42t45.5 -118v-269q0 -41 15.5 -56.5t56.5 -15.5h24v-10h-278v10h22q40 0 55 15.5t15 56.5v285q0 122 -108 122
q-60 0 -103 -42t-43 -95v-270q0 -41 15 -56.5t56 -15.5h21v-10h-275v10h23q40 0 55 15.5t15 56.5v285q0 122 -108 122q-60 0 -103 -42t-43 -95v-270q0 -42 14.5 -57t54.5 -15h23v-10h-288v10h33q42 0 57 15.5t15 56.5v347q0 35 -13.5 48t-49.5 13h-42v10l193 5l5 -5l-5 -102
h3q18 47 63.5 80t107.5 33q64 0 108.5 -35t58.5 -85z" />
    <glyph glyph-name="Ndotaccent" unicode="&#x1e44;" horiz-adv-x="731" 
d="M363 919q22 0 36.5 -15t14.5 -37t-14.5 -36.5t-36.5 -14.5t-37 14.5t-15 36.5t15 37t37 15zM724 690h-21q-49 0 -67 -31t-18 -113v-546h-79l-411 607v-479q0 -65 34 -91.5t112 -26.5h51v-10h-318v10h21q52 0 71 25t19 93v490q0 41 -15.5 56.5t-56.5 15.5h-27v10h162
l427 -632v478q0 82 -31 113t-114 31h-33v10h294v-10z" />
    <glyph glyph-name="ndotaccent" unicode="&#x1e45;" horiz-adv-x="658" 
d="M327 719q22 0 36.5 -15t14.5 -37t-14.5 -36.5t-36.5 -14.5t-37 14.5t-15 36.5t15 37t37 15zM207 398h2q16 46 63 79.5t108 33.5q84 0 128.5 -42t44.5 -118v-269q0 -41 15.5 -56.5t56.5 -15.5h24v-10h-278v10h22q40 0 55 15.5t15 56.5v285q0 122 -108 122
q-57 0 -101.5 -43t-44.5 -94v-270q0 -41 14.5 -56.5t54.5 -15.5h23v-10h-287v10h32q42 0 57.5 15.5t15.5 56.5v347q0 35 -14 48t-50 13h-41v10l192 5l5 -5z" />
    <glyph glyph-name="Pdotaccent" unicode="&#x1e56;" horiz-adv-x="673" 
d="M338 816q-22 0 -36.5 14.5t-14.5 36.5t14.5 37t36.5 15t36.5 -15t14.5 -37t-14.5 -36.5t-36.5 -14.5zM26 700h369q110 0 171 -50t61 -142q0 -91 -62 -144t-172 -53h-163v-226q0 -43 19 -59t71 -16h60v-10h-354v10h38q41 0 56.5 15.5t15.5 56.5v536q0 40 -16.5 56
t-55.5 16h-38v10zM230 321h141q77 0 119.5 49.5t42.5 135.5q0 89 -41.5 136.5t-118.5 47.5h-123q-11 0 -15.5 -4.5t-4.5 -15.5v-349z" />
    <glyph glyph-name="pdotaccent" unicode="&#x1e57;" horiz-adv-x="640" 
d="M343 719q22 0 36.5 -15t14.5 -37t-14.5 -36.5t-36.5 -14.5t-36.5 14.5t-14.5 36.5t14.5 37t36.5 15zM204 398h2q16 46 61.5 79.5t104.5 33.5q100 0 161 -63.5t62 -181.5q2 -121 -75.5 -198.5t-199.5 -77.5q-55 0 -114 19v-177q0 -41 15.5 -56.5t57.5 -15.5h30v-10h-295
v10h29q42 0 57 15.5t15 56.5v586q0 41 -16 56.5t-57 15.5h-28v10h185l5 -5v-97zM206 352v-333q57 -19 114 -19q81 0 130.5 72.5t48.5 194.5q-2 107 -44 164.5t-108 57.5q-57 0 -99 -42.5t-42 -94.5z" />
    <glyph glyph-name="Sdotaccent" unicode="&#x1e60;" horiz-adv-x="625" 
d="M306 919q22 0 37 -14.5t15 -37.5q0 -22 -15 -36.5t-37 -14.5t-36.5 14.5t-14.5 36.5t14.5 37t36.5 15zM71 281h10q6 -131 79.5 -205t183.5 -76q69 -2 117.5 35.5t48.5 98.5q0 35 -19 62t-49.5 43.5t-70 32.5t-81 28.5t-81 32t-70 42.5t-49.5 61t-19 86q0 82 61 136
t152 54q55 0 101.5 -15t76.5 -30.5t45 -15.5q17 0 24 14t7 47h10v-230h-10q-13 103 -80.5 161t-169.5 58q-67 0 -112.5 -41.5t-45.5 -96.5q0 -42 24.5 -74t64 -52t87.5 -37.5t96 -36t87.5 -41t64 -60t24.5 -86.5q0 -84 -61.5 -135.5t-165.5 -51.5q-60 0 -110.5 21.5
t-81.5 42.5t-44 21q-34 0 -34 -74h-10v281z" />
    <glyph glyph-name="sdotaccent" unicode="&#x1e61;" horiz-adv-x="502" 
d="M249 722q22 0 36.5 -15t14.5 -37t-14.5 -36.5t-36.5 -14.5t-37 14.5t-15 36.5t15 37t37 15zM55 205h10q12 -102 77.5 -153.5t133.5 -51.5q54 0 86 27.5t32 67.5q0 37 -35 61t-84.5 38.5t-99 31.5t-84 52.5t-33.5 89.5q1 61 47 102t117 41q56 0 105 -20.5t64 -20.5
q31 0 31 35h9v-197h-9q-10 94 -60 143t-133 49q-49 0 -80 -28t-31 -68q0 -42 35 -68t85 -40t100.5 -29.5t85.5 -47t35 -81.5q0 -69 -48.5 -109t-128.5 -40q-46 0 -84.5 16.5t-63.5 32.5t-39 16q-30 0 -30 -51h-10v202z" />
    <glyph glyph-name="Tdotaccent" unicode="&#x1e6a;" horiz-adv-x="710" 
d="M344 919q22 0 37 -15t15 -37t-15 -36.5t-37 -14.5t-36.5 14.5t-14.5 36.5t14.5 37t36.5 15zM676 448l-10 -1q-22 135 -55 189t-87 54h-109q-11 0 -15.5 -4.5t-4.5 -17.5v-586q0 -41 17 -56.5t58 -15.5h35v-10h-314v10h34q43 0 59.5 15.5t16.5 56.5v586q0 13 -4.5 17.5
t-16.5 4.5h-104q-48 0 -78.5 -53.5t-54.5 -189.5l-10 1l26 252h595z" />
    <glyph glyph-name="tdotaccent" unicode="&#x1e6b;" horiz-adv-x="328" 
d="M146 866q22 0 36.5 -14.5t14.5 -36.5t-14.5 -37t-36.5 -15t-36.5 15t-14.5 37t14.5 36.5t36.5 14.5zM176 500h113v-10h-113v-402q0 -38 16.5 -59.5t43.5 -21.5q34 0 53.5 21t19.5 58h10q0 -47 -29 -72t-82 -25q-59 0 -90.5 31t-31.5 90v380h-72v10h27q65 0 95 43.5
t30 156.5h10v-200z" />
    <glyph glyph-name="Wgrave" unicode="&#x1e80;" horiz-adv-x="1200" 
d="M616 791l-6 -5q-23 25 -46.5 44t-52.5 39t-35 24q-29 21 -29 45q0 16 11 27t28 11q28 0 48 -38q48 -98 82 -147zM1187 700v-10h-23q-52 0 -81 -32t-66 -125l-212 -533h-12l-176 470l-216 -470h-12l-228 593q-23 59 -47.5 78t-78.5 19h-22v10h343v-10h-41
q-30 0 -46.5 -13.5t-16.5 -37.5q0 -17 10 -41l182 -481l168 367l-49 129q-16 46 -33.5 61.5t-51.5 15.5h-24v10h297v-10h-45q-49 0 -49 -43q0 -16 12 -50l173 -478l164 417q21 54 21 85q0 32 -21.5 50.5t-61.5 18.5h-51v10h294z" />
    <glyph glyph-name="wgrave" unicode="&#x1e81;" horiz-adv-x="900" 
d="M469 591l-6 -5q-23 25 -46.5 44t-52.5 39t-35 24q-29 21 -29 45q0 16 11 27t28 11q28 0 48 -38q48 -98 82 -147zM890 500v-10h-26q-32 0 -54 -21t-40 -69l-152 -400h-10l-158 383l-150 -383h-10l-174 418q-18 44 -35.5 58t-53.5 14h-18v10h275v-10h-38q-42 0 -42 -33
q0 -10 13 -42l119 -297l150 382h10l154 -388l109 291q10 23 10 38q0 22 -16.5 35.5t-44.5 13.5h-48v10h230z" />
    <glyph glyph-name="Wacute" unicode="&#x1e82;" horiz-adv-x="1200" 
d="M615 786l-6 5q15 21 29 44.5t21.5 38.5l18 36t13.5 28q20 38 48 38q16 0 27.5 -11t11.5 -27q0 -23 -29 -45q-6 -4 -35 -24t-52.5 -39t-46.5 -44zM1187 700v-10h-23q-52 0 -81 -32t-66 -125l-212 -533h-12l-176 470l-216 -470h-12l-228 593q-23 59 -47.5 78t-78.5 19h-22
v10h343v-10h-41q-30 0 -46.5 -13.5t-16.5 -37.5q0 -17 10 -41l182 -481l168 367l-49 129q-16 46 -33.5 61.5t-51.5 15.5h-24v10h297v-10h-45q-49 0 -49 -43q0 -16 12 -49l173 -479l164 417q21 54 21 85q0 32 -21.5 50.5t-61.5 18.5h-51v10h294z" />
    <glyph glyph-name="wacute" unicode="&#x1e83;" horiz-adv-x="900" 
d="M468 586l-6 5q15 21 29 44.5t21.5 38.5l18 36t13.5 28q20 38 48 38q16 0 27.5 -11t11.5 -27q0 -23 -29 -45q-6 -4 -35 -24t-52.5 -39t-46.5 -44zM890 500v-10h-26q-32 0 -54 -21t-40 -69l-152 -400h-10l-158 383l-150 -383h-10l-173 418q-19 44 -36.5 58t-53.5 14h-18v10
h275v-10h-38q-42 0 -42 -33q0 -10 13 -42l119 -297l150 382h10l154 -388l109 291q10 23 10 38q0 23 -16.5 36t-44.5 13h-48v10h230z" />
    <glyph glyph-name="Wdieresis" unicode="&#x1e84;" horiz-adv-x="1200" 
d="M726 814q-21 0 -35.5 14.5t-14.5 36.5t14.5 36.5t35.5 14.5t36 -14.5t15 -36.5t-15 -36.5t-36 -14.5zM494 814q-21 0 -36 14.5t-15 35.5q0 22 15 37t36 15t36 -15t15 -37q0 -21 -15 -35.5t-36 -14.5zM1187 700v-10h-23q-52 0 -81 -32t-66 -125l-212 -533h-12l-176 470
l-216 -470h-12l-228 593q-23 59 -47.5 78t-78.5 19h-22v10h343v-10h-41q-30 0 -46.5 -13.5t-16.5 -37.5q0 -17 10 -41l182 -481l168 367l-49 129q-16 46 -33.5 61.5t-51.5 15.5h-24v10h297v-10h-45q-49 0 -49 -43q0 -16 12 -49l173 -479l164 417q21 54 21 85
q0 32 -21.5 50.5t-61.5 18.5h-51v10h294z" />
    <glyph glyph-name="wdieresis" unicode="&#x1e85;" horiz-adv-x="900" 
d="M579 614q-21 0 -35.5 14.5t-14.5 36.5t14.5 36.5t35.5 14.5t36 -14.5t15 -36.5t-15 -36.5t-36 -14.5zM347 614q-21 0 -36 14.5t-15 35.5q0 22 15 37t36 15t36 -15t15 -37q0 -21 -15 -35.5t-36 -14.5zM890 500v-10h-26q-32 0 -54 -21t-40 -69l-152 -400h-10l-158 383
l-150 -383h-10l-174 418q-18 44 -35.5 58t-53.5 14h-18v10h275v-10h-38q-42 0 -42 -33q0 -10 13 -42l119 -297l150 382h10l154 -388l109 291q10 23 10 38q0 23 -16.5 36t-44.5 13h-48v10h230z" />
    <glyph glyph-name="Etilde" unicode="&#x1ebc;" horiz-adv-x="701" 
d="M215 780l-9 -6q-28 39 -28 77q0 37 22 60t57 23q33 0 99 -31.5t95 -31.5q17 0 27 9.5t10 24.5q0 24 -16 48l9 6q39 -42 39 -85q0 -30 -18.5 -47t-52.5 -17q-35 0 -101.5 33.5t-102.5 33.5q-44 0 -44 -48q0 -27 14 -49zM644 270l-38 -265l-5 -5h-575v10h34q42 0 57 15.5
t15 56.5v536q0 41 -15 56.5t-57 15.5h-34v10h562l5 -5l34 -255l-10 -2q-31 146 -67 199t-99 53h-205q-20 0 -20 -20v-312h146q57 0 80 28.5t23 100.5h10v-272h-10q0 74 -23 103.5t-80 29.5h-146v-318q0 -20 20 -20h233q57 0 92 59t63 202z" />
    <glyph glyph-name="etilde" unicode="&#x1ebd;" horiz-adv-x="549" 
d="M156 580l-8 -6q-29 40 -29 77t22 60t58 23q33 0 99 -31.5t95 -31.5q16 0 26.5 9.5t10.5 24.5q0 24 -16 48l8 6q40 -43 40 -85q0 -30 -19 -47t-52 -17q-35 0 -101.5 33.5t-102.5 33.5q-44 0 -44 -48q0 -26 13 -49zM510 87l7 -7q-105 -91 -222 -91q-116 0 -183 67t-67 188
q0 117 69.5 192t180.5 75q98 0 154.5 -58.5t56.5 -157.5l-5 -5h-360q-2 -18 -2 -29q0 -259 174 -259q100 0 197 85zM141 300h252q25 0 25 32q0 75 -35 122t-92 47q-59 0 -100.5 -56.5t-49.5 -144.5z" />
    <glyph glyph-name="Ygrave" unicode="&#x1ef2;" horiz-adv-x="753" 
d="M383 791l-6 -5q-23 25 -46.5 44t-52.5 39t-35 24q-29 22 -29 45q0 16 11.5 27t27.5 11q28 0 48 -38q3 -7 13.5 -28l18 -36t21.5 -38.5t29 -44.5zM740 700v-10h-16q-38 0 -68.5 -27.5t-69.5 -97.5l-158 -286v-196q0 -42 17 -57.5t63 -15.5h43v-10h-343v10h41q49 0 67 15.5
t18 57.5v189l-195 361q-18 33 -40 45t-64 12h-22v10h310v-10h-41q-20 0 -31.5 -9.5t-11.5 -25.5q0 -12 10 -32l175 -326l146 264q25 45 25 72q0 57 -91 57h-27v10h263z" />
    <glyph glyph-name="ygrave" unicode="&#x1ef3;" horiz-adv-x="625" 
d="M336 592l-6 -5q-23 25 -46.5 44t-52.5 39t-35 24q-29 22 -29 45q0 16 11.5 27t27.5 11q28 0 48 -38q3 -7 13.5 -28l18 -36t21.5 -38.5t29 -44.5zM616 490h-26q-30 0 -51.5 -19t-43.5 -69l-205 -487q-37 -87 -75.5 -131t-89.5 -44t-83.5 28.5t-32.5 75.5q0 28 17 47.5
t42 19.5q26 0 43 -15.5t17 -40.5q0 -24 -15.5 -40t-40.5 -16q-20 0 -35.5 13t-17.5 32q-1 -43 29 -68.5t77 -25.5q46 0 82.5 43t72.5 126l33 78l-180 419q-19 45 -36 59.5t-52 14.5h-18v10h273v-10h-38q-42 0 -42 -33q0 -12 12 -41l127 -309l125 297q10 21 10 37
q0 22 -20 35.5t-52 13.5h-37v10h231v-10z" />
    <glyph glyph-name="Ytilde" unicode="&#x1ef8;" horiz-adv-x="753" 
d="M249 780l-9 -6q-28 39 -28 77q0 37 22 60t57 23q33 0 99 -31.5t95 -31.5q16 0 26.5 9.5t10.5 24.5q0 24 -16 48l9 6q39 -42 39 -85q0 -30 -18.5 -47t-52.5 -17q-35 0 -101.5 33.5t-102.5 33.5q-44 0 -44 -48q0 -27 14 -49zM740 700v-10h-16q-38 0 -68.5 -27.5
t-69.5 -97.5l-158 -286v-196q0 -42 17 -57.5t63 -15.5h43v-10h-343v10h41q49 0 67 15.5t18 57.5v188l-195 362q-18 33 -40 45t-64 12h-22v10h310v-10h-41q-20 0 -31.5 -9.5t-11.5 -25.5q0 -12 10 -32l175 -326l146 264q25 45 25 72q0 57 -91 57h-27v10h263z" />
    <glyph glyph-name="ytilde" unicode="&#x1ef9;" horiz-adv-x="625" 
d="M202 580l-9 -5q-28 37 -28 77q0 37 22 60t57 23q33 0 99 -31.5t95 -31.5q37 0 37 34q0 24 -16 48l9 6q39 -42 39 -85q0 -30 -18.5 -47t-52.5 -17q-35 0 -101.5 33.5t-102.5 33.5q-44 0 -44 -48q0 -27 14 -50zM616 490h-26q-30 0 -51.5 -19t-43.5 -69l-205 -487
q-37 -87 -75.5 -131t-89.5 -44t-83.5 28.5t-32.5 75.5q0 28 17 47.5t42 19.5q26 0 43 -15.5t17 -40.5q0 -24 -15.5 -40t-40.5 -16q-20 0 -35.5 13t-17.5 32q-1 -43 29 -68.5t77 -25.5q46 0 82.5 43t72.5 126l33 78l-180 419q-19 45 -36 59.5t-52 14.5h-18v10h273v-10h-38
q-42 0 -42 -33q0 -12 12 -41l127 -309l125 297q10 21 10 37q0 22 -20 35.5t-52 13.5h-37v10h231v-10z" />
    <glyph glyph-name="endash" unicode="&#x2013;" horiz-adv-x="744" 
d="M704 235h-664v10h664v-10z" />
    <glyph glyph-name="emdash" unicode="&#x2014;" horiz-adv-x="1093" 
d="M1053 235h-1013v10h1013v-10z" />
    <glyph glyph-name="quoteleft" unicode="&#x2018;" horiz-adv-x="216" 
d="M159 722v-10q-45 0 -70.5 -26t-25.5 -73q3 18 16.5 29t32.5 11q23 0 37 -13.5t14 -35.5q0 -24 -15 -39t-39 -15q-25 0 -40.5 17t-15.5 46q0 53 28 81t78 28z" />
    <glyph glyph-name="quoteright" unicode="&#x2019;" horiz-adv-x="216" 
d="M57 546v10q45 0 70.5 26t25.5 74q-3 -18 -16.5 -29t-32.5 -11q-23 0 -37 13.5t-14 35.5q0 23 14.5 38t39.5 15t40.5 -17t15.5 -45q0 -54 -28 -82t-78 -28z" />
    <glyph glyph-name="quotesinglbase" unicode="&#x201a;" horiz-adv-x="217" 
d="M54 -79v10q45 0 70.5 26t25.5 73q-3 -18 -16.5 -29t-32.5 -11q-23 0 -37 13.5t-14 35.5q0 24 15 39t39 15q26 0 41.5 -17t14.5 -46q0 -53 -28 -81t-78 -28z" />
    <glyph glyph-name="quotedblleft" unicode="&#x201c;" horiz-adv-x="377" 
d="M159 722v-10q-45 0 -70.5 -26t-25.5 -73q3 18 16.5 29t32.5 11q23 0 37 -13.5t14 -35.5q0 -24 -15 -39t-39 -15q-25 0 -40.5 17t-15.5 46q0 53 28 81t78 28zM321 722v-10q-46 0 -71.5 -26t-25.5 -73q3 18 16.5 29t32.5 11q23 0 37 -13.5t14 -35.5q0 -24 -15 -39t-39 -15
q-25 0 -40.5 17t-15.5 46q0 53 28 81t79 28z" />
    <glyph glyph-name="quotedblright" unicode="&#x201d;" horiz-adv-x="382" 
d="M223 546v10q46 0 71.5 26t25.5 74q-4 -18 -17.5 -29t-31.5 -11q-24 0 -38 13t-14 36t15 38t39 15q26 0 41.5 -17t15.5 -45q-2 -110 -107 -110zM57 546v10q45 0 70.5 26t25.5 74q-3 -18 -16.5 -29t-32.5 -11q-23 0 -37 13.5t-14 35.5q0 23 14.5 38t39.5 15t40.5 -17
t15.5 -45q0 -54 -28 -82t-78 -28z" />
    <glyph glyph-name="quotedblbase" unicode="&#x201e;" horiz-adv-x="383" 
d="M220 -79v10q45 0 70.5 26t25.5 73q-3 -18 -16.5 -29t-32.5 -11q-23 0 -37 13.5t-14 35.5q0 24 15 39t39 15q26 0 41.5 -17t14.5 -46q0 -53 -28 -81t-78 -28zM54 -81v10q45 1 70.5 26.5t25.5 73.5q-3 -18 -16.5 -29t-32.5 -11q-23 0 -37 13.5t-14 35.5q0 24 15 38.5
t39 14.5q26 0 41.5 -17t14.5 -45q0 -54 -28 -82t-78 -28z" />
    <glyph glyph-name="dagger" unicode="&#x2020;" horiz-adv-x="486" 
d="M245 -70h-10q0 242 -7.5 339t-29.5 141q39 39 39 130q-55 -1 -100.5 -18.5t-60.5 -17.5q-20 0 -31.5 10.5t-11.5 29.5t11.5 30t31.5 11q15 0 60.5 -18t100.5 -19q-1 60 -19 107.5t-18 60.5q0 20 11.5 32t31.5 12t31.5 -12t11.5 -32q0 -13 -19 -61t-20 -107q56 1 103 19
t61 18q19 0 30.5 -11t11.5 -30t-11 -29.5t-31 -10.5q-14 0 -61 18t-103 18q0 -94 40 -130q-24 -45 -33 -144t-9 -336z" />
    <glyph glyph-name="daggerdbl" unicode="&#x2021;" horiz-adv-x="489" 
d="M245 744q19 0 30.5 -13.5t11.5 -35.5t-19 -66.5t-19 -104.5q58 2 99.5 20.5t60.5 18.5q21 0 34 -12t13 -31t-13 -31t-34 -12q-19 0 -60.5 18.5t-99.5 20.5q0 -65 7.5 -104t31.5 -66q-24 -27 -31.5 -66.5t-7.5 -105.5q58 2 99.5 20.5t60.5 18.5q21 0 34 -12t13 -31
t-13 -31t-34 -12q-19 0 -60.5 18.5t-99.5 20.5q0 -51 10.5 -86.5t21 -54.5t10.5 -31q0 -22 -13 -35.5t-33 -13.5q-21 0 -33.5 13.5t-12.5 35.5q0 12 10 31t20 54.5t10 86.5q-58 -2 -99 -20.5t-61 -18.5t-33 12t-13 31t13 31t33 12t61 -18.5t99 -20.5q0 125 -41 172
q24 28 32.5 67t8.5 103q-58 -2 -99.5 -20.5t-60.5 -18.5q-20 0 -33 12t-13 31t13 31t33 12q19 0 60.5 -18.5t99.5 -20.5q0 60 -18.5 104.5t-18.5 66.5t12 35.5t31 13.5z" />
    <glyph glyph-name="bullet" unicode="&#x2022;" horiz-adv-x="400" 
d="M200 490q62 0 106 -44t44 -106t-44 -106t-106 -44t-106 44t-44 106t44 106t106 44z" />
    <glyph glyph-name="ellipsis" unicode="&#x2026;" horiz-adv-x="733" 
d="M114 99q23 0 39 -16t16 -39t-16 -39t-39 -16t-39 16t-16 39t16 39t39 16zM365 99q23 0 39 -16t16 -39t-16 -39t-39 -16t-39 16t-16 39t16 39t39 16zM619 99q23 0 39 -16t16 -39t-16 -39t-39 -16t-39 16t-16 39t16 39t39 16z" />
    <glyph glyph-name="perthousand" unicode="&#x2030;" horiz-adv-x="1271" 
d="M215 727q67 0 112.5 -44.5t45.5 -109.5q0 -69 -46 -116t-113 -47t-113.5 45t-46.5 111q0 68 46.5 114.5t114.5 46.5zM751 715l-639 -727l-8 7l639 727zM214 717q-39 0 -64 -42t-25 -109q0 -65 25 -105.5t64 -40.5q38 0 63 42.5t25 109.5q0 64 -25 104.5t-63 40.5z
M633 306q67 0 112.5 -44.5t45.5 -109.5q0 -69 -46 -116t-113 -47t-113.5 45t-46.5 111q0 68 46.5 114.5t114.5 46.5zM1058 306q67 0 112.5 -44.5t45.5 -109.5q0 -69 -46 -116t-113 -47t-113.5 45t-46.5 111q0 68 46.5 114.5t114.5 46.5zM1057 296q-39 0 -64 -42t-25 -109
q0 -65 25 -105.5t64 -40.5q38 0 63 42.5t25 109.5q0 64 -25 104.5t-63 40.5zM632 296q-39 0 -64 -42t-25 -109q0 -65 25 -105.5t64 -40.5q38 0 63 42.5t25 109.5q0 64 -25 104.5t-63 40.5z" />
    <glyph glyph-name="guilsinglleft" unicode="&#x2039;" horiz-adv-x="409" 
d="M373 495l5 -6q-206 -208 -248 -237q31 -19 107.5 -93t141.5 -146l-5 -6q-186 157 -354 240v6q173 88 353 242z" />
    <glyph glyph-name="guilsinglright" unicode="&#x203a;" horiz-adv-x="409" 
d="M31 489l6 6q182 -155 352 -242v-6q-165 -82 -353 -240l-6 6q65 72 141.5 146t107.5 93q-42 29 -248 237z" />
    <glyph glyph-name="fraction" unicode="&#x2044;" horiz-adv-x="200" 
d="M445 699l-661 -738l-10 11l662 737z" />
    <glyph glyph-name="zerosuperior" unicode="&#x2070;" horiz-adv-x="410" 
d="M214 869q69 0 112 -56t43 -148q0 -88 -49.5 -146.5t-126.5 -58.5q-68 0 -110 56t-42 149q0 87 48.5 145.5t124.5 58.5zM204 859q-44 0 -70.5 -52t-26.5 -142t25.5 -142.5t69.5 -52.5q47 0 75 52.5t28 142.5t-27 142t-74 52z" />
    <glyph glyph-name="foursuperior" unicode="&#x2074;" 
d="M16 587l-3 12q58 26 98.5 92.5t40.5 160.5q31 -11 64 0q-1 -92 -54 -159.5t-136 -95.5h186v91q24 10 37.5 34.5t13.5 54.5h9v-180h71v-10h-71v-70q0 -23 13.5 -30t52.5 -7v-10h-205v10q46 0 62.5 7t16.5 30v70h-196z" />
    <glyph glyph-name="fivesuperior" unicode="&#x2075;" horiz-adv-x="371" 
d="M74 865v-35q25 40 59 40q22 0 59.5 -16.5t67.5 -16.5q36 0 36 29l5 1q15 -31 1 -56.5t-51 -25.5q-25 0 -53.5 12t-45.5 23t-40.5 14t-37.5 -14v-156q50 31 118 31q67 0 104.5 -31t37.5 -83q0 -54 -43.5 -87.5t-113.5 -32.5q-61 1 -94 24t-33 61q0 21 12 33.5t30 12.5
q17 0 27.5 -10.5t10.5 -28.5q0 -15 -9.5 -24.5t-24.5 -9.5q-28 0 -37 27q0 -32 29.5 -52.5t76.5 -20.5q49 0 78 29.5t29 77.5q0 49 -25.5 76t-69.5 27q-50 0 -106 -31l-7 4v209h10z" />
    <glyph glyph-name="sixsuperior" unicode="&#x2076;" horiz-adv-x="388" 
d="M216 699q62 0 96.5 -30.5t34.5 -83.5q0 -55 -40 -89t-107 -35q-69 -1 -114 52.5t-45 149.5q0 94 52 149t127 55q50 0 79.5 -22.5t29.5 -58.5q0 -22 -11 -34t-30 -12q-18 0 -28 10t-10 27t10 26.5t25 9.5q28 0 34 -25q0 31 -27 50.5t-68 19.5q-53 0 -85.5 -51.5
t-32.5 -135.5v-8q51 36 110 36zM203 471q39 0 60.5 29t21.5 83q0 104 -81 104q-53 0 -98 -33q2 -90 27.5 -136.5t69.5 -46.5z" />
    <glyph glyph-name="sevensuperior" unicode="&#x2077;" horiz-adv-x="307" 
d="M270 862h9q0 -37 -13 -70.5t-30.5 -60.5t-34 -57.5t-25 -74.5t-3.5 -98q1 -19 -8 -30t-25 -11q-33 0 -36 39q-5 46 14 89.5t46 73t57 70t41 75.5q-18 20 -41 21t-43 -9t-48.5 -21t-51.5 -11q-36 0 -51.5 23.5t-1.5 62.5l5 -1q0 -35 41 -35q25 0 62.5 16t59.5 16
q45 0 72 -52q5 23 5 45z" />
    <glyph glyph-name="eightsuperior" unicode="&#x2078;" horiz-adv-x="368" 
d="M182 869q62 0 96.5 -26t34.5 -70q0 -42 -30.5 -69.5t-71.5 -29.5q54 -3 85 -31t31 -73q0 -50 -39 -80t-102 -30q-67 0 -106 29.5t-39 79.5q0 47 31 75.5t83 29.5q-46 1 -73.5 27.5t-27.5 64.5q0 45 35 74t93 29zM183 859q-69 0 -69 -88q0 -92 70 -92q69 0 69 92
q0 88 -70 88zM184 669q-81 0 -81 -98q0 -101 82 -101q81 0 81 101q0 98 -82 98z" />
    <glyph glyph-name="ninesuperior" unicode="&#x2079;" horiz-adv-x="388" 
d="M188 867q69 1 114 -52.5t45 -149.5q0 -94 -52 -149t-127 -55q-50 0 -79.5 22.5t-29.5 58.5q0 22 11 34t30 12q17 0 27.5 -10.5t10.5 -26.5q0 -17 -10 -26.5t-25 -9.5q-28 0 -34 25q0 -30 27 -50t68 -20q53 0 85.5 51.5t32.5 135.5v7q-52 -35 -110 -35q-62 0 -96.5 30.5
t-34.5 82.5q0 55 40.5 89.5t106.5 35.5zM184 641q53 0 98 33q-2 90 -27.5 136.5t-69.5 46.5q-38 0 -60 -29.5t-22 -82.5q0 -104 81 -104z" />
    <glyph glyph-name="euro" unicode="&#x20ac;" horiz-adv-x="734" 
d="M656 458h-10q-7 108 -71.5 174t-160.5 66q-88 0 -142 -84t-61 -232h248v-10h-248l-1 -26q0 -7 0.5 -21t0.5 -20h248v-10h-247q8 -138 60.5 -214.5t142.5 -76.5q100 0 162.5 59.5t67.5 158.5h10v-228h-10q0 43 -39 43q-15 0 -44 -12t-71.5 -24t-90.5 -12q-126 0 -201 82
t-86 224h-88v10h87q0 6 -0.5 18t-0.5 18l1 31h-87v10h88q10 150 88 239.5t201 89.5q51 0 91.5 -13.5t68.5 -26.5t48 -13q34 0 36 47h10v-247z" />
    <glyph glyph-name="trademark" unicode="&#x2122;" horiz-adv-x="653" 
d="M272 659h-7q-12 46 -25 64t-32 18h-33q-7 0 -7 -8v-201q0 -14 9 -19t35 -5v-8h-135v8q26 0 34.5 5t8.5 19v201q0 6 -8 8h-33q-13 0 -24 -17.5t-24 -64.5h-7l8 91h233zM628 750v-8q-22 0 -30 -7.5t-8 -26.5v-175q0 -14 8 -19.5t30 -5.5v-8h-122v8q21 0 29 5.5t8 19.5v194
l-94 -227h-4l-112 213v-155q0 -29 10 -39.5t37 -10.5v-8h-94v8q23 0 31 10.5t8 39.5v143q0 23 -8.5 32t-30.5 9v8h82l98 -188l78 188h84z" />
    <glyph glyph-name="oneeighth" unicode="&#x215b;" horiz-adv-x="884" 
d="M181 715v-347q0 -23 15 -31t57 -8v-10h-205v10q42 0 57.5 8.5t15.5 30.5v255q0 33 -27 34q-20 2 -57 -7l-1 9q90 17 138 60zM742 699l-661 -738l-11 11l662 737zM642 388q62 0 96.5 -26t34.5 -70q0 -42 -31 -69.5t-71 -29.5q53 -3 84.5 -31.5t31.5 -72.5q0 -50 -39.5 -80
t-102.5 -30q-67 0 -105.5 29.5t-38.5 79.5q0 47 31 75.5t82 29.5q-45 1 -72.5 28t-27.5 64q0 45 35 74t93 29zM643 378q-69 0 -69 -88q0 -92 69 -92q70 0 70 92q0 88 -70 88zM643 188q-80 0 -80 -98q0 -101 82 -101q81 0 81 101q0 98 -83 98z" />
    <glyph glyph-name="threeeighths" unicode="&#x215c;" horiz-adv-x="919" 
d="M168 512v10q48 0 77 25.5t29 67.5q0 37 -22 59t-57 22q-44 0 -70.5 -19.5t-26.5 -53.5q10 30 37 30q16 0 25.5 -10.5t9.5 -27.5t-11 -27t-29 -10q-42 0 -42 46q0 38 33.5 61.5t88.5 23.5q56 0 89.5 -26t33.5 -68q0 -44 -38.5 -70.5t-101.5 -26.5q70 0 110 -28.5t40 -76.5
q0 -52 -40 -82.5t-108 -30.5q-56 0 -89 24t-33 61q0 20 12 33t29 13q16 0 27 -11t11 -27t-10 -26t-26 -10q-28 0 -33 28q0 -33 27.5 -53.5t72.5 -20.5q43 0 70 28.5t27 72.5q0 48 -29 74.5t-83 25.5zM794 699l-661 -738l-10 11l661 737zM704 390q62 0 96.5 -26t34.5 -70
q0 -42 -30.5 -69.5t-71.5 -29.5q54 -3 85 -31t31 -73q0 -50 -39 -80t-102 -30q-67 0 -106 29.5t-39 79.5q0 47 31 75.5t83 29.5q-46 1 -73.5 27.5t-27.5 64.5q0 45 35 74t93 29zM705 380q-69 0 -69 -88q0 -92 70 -92q69 0 69 92q0 88 -70 88zM706 190q-81 0 -81 -98
q0 -101 82 -101q81 0 81 101q0 98 -82 98z" />
    <glyph glyph-name="fiveeighths" unicode="&#x215d;" horiz-adv-x="919" 
d="M95 705l-1 -35q27 40 60 40q22 0 59.5 -16.5t67.5 -16.5q36 0 36 29l5 1q15 -31 1 -56.5t-51 -25.5q-25 0 -53.5 12t-45.5 23t-40.5 14t-37.5 -14v-156q50 31 118 31q67 0 104.5 -31t37.5 -83q0 -54 -44 -87.5t-114 -32.5q-60 1 -93 24t-33 61q0 21 12 33.5t30 12.5
q17 0 27 -10.5t10 -28.5q0 -15 -9 -24.5t-24 -9.5q-28 0 -37 27q0 -32 29.5 -52.5t76.5 -20.5q49 0 78 29.5t29 77.5q0 49 -25.5 76t-69.5 27q-50 0 -106 -31l-7 4v209h10zM791 699l-661 -738l-10 11l661 737zM692 393q61 0 95.5 -26t34.5 -70q0 -42 -30.5 -69.5
t-70.5 -29.5q53 -3 84.5 -31.5t31.5 -72.5q0 -50 -39.5 -80t-102.5 -30q-67 0 -105.5 29.5t-38.5 79.5q0 47 30.5 75.5t82.5 29.5q-46 1 -73.5 27.5t-27.5 64.5q0 45 35 74t94 29zM692 383q-69 0 -69 -88q0 -92 70 -92q69 0 69 92q0 88 -70 88zM693 193q-80 0 -80 -98
q0 -101 81 -101q82 0 82 101q0 98 -83 98z" />
    <glyph glyph-name="seveneighths" unicode="&#x215e;" horiz-adv-x="919" 
d="M349 702h9q0 -37 -13 -70.5t-30 -60.5t-33.5 -57.5t-25.5 -74.5t-4 -98q1 -19 -8 -30t-25 -11q-33 0 -36 39q-5 46 14 89.5t46 73t57 70t41 75.5q-18 20 -41 21t-43 -9t-48.5 -21t-51.5 -11q-36 0 -51.5 23.5t-1.5 62.5l5 -1q0 -35 41 -35q25 0 62.5 16t59.5 16
q45 0 72 -52q6 22 5 45zM767 699l-661 -738l-11 11l662 736zM719 194q54 -3 85 -31t31 -73q0 -50 -39 -80t-102 -30q-67 0 -106 29.5t-39 79.5q0 47 31 75.5t83 29.5q-46 1 -73.5 27.5t-27.5 64.5q0 45 35 74t93 29q62 0 96.5 -26t34.5 -70q0 -42 -30.5 -69.5t-71.5 -29.5z
M622 291q0 -92 70 -92q69 0 69 92q0 88 -70 88q-69 0 -69 -88zM693 -10q81 0 81 101q0 98 -82 98q-81 0 -81 -98q0 -101 82 -101z" />
    <glyph glyph-name="partialdiff" unicode="&#x2202;" horiz-adv-x="647" 
d="M140 664l-5 10q77 37 171 37q134 0 205 -84.5t71 -246.5q0 -173 -81.5 -281.5t-221.5 -108.5q-98 0 -157.5 59t-59.5 156q0 110 70 177t186 67q41 0 88 -16t83 -46l1 43q0 138 -49 203.5t-152 65.5q-73 0 -149 -35zM279 1q91 0 146 104t64 270q-31 29 -73 44.5t-79 15.5
q-85 0 -134 -66t-49 -185q0 -82 34.5 -132.5t90.5 -50.5z" />
    <glyph glyph-name="emptyset" unicode="&#x2205;" horiz-adv-x="498" 
d="M454 573l-67 -78q69 -62 69 -154q0 -85 -61 -146t-146 -61q-74 0 -132 48l-68 -79l-7 5l69 79q-69 62 -69 154q0 85 61 146t146 61q74 0 132 -47l67 78zM117 195l257 298q-55 45 -125 45q-82 0 -139.5 -57.5t-57.5 -139.5q0 -87 65 -146zM381 488l-258 -299
q56 -45 126 -45q82 0 139.5 57.5t57.5 139.5q0 89 -65 147z" />
    <glyph glyph-name="product" unicode="&#x220f;" horiz-adv-x="645" 
d="M620 693h-101v-776h-10v776h-363v-776h-10v776h-111v10h595v-10z" />
    <glyph glyph-name="summation" unicode="&#x2211;" horiz-adv-x="646" 
d="M613 696h-518l393 -367l-400 -382h525v-49h-576v10l405 387l-408 396v15h579v-10z" />
    <glyph glyph-name="minus" unicode="&#x2212;" horiz-adv-x="532" 
d="M492 344h-452v10h452v-10z" />
    <glyph glyph-name="radical" unicode="&#x221a;" horiz-adv-x="706" 
d="M756 785h-78l-355 -834h-10l-190 338l-119 -76l-4 8l171 115l171 -312l329 771h85v-10z" />
    <glyph glyph-name="infinity" unicode="&#x221e;" horiz-adv-x="802" 
d="M600 513q71 0 119 -47t48 -117q0 -69 -48 -115.5t-119 -46.5q-34 0 -64 11.5t-58.5 37t-45.5 44.5t-46 55q-54 -70 -98.5 -107t-100.5 -37q-65 0 -108.5 44t-43.5 109q1 65 44 108.5t108 43.5q26 0 51 -10t40 -19t40 -36t32.5 -36t35.5 -44q33 42 49.5 61t46.5 48
t58.5 41t59.5 12zM600 197q67 0 112 43.5t45 108.5q0 66 -45 110t-112 44q-31 0 -58.5 -12t-56.5 -40.5t-45 -47.5t-48 -60q29 -36 45.5 -55t44.5 -44t56.5 -36t61.5 -11zM187 201q36 0 72.5 22.5t60 48t60.5 71.5q-30 37 -44.5 54t-41.5 42.5t-52.5 36t-54.5 10.5
q-61 0 -101.5 -40.5t-40.5 -101.5t40.5 -102t101.5 -41z" />
    <glyph glyph-name="integral" unicode="&#x222b;" horiz-adv-x="529" 
d="M350 760q59 0 94.5 -32.5t35.5 -85.5q0 -32 -18 -51t-47 -19q-28 0 -45.5 17.5t-17.5 45.5q0 27 17 45t43 18q24 0 40.5 -16t16.5 -40q1 49 -32 79t-87 30q-59 0 -97 -41t-38 -114q0 -70 24 -158.5t52.5 -159.5t52.5 -159.5t24 -159.5q0 -99 -54 -159t-142 -60
q-55 0 -87 29.5t-32 78.5q0 28 16.5 46t42.5 18q23 0 38.5 -16t15.5 -41q0 -24 -15 -38.5t-39 -14.5q-20 0 -33.5 12.5t-15.5 33.5q0 -44 30 -71t79 -27q61 0 97 39t36 103q0 61 -24.5 144.5t-54 154.5t-54 162.5t-24.5 165.5q0 109 57 175t145 66z" />
    <glyph glyph-name="approxequal" unicode="&#x2248;" horiz-adv-x="610" 
d="M36 387h-10q0 44 23 68t65 24q36 0 85 -17t90.5 -37.5t98.5 -37.5t107 -17q37 0 58 23t21 64h10q0 -47 -23 -72t-66 -25q-51 0 -109 17t-99.5 37.5t-89.5 37.5t-83 17q-37 0 -57.5 -21.5t-20.5 -60.5zM36 200h-10q0 44 23 68t65 24q45 0 109 -27t136 -54.5t136 -27.5
q37 0 58 23t21 64h10q0 -47 -23 -72t-66 -25q-65 0 -138 27.5t-136.5 54.5t-106.5 27q-37 0 -57.5 -21.5t-20.5 -60.5z" />
    <glyph glyph-name="notequal" unicode="&#x2260;" horiz-adv-x="638" 
d="M374 460l-71 -213h310v-10h-313l-87 -262h-10l87 262h-265v10h268l71 213h-339v10h342l84 254h10l-84 -254h236v-10h-239z" />
    <glyph glyph-name="lessequal" unicode="&#x2264;" horiz-adv-x="663" 
d="M625 174l-597 224v10l599 222l4 -9l-589 -218l586 -219zM632 102v-10h-604v10h604z" />
    <glyph glyph-name="greaterequal" unicode="&#x2265;" horiz-adv-x="663" 
d="M635 408v-10l-597 -224l-3 10l586 219l-589 218l4 9zM31 102h604v-10h-604v10z" />
    <glyph glyph-name="lozenge" unicode="&#x25ca;" horiz-adv-x="464" 
d="M439 337l-200 -379h-10l-204 379l203 399h14zM427 337l-192 392l-198 -392l197 -369z" />
    <glyph glyph-name="six.dnom" horiz-adv-x="388" 
d="M216 229q62 0 96.5 -30.5t34.5 -83.5q0 -55 -40 -89t-107 -35q-69 -1 -114 52.5t-45 149.5q0 94 52 149t127 55q50 0 79.5 -22.5t29.5 -58.5q0 -22 -11 -34t-30 -12q-18 0 -28 10t-10 27t10 26.5t25 9.5q28 0 34 -25q0 31 -27 50.5t-68 19.5q-53 0 -85.5 -51.5
t-32.5 -135.5v-8q51 36 110 36zM203 1q39 0 60.5 29t21.5 83q0 104 -81 104q-53 0 -98 -33q2 -90 27.5 -136.5t69.5 -46.5z" />
    <glyph glyph-name="seven.dnom" horiz-adv-x="307" 
d="M270 394h9q0 -37 -13 -70.5t-30.5 -60.5t-34 -57.5t-25 -74.5t-3.5 -98q2 -41 -33 -41q-33 0 -36 38q-5 46 14 90t46 73t57 69.5t41 76.5q-18 20 -41 21t-43 -9t-48.5 -21t-51.5 -11q-36 0 -51.5 23t-1.5 63l5 -1q0 -35 41 -35q25 0 62.5 16t59.5 16q45 0 72 -53
q5 23 5 46z" />
    <glyph glyph-name="eight.dnom" horiz-adv-x="368" 
d="M182 399q62 0 96.5 -26t34.5 -70q0 -42 -30.5 -69.5t-71.5 -29.5q54 -3 85 -31t31 -73q0 -50 -39 -80t-102 -30q-67 0 -106 29.5t-39 79.5q0 47 31 75.5t83 29.5q-46 1 -73.5 27.5t-27.5 64.5q0 45 35 74t93 29zM183 389q-69 0 -69 -88q0 -92 70 -92q69 0 69 92
q0 88 -70 88zM184 199q-81 0 -81 -98q0 -101 82 -101q81 0 81 101q0 98 -82 98z" />
    <glyph glyph-name="nine.dnom" horiz-adv-x="388" 
d="M188 397q69 1 114 -52.5t45 -149.5q0 -94 -52 -149t-127 -55q-50 0 -79.5 22.5t-29.5 58.5q0 22 11 34t30 12q17 0 27.5 -10.5t10.5 -26.5q0 -17 -10 -26.5t-25 -9.5q-28 0 -34 25q0 -30 27 -50t68 -20q53 0 85.5 51.5t32.5 135.5v7q-52 -35 -110 -35q-62 0 -96.5 30.5
t-34.5 82.5q0 55 40.5 89.5t106.5 35.5zM184 171q53 0 98 33q-2 90 -27.5 136.5t-69.5 46.5q-38 0 -60 -29.5t-22 -82.5q0 -104 81 -104z" />
    <glyph glyph-name="zero.numr" horiz-adv-x="410" 
d="M215 709q69 0 111.5 -56t42.5 -148q0 -88 -49 -146.5t-126 -58.5q-68 0 -110.5 56.5t-42.5 148.5q0 87 49 145.5t125 58.5zM205 699q-45 0 -71.5 -52t-26.5 -142q0 -91 26 -143t70 -52q47 0 75 52.5t28 142.5q0 89 -27.5 141.5t-73.5 52.5z" />
    <glyph glyph-name="g.alt" horiz-adv-x="534" 
d="M210 161v2q-71 13 -110 56t-39 107q0 81 57 132.5t155 51.5q81 0 135 -48q48 8 82 42.5t33 78.5q-1 -19 -13.5 -29.5t-31.5 -10.5q-22 0 -36 14t-14 36q0 23 15 37.5t39 14.5q23 0 37 -18t14 -43q0 -48 -34.5 -85t-82.5 -45q44 -44 44 -108q0 -89 -56.5 -140t-145.5 -51
q-160 0 -160 -79q0 -65 123 -57q25 0 85 4t82 4q65 0 100.5 -34t35.5 -96q0 -74 -66 -115.5t-186 -41.5q-97 0 -150 30.5t-53 85.5q0 53 38 82t108 29v4h-28q-63 0 -97 22t-34 62q0 48 40 76t114 30zM146 326q0 -80 30 -120.5t82 -40.5q54 0 85.5 45t31.5 131
q0 78 -30 118.5t-85 40.5q-50 0 -82 -46t-32 -128zM357 -43h-142q-65 0 -100.5 -26.5t-35.5 -74.5q0 -50 50.5 -78t142.5 -28q107 0 164.5 33t57.5 92q0 38 -37 60t-100 22z" />
    <glyph glyph-name="zero.subs" horiz-adv-x="410" 
d="M215 209q69 0 111.5 -56t42.5 -148q0 -88 -49 -146.5t-126 -58.5q-68 0 -110.5 56.5t-42.5 148.5q0 87 49 145.5t125 58.5zM205 199q-45 0 -71.5 -52t-26.5 -142q0 -91 26 -143t70 -52q47 0 75 52.5t28 142.5q0 89 -27.5 141.5t-73.5 52.5z" />
    <glyph glyph-name="one.numr" horiz-adv-x="254" 
d="M158 706v-347q0 -22 15.5 -30.5t57.5 -8.5v-10h-205v10q42 0 57.5 8.5t15.5 30.5v255q0 33 -27 34q-21 2 -57 -7l-2 9q91 17 138 60z" />
    <glyph glyph-name="one.subs" horiz-adv-x="254" 
d="M158 206v-347q0 -22 15.5 -30.5t57.5 -8.5v-10h-205v10q42 0 57.5 8.5t15.5 30.5v255q0 33 -27 34q-21 2 -57 -7l-2 9q91 17 138 60z" />
    <glyph glyph-name="two.numr" horiz-adv-x="346" 
d="M30 309v15q0 50 23 84.5t55 53t64.5 35.5t55.5 43.5t23 64.5q0 42 -25 67t-65 25q-46 0 -78 -25.5t-32 -61.5q8 31 38 31q15 0 26 -11t11 -27q0 -19 -11.5 -30t-30.5 -11t-30.5 13t-11.5 35q0 42 37.5 70.5t94.5 28.5q60 0 99 -29t39 -76q0 -94 -155 -136
q-60 -20 -88.5 -52.5t-31.5 -89.5q11 55 62 55q22 0 66.5 -13t71.5 -13t43.5 12.5t18.5 33.5q3 13 -2 30l5 3q15 -27 15 -54q0 -36 -23 -58t-64 -22q-36 0 -85 20t-66 20q-30 0 -40 -32z" />
    <glyph glyph-name="three.numr" horiz-adv-x="347" 
d="M133 512v10q49 0 77.5 25.5t28.5 67.5q0 37 -21.5 59t-56.5 22q-44 0 -70.5 -19.5t-26.5 -53.5q9 30 37 30q16 0 25 -10.5t9 -27.5t-11 -27t-29 -10q-41 0 -41 46q0 38 33.5 61.5t88.5 23.5t89 -26t34 -68q0 -43 -39 -70t-102 -27q71 0 111 -28.5t40 -76.5
q0 -52 -40.5 -82.5t-108.5 -30.5q-56 0 -89 24t-33 61q0 20 12 33t29 13t28 -11t11 -27t-10.5 -26t-26.5 -10q-27 0 -33 28q0 -33 27.5 -53.5t72.5 -20.5q43 0 70 28.5t27 72.5q0 48 -29 74.5t-83 25.5z" />
    <glyph glyph-name="four.numr" 
d="M16 427l-3 12q58 26 98.5 92.5t40.5 160.5q31 -11 64 0q-1 -92 -54 -159.5t-136 -95.5h186v91q24 10 37.5 34.5t13.5 54.5h9v-180h71v-10h-71v-70q0 -23 13.5 -30t52.5 -7v-10h-205v10q46 0 62.5 7t16.5 30v70h-196z" />
    <glyph glyph-name="five.numr" horiz-adv-x="371" 
d="M74 705v-35q25 40 59 40q22 0 59.5 -16.5t67.5 -16.5q36 0 36 29l5 1q15 -31 1 -56.5t-51 -25.5q-25 0 -53.5 12t-45.5 23t-40.5 14t-37.5 -14v-156q50 31 118 31q67 0 104.5 -31t37.5 -83q0 -54 -43.5 -87.5t-113.5 -32.5q-61 1 -94 24t-33 61q0 21 12 33.5t30 12.5
q17 0 27.5 -10.5t10.5 -28.5q0 -15 -9.5 -24.5t-24.5 -9.5q-28 0 -37 27q0 -32 29.5 -52.5t76.5 -20.5q49 0 78 29.5t29 77.5q0 49 -25.5 76t-69.5 27q-50 0 -106 -31l-7 4v209h10z" />
    <glyph glyph-name="two.subs" horiz-adv-x="346" 
d="M30 -191v15q0 50 23 84.5t55 53t64.5 35.5t55.5 43.5t23 64.5q0 42 -25 67t-65 25q-46 0 -78 -25.5t-32 -61.5q8 31 38 31q15 0 26 -11t11 -27q0 -19 -11.5 -30t-30.5 -11t-30.5 13t-11.5 35q0 42 37.5 70.5t94.5 28.5q60 0 99 -29t39 -76q0 -94 -155 -136
q-60 -20 -88.5 -52.5t-31.5 -89.5q11 55 62 55q22 0 66.5 -13t71.5 -13t43.5 12.5t18.5 33.5q3 13 -2 30l5 3q15 -27 15 -54q0 -36 -23 -58t-64 -22q-36 0 -85 20t-66 20q-30 0 -40 -32z" />
    <glyph glyph-name="six.numr" horiz-adv-x="388" 
d="M216 539q62 0 96.5 -30.5t34.5 -83.5q0 -55 -40 -89t-107 -35q-69 -1 -114 52.5t-45 149.5q0 94 52 149t127 55q50 0 79.5 -22.5t29.5 -58.5q0 -22 -11 -34t-30 -12q-18 0 -28 10t-10 27t10 26.5t25 9.5q28 0 34 -25q0 31 -27 50.5t-68 19.5q-53 0 -85.5 -51.5
t-32.5 -135.5v-8q51 36 110 36zM203 311q39 0 60.5 29t21.5 83q0 104 -81 104q-53 0 -98 -33q2 -90 27.5 -136.5t69.5 -46.5z" />
    <glyph glyph-name="seven.numr" horiz-adv-x="307" 
d="M270 702h9q0 -37 -13 -70.5t-30.5 -60.5t-34 -57.5t-25 -74.5t-3.5 -98q1 -19 -8 -30t-25 -11q-33 0 -36 39q-5 46 14 89.5t46 73t57 70t41 75.5q-18 20 -41 21t-43 -9t-48.5 -21t-51.5 -11q-36 0 -51.5 23.5t-1.5 62.5l5 -1q0 -35 41 -35q25 0 62.5 16t59.5 16
q45 0 72 -52q5 23 5 45z" />
    <glyph glyph-name="three.subs" horiz-adv-x="347" 
d="M133 12v10q49 0 77.5 25.5t28.5 67.5q0 37 -21.5 59t-56.5 22q-44 0 -70.5 -19.5t-26.5 -53.5q9 30 37 30q16 0 25 -10.5t9 -27.5t-11 -27t-29 -10q-41 0 -41 46q0 38 33.5 61.5t88.5 23.5t89 -26t34 -68q0 -43 -39 -70t-102 -27q71 0 111 -28.5t40 -76.5
q0 -52 -40.5 -82.5t-108.5 -30.5q-56 0 -89 24t-33 61q0 20 12 33t29 13t28 -11t11 -27t-10.5 -26t-26.5 -10q-27 0 -33 28q0 -33 27.5 -53.5t72.5 -20.5q43 0 70 28.5t27 72.5q0 48 -29 74.5t-83 25.5z" />
    <glyph glyph-name="four.subs" 
d="M16 -73l-3 12q58 26 98.5 92.5t40.5 160.5q31 -11 64 0q-1 -92 -54 -159.5t-136 -95.5h186v91q24 10 37.5 34.5t13.5 54.5h9v-180h71v-10h-71v-70q0 -23 13.5 -30t52.5 -7v-10h-205v10q46 0 62.5 7t16.5 30v70h-196z" />
    <glyph glyph-name="five.subs" horiz-adv-x="371" 
d="M74 205v-35q25 40 59 40q22 0 59.5 -16.5t67.5 -16.5q36 0 36 29l5 1q15 -31 1 -56.5t-51 -25.5q-25 0 -53.5 12t-45.5 23t-40.5 14t-37.5 -14v-156q50 31 118 31q67 0 104.5 -31t37.5 -83q0 -54 -43.5 -87.5t-113.5 -32.5q-61 1 -94 24t-33 61q0 21 12 33.5t30 12.5
q17 0 27.5 -10.5t10.5 -28.5q0 -15 -9.5 -24.5t-24.5 -9.5q-28 0 -37 27q0 -32 29.5 -52.5t76.5 -20.5q49 0 78 29.5t29 77.5q0 49 -25.5 76t-69.5 27q-50 0 -106 -31l-7 4v209h10z" />
    <glyph glyph-name="eight.numr" horiz-adv-x="368" 
d="M182 709q62 0 96.5 -26t34.5 -70q0 -42 -30.5 -69.5t-71.5 -29.5q54 -3 85 -31t31 -73q0 -50 -39 -80t-102 -30q-67 0 -106 29.5t-39 79.5q0 47 31 75.5t83 29.5q-46 1 -73.5 27.5t-27.5 64.5q0 45 35 74t93 29zM183 699q-69 0 -69 -88q0 -92 70 -92q69 0 69 92
q0 88 -70 88zM184 509q-81 0 -81 -98q0 -101 82 -101q81 0 81 101q0 98 -82 98z" />
    <glyph glyph-name="six.subs" horiz-adv-x="388" 
d="M216 39q62 0 96.5 -30.5t34.5 -83.5q0 -55 -40 -89t-107 -35q-69 -1 -114 52.5t-45 149.5q0 94 52 149t127 55q50 0 79.5 -22.5t29.5 -58.5q0 -22 -11 -34t-30 -12q-18 0 -28 10t-10 27t10 26.5t25 9.5q28 0 34 -25q0 31 -27 50.5t-68 19.5q-53 0 -85.5 -51.5
t-32.5 -135.5v-8q51 36 110 36zM203 -189q39 0 60.5 29t21.5 83q0 104 -81 104q-53 0 -98 -33q2 -90 27.5 -136.5t69.5 -46.5z" />
    <glyph glyph-name="seven.subs" horiz-adv-x="307" 
d="M270 202h9q0 -37 -13 -70.5t-30.5 -60.5t-34 -57.5t-25 -74.5t-3.5 -98q1 -19 -8 -30t-25 -11q-33 0 -36 39q-5 46 14 89.5t46 73t57 70t41 75.5q-18 20 -41 21t-43 -9t-48.5 -21t-51.5 -11q-36 0 -51.5 23.5t-1.5 62.5l5 -1q0 -35 41 -35q25 0 62.5 16t59.5 16
q45 0 72 -52q5 23 5 45z" />
    <glyph glyph-name="nine.numr" horiz-adv-x="388" 
d="M188 707q69 1 114 -52.5t45 -149.5q0 -94 -52 -149t-127 -55q-50 0 -79.5 22.5t-29.5 58.5q0 22 11 34t30 12q17 0 27.5 -10.5t10.5 -26.5q0 -17 -10 -26.5t-25 -9.5q-28 0 -34 25q0 -30 27 -50t68 -20q53 0 85.5 51.5t32.5 135.5v7q-52 -35 -110 -35q-62 0 -96.5 30.5
t-34.5 82.5q0 55 40.5 89.5t106.5 35.5zM184 481q53 0 98 33q-2 90 -27.5 136.5t-69.5 46.5q-38 0 -60 -29.5t-22 -82.5q0 -104 81 -104z" />
    <glyph glyph-name="eight.subs" horiz-adv-x="368" 
d="M182 209q62 0 96.5 -26t34.5 -70q0 -42 -30.5 -69.5t-71.5 -29.5q54 -3 85 -31t31 -73q0 -50 -39 -80t-102 -30q-67 0 -106 29.5t-39 79.5q0 47 31 75.5t83 29.5q-46 1 -73.5 27.5t-27.5 64.5q0 45 35 74t93 29zM183 199q-69 0 -69 -88q0 -92 70 -92q69 0 69 92
q0 88 -70 88zM184 9q-81 0 -81 -98q0 -101 82 -101q81 0 81 101q0 98 -82 98z" />
    <glyph glyph-name="nine.subs" horiz-adv-x="388" 
d="M188 207q69 1 114 -52.5t45 -149.5q0 -94 -52 -149t-127 -55q-50 0 -79.5 22.5t-29.5 58.5q0 22 11 34t30 12q17 0 27.5 -10.5t10.5 -26.5q0 -17 -10 -26.5t-25 -9.5q-28 0 -34 25q0 -30 27 -50t68 -20q53 0 85.5 51.5t32.5 135.5v7q-52 -35 -110 -35q-62 0 -96.5 30.5
t-34.5 82.5q0 55 40.5 89.5t106.5 35.5zM184 -19q53 0 98 33q-2 90 -27.5 136.5t-69.5 46.5q-38 0 -60 -29.5t-22 -82.5q0 -104 81 -104z" />
    <glyph glyph-name="zero.dnom" horiz-adv-x="410" 
d="M215 399q69 0 111.5 -56t42.5 -148q0 -87 -49 -146t-126 -59q-68 0 -110.5 56.5t-42.5 148.5q0 87 49 145.5t125 58.5zM205 389q-45 0 -71.5 -52t-26.5 -142q0 -91 26 -143t70 -52q47 0 75 52.5t28 142.5t-27.5 142t-73.5 52z" />
    <glyph glyph-name="one.dnom" horiz-adv-x="254" 
d="M158 396v-347q0 -22 15.5 -30.5t57.5 -8.5v-10h-205v10q42 0 57.5 8.5t15.5 30.5v255q0 33 -27 34q-21 2 -57 -7l-2 9q91 17 138 60z" />
    <glyph glyph-name="per" horiz-adv-x="435" 
d="M219 727q67 0 112.5 -44.5t45.5 -109.5q0 -69 -46 -116t-113 -47q-68 0 -114 44.5t-46 110.5q0 69 46.5 115.5t114.5 46.5zM218 717q-39 0 -64 -42t-25 -109q0 -65 25 -105.5t64 -40.5q38 0 63 42.5t25 109.5q0 64 -25 104.5t-63 40.5z" />
    <glyph glyph-name="sw" horiz-adv-x="348" 
d="M485 690h-188q-123 0 -197 -62t-74 -170q0 -89 56.5 -143t146.5 -54q-42 12 -42 56q0 26 16.5 42.5t42.5 16.5t42 -17t16 -44q0 -28 -21 -46t-54 -18q-94 0 -153.5 56.5t-59.5 150.5q0 112 76.5 177t204.5 65h188v-10z" />
    <glyph glyph-name="two.dnom" horiz-adv-x="346" 
d="M30 2v16q0 50 23 84.5t55 53t64.5 35.5t55.5 43.5t23 64.5q0 41 -25 66t-65 25q-46 0 -78 -25.5t-32 -61.5q8 31 38 31q15 0 26 -11t11 -27q0 -18 -11.5 -29.5t-30.5 -11.5t-30.5 13t-11.5 35q0 42 37.5 70.5t94.5 28.5q60 0 99 -29t39 -76q0 -94 -155 -136
q-60 -19 -88.5 -51.5t-31.5 -89.5q5 26 22 40t40 14q22 0 66.5 -12.5t71.5 -12.5t43.5 12.5t18.5 33.5q3 13 -2 29l5 3q15 -26 15 -53q0 -37 -23 -59t-64 -22q-36 0 -85 20t-66 20q-30 0 -40 -32z" />
    <glyph glyph-name="sw2" horiz-adv-x="364" 
d="M-108 10h175q122 0 196.5 63t74.5 171q0 84 -57.5 139.5t-145.5 55.5q42 -12 42 -55q0 -26 -16 -42.5t-43 -16.5q-26 0 -42 16t-16 42q0 29 20.5 47.5t54.5 18.5q92 0 152.5 -58t60.5 -147q0 -112 -76.5 -178t-204.5 -66h-175v10z" />
    <glyph glyph-name="sw3" horiz-adv-x="246" 
d="M631 690h-334q-123 0 -197 -62t-74 -170q0 -89 56.5 -143t146.5 -54q-42 12 -42 56q0 26 16.5 42.5t42.5 16.5t42 -17t16 -44q0 -28 -21 -46t-54 -18q-94 0 -153.5 56.5t-59.5 150.5q0 112 76.5 177t204.5 65h334v-10z" />
    <glyph glyph-name="three.dnom" horiz-adv-x="347" 
d="M133 204v10q49 0 77.5 25t28.5 67q0 37 -21.5 59.5t-56.5 22.5q-44 0 -70.5 -19.5t-26.5 -53.5q8 29 37 29q16 0 25 -10.5t9 -27.5t-11 -26.5t-29 -9.5q-41 0 -41 45q0 39 33.5 62.5t88.5 23.5t89 -26t34 -68q0 -44 -39 -70.5t-102 -26.5q71 -1 111 -29t40 -76
q0 -52 -40.5 -82.5t-108.5 -30.5q-56 0 -89 23.5t-33 60.5q0 20 12 33t29 13t28 -10.5t11 -26.5t-10.5 -26t-26.5 -10q-27 0 -33 27q0 -32 27.5 -52.5t72.5 -20.5q43 0 70 28t27 72q0 48 -29 75t-83 26z" />
    <glyph glyph-name="sw4" 
d="M394 490h-120q-111 0 -179.5 -55.5t-68.5 -154.5q0 -81 54.5 -130t133.5 -49q-43 12 -43 55q0 26 16.5 42.5t42.5 16.5t42 -16t16 -42q0 -29 -20.5 -47.5t-53.5 -18.5q-84 0 -141 51.5t-57 137.5q0 103 71 161.5t187 58.5h120v-10z" />
    <glyph glyph-name="four.dnom" 
d="M16 117l-3 12q58 26 98.5 92.5t40.5 160.5q31 -11 64 0q-1 -92 -54 -159.5t-136 -95.5h186v91q24 10 37.5 34.5t13.5 54.5h9v-180h71v-10h-71v-70q0 -23 13.5 -30t52.5 -7v-10h-205v10q46 0 62.5 7t16.5 30v70h-196z" />
    <glyph glyph-name="sw5" horiz-adv-x="332" 
d="M392 740h-103q-119 0 -191 -61t-72 -163q0 -85 53.5 -137t141.5 -52q-42 12 -42 56q0 26 16.5 42.5t42.5 16.5t41.5 -17t15.5 -44q0 -28 -20.5 -46t-53.5 -18q-93 0 -149 55t-56 144q0 106 75 170t198 64h103v-10z" />
    <glyph glyph-name="five.dnom" horiz-adv-x="371" 
d="M74 395v-35q25 40 59 40q22 0 59.5 -16.5t67.5 -16.5q36 0 36 29l5 1q15 -31 1 -56.5t-51 -25.5q-25 0 -53.5 12t-45.5 23t-40.5 14t-37.5 -14v-156q50 31 118 31q67 0 104.5 -31t37.5 -83q0 -54 -43.5 -87.5t-113.5 -32.5q-61 1 -94 24t-33 61q0 21 12 33.5t30 12.5
q17 0 27.5 -10.5t10.5 -28.5q0 -15 -9.5 -24.5t-24.5 -9.5q-28 0 -37 27q0 -32 29.5 -52.5t76.5 -20.5q49 0 78 29.5t29 77.5q0 49 -25.5 76t-69.5 27q-50 0 -106 -31l-7 4v209h10z" />
    </font>
</defs>
</svg>
