<?xml version="1.0" standalone="no"?>
<!DOCTYPE svg PUBLIC "-//W3C//DTD SVG 1.1//EN" "http://www.w3.org/Graphics/SVG/1.1/DTD/svg11.dtd" >
<svg xmlns="http://www.w3.org/2000/svg" xmlns:xlink="http://www.w3.org/1999/xlink" version="1.1">
<metadata>
Created by FontForge 20161003 at Sun Jun 10 03:08:02 2018
 By www-data
Copyright (c) Olivier Gourvat - Mostardesign Type Foundry, 2016. All rights reserved.
</metadata>
<defs>
<font id="MostardesignSofiaProRegular" horiz-adv-x="563" >
  <font-face 
    font-family="MostardesignSofiaProRegular"
    font-weight="400"
    font-stretch="normal"
    units-per-em="1000"
    panose-1="0 0 5 0 0 0 0 0 0 0"
    ascent="800"
    descent="-200"
    x-height="467"
    cap-height="689"
    bbox="-430 -270 1470 1080"
    underline-thickness="50"
    underline-position="-200"
    unicode-range="U+0020-FB04"
  />
<missing-glyph horiz-adv-x="635" 
d="M80 0v665h475v-665h-475zM268 222h62v33q0 49 47 62q37 11 61 43.5t24 80.5q0 60 -41.5 97.5t-99.5 37.5q-57 0 -96.5 -40t-39.5 -105h62q0 37 21 60t53 23t56 -20.5t24 -52.5q0 -49 -57 -71q-41 -12 -58.5 -36.5t-17.5 -73.5v-38zM300 88q18 0 31.5 12.5t13.5 30.5
t-13.5 30.5t-31.5 12.5q-19 0 -32.5 -12.5t-13.5 -30.5t13.5 -30.5t32.5 -12.5z" />
    <glyph glyph-name="f_f" unicode="ff" horiz-adv-x="671" 
d="M647 640q-106 0 -104 -112v-61h109v-75h-109v-392h-87v392h-255v-392h-87v392h-90v75h90v49q0 96 43 151t133 55h50v-82h-35q-106 0 -104 -112v-61h255v49q0 96 42.5 151t133.5 55h50v-82h-35z" />
    <glyph glyph-name="fi" unicode="fi" horiz-adv-x="575" 
d="M500 467v-467h-87v392h-212v-392h-87v392h-90v75h90v49q0 96 43 151t133 55h37v-82h-22q-106 0 -104 -112v-61h299zM456 697q26 0 44 -16.5t18 -41.5t-18 -41.5t-44 -16.5q-25 0 -43 17t-18 41t18 41t43 17z" />
    <glyph glyph-name="fl" unicode="fl" horiz-adv-x="576" 
d="M501 722v-722h-87v640h-109q-106 0 -104 -112v-61h109v-75h-109v-392h-87v392h-90v75h90v49q0 96 43 151t133 55h211z" />
    <glyph glyph-name="f_f_i" unicode="ffi" horiz-adv-x="917" 
d="M841 467v-467h-87v392h-211v-392h-87v392h-255v-392h-87v392h-90v75h90v49q0 96 43 151t133 55h50v-82h-35q-106 0 -104 -112v-61h255v49q0 96 42.5 151t133.5 55h32v-82h-17q-106 0 -104 -112v-61h298zM798 697q26 0 43.5 -16.5t17.5 -41.5t-17.5 -41.5t-43.5 -16.5
q-25 0 -43.5 17t-18.5 41t18.5 41t43.5 17z" />
    <glyph glyph-name="f_f_l" unicode="ffl" horiz-adv-x="918" 
d="M842 722v-722h-87v640h-108q-106 0 -104 -112v-61h109v-75h-109v-392h-87v392h-255v-392h-87v392h-90v75h90v49q0 96 43 151t133 55h50v-82h-35q-106 0 -104 -112v-61h255v49q0 96 42.5 151t133.5 55h210z" />
    <glyph glyph-name=".notdef" horiz-adv-x="635" 
d="M80 0v665h475v-665h-475zM268 222h62v33q0 49 47 62q37 11 61 43.5t24 80.5q0 60 -41.5 97.5t-99.5 37.5q-57 0 -96.5 -40t-39.5 -105h62q0 37 21 60t53 23t56 -20.5t24 -52.5q0 -49 -57 -71q-41 -12 -58.5 -36.5t-17.5 -73.5v-38zM300 88q18 0 31.5 12.5t13.5 30.5
t-13.5 30.5t-31.5 12.5q-19 0 -32.5 -12.5t-13.5 -30.5t13.5 -30.5t32.5 -12.5z" />
    <glyph glyph-name=".null" horiz-adv-x="0" 
 />
    <glyph glyph-name="nonmarkingreturn" horiz-adv-x="333" 
 />
    <glyph glyph-name="space" unicode=" " horiz-adv-x="253" 
 />
    <glyph glyph-name="exclam" unicode="!" horiz-adv-x="263" 
d="M97 199l-9 490h87l-9 -490h-69zM130 -10q-26 0 -44.5 17.5t-18.5 43.5t18.5 43.5t44.5 17.5q27 0 46 -17.5t19 -43.5t-19 -43.5t-46 -17.5z" />
    <glyph glyph-name="quotedbl" unicode="&#x22;" horiz-adv-x="353" 
d="M74 403l-5 286h74l-5 -286h-64zM216 403l-6 286h75l-6 -286h-63z" />
    <glyph glyph-name="numbersign" unicode="#" horiz-adv-x="651" 
d="M90 0l48 171h-106l22 82h106l48 179h-103l21 82h106l48 175h81l-48 -175h118l48 175h81l-48 -175h107l-22 -82h-108l-49 -179h106l-22 -82h-107l-49 -171h-80l48 171h-117l-50 -171h-79zM241 253h117l49 179h-117z" />
    <glyph glyph-name="dollar" unicode="$" horiz-adv-x="518" 
d="M476 204q0 -72 -53 -125.5t-141 -58.5v-83h-60v87q-79 12 -128 65.5t-49 119.5h90q1 -44 37 -77.5t94 -33.5q55 0 87 30t32 73q0 72 -102 97l-80 20q-154 38 -154 159q0 70 49.5 117t123.5 57v79h60v-78q78 -8 126 -57.5t47 -123.5h-90q1 45 -30.5 74t-80.5 29t-81.5 -27
t-32.5 -69q0 -63 85 -84l80 -19q83 -20 127 -63.5t44 -107.5z" />
    <glyph glyph-name="percent" unicode="%" horiz-adv-x="628" 
d="M167 407q-56 0 -94.5 38.5t-38.5 94.5q0 55 38.5 94t94.5 39q55 0 94 -39t39 -94q0 -56 -39 -94.5t-94 -38.5zM122 0l317 654h59l-316 -654h-60zM167 471q29 0 49.5 19.5t20.5 49.5q0 28 -20.5 49t-49.5 21q-30 0 -49.5 -20.5t-19.5 -49.5q0 -30 19.5 -49.5t49.5 -19.5z
M460 -10q-56 0 -94 38t-38 94t38 95t94 39q55 0 94 -39t39 -95q0 -55 -38.5 -93.5t-94.5 -38.5zM460 53q29 0 49.5 20t20.5 49t-20.5 49.5t-49.5 20.5q-30 0 -49.5 -20t-19.5 -50q0 -29 19.5 -49t49.5 -20z" />
    <glyph glyph-name="ampersand" unicode="&#x26;" horiz-adv-x="639" 
d="M585 71h17v-81h-18q-50 1 -89.5 22t-49.5 55q-26 -37 -72 -57t-99 -20q-98 0 -161.5 63.5t-63.5 154.5q0 112 109 177q-31 22 -51 59t-20 80q0 71 52.5 122t132.5 51q54 0 97.5 -25t69.5 -69l-72 -44q-32 54 -95 54q-45 0 -72.5 -26t-27.5 -68q0 -43 29.5 -74t86.5 -31
h122v83h88v-84h87v-70h-87v-132q0 -30 3.5 -52.5t12 -44t26.5 -32.5t45 -11zM273 74q60 0 97.5 37t39.5 93v139h-115q-79 0 -120 -37t-41 -95q0 -59 38.5 -98t100.5 -39z" />
    <glyph glyph-name="quotesingle" unicode="'" horiz-adv-x="212" 
d="M74 403l-5 286h74l-5 -286h-64z" />
    <glyph glyph-name="parenleft" unicode="(" horiz-adv-x="348" 
d="M323 -160q-124 1 -198.5 120.5t-74.5 319.5t74.5 320.5t198.5 121.5v-74q-85 0 -137.5 -102.5t-52.5 -265.5t52.5 -265t137.5 -102v-73z" />
    <glyph glyph-name="parenright" unicode=")" horiz-adv-x="348" 
d="M25 -160v73q85 0 137.5 102t52.5 265t-52.5 265.5t-137.5 102.5v74q124 -1 198 -121.5t74 -320.5t-74 -319.5t-198 -120.5z" />
    <glyph glyph-name="asterisk" unicode="*" horiz-adv-x="457" 
d="M417 535l-147 -34l92 -119l-46 -34l-87 126l-87 -126l-47 34l92 119l-146 34l15 57l148 -44l-4 154h58l-4 -154l147 44z" />
    <glyph glyph-name="plus" unicode="+" horiz-adv-x="495" 
d="M452 304v-85h-162v-164h-85v164h-163v85h163v162h85v-162h162z" />
    <glyph glyph-name="comma" unicode="," horiz-adv-x="237" 
d="M59 -161l-60 18q47 67 66 125.5t10 143.5h88q8 -86 -19.5 -162t-84.5 -125z" />
    <glyph glyph-name="hyphen" unicode="-" horiz-adv-x="482" 
d="M67 191v84h347v-84h-347z" />
    <glyph glyph-name="period" unicode="." horiz-adv-x="244" 
d="M121 -10q-26 0 -44.5 17t-18.5 43q0 27 18.5 44.5t44.5 17.5q27 0 46 -17.5t19 -44.5q0 -26 -19 -43t-46 -17z" />
    <glyph glyph-name="slash" unicode="/" horiz-adv-x="478" 
d="M26 0l340 689h87l-340 -689h-87z" />
    <glyph glyph-name="zero" unicode="0" horiz-adv-x="592" 
d="M296 -10q-55 0 -97 17.5t-68 47t-42.5 73.5t-23 91.5t-6.5 105.5q0 59 6.5 107t23 92t43 73.5t68 47t96.5 17.5t96.5 -17.5t68 -47t43 -73.5t23 -92t6.5 -107q0 -58 -6.5 -105.5t-23 -91.5t-42.5 -73.5t-68 -47t-97 -17.5zM296 72q150 0 150 253q0 254 -150 254
q-83 0 -116 -68.5t-33 -185.5q0 -253 149 -253z" />
    <glyph glyph-name="one" unicode="1" horiz-adv-x="350" 
d="M251 662h3v-662h-87v535l-139 -57v84z" />
    <glyph glyph-name="two" unicode="2" horiz-adv-x="516" 
d="M197 84h265v-84h-411v39l246 297q69 84 69 133q0 50 -32.5 80t-85.5 30t-87 -27.5t-38 -71.5l-78 17q10 75 65 120t138 45q92 0 148.5 -53t56.5 -140q0 -37 -21.5 -83t-54.5 -86z" />
    <glyph glyph-name="three" unicode="3" horiz-adv-x="521" 
d="M355 351q52 -17 83 -60t31 -100q0 -90 -63.5 -145t-163.5 -55q-69 0 -125.5 36t-85.5 100l72 41q22 -44 58 -69.5t78 -25.5q62 0 102 32t40 83q0 55 -39 89t-100 34h-68v75h62q51 0 82.5 27.5t31.5 72.5q0 42 -29 67.5t-76 25.5q-34 0 -65.5 -17t-50.5 -45l-60 50
q25 43 74 69t104 26q86 0 138 -47.5t52 -126.5q0 -46 -22 -82.5t-60 -54.5z" />
    <glyph glyph-name="four" unicode="4" horiz-adv-x="569" 
d="M526 217v-82h-93v-135h-87v135h-334v19l406 500h15v-437h93zM158 217h188v225z" />
    <glyph glyph-name="five" unicode="5" horiz-adv-x="555" 
d="M296 420q95 0 154 -57.5t59 -151.5q0 -99 -65 -160t-166 -61q-82 0 -143.5 40.5t-93.5 107.5l73 40q21 -47 62.5 -76.5t97.5 -29.5q64 0 106 38t42 99q0 60 -41.5 97t-103.5 37q-79 0 -160 -60l-54 45l57 326h346v-83h-275l-37 -196q65 45 142 45z" />
    <glyph glyph-name="six" unicode="6" horiz-adv-x="586" 
d="M308 421q97 0 160.5 -64t63.5 -152q0 -87 -64.5 -151t-167.5 -64q-120 0 -181.5 80.5t-61.5 235.5q0 49 7.5 96.5t27 95.5t49 83.5t76.5 58t107 22.5q146 0 201 -133l-79 -32q-36 82 -124 82q-75 0 -125 -72t-45 -169q24 37 65 60t91 23zM295 73q63 0 104.5 38.5
t41.5 95.5q0 55 -38.5 92.5t-97.5 39.5q-62 0 -105.5 -35.5t-46.5 -90.5q0 -59 40.5 -98.5t101.5 -41.5z" />
    <glyph glyph-name="seven" unicode="7" horiz-adv-x="508" 
d="M51 654h447v-7l-355 -647h-103l315 571h-304v83z" />
    <glyph glyph-name="eight" unicode="8" horiz-adv-x="586" 
d="M414 379q57 -22 90.5 -71.5t33.5 -112.5q0 -91 -68.5 -148t-175.5 -57q-108 0 -177 57t-69 147q0 63 34 113t91 72q-66 41 -66 121q0 70 52 116t135 46q82 0 134.5 -46t52.5 -116q0 -79 -67 -121zM294 581q-40 0 -68 -26t-28 -63q0 -36 27.5 -60.5t68.5 -24.5t68 24
t27 61t-27.5 63t-67.5 26zM294 72q67 0 109.5 37t42.5 92q0 57 -44.5 95t-107.5 38q-64 0 -109 -38t-45 -94q0 -55 44.5 -92.5t109.5 -37.5z" />
    <glyph glyph-name="nine" unicode="9" horiz-adv-x="586" 
d="M286 662q117 0 180.5 -87t63.5 -229q0 -63 -13.5 -121.5t-42.5 -113.5t-83.5 -88t-128.5 -33q-146 0 -201 132l79 32q37 -82 124 -82q74 0 124.5 71t46.5 167q-24 -37 -65.5 -58.5t-90.5 -21.5q-98 0 -161.5 64.5t-63.5 152.5q0 87 64.5 151t167.5 64zM281 313
q62 0 106 35.5t46 90.5q0 59 -41 98t-101 41q-63 0 -104.5 -38t-41.5 -95q0 -55 39 -93t97 -39z" />
    <glyph glyph-name="colon" unicode=":" horiz-adv-x="263" 
d="M132 355q-27 0 -46 17.5t-19 44.5q0 26 19 43t46 17q26 0 44.5 -17t18.5 -43q0 -27 -18.5 -44.5t-44.5 -17.5zM132 -10q-27 0 -46 17t-19 43q0 27 19 44.5t46 17.5q26 0 44.5 -17.5t18.5 -44.5q0 -26 -18.5 -43t-44.5 -17z" />
    <glyph glyph-name="semicolon" unicode=";" horiz-adv-x="267" 
d="M133 477q27 0 46 -17t19 -43q0 -27 -19 -44.5t-46 -17.5t-45 17.5t-18 44.5q0 26 18 43t45 17zM80 -161l-59 18q47 67 65.5 125.5t9.5 143.5h88q9 -86 -18.5 -162t-85.5 -125z" />
    <glyph glyph-name="less" unicode="&#x3c;" horiz-adv-x="602" 
d="M541 504v-94l-386 -142l386 -144v-92l-507 193v85z" />
    <glyph glyph-name="equal" unicode="=" horiz-adv-x="602" 
d="M71 305v84h460v-84h-460zM71 111v84h460v-84h-460z" />
    <glyph glyph-name="greater" unicode="&#x3e;" horiz-adv-x="601" 
d="M60 504l506 -194v-85l-506 -194v93l385 144l-385 142v94z" />
    <glyph glyph-name="question" unicode="?" horiz-adv-x="474" 
d="M136 199v40q-2 62 23.5 94t75.5 51l34 12q37 14 60 41t23 65q0 53 -30.5 83t-78.5 30t-84 -33.5t-39 -91.5h-83q1 92 62 149.5t144 57.5t139.5 -53.5t56.5 -141.5q0 -69 -41.5 -119t-103.5 -69q-37 -11 -54.5 -26.5t-17.5 -48.5l-1 -40h-85zM178 -9q-27 0 -45.5 17.5
t-18.5 43.5t18.5 43.5t45.5 17.5t45.5 -17.5t18.5 -43.5t-18.5 -43.5t-45.5 -17.5z" />
    <glyph glyph-name="at" unicode="@" horiz-adv-x="980" 
d="M478 -185q-182 0 -307.5 127t-125.5 310q0 182 125.5 310.5t307.5 128.5q121 0 224 -54t165 -151.5t62 -216.5q0 -47 -10 -94t-30.5 -91t-59 -71.5t-88.5 -27.5q-62 0 -102 33t-40 109v130q0 55 -38.5 93t-92.5 38t-92.5 -38t-38.5 -93q0 -54 38.5 -92t92.5 -38
q50 0 99 47v-82q-48 -34 -99 -34q-83 0 -141.5 58.5t-58.5 140.5q0 83 58.5 141.5t141.5 58.5q80 0 138.5 -55.5t61.5 -136.5v-144q0 -68 73 -68q34 0 59 21.5t37 56.5t17 69t5 69q0 151 -112 252t-269 101q-153 0 -258.5 -108t-105.5 -262q0 -155 105 -261.5t259 -106.5h23
v-69h-23z" />
    <glyph glyph-name="A" unicode="A" horiz-adv-x="625" 
d="M528 0l-67 177h-296l-67 -177h-95l262 689h96l262 -689h-95zM195 257h236l-118 312z" />
    <glyph glyph-name="B" unicode="B" horiz-adv-x="630" 
d="M454 367q58 -13 91 -63t33 -110q0 -78 -55 -136t-146 -58h-281v689h259q86 0 136 -47.5t50 -128.5q0 -113 -87 -146zM354 605h-167v-203h170q45 0 69 28t24 74t-25 73.5t-71 27.5zM358 84q61 0 95 33.5t34 84.5q0 50 -32 85t-92 35h-176v-238h171z" />
    <glyph glyph-name="C" unicode="C" horiz-adv-x="690" 
d="M398 -10q-146 0 -248 103t-102 250t102 250t248 103q78 0 145 -31t114 -86l-66 -56q-76 89 -193 89q-108 0 -183.5 -79t-75.5 -190t75.5 -190t183.5 -79q117 0 193 89l66 -56q-47 -55 -114 -86t-145 -31z" />
    <glyph glyph-name="D" unicode="D" horiz-adv-x="726" 
d="M96 0v689h267q144 0 227.5 -97.5t83.5 -248.5q0 -150 -83.5 -246.5t-227.5 -96.5h-267zM187 84h176q105 0 162.5 72t57.5 187t-57.5 188.5t-162.5 73.5h-176v-521z" />
    <glyph glyph-name="E" unicode="E" 
d="M186 84h326v-84h-416v689h406v-84h-316v-224h276v-85h-276v-212z" />
    <glyph glyph-name="F" unicode="F" horiz-adv-x="527" 
d="M497 605h-310v-224h246v-85h-246v-296h-91v689h401v-84z" />
    <glyph glyph-name="G" unicode="G" horiz-adv-x="754" 
d="M397 -10q-146 0 -247 103t-101 250q0 148 101 251t247 103q134 0 232 -90l-63 -59q-73 65 -169 65q-108 0 -182.5 -79t-74.5 -191t74.5 -190.5t182.5 -78.5q90 0 152 47.5t72 127.5q2 10 2 17h-200v79h300q0 -176 -87 -265.5t-239 -89.5z" />
    <glyph glyph-name="H" unicode="H" horiz-adv-x="711" 
d="M525 689h91v-689h-91v301h-338v-301h-91v689h91v-305h338v305z" />
    <glyph glyph-name="I" unicode="I" horiz-adv-x="282" 
d="M96 0v689h91v-689h-91z" />
    <glyph glyph-name="J" unicode="J" horiz-adv-x="290" 
d="M-18 -233q-22 0 -73 11l9 85q24 -8 64 -8q63 0 92.5 37.5t29.5 97.5v699h91v-699q0 -98 -52 -160.5t-161 -62.5z" />
    <glyph glyph-name="K" unicode="K" horiz-adv-x="571" 
d="M583 0h-121l-276 295v-295h-90v689h90v-301l231 301h111l-266 -345z" />
    <glyph glyph-name="L" unicode="L" horiz-adv-x="490" 
d="M96 0v689h91v-605h282v-84h-373z" />
    <glyph glyph-name="M" unicode="M" horiz-adv-x="937" 
d="M881 0h-89l-64 525l-219 -450h-79l-221 450l-63 -525h-89l84 689h82l246 -511l245 511h82z" />
    <glyph glyph-name="N" unicode="N" horiz-adv-x="688" 
d="M502 689h91v-689h-88l-318 525v-525h-91v689h90l316 -523v523z" />
    <glyph glyph-name="O" unicode="O" horiz-adv-x="795" 
d="M396 -10q-146 0 -247 103t-101 250q0 148 101 251t247 103q147 0 248.5 -103t101.5 -251q0 -147 -101.5 -250t-248.5 -103zM396 74q109 0 184 79t75 190q0 112 -75 191t-184 79q-108 0 -182.5 -79t-74.5 -191q0 -111 74.5 -190t182.5 -79z" />
    <glyph glyph-name="P" unicode="P" horiz-adv-x="610" 
d="M370 689q102 0 153.5 -63t51.5 -152q0 -90 -51.5 -152.5t-153.5 -62.5h-183v-259h-91v689h274zM364 344q60 0 90 37.5t30 92.5q0 54 -29 92.5t-86 38.5h-182v-261h177z" />
    <glyph glyph-name="Q" unicode="Q" horiz-adv-x="795" 
d="M746 343q0 -94 -44.5 -173.5t-119.5 -126.5l72 -115l-70 -43l-77 123q-51 -18 -111 -18q-146 0 -247 103t-101 250q0 148 101 251t247 103q147 0 248.5 -103t101.5 -251zM396 74q31 0 65 8l-74 119l69 43l80 -128q55 36 87 96t32 131q0 112 -75 191t-184 79
q-108 0 -182.5 -79t-74.5 -191q0 -111 74.5 -190t182.5 -79z" />
    <glyph glyph-name="R" unicode="R" horiz-adv-x="618" 
d="M457 0l-180 260h-90v-260h-91v689h259q105 0 156.5 -62.5t51.5 -152.5q0 -83 -44.5 -143.5t-135.5 -69.5l183 -261h-109zM187 605v-262h144q141 0 141 131q0 58 -31.5 94.5t-83.5 36.5h-170z" />
    <glyph glyph-name="S" unicode="S" horiz-adv-x="570" 
d="M294 -10q-105 0 -173.5 62t-69.5 145h90q2 -49 44.5 -86t108.5 -37q65 0 102 34.5t37 82.5q0 81 -119 112l-89 22q-169 41 -169 177q0 87 67 141t160 54t155.5 -55t62.5 -145h-90q0 51 -37.5 83.5t-93.5 32.5q-54 0 -93.5 -30.5t-39.5 -79.5q0 -72 100 -96l90 -22
q90 -22 138.5 -70.5t48.5 -120.5q0 -84 -63.5 -144t-166.5 -60z" />
    <glyph glyph-name="T" unicode="T" horiz-adv-x="551" 
d="M531 689v-84h-210v-605h-91v605h-210v84h511z" />
    <glyph glyph-name="U" unicode="U" horiz-adv-x="678" 
d="M339 -10q-106 0 -178.5 66.5t-72.5 179.5v453h91v-453q0 -77 45.5 -118t114.5 -41t114.5 41t45.5 118v453h91v-453q0 -113 -72.5 -179.5t-178.5 -66.5z" />
    <glyph glyph-name="V" unicode="V" horiz-adv-x="555" 
d="M435 689h93l-207 -689h-87l-209 689h94l158 -537z" />
    <glyph glyph-name="W" unicode="W" horiz-adv-x="903" 
d="M790 689h97l-233 -689h-79l-124 435l-123 -435h-79l-233 689h97l176 -545l128 451h69l129 -449z" />
    <glyph glyph-name="X" unicode="X" horiz-adv-x="607" 
d="M599 0h-109l-187 296l-187 -296h-108l241 371l-214 318h108l160 -245l161 245h108l-215 -319z" />
    <glyph glyph-name="Y" unicode="Y" horiz-adv-x="624" 
d="M513 689h109l-265 -371v-318h-91v318l-262 371h108l200 -282z" />
    <glyph glyph-name="Z" unicode="Z" horiz-adv-x="566" 
d="M520 689v-78l-368 -527h368v-84h-480v78l366 527h-353v84h467z" />
    <glyph glyph-name="bracketleft" unicode="[" horiz-adv-x="317" 
d="M286 645h-110v-728h110v-77h-197v882h197v-77z" />
    <glyph glyph-name="backslash" unicode="\" horiz-adv-x="478" 
d="M365 0l-340 689h87l340 -689h-87z" />
    <glyph glyph-name="bracketright" unicode="]" horiz-adv-x="317" 
d="M31 722h198v-882h-198v77h111v728h-111v77z" />
    <glyph glyph-name="asciicircum" unicode="^" horiz-adv-x="477" 
d="M437 304h-87l-111 286l-111 -286h-88l157 385h83z" />
    <glyph glyph-name="underscore" unicode="_" horiz-adv-x="680" 
d="M61 -107v79h558v-79h-558z" />
    <glyph glyph-name="grave" unicode="`" horiz-adv-x="508" 
d="M246 553l-118 154h106l97 -154h-85z" />
    <glyph glyph-name="a" unicode="a" horiz-adv-x="608" 
d="M445 467h87v-467h-87v74q-23 -39 -68.5 -61.5t-97.5 -22.5q-98 0 -166 68t-68 176t67.5 175.5t165.5 67.5q54 0 99 -21.5t68 -61.5v73zM286 72q65 0 112 45t47 118q0 72 -48.5 116t-110.5 44q-65 0 -109 -45t-44 -115q0 -69 44.5 -116t108.5 -47z" />
    <glyph glyph-name="b" unicode="b" horiz-adv-x="607" 
d="M330 477q98 0 165.5 -67.5t67.5 -175.5t-68 -176t-166 -68q-52 0 -97.5 22.5t-68.5 61.5v-74h-87v722h87v-328q23 40 68 61.5t99 21.5zM321 72q65 0 109.5 47t44.5 116q0 70 -44.5 115t-109.5 45q-61 0 -109.5 -44t-48.5 -116q0 -73 46.5 -118t111.5 -45z" />
    <glyph glyph-name="c" unicode="c" horiz-adv-x="507" 
d="M295 -9q-104 0 -177.5 67.5t-73.5 175.5t73.5 175.5t177.5 67.5q111 0 178 -74l-55 -57q-47 49 -120 49q-70 0 -118 -45t-48 -116t48 -116t118 -45q73 0 120 49l55 -57q-66 -74 -178 -74z" />
    <glyph glyph-name="d" unicode="d" horiz-adv-x="608" 
d="M445 722h87v-722h-87v74q-23 -39 -68.5 -61.5t-97.5 -22.5q-98 0 -166 68t-68 176t67.5 175.5t165.5 67.5q54 0 99 -21.5t68 -61.5v328zM286 72q65 0 112 45t47 118q0 72 -48.5 116t-110.5 44q-65 0 -109 -45t-44 -115q0 -69 44.5 -116t108.5 -47z" />
    <glyph glyph-name="e" unicode="e" horiz-adv-x="558" 
d="M516 235q0 -13 -2 -39h-380q10 -61 50.5 -92.5t102.5 -31.5q44 0 80.5 18.5t55.5 52.5l76 -30q-30 -59 -88 -91t-127 -32q-102 0 -171 68t-69 177t69 175.5t171 66.5q101 0 166.5 -66.5t65.5 -175.5zM135 271h294q-8 59 -47 91.5t-98 32.5q-61 0 -100 -31t-49 -93z" />
    <glyph glyph-name="f" unicode="f" horiz-adv-x="329" 
d="M305 640q-106 0 -104 -112v-61h109v-75h-109v-392h-87v392h-90v75h90v49q0 96 43 151t133 55h50v-82h-35z" />
    <glyph glyph-name="g" unicode="g" horiz-adv-x="608" 
d="M445 467h87v-396q0 -304 -254 -304q-65 0 -120.5 32.5t-89.5 92.5l74 39q21 -39 58.5 -60.5t77.5 -21.5q167 0 167 216v9q-23 -39 -68.5 -61.5t-97.5 -22.5q-98 0 -166 68t-68 176t67.5 175.5t165.5 67.5q54 0 99 -21.5t68 -61.5v73zM286 72q65 0 112 45t47 118
q0 72 -48.5 116t-110.5 44q-65 0 -109 -45t-44 -115q0 -69 44.5 -116t108.5 -47z" />
    <glyph glyph-name="h" unicode="h" horiz-adv-x="575" 
d="M318 477q88 0 138.5 -55t49.5 -152v-270h-87v265q0 58 -31.5 92t-81.5 34q-57 0 -100 -34t-43 -104v-253h-87v722h87v-326q19 39 65 60t90 21z" />
    <glyph glyph-name="i" unicode="i" horiz-adv-x="238" 
d="M119 581q-25 0 -43 17t-18 41t18 41t43 17q26 0 44 -16.5t18 -41.5t-18 -41.5t-44 -16.5zM76 0v467h87v-467h-87z" />
    <glyph glyph-name="j" unicode="j" horiz-adv-x="246" 
d="M127 581q-25 0 -43 17t-18 41t18 41t43 17q26 0 44 -16.5t18 -41.5t-18 -41.5t-44 -16.5zM-56 -227v82h53q89 0 87 119v493h87v-494q0 -200 -167 -200h-60z" />
    <glyph glyph-name="k" unicode="k" horiz-adv-x="486" 
d="M495 0h-117l-215 228v-228h-87v722h87v-420l162 165h121l-200 -202z" />
    <glyph glyph-name="l" unicode="l" horiz-adv-x="238" 
d="M76 0v722h87v-722h-87z" />
    <glyph glyph-name="m" unicode="m" horiz-adv-x="880" 
d="M630 477q87 0 134 -54t47 -153v-270h-87v265q0 59 -30 93.5t-81 34.5q-61 1 -96 -44.5t-29 -114.5l-1 4v-238h-87v265q0 59 -29 93.5t-76 34.5q-55 0 -93.5 -35.5t-38.5 -104.5v-253h-87v467h87v-71q18 37 59 59t91 22q52 0 93 -25.5t61 -71.5q49 97 163 97z" />
    <glyph glyph-name="n" unicode="n" horiz-adv-x="575" 
d="M318 477q88 0 138.5 -55t49.5 -152v-270h-87v265q0 58 -31.5 92t-81.5 34q-57 0 -100 -34t-43 -104v-253h-87v467h87v-71q19 39 65 60t90 21z" />
    <glyph glyph-name="o" unicode="o" horiz-adv-x="578" 
d="M288 -10q-102 0 -173 68t-71 177q0 108 70.5 175t173.5 67t174 -67t71 -175t-71.5 -176.5t-173.5 -68.5zM288 72q66 0 112 46t46 117q0 70 -46 115t-112 45q-65 0 -110.5 -45t-45.5 -115q0 -71 45.5 -117t110.5 -46z" />
    <glyph glyph-name="p" unicode="p" horiz-adv-x="608" 
d="M329 477q98 0 166 -68t68 -176q0 -109 -67.5 -176t-165.5 -67q-54 0 -99 21.5t-68 61.5v-300h-87v694h87v-74q23 39 68.5 61.5t97.5 22.5zM321 72q65 0 109.5 45t44.5 115q0 69 -44.5 116t-109.5 47t-111.5 -45t-46.5 -118q0 -72 48.5 -116t109.5 -44z" />
    <glyph glyph-name="q" unicode="q" horiz-adv-x="608" 
d="M445 467h87v-694h-87v300q-23 -40 -68 -61.5t-99 -21.5q-98 0 -165.5 67t-67.5 176q0 108 68 176t166 68q52 0 97.5 -22.5t68.5 -61.5v74zM286 72q62 0 110.5 44t48.5 116q0 73 -47 118t-112 45q-64 0 -108.5 -47t-44.5 -116q0 -70 44 -115t109 -45z" />
    <glyph glyph-name="r" unicode="r" horiz-adv-x="387" 
d="M295 477q53 0 81 -18l-14 -82q-33 16 -68 16q-66 0 -98 -61.5t-32 -160.5v-171h-88v467h88v-106q34 116 131 116z" />
    <glyph glyph-name="s" unicode="s" horiz-adv-x="436" 
d="M213 -10q-67 0 -119 40.5t-55 108.5h81q1 -31 26 -52t67 -21q44 0 69 18t25 47q0 47 -64 61l-64 15q-61 16 -92 48t-31 86q0 58 45 97t115 39q65 0 113 -35t48 -101h-84q-1 26 -23.5 43t-51.5 17q-33 0 -54 -18t-21 -45q0 -42 60 -56l69 -17q122 -30 122 -135
q0 -63 -52.5 -101.5t-128.5 -38.5z" />
    <glyph glyph-name="t" unicode="t" horiz-adv-x="321" 
d="M300 467v-75h-101v-392h-87v392h-84v75h84v177h87v-177h101z" />
    <glyph glyph-name="u" unicode="u" horiz-adv-x="575" 
d="M413 467h87v-467h-87v73q-19 -40 -65 -61.5t-90 -21.5q-88 0 -138.5 54.5t-49.5 152.5v270h87v-265q0 -58 31 -92t81 -34q57 0 100 34t44 104v253z" />
    <glyph glyph-name="v" unicode="v" horiz-adv-x="504" 
d="M395 467h94l-195 -467h-85l-194 467h93l144 -356z" />
    <glyph glyph-name="w" unicode="w" horiz-adv-x="779" 
d="M670 467h94l-174 -467h-73l-129 347l-124 -347h-72l-178 467h94l119 -332l119 332h85l120 -332z" />
    <glyph glyph-name="x" unicode="x" horiz-adv-x="490" 
d="M481 0h-104l-132 183l-133 -183h-104l185 257l-151 210h105l98 -139l98 139h106l-152 -211z" />
    <glyph glyph-name="y" unicode="y" horiz-adv-x="502" 
d="M395 467h94l-290 -694h-92l97 240l-187 454h94l141 -344z" />
    <glyph glyph-name="z" unicode="z" horiz-adv-x="496" 
d="M450 467v-72l-288 -313h288v-82h-410v72l283 313h-268v82h395z" />
    <glyph glyph-name="braceleft" unicode="{" horiz-adv-x="380" 
d="M180 378q0 -30 -17.5 -59.5t-48.5 -37.5q31 -7 48.5 -37t17.5 -60v-150q0 -54 33 -87.5t105 -33.5h37v-73h-62q-83 0 -140.5 53.5t-56.5 140.5v158q0 20 -18 36t-43 17v72q25 1 43 17t18 36v158q-1 87 56.5 140.5t140.5 53.5h62v-73h-37q-72 0 -105 -33.5t-33 -87.5v-150
z" />
    <glyph glyph-name="bar" unicode="|" horiz-adv-x="238" 
d="M89 -119v914h60v-914h-60z" />
    <glyph glyph-name="braceright" unicode="}" horiz-adv-x="380" 
d="M283 370q0 -20 18 -36t43 -17v-72q-25 -1 -43 -17t-18 -36v-158q1 -87 -56 -140.5t-140 -53.5h-62v73h37q72 0 105 33.5t33 87.5v150q0 31 17 60.5t49 36.5q-32 8 -49 37.5t-17 59.5v150q0 54 -33 87.5t-105 33.5h-37v73h62q83 0 140 -53.5t56 -140.5v-158z" />
    <glyph glyph-name="asciitilde" unicode="~" horiz-adv-x="683" 
d="M615 298q-25 -33 -65.5 -55.5t-84.5 -22.5q-21 0 -41.5 4t-32 8.5t-30.5 13t-25 10.5t-22.5 10t-27.5 12t-29 8t-35 4q-63 0 -117 -58l-34 50q26 32 67 54.5t85 22.5q20 0 40.5 -4.5t31.5 -8.5t30.5 -12.5t24.5 -10.5q6 -2 22.5 -10t27.5 -12t29 -8t35 -4q60 0 116 58z
" />
    <glyph glyph-name="exclamdown" unicode="&#xa1;" horiz-adv-x="246" 
d="M122 477q27 0 46 -17t19 -43q0 -27 -19 -44.5t-46 -17.5q-26 0 -44.5 17.5t-18.5 44.5q0 26 18.5 43t44.5 17zM89 263h69l9 -490h-87z" />
    <glyph glyph-name="cent" unicode="&#xa2;" horiz-adv-x="514" 
d="M299 73q73 0 120 49l55 -57q-59 -67 -159 -73v-109h-60v111q-90 13 -150 78t-60 162t60 162t150 78v105h60v-103q99 -6 159 -73l-55 -57q-47 49 -120 49q-70 0 -118 -45t-48 -116t48 -116t118 -45z" />
    <glyph glyph-name="sterling" unicode="&#xa3;" horiz-adv-x="619" 
d="M489 167h87v-49q0 -52 -24.5 -85t-69.5 -33h-437v82h91v170h-76v60h76v131q0 104 60 160.5t146 56.5q82 0 139 -57.5t57 -149.5h-87q0 57 -32 92.5t-87 35.5q-44 0 -76.5 -37t-32.5 -101v-131h152v-60h-152v-170h236q30 0 30 33v52z" />
    <glyph glyph-name="currency" unicode="&#xa4;" horiz-adv-x="590" 
d="M63 519l53 54l71 -72q49 34 107 34t109 -34l71 72l53 -54l-70 -71q33 -51 33 -111q0 -57 -33 -105l70 -72l-53 -53l-71 71q-50 -33 -108 -33q-61 0 -109 33l-70 -71l-53 54l70 71q-33 50 -33 106q0 61 34 110zM295 227q47 0 80 33t33 79q0 47 -33 80t-80 33
q-46 0 -79 -33t-33 -80t32.5 -79.5t79.5 -32.5z" />
    <glyph glyph-name="yen" unicode="&#xa5;" horiz-adv-x="675" 
d="M290 0v113h-180v63h180v80h-180v62h180l-261 371h108l199 -281l202 281h109l-264 -371h182v-62h-182v-80h182v-63h-182v-113h-93z" />
    <glyph glyph-name="brokenbar" unicode="&#xa6;" horiz-adv-x="242" 
d="M91 407v388h60v-388h-60zM91 -119v386h60v-386h-60z" />
    <glyph glyph-name="section" unicode="&#xa7;" horiz-adv-x="509" 
d="M259 139q-83 0 -140 53.5t-57 140.5v159q0 87 57 141t140 54q63 0 114.5 -36.5t73.5 -98.5l-80 -23q-15 35 -44 54.5t-64 19.5q-47 0 -80 -30.5t-33 -80.5v-159q0 -50 33 -80t80 -30q30 0 56 11v-86q-29 -9 -56 -9zM250 -118q-63 0 -114.5 36.5t-73.5 98.5l80 23
q15 -35 44 -54.5t64 -19.5q47 0 80 30.5t33 80.5v159q0 50 -33 80t-80 30q-29 0 -54 -11v86q31 9 54 9q83 0 140 -53.5t57 -140.5v-159q0 -87 -57 -141t-140 -54z" />
    <glyph glyph-name="dieresis" unicode="&#xa8;" horiz-adv-x="550" 
d="M181 572q-26 0 -43.5 16.5t-17.5 41.5t17.5 41t43.5 16q24 0 41.5 -16.5t17.5 -40.5q0 -25 -17.5 -41.5t-41.5 -16.5zM369 572q-25 0 -42.5 16.5t-17.5 41.5q0 24 17.5 40.5t42.5 16.5t43 -16.5t18 -40.5q0 -25 -18 -41.5t-43 -16.5z" />
    <glyph glyph-name="copyright" unicode="&#xa9;" horiz-adv-x="796" 
d="M397 -10q-146 0 -247.5 103t-101.5 250t101.5 250.5t247.5 103.5t248 -103.5t102 -250.5t-102 -250t-248 -103zM397 51q121 0 205.5 85t84.5 207t-84.5 208t-205.5 86q-120 0 -204.5 -86t-84.5 -208t84 -207t205 -85zM401 157q-75 0 -127.5 53t-52.5 128t52 127.5
t128 52.5q73 0 135 -65l-44 -46q-46 46 -91 46q-48 0 -81 -33.5t-33 -81.5t33 -81.5t81 -33.5q47 0 92 47l44 -49q-61 -64 -136 -64z" />
    <glyph glyph-name="ordfeminine" unicode="&#xaa;" horiz-adv-x="541" 
d="M384 718h78v-373h-78v60q-19 -32 -56.5 -50t-77.5 -18q-77 0 -131.5 54.5t-54.5 140.5t54.5 140.5t131.5 54.5q41 0 78 -17t56 -49v57zM261 410q51 0 86.5 34.5t35.5 87.5t-36.5 87t-85.5 34t-84 -34.5t-35 -85.5t35 -87t84 -36zM80 211v68h372v-68h-372z" />
    <glyph glyph-name="guillemotleft" unicode="&#xab;" horiz-adv-x="483" 
d="M182 26l-138 207l138 207h81l-138 -207l138 -207h-81zM355 26l-138 207l138 207h81l-138 -207l138 -207h-81z" />
    <glyph glyph-name="logicalnot" unicode="&#xac;" horiz-adv-x="636" 
d="M71 358h488v-239h-84v154h-404v85z" />
    <glyph glyph-name="uni00AD" unicode="&#xad;" horiz-adv-x="482" 
d="M67 191v84h347v-84h-347z" />
    <glyph glyph-name="registered" unicode="&#xae;" horiz-adv-x="796" 
d="M397 697q146 0 248 -103.5t102 -250.5t-102 -250t-248 -103t-247.5 103t-101.5 250t101.5 250.5t247.5 103.5zM397 51q121 0 205.5 85t84.5 207t-84.5 208t-205.5 86q-120 0 -204.5 -86t-84.5 -208t84 -207t205 -85zM528 402q0 -91 -77 -110l89 -127h-72l-87 122h-36
v-122h-64v347h134q55 0 84 -31.5t29 -78.5zM345 452v-108h67q26 0 40 16.5t14 37.5t-14 37.5t-40 16.5h-67z" />
    <glyph glyph-name="macron" unicode="&#xaf;" horiz-adv-x="491" 
d="M120 588v77h251v-77h-251z" />
    <glyph glyph-name="degree" unicode="&#xb0;" horiz-adv-x="353" 
d="M177 437q-54 0 -92 38t-38 92q0 53 38 91.5t92 38.5q53 0 91.5 -38.5t38.5 -91.5q0 -54 -38.5 -92t-91.5 -38zM177 494q29 0 50.5 22t21.5 51t-21.5 50.5t-50.5 21.5q-30 0 -51.5 -21.5t-21.5 -50.5t21.5 -51t51.5 -22z" />
    <glyph glyph-name="plusminus" unicode="&#xb1;" horiz-adv-x="526" 
d="M305 360h160v-85h-160v-146h-84v146h-160v85h160v144h84v-144zM61 0v80h404v-80h-404z" />
    <glyph glyph-name="uni00B2" unicode="&#xb2;" horiz-adv-x="322" 
d="M148 587h133v-67h-246l1 43l154 183q15 18 15 38q0 17 -14 28t-35 11q-41 0 -54 -53l-67 10q10 51 42 80t84 29q53 0 85.5 -29t32.5 -78q0 -50 -36 -89z" />
    <glyph glyph-name="uni00B3" unicode="&#xb3;" horiz-adv-x="322" 
d="M215 717q32 -11 50.5 -36t18.5 -59q0 -47 -39 -77t-100 -30q-77 0 -118 52l45 43q27 -30 68 -30q32 0 51 14.5t19 38.5q0 22 -17 36t-44 14h-36v52h17q30 0 47 15t16 36q-1 17 -16.5 27.5t-38.5 10.5q-43 0 -67 -31l-35 47q51 49 114 49q50 0 83.5 -27.5t33.5 -72.5
q0 -44 -52 -72z" />
    <glyph glyph-name="acute" unicode="&#xb4;" horiz-adv-x="508" 
d="M129 553l97 154h106l-119 -154h-84z" />
    <glyph glyph-name="uni00B5" unicode="&#xb5;" horiz-adv-x="578" 
d="M87 467h87v-270q0 -56 25 -88t70 -32q55 0 94.5 33.5t39.5 101.5v255h87v-467h-87v59q-20 -34 -58 -51t-76 -17q-66 0 -95 33v-176h-87v619z" />
    <glyph glyph-name="paragraph" unicode="&#xb6;" horiz-adv-x="642" 
d="M243 -57v313q-86 5 -147 67.5t-61 148.5q0 90 63 153.5t154 63.5h72v-746h-81zM242 -185v74h91q25 0 37 16t12 39v745h91q56 0 96 -40t40 -96v-84h-79v84q0 22 -13.5 38.5t-33.5 16.5h-20v-657q0 -54 -30 -93.5t-82 -42.5h-109z" />
    <glyph glyph-name="periodcentered" unicode="&#xb7;" horiz-adv-x="263" 
d="M131 190q-26 0 -45 17t-19 43t19 44t45 18t45 -18t19 -44t-18.5 -43t-45.5 -17z" />
    <glyph glyph-name="cedilla" unicode="&#xb8;" horiz-adv-x="521" 
d="M262 -204q-46 0 -74 30.5t-28 78.5h59q0 -22 13 -36t30 -14q18 0 28 11.5t10 29.5q0 10 -3 17l-42 119h55l41 -94q10 -22 10 -42q0 -45 -27.5 -72.5t-71.5 -27.5z" />
    <glyph glyph-name="uni00B9" unicode="&#xb9;" horiz-adv-x="245" 
d="M181 889h8v-369h-72v276l-90 -36v66z" />
    <glyph glyph-name="ordmasculine" unicode="&#xba;" horiz-adv-x="528" 
d="M263 338q-83 0 -140 54.5t-57 141.5q0 86 57 140t140 54q82 0 140 -54t58 -140q0 -87 -58 -141.5t-140 -54.5zM263 411q51 0 86 34.5t35 88.5t-35 87.5t-86 33.5q-50 0 -84.5 -33.5t-34.5 -87.5t34.5 -88.5t84.5 -34.5zM78 279h372v-68h-372v68z" />
    <glyph glyph-name="guillemotright" unicode="&#xbb;" horiz-adv-x="483" 
d="M46 26l138 207l-138 207h82l138 -207l-138 -207h-82zM219 26l138 207l-138 207h82l138 -207l-138 -207h-82z" />
    <glyph glyph-name="onequarter" unicode="&#xbc;" horiz-adv-x="763" 
d="M525 670h65l-450 -680h-66zM117 290v275l-90 -36v66l154 64h7v-369h-71zM734 131v-63h-61v-68h-74v68h-175v26l186 270h63v-233h61zM516 131h83v126z" />
    <glyph glyph-name="onehalf" unicode="&#xbd;" horiz-adv-x="747" 
d="M525 670h65l-450 -680h-66zM117 290v275l-90 -36v66l154 64h7v-369h-71zM572 66h134v-66h-246l1 43l154 182q15 20 15 38q0 17 -14.5 28.5t-34.5 11.5q-41 0 -54 -53l-67 9q22 110 126 110q53 0 85.5 -29.5t32.5 -78.5q0 -50 -37 -89z" />
    <glyph glyph-name="threequarters" unicode="&#xbe;" horiz-adv-x="840" 
d="M602 670h65l-450 -680h-66zM284 392q0 -47 -39 -77t-100 -30q-78 0 -118 52l45 42q27 -30 68 -30q32 0 51 14.5t19 38.5q0 23 -17 37t-44 14h-36v51h17q30 0 47 15t16 36q-1 17 -16.5 27.5t-38.5 10.5q-43 0 -67 -31l-35 47q50 50 114 50q50 0 83.5 -27.5t33.5 -73.5
q0 -45 -52 -71q69 -25 69 -95zM811 131v-63h-61v-68h-74v68h-175v26l186 270h63v-233h61zM593 131h83v126z" />
    <glyph glyph-name="questiondown" unicode="&#xbf;" horiz-adv-x="465" 
d="M292 477q27 0 45.5 -17t18.5 -43q0 -27 -18.5 -44.5t-45.5 -17.5t-45 17.5t-18 44.5q0 26 18 43t45 17zM334 269l1 -44q1 -63 -24.5 -94.5t-75.5 -50.5l-34 -12q-83 -31 -83 -107q0 -53 30.5 -83t78.5 -30t84 34t39 92h83q0 -92 -61 -149.5t-145 -57.5q-83 0 -139.5 53.5
t-56.5 140.5q0 69 41.5 119t103.5 70q37 11 54.5 26.5t17.5 48.5l1 44h85z" />
    <glyph glyph-name="Agrave" unicode="&#xc0;" horiz-adv-x="625" 
d="M352 757h-85l-118 154h106zM528 0l-67 177h-296l-67 -177h-95l262 689h96l262 -689h-95zM195 257h236l-118 312z" />
    <glyph glyph-name="Aacute" unicode="&#xc1;" horiz-adv-x="625" 
d="M482 911l-119 -154h-84l97 154h106zM528 0l-67 177h-296l-67 -177h-95l262 689h96l262 -689h-95zM195 257h236l-118 312z" />
    <glyph glyph-name="Acircumflex" unicode="&#xc2;" horiz-adv-x="625" 
d="M312 846l-75 -89h-80l110 154h91l110 -154h-80zM528 0l-67 177h-296l-67 -177h-95l262 689h96l262 -689h-95zM195 257h236l-118 312z" />
    <glyph glyph-name="Atilde" unicode="&#xc3;" horiz-adv-x="625" 
d="M268 818q-10 0 -18.5 -11t-9.5 -33h-59q3 60 28 87.5t59 27.5q25 0 53.5 -21t35.5 -21q11 0 19.5 10t9.5 31h59q-3 -59 -29 -85.5t-59 -26.5q-24 0 -51 21t-38 21zM528 0l-67 177h-296l-67 -177h-95l262 689h96l262 -689h-95zM195 257h236l-118 312z" />
    <glyph glyph-name="Adieresis" unicode="&#xc4;" horiz-adv-x="625" 
d="M219 769q-26 0 -43.5 16.5t-17.5 41.5t17.5 41t43.5 16q24 0 41.5 -16.5t17.5 -40.5t-17.5 -41t-41.5 -17zM407 769q-25 0 -42.5 16.5t-17.5 41.5q0 24 17.5 40.5t42.5 16.5t43 -16.5t18 -40.5t-18 -41t-43 -17zM528 0l-67 177h-296l-67 -177h-95l262 689h96l262 -689
h-95zM195 257h236l-118 312z" />
    <glyph glyph-name="Aring" unicode="&#xc5;" horiz-adv-x="625" 
d="M311 756q-43 0 -73 30t-30 73q0 44 30 74.5t73 30.5q44 0 75 -30.5t31 -74.5q0 -43 -31 -73t-75 -30zM311 912q-21 0 -36 -15.5t-15 -37.5t15 -37t36 -15q23 0 38.5 15t15.5 37t-15.5 37.5t-38.5 15.5zM528 0l-67 177h-296l-67 -177h-95l262 689h96l262 -689h-95z
M195 257h236l-118 312z" />
    <glyph glyph-name="AE" unicode="&#xc6;" horiz-adv-x="914" 
d="M538 84h325v-84h-414v174h-262l-103 -174h-103l408 689h463v-84h-314v-224h275v-85h-275v-212zM238 260h211v343h-8z" />
    <glyph glyph-name="Ccedilla" unicode="&#xc7;" horiz-adv-x="690" 
d="M398 74q117 0 193 89l66 -56q-89 -106 -230 -116l23 -53q10 -22 10 -42q0 -45 -27.5 -72.5t-71.5 -27.5q-46 0 -74 30.5t-28 78.5h59q0 -22 13 -36t30 -14q18 0 28 11.5t10 29.5q0 10 -3 17l-28 78q-135 11 -227.5 112.5t-92.5 239.5q0 147 102 250t248 103q78 0 145 -31
t114 -86l-66 -56q-76 89 -193 89q-108 0 -183.5 -79t-75.5 -190t75.5 -190t183.5 -79z" />
    <glyph glyph-name="Egrave" unicode="&#xc8;" 
d="M323 757h-85l-118 154h106zM186 84h326v-84h-416v689h406v-84h-316v-224h276v-85h-276v-212z" />
    <glyph glyph-name="Eacute" unicode="&#xc9;" 
d="M453 911l-119 -154h-84l97 154h106zM186 84h326v-84h-416v689h406v-84h-316v-224h276v-85h-276v-212z" />
    <glyph glyph-name="Ecircumflex" unicode="&#xca;" 
d="M283 846l-75 -89h-80l110 154h91l110 -154h-80zM186 84h326v-84h-416v689h406v-84h-316v-224h276v-85h-276v-212z" />
    <glyph glyph-name="Edieresis" unicode="&#xcb;" 
d="M190 769q-26 0 -43.5 16.5t-17.5 41.5t17.5 41t43.5 16q24 0 41.5 -16.5t17.5 -40.5t-17.5 -41t-41.5 -17zM378 769q-25 0 -42.5 16.5t-17.5 41.5q0 24 17.5 40.5t42.5 16.5t43 -16.5t18 -40.5t-18 -41t-43 -17zM186 84h326v-84h-416v689h406v-84h-316v-224h276v-85h-276
v-212z" />
    <glyph glyph-name="Igrave" unicode="&#xcc;" horiz-adv-x="282" 
d="M95 757l-118 154h106l97 -154h-85zM96 0v689h91v-689h-91z" />
    <glyph glyph-name="Iacute" unicode="&#xcd;" horiz-adv-x="282" 
d="M107 757l97 154h106l-119 -154h-84zM96 0v689h91v-689h-91z" />
    <glyph glyph-name="Icircumflex" unicode="&#xce;" horiz-adv-x="282" 
d="M-15 757l110 154h91l110 -154h-80l-76 89l-75 -89h-80zM96 0v689h91v-689h-91z" />
    <glyph glyph-name="Idieresis" unicode="&#xcf;" horiz-adv-x="282" 
d="M47 769q-26 0 -43.5 16.5t-17.5 41.5t17.5 41t43.5 16q24 0 41.5 -16.5t17.5 -40.5t-17.5 -41t-41.5 -17zM235 769q-25 0 -42.5 16.5t-17.5 41.5q0 24 17.5 40.5t42.5 16.5t43 -16.5t18 -40.5t-18 -41t-43 -17zM96 0v689h91v-689h-91z" />
    <glyph glyph-name="Eth" unicode="&#xd0;" horiz-adv-x="729" 
d="M366 689q144 0 227.5 -97.5t83.5 -248.5q0 -150 -83.5 -246.5t-227.5 -96.5h-267v312h-75v66h75v311h267zM366 84q105 0 162.5 72t57.5 187t-57.5 188.5t-162.5 73.5h-176v-227h168v-66h-168v-228h176z" />
    <glyph glyph-name="Ntilde" unicode="&#xd1;" horiz-adv-x="688" 
d="M299 818q-10 0 -18.5 -11t-9.5 -33h-59q3 60 28 87.5t59 27.5q25 0 53.5 -21t35.5 -21q11 0 19.5 10t9.5 31h59q-3 -59 -29 -85.5t-59 -26.5q-24 0 -51 21t-38 21zM502 689h91v-689h-88l-318 525v-525h-91v689h90l316 -523v523z" />
    <glyph glyph-name="Ograve" unicode="&#xd2;" horiz-adv-x="795" 
d="M351 757l-118 154h106l97 -154h-85zM396 -10q-146 0 -247 103t-101 250q0 148 101 251t247 103q147 0 248.5 -103t101.5 -251q0 -147 -101.5 -250t-248.5 -103zM396 74q109 0 184 79t75 190q0 112 -75 191t-184 79q-108 0 -182.5 -79t-74.5 -191q0 -111 74.5 -190
t182.5 -79z" />
    <glyph glyph-name="Oacute" unicode="&#xd3;" horiz-adv-x="795" 
d="M363 757l97 154h106l-119 -154h-84zM396 -10q-146 0 -247 103t-101 250q0 148 101 251t247 103q147 0 248.5 -103t101.5 -251q0 -147 -101.5 -250t-248.5 -103zM396 74q109 0 184 79t75 190q0 112 -75 191t-184 79q-108 0 -182.5 -79t-74.5 -191q0 -111 74.5 -190
t182.5 -79z" />
    <glyph glyph-name="Ocircumflex" unicode="&#xd4;" horiz-adv-x="795" 
d="M241 757l110 154h91l110 -154h-80l-76 89l-75 -89h-80zM396 -10q-146 0 -247 103t-101 250q0 148 101 251t247 103q147 0 248.5 -103t101.5 -251q0 -147 -101.5 -250t-248.5 -103zM396 74q109 0 184 79t75 190q0 112 -75 191t-184 79q-108 0 -182.5 -79t-74.5 -191
q0 -111 74.5 -190t182.5 -79z" />
    <glyph glyph-name="Otilde" unicode="&#xd5;" horiz-adv-x="795" 
d="M265 774q3 60 28 87.5t59 27.5q25 0 53.5 -21t35.5 -21q11 0 19.5 10t9.5 31h59q-3 -59 -29 -85.5t-59 -26.5q-24 0 -51 21t-38 21q-10 0 -18.5 -11t-9.5 -33h-59zM396 -10q-146 0 -247 103t-101 250q0 148 101 251t247 103q147 0 248.5 -103t101.5 -251
q0 -147 -101.5 -250t-248.5 -103zM396 74q109 0 184 79t75 190q0 112 -75 191t-184 79q-108 0 -182.5 -79t-74.5 -191q0 -111 74.5 -190t182.5 -79z" />
    <glyph glyph-name="Odieresis" unicode="&#xd6;" horiz-adv-x="795" 
d="M303 769q-26 0 -43.5 16.5t-17.5 41.5t17.5 41t43.5 16q24 0 41.5 -16.5t17.5 -40.5t-17.5 -41t-41.5 -17zM491 769q-25 0 -42.5 16.5t-17.5 41.5q0 24 17.5 40.5t42.5 16.5t43 -16.5t18 -40.5t-18 -41t-43 -17zM396 -10q-146 0 -247 103t-101 250q0 148 101 251t247 103
q147 0 248.5 -103t101.5 -251q0 -147 -101.5 -250t-248.5 -103zM396 74q109 0 184 79t75 190q0 112 -75 191t-184 79q-108 0 -182.5 -79t-74.5 -191q0 -111 74.5 -190t182.5 -79z" />
    <glyph glyph-name="multiply" unicode="&#xd7;" horiz-adv-x="482" 
d="M425 396l-124 -123l124 -124l-59 -61l-125 125l-124 -123l-60 58l125 125l-125 124l60 58l124 -123l125 125z" />
    <glyph glyph-name="Oslash" unicode="&#xd8;" horiz-adv-x="800" 
d="M667 572q82 -98 82 -229q0 -147 -101.5 -250t-248.5 -103q-126 0 -221 79l-79 -82l-46 46l79 82q-81 97 -81 228q0 148 101 251t247 103q127 0 223 -80l81 83l45 -45zM142 343q0 -92 53 -164l366 376q-71 58 -162 58q-108 0 -182.5 -79t-74.5 -191zM399 74
q109 0 184 78.5t75 190.5q0 91 -53 165l-366 -377q70 -57 160 -57z" />
    <glyph glyph-name="Ugrave" unicode="&#xd9;" horiz-adv-x="678" 
d="M293 757l-118 154h106l97 -154h-85zM339 -10q-106 0 -178.5 66.5t-72.5 179.5v453h91v-453q0 -77 45.5 -118t114.5 -41t114.5 41t45.5 118v453h91v-453q0 -113 -72.5 -179.5t-178.5 -66.5z" />
    <glyph glyph-name="Uacute" unicode="&#xda;" horiz-adv-x="678" 
d="M305 757l97 154h106l-119 -154h-84zM339 -10q-106 0 -178.5 66.5t-72.5 179.5v453h91v-453q0 -77 45.5 -118t114.5 -41t114.5 41t45.5 118v453h91v-453q0 -113 -72.5 -179.5t-178.5 -66.5z" />
    <glyph glyph-name="Ucircumflex" unicode="&#xdb;" horiz-adv-x="678" 
d="M183 757l110 154h91l110 -154h-80l-76 89l-75 -89h-80zM339 -10q-106 0 -178.5 66.5t-72.5 179.5v453h91v-453q0 -77 45.5 -118t114.5 -41t114.5 41t45.5 118v453h91v-453q0 -113 -72.5 -179.5t-178.5 -66.5z" />
    <glyph glyph-name="Udieresis" unicode="&#xdc;" horiz-adv-x="678" 
d="M245 769q-26 0 -43.5 16.5t-17.5 41.5t17.5 41t43.5 16q24 0 41.5 -16.5t17.5 -40.5t-17.5 -41t-41.5 -17zM433 769q-25 0 -42.5 16.5t-17.5 41.5q0 24 17.5 40.5t42.5 16.5t43 -16.5t18 -40.5t-18 -41t-43 -17zM339 -10q-106 0 -178.5 66.5t-72.5 179.5v453h91v-453
q0 -77 45.5 -118t114.5 -41t114.5 41t45.5 118v453h91v-453q0 -113 -72.5 -179.5t-178.5 -66.5z" />
    <glyph glyph-name="Yacute" unicode="&#xdd;" horiz-adv-x="624" 
d="M481 911l-119 -154h-84l97 154h106zM513 689h109l-265 -371v-318h-91v318l-262 371h108l200 -282z" />
    <glyph glyph-name="Thorn" unicode="&#xde;" horiz-adv-x="583" 
d="M329 558q90 0 150 -58t60 -153q0 -96 -60 -155.5t-150 -59.5h-142v-132h-91v689h91v-131h142zM331 216q51 0 86 37.5t35 93.5q0 58 -37 92.5t-92 34.5h-136v-258h144z" />
    <glyph glyph-name="germandbls" unicode="&#xdf;" horiz-adv-x="582" 
d="M400 415q62 -22 100 -75.5t38 -123.5q0 -99 -66.5 -162.5t-171.5 -63.5q-40 -2 -91 14l18 77q37 -10 74 -10q66 0 108 41.5t42 107.5q0 65 -45 107t-112 42h-37v72h28q45 0 73.5 30.5t28.5 77.5q0 46 -28 71.5t-77 25.5q-119 0 -119 -144v-502h-87v502q0 111 55.5 168.5
t149.5 57.5q87 0 140 -46.5t53 -121.5q0 -45 -20 -84t-54 -61z" />
    <glyph glyph-name="agrave" unicode="&#xe0;" horiz-adv-x="608" 
d="M342 535h-85l-118 154h106zM445 467h87v-467h-87v74q-23 -39 -68.5 -61.5t-97.5 -22.5q-98 0 -166 68t-68 176t67.5 175.5t165.5 67.5q54 0 99 -21.5t68 -61.5v73zM286 72q65 0 112 45t47 118q0 72 -48.5 116t-110.5 44q-65 0 -109 -45t-44 -115q0 -69 44.5 -116
t108.5 -47z" />
    <glyph glyph-name="aacute" unicode="&#xe1;" horiz-adv-x="608" 
d="M472 689l-119 -154h-84l97 154h106zM445 467h87v-467h-87v74q-23 -39 -68.5 -61.5t-97.5 -22.5q-98 0 -166 68t-68 176t67.5 175.5t165.5 67.5q54 0 99 -21.5t68 -61.5v73zM286 72q65 0 112 45t47 118q0 72 -48.5 116t-110.5 44q-65 0 -109 -45t-44 -115q0 -69 44.5 -116
t108.5 -47z" />
    <glyph glyph-name="acircumflex" unicode="&#xe2;" horiz-adv-x="608" 
d="M302 624l-75 -89h-80l110 154h91l110 -154h-80zM445 467h87v-467h-87v74q-23 -39 -68.5 -61.5t-97.5 -22.5q-98 0 -166 68t-68 176t67.5 175.5t165.5 67.5q54 0 99 -21.5t68 -61.5v73zM286 72q65 0 112 45t47 118q0 72 -48.5 116t-110.5 44q-65 0 -109 -45t-44 -115
q0 -69 44.5 -116t108.5 -47z" />
    <glyph glyph-name="atilde" unicode="&#xe3;" horiz-adv-x="608" 
d="M258 596q-10 0 -18.5 -11t-9.5 -33h-59q3 60 28 87.5t59 27.5q25 0 53.5 -21t35.5 -21q11 0 19.5 10t9.5 31h59q-3 -59 -29 -85.5t-59 -26.5q-24 0 -51 21t-38 21zM445 467h87v-467h-87v74q-23 -39 -68.5 -61.5t-97.5 -22.5q-98 0 -166 68t-68 176t67.5 175.5t165.5 67.5
q54 0 99 -21.5t68 -61.5v73zM286 72q65 0 112 45t47 118q0 72 -48.5 116t-110.5 44q-65 0 -109 -45t-44 -115q0 -69 44.5 -116t108.5 -47z" />
    <glyph glyph-name="adieresis" unicode="&#xe4;" horiz-adv-x="608" 
d="M209 547q-26 0 -43.5 16.5t-17.5 41.5t17.5 41t43.5 16q24 0 41.5 -16.5t17.5 -40.5t-17.5 -41t-41.5 -17zM397 547q-25 0 -42.5 16.5t-17.5 41.5q0 24 17.5 40.5t42.5 16.5t43 -16.5t18 -40.5t-18 -41t-43 -17zM445 467h87v-467h-87v74q-23 -39 -68.5 -61.5t-97.5 -22.5
q-98 0 -166 68t-68 176t67.5 175.5t165.5 67.5q54 0 99 -21.5t68 -61.5v73zM286 72q65 0 112 45t47 118q0 72 -48.5 116t-110.5 44q-65 0 -109 -45t-44 -115q0 -69 44.5 -116t108.5 -47z" />
    <glyph glyph-name="aring" unicode="&#xe5;" horiz-adv-x="608" 
d="M301 534q-43 0 -73 30t-30 73q0 44 30 74.5t73 30.5q44 0 75 -30.5t31 -74.5q0 -43 -31 -73t-75 -30zM301 690q-21 0 -36 -15.5t-15 -37.5t15 -37t36 -15q23 0 38.5 15t15.5 37t-15.5 37.5t-38.5 15.5zM445 467h87v-467h-87v74q-23 -39 -68.5 -61.5t-97.5 -22.5
q-98 0 -166 68t-68 176t67.5 175.5t165.5 67.5q54 0 99 -21.5t68 -61.5v73zM286 72q65 0 112 45t47 118q0 72 -48.5 116t-110.5 44q-65 0 -109 -45t-44 -115q0 -69 44.5 -116t108.5 -47z" />
    <glyph glyph-name="ae" unicode="&#xe6;" horiz-adv-x="894" 
d="M852 235q0 -13 -2 -39h-379q10 -57 52 -90.5t100 -33.5q95 0 136 71l75 -30q-29 -59 -86.5 -91t-127.5 -32q-63 0 -116 27.5t-85 76.5q-90 -104 -208 -104q-77 0 -125 39t-48 104q0 64 48.5 106t139.5 42q92 0 154 -35v35q0 54 -32 84.5t-91 30.5q-39 0 -77.5 -15
t-63.5 -43l-54 52q62 87 195 87q130 0 180 -79q71 79 183 79q101 0 166.5 -66.5t65.5 -175.5zM471 271h294q-8 59 -47 91.5t-98 32.5q-127 0 -149 -124zM212 69q44 0 96.5 26t77.5 65l-6 16q-63 36 -147 36q-59 0 -85.5 -23.5t-26.5 -53.5q0 -29 24 -47.5t67 -18.5z" />
    <glyph glyph-name="ccedilla" unicode="&#xe7;" horiz-adv-x="507" 
d="M298 73q73 0 120 49l55 -57q-50 -56 -131 -70l25 -57q10 -22 10 -42q0 -45 -27.5 -72.5t-71.5 -27.5q-46 0 -74 30.5t-28 78.5h59q0 -22 13 -36t30 -14q18 0 28 11.5t10 29.5q0 10 -3 17l-28 78q-101 4 -171 71t-70 172q0 108 73.5 175.5t177.5 67.5q111 0 178 -74
l-55 -57q-47 49 -120 49q-70 0 -118 -45t-48 -116t48 -116t118 -45z" />
    <glyph glyph-name="egrave" unicode="&#xe8;" horiz-adv-x="558" 
d="M317 535h-85l-118 154h106zM516 235q0 -13 -2 -39h-380q10 -61 50.5 -92.5t102.5 -31.5q44 0 80.5 18.5t55.5 52.5l76 -30q-30 -59 -88 -91t-127 -32q-102 0 -171 68t-69 177t69 175.5t171 66.5q101 0 166.5 -66.5t65.5 -175.5zM135 271h294q-8 59 -47 91.5t-98 32.5
q-61 0 -100 -31t-49 -93z" />
    <glyph glyph-name="eacute" unicode="&#xe9;" horiz-adv-x="558" 
d="M447 689l-119 -154h-84l97 154h106zM516 235q0 -13 -2 -39h-380q10 -61 50.5 -92.5t102.5 -31.5q44 0 80.5 18.5t55.5 52.5l76 -30q-30 -59 -88 -91t-127 -32q-102 0 -171 68t-69 177t69 175.5t171 66.5q101 0 166.5 -66.5t65.5 -175.5zM135 271h294q-8 59 -47 91.5
t-98 32.5q-61 0 -100 -31t-49 -93z" />
    <glyph glyph-name="ecircumflex" unicode="&#xea;" horiz-adv-x="558" 
d="M277 624l-75 -89h-80l110 154h91l110 -154h-80zM516 235q0 -13 -2 -39h-380q10 -61 50.5 -92.5t102.5 -31.5q44 0 80.5 18.5t55.5 52.5l76 -30q-30 -59 -88 -91t-127 -32q-102 0 -171 68t-69 177t69 175.5t171 66.5q101 0 166.5 -66.5t65.5 -175.5zM135 271h294
q-8 59 -47 91.5t-98 32.5q-61 0 -100 -31t-49 -93z" />
    <glyph glyph-name="edieresis" unicode="&#xeb;" horiz-adv-x="558" 
d="M184 547q-26 0 -43.5 16.5t-17.5 41.5t17.5 41t43.5 16q24 0 41.5 -16.5t17.5 -40.5t-17.5 -41t-41.5 -17zM372 547q-25 0 -42.5 16.5t-17.5 41.5q0 24 17.5 40.5t42.5 16.5t43 -16.5t18 -40.5t-18 -41t-43 -17zM516 235q0 -13 -2 -39h-380q10 -61 50.5 -92.5
t102.5 -31.5q44 0 80.5 18.5t55.5 52.5l76 -30q-30 -59 -88 -91t-127 -32q-102 0 -171 68t-69 177t69 175.5t171 66.5q101 0 166.5 -66.5t65.5 -175.5zM135 271h294q-8 59 -47 91.5t-98 32.5q-61 0 -100 -31t-49 -93z" />
    <glyph glyph-name="igrave" unicode="&#xec;" horiz-adv-x="238" 
d="M70 553l-118 154h106l97 -154h-85zM76 0v467h87v-467h-87z" />
    <glyph glyph-name="iacute" unicode="&#xed;" horiz-adv-x="238" 
d="M73 553l97 154h106l-119 -154h-84zM76 0v467h87v-467h-87z" />
    <glyph glyph-name="icircumflex" unicode="&#xee;" horiz-adv-x="238" 
d="M-36 553l110 154h91l110 -154h-80l-76 89l-75 -89h-80zM76 0v467h87v-467h-87z" />
    <glyph glyph-name="idieresis" unicode="&#xef;" horiz-adv-x="238" 
d="M26 572q-26 0 -43.5 16.5t-17.5 41.5t17.5 41t43.5 16q24 0 41.5 -16.5t17.5 -40.5q0 -25 -17.5 -41.5t-41.5 -16.5zM214 572q-25 0 -42.5 16.5t-17.5 41.5q0 24 17.5 40.5t42.5 16.5t43 -16.5t18 -40.5q0 -25 -18 -41.5t-43 -16.5zM76 0v467h87v-467h-87z" />
    <glyph glyph-name="eth" unicode="&#xf0;" horiz-adv-x="579" 
d="M480 390q53 -64 53 -155q0 -108 -71.5 -176.5t-173.5 -68.5t-173 68t-71 177q0 108 70.5 175t173.5 67q11 0 33 -2l-76 100l-120 -49l-20 46l109 44l-80 106h102l55 -75l94 38l19 -46l-82 -33zM288 72q66 0 112 46t46 117q0 70 -46 115t-112 45q-65 0 -110.5 -45
t-45.5 -115q0 -71 45.5 -117t110.5 -46z" />
    <glyph glyph-name="ntilde" unicode="&#xf1;" horiz-adv-x="575" 
d="M244 596q-10 0 -18.5 -11t-9.5 -33h-59q3 60 28 87.5t59 27.5q25 0 53.5 -21t35.5 -21q11 0 19.5 10t9.5 31h59q-3 -59 -29 -85.5t-59 -26.5q-24 0 -51 21t-38 21zM318 477q88 0 138.5 -55t49.5 -152v-270h-87v265q0 58 -31.5 92t-81.5 34q-57 0 -100 -34t-43 -104v-253
h-87v467h87v-71q19 39 65 60t90 21z" />
    <glyph glyph-name="ograve" unicode="&#xf2;" horiz-adv-x="578" 
d="M243 535l-118 154h106l97 -154h-85zM288 -10q-102 0 -173 68t-71 177q0 108 70.5 175t173.5 67t174 -67t71 -175t-71.5 -176.5t-173.5 -68.5zM288 72q66 0 112 46t46 117q0 70 -46 115t-112 45q-65 0 -110.5 -45t-45.5 -115q0 -71 45.5 -117t110.5 -46z" />
    <glyph glyph-name="oacute" unicode="&#xf3;" horiz-adv-x="578" 
d="M255 535l97 154h106l-119 -154h-84zM288 -10q-102 0 -173 68t-71 177q0 108 70.5 175t173.5 67t174 -67t71 -175t-71.5 -176.5t-173.5 -68.5zM288 72q66 0 112 46t46 117q0 70 -46 115t-112 45q-65 0 -110.5 -45t-45.5 -115q0 -71 45.5 -117t110.5 -46z" />
    <glyph glyph-name="ocircumflex" unicode="&#xf4;" horiz-adv-x="578" 
d="M133 535l110 154h91l110 -154h-80l-76 89l-75 -89h-80zM288 -10q-102 0 -173 68t-71 177q0 108 70.5 175t173.5 67t174 -67t71 -175t-71.5 -176.5t-173.5 -68.5zM288 72q66 0 112 46t46 117q0 70 -46 115t-112 45q-65 0 -110.5 -45t-45.5 -115q0 -71 45.5 -117t110.5 -46
z" />
    <glyph glyph-name="otilde" unicode="&#xf5;" horiz-adv-x="578" 
d="M157 552q3 60 28 87.5t59 27.5q25 0 53.5 -21t35.5 -21q11 0 19.5 10t9.5 31h59q-3 -59 -29 -85.5t-59 -26.5q-24 0 -51 21t-38 21q-10 0 -18.5 -11t-9.5 -33h-59zM288 -10q-102 0 -173 68t-71 177q0 108 70.5 175t173.5 67t174 -67t71 -175t-71.5 -176.5t-173.5 -68.5z
M288 72q66 0 112 46t46 117q0 70 -46 115t-112 45q-65 0 -110.5 -45t-45.5 -115q0 -71 45.5 -117t110.5 -46z" />
    <glyph glyph-name="odieresis" unicode="&#xf6;" horiz-adv-x="578" 
d="M195 547q-26 0 -43.5 16.5t-17.5 41.5t17.5 41t43.5 16q24 0 41.5 -16.5t17.5 -40.5t-17.5 -41t-41.5 -17zM383 547q-25 0 -42.5 16.5t-17.5 41.5q0 24 17.5 40.5t42.5 16.5t43 -16.5t18 -40.5t-18 -41t-43 -17zM288 -10q-102 0 -173 68t-71 177q0 108 70.5 175t173.5 67
t174 -67t71 -175t-71.5 -176.5t-173.5 -68.5zM288 72q66 0 112 46t46 117q0 70 -46 115t-112 45q-65 0 -110.5 -45t-45.5 -115q0 -71 45.5 -117t110.5 -46z" />
    <glyph glyph-name="divide" unicode="&#xf7;" horiz-adv-x="520" 
d="M259 361q-26 0 -44.5 18t-18.5 44t18.5 43t44.5 17q27 0 46 -17t19 -43t-19 -44t-46 -18zM54 214v80h411v-80h-411zM259 28q-26 0 -44.5 17t-18.5 43t18.5 43.5t44.5 17.5q27 0 46 -17.5t19 -43.5t-19 -43t-46 -17z" />
    <glyph glyph-name="oslash" unicode="&#xf8;" horiz-adv-x="581" 
d="M536 436l-50 -51q49 -62 49 -150q0 -108 -71.5 -176.5t-173.5 -68.5q-83 0 -145 45l-58 -59l-45 45l56 58q-52 65 -52 156q0 108 70.5 175t173.5 67q86 0 151 -48l50 52zM134 235q0 -51 26 -93l221 226q-41 27 -91 27q-65 0 -110.5 -45t-45.5 -115zM448 235q0 48 -23 87
l-220 -225q39 -25 85 -25q66 0 112 46t46 117z" />
    <glyph glyph-name="ugrave" unicode="&#xf9;" horiz-adv-x="575" 
d="M328 535h-85l-118 154h106zM413 467h87v-467h-87v73q-19 -40 -65 -61.5t-90 -21.5q-88 0 -138.5 54.5t-49.5 152.5v270h87v-265q0 -58 31 -92t81 -34q57 0 100 34t44 104v253z" />
    <glyph glyph-name="uacute" unicode="&#xfa;" horiz-adv-x="575" 
d="M458 689l-119 -154h-84l97 154h106zM413 467h87v-467h-87v73q-19 -40 -65 -61.5t-90 -21.5q-88 0 -138.5 54.5t-49.5 152.5v270h87v-265q0 -58 31 -92t81 -34q57 0 100 34t44 104v253z" />
    <glyph glyph-name="ucircumflex" unicode="&#xfb;" horiz-adv-x="575" 
d="M288 624l-75 -89h-80l110 154h91l110 -154h-80zM413 467h87v-467h-87v73q-19 -40 -65 -61.5t-90 -21.5q-88 0 -138.5 54.5t-49.5 152.5v270h87v-265q0 -58 31 -92t81 -34q57 0 100 34t44 104v253z" />
    <glyph glyph-name="udieresis" unicode="&#xfc;" horiz-adv-x="575" 
d="M195 547q-26 0 -43.5 16.5t-17.5 41.5t17.5 41t43.5 16q24 0 41.5 -16.5t17.5 -40.5t-17.5 -41t-41.5 -17zM383 547q-25 0 -42.5 16.5t-17.5 41.5q0 24 17.5 40.5t42.5 16.5t43 -16.5t18 -40.5t-18 -41t-43 -17zM413 467h87v-467h-87v73q-19 -40 -65 -61.5t-90 -21.5
q-88 0 -138.5 54.5t-49.5 152.5v270h87v-265q0 -58 31 -92t81 -34q57 0 100 34t44 104v253z" />
    <glyph glyph-name="yacute" unicode="&#xfd;" horiz-adv-x="502" 
d="M422 689l-119 -154h-84l97 154h106zM395 467h94l-290 -694h-92l97 240l-187 454h94l141 -344z" />
    <glyph glyph-name="thorn" unicode="&#xfe;" horiz-adv-x="607" 
d="M330 477q98 0 165.5 -67.5t67.5 -175.5t-68 -176t-166 -68q-52 0 -97.5 22.5t-68.5 61.5v-301h-87v949h87v-328q23 40 68 61.5t99 21.5zM321 72q65 0 109.5 47t44.5 116q0 70 -44.5 115t-109.5 45q-61 0 -109.5 -44t-48.5 -116q0 -73 46.5 -118t111.5 -45z" />
    <glyph glyph-name="ydieresis" unicode="&#xff;" horiz-adv-x="502" 
d="M159 547q-26 0 -43.5 16.5t-17.5 41.5t17.5 41t43.5 16q24 0 41.5 -16.5t17.5 -40.5t-17.5 -41t-41.5 -17zM347 547q-25 0 -42.5 16.5t-17.5 41.5q0 24 17.5 40.5t42.5 16.5t43 -16.5t18 -40.5t-18 -41t-43 -17zM395 467h94l-290 -694h-92l97 240l-187 454h94l141 -344z
" />
    <glyph glyph-name="Amacron" unicode="&#x100;" horiz-adv-x="625" 
d="M439 875v-77h-251v77h251zM528 0l-67 177h-296l-67 -177h-95l262 689h96l262 -689h-95zM195 257h236l-118 312z" />
    <glyph glyph-name="amacron" unicode="&#x101;" horiz-adv-x="608" 
d="M429 653v-77h-251v77h251zM445 467h87v-467h-87v74q-23 -39 -68.5 -61.5t-97.5 -22.5q-98 0 -166 68t-68 176t67.5 175.5t165.5 67.5q54 0 99 -21.5t68 -61.5v73zM286 72q65 0 112 45t47 118q0 72 -48.5 116t-110.5 44q-65 0 -109 -45t-44 -115q0 -69 44.5 -116
t108.5 -47z" />
    <glyph glyph-name="Abreve" unicode="&#x102;" horiz-adv-x="625" 
d="M312 772q-64 0 -96.5 37t-32.5 91h72q0 -27 15.5 -44t41.5 -17t41.5 18.5t15.5 42.5h73q0 -59 -35.5 -93.5t-94.5 -34.5zM528 0l-67 177h-296l-67 -177h-95l262 689h96l262 -689h-95zM195 257h236l-118 312z" />
    <glyph glyph-name="abreve" unicode="&#x103;" horiz-adv-x="608" 
d="M302 550q-64 0 -96.5 37t-32.5 91h72q0 -27 15.5 -44t41.5 -17t41.5 18.5t15.5 42.5h73q0 -59 -35.5 -93.5t-94.5 -34.5zM445 467h87v-467h-87v74q-23 -39 -68.5 -61.5t-97.5 -22.5q-98 0 -166 68t-68 176t67.5 175.5t165.5 67.5q54 0 99 -21.5t68 -61.5v73zM286 72
q65 0 112 45t47 118q0 72 -48.5 116t-110.5 44q-65 0 -109 -45t-44 -115q0 -69 44.5 -116t108.5 -47z" />
    <glyph glyph-name="Aogonek" unicode="&#x104;" horiz-adv-x="625" 
d="M612 -95h58q0 -49 -27.5 -79t-74.5 -30q-44 0 -71.5 27.5t-27.5 72.5q0 20 10 42l39 89l-57 150h-296l-67 -177h-95l262 689h96l262 -689h-59l-31 -87q-3 -7 -3 -17q0 -18 10 -29.5t28 -11.5t31 14t13 36zM195 257h236l-118 312z" />
    <glyph glyph-name="aogonek" unicode="&#x105;" horiz-adv-x="608" 
d="M494 -204q-44 0 -71 27.5t-27 72.5q0 20 10 42l39 92v44q-23 -39 -69 -61.5t-97 -22.5q-98 0 -166 68t-68 176t67.5 175.5t165.5 67.5q54 0 99 -21.5t68 -61.5v73h87v-467h-42l-31 -87q-3 -8 -3 -17q0 -18 10.5 -29.5t27.5 -11.5q18 0 31 14t13 36h59q0 -48 -28 -78.5
t-75 -30.5zM286 72q65 0 112 45t47 118q0 72 -48.5 116t-110.5 44q-65 0 -109 -45t-44 -115q0 -69 44.5 -116t108.5 -47z" />
    <glyph glyph-name="Cacute" unicode="&#x106;" horiz-adv-x="690" 
d="M307 757l97 154h106l-119 -154h-84zM398 -10q-146 0 -248 103t-102 250t102 250t248 103q78 0 145 -31t114 -86l-66 -56q-76 89 -193 89q-108 0 -183.5 -79t-75.5 -190t75.5 -190t183.5 -79q117 0 193 89l66 -56q-47 -55 -114 -86t-145 -31z" />
    <glyph glyph-name="cacute" unicode="&#x107;" horiz-adv-x="507" 
d="M224 535l97 154h106l-119 -154h-84zM295 -9q-104 0 -177.5 67.5t-73.5 175.5t73.5 175.5t177.5 67.5q111 0 178 -74l-55 -57q-47 49 -120 49q-70 0 -118 -45t-48 -116t48 -116t118 -45q73 0 120 49l55 -57q-66 -74 -178 -74z" />
    <glyph glyph-name="Cdotaccent" unicode="&#x10a;" horiz-adv-x="690" 
d="M392 769q-26 0 -44 16.5t-18 40.5q0 25 18 41.5t44 16.5t43.5 -16.5t17.5 -41.5t-17.5 -41t-43.5 -16zM398 -10q-146 0 -248 103t-102 250t102 250t248 103q78 0 145 -31t114 -86l-66 -56q-76 89 -193 89q-108 0 -183.5 -79t-75.5 -190t75.5 -190t183.5 -79q117 0 193 89
l66 -56q-47 -55 -114 -86t-145 -31z" />
    <glyph glyph-name="cdotaccent" unicode="&#x10b;" horiz-adv-x="507" 
d="M278 547q-26 0 -44 16.5t-18 40.5q0 25 18 41.5t44 16.5t43.5 -16.5t17.5 -41.5t-17.5 -41t-43.5 -16zM295 -9q-104 0 -177.5 67.5t-73.5 175.5t73.5 175.5t177.5 67.5q111 0 178 -74l-55 -57q-47 49 -120 49q-70 0 -118 -45t-48 -116t48 -116t118 -45q73 0 120 49
l55 -57q-66 -74 -178 -74z" />
    <glyph glyph-name="Ccaron" unicode="&#x10c;" horiz-adv-x="690" 
d="M339 757l-110 154h80l75 -89l76 89h80l-110 -154h-91zM398 -10q-146 0 -248 103t-102 250t102 250t248 103q78 0 145 -31t114 -86l-66 -56q-76 89 -193 89q-108 0 -183.5 -79t-75.5 -190t75.5 -190t183.5 -79q117 0 193 89l66 -56q-47 -55 -114 -86t-145 -31z" />
    <glyph glyph-name="ccaron" unicode="&#x10d;" horiz-adv-x="507" 
d="M233 535l-110 154h80l75 -89l76 89h80l-110 -154h-91zM295 -9q-104 0 -177.5 67.5t-73.5 175.5t73.5 175.5t177.5 67.5q111 0 178 -74l-55 -57q-47 49 -120 49q-70 0 -118 -45t-48 -116t48 -116t118 -45q73 0 120 49l55 -57q-66 -74 -178 -74z" />
    <glyph glyph-name="Dcaron" unicode="&#x10e;" horiz-adv-x="726" 
d="M274 757l-110 154h80l75 -89l76 89h80l-110 -154h-91zM96 0v689h267q144 0 227.5 -97.5t83.5 -248.5q0 -150 -83.5 -246.5t-227.5 -96.5h-267zM187 84h176q105 0 162.5 72t57.5 187t-57.5 188.5t-162.5 73.5h-176v-521z" />
    <glyph glyph-name="dcaron" unicode="&#x10f;" horiz-adv-x="628" 
d="M445 394v328h87v-722h-87v74q-23 -39 -68.5 -61.5t-97.5 -22.5q-98 0 -166 68t-68 176t67.5 175.5t165.5 67.5q54 0 99 -21.5t68 -61.5zM706 689q1 -127 -76 -191l-57 18q30 42 41 78t5 95h87zM286 72q65 0 112 45t47 118q0 72 -48.5 116t-110.5 44q-65 0 -109 -45
t-44 -115q0 -69 44.5 -116t108.5 -47z" />
    <glyph glyph-name="Dcroat" unicode="&#x110;" horiz-adv-x="729" 
d="M366 689q144 0 227.5 -97.5t83.5 -248.5q0 -150 -83.5 -246.5t-227.5 -96.5h-267v312h-75v66h75v311h267zM366 84q105 0 162.5 72t57.5 187t-57.5 188.5t-162.5 73.5h-176v-227h168v-66h-168v-228h176z" />
    <glyph glyph-name="dcroat" unicode="&#x111;" horiz-adv-x="608" 
d="M609 621v-60h-77v-561h-87v74q-23 -39 -68.5 -61.5t-97.5 -22.5q-98 0 -166 68t-68 176t67.5 175.5t165.5 67.5q54 0 99 -21.5t68 -61.5v167h-151v60h151v101h87v-101h77zM286 72q65 0 112 45t47 118q0 72 -48.5 116t-110.5 44q-65 0 -109 -45t-44 -115q0 -69 44.5 -116
t108.5 -47z" />
    <glyph glyph-name="Emacron" unicode="&#x112;" 
d="M410 875v-77h-251v77h251zM186 84h326v-84h-416v689h406v-84h-316v-224h276v-85h-276v-212z" />
    <glyph glyph-name="emacron" unicode="&#x113;" horiz-adv-x="558" 
d="M404 653v-77h-251v77h251zM516 235q0 -13 -2 -39h-380q10 -61 50.5 -92.5t102.5 -31.5q44 0 80.5 18.5t55.5 52.5l76 -30q-30 -59 -88 -91t-127 -32q-102 0 -171 68t-69 177t69 175.5t171 66.5q101 0 166.5 -66.5t65.5 -175.5zM135 271h294q-8 59 -47 91.5t-98 32.5
q-61 0 -100 -31t-49 -93z" />
    <glyph glyph-name="Edotaccent" unicode="&#x116;" 
d="M284 769q-26 0 -44 16.5t-18 40.5q0 25 18 41.5t44 16.5t43.5 -16.5t17.5 -41.5t-17.5 -41t-43.5 -16zM186 84h326v-84h-416v689h406v-84h-316v-224h276v-85h-276v-212z" />
    <glyph glyph-name="edotaccent" unicode="&#x117;" horiz-adv-x="558" 
d="M278 547q-26 0 -44 16.5t-18 40.5q0 25 18 41.5t44 16.5t43.5 -16.5t17.5 -41.5t-17.5 -41t-43.5 -16zM516 235q0 -13 -2 -39h-380q10 -61 50.5 -92.5t102.5 -31.5q44 0 80.5 18.5t55.5 52.5l76 -30q-30 -59 -88 -91t-127 -32q-102 0 -171 68t-69 177t69 175.5t171 66.5
q101 0 166.5 -66.5t65.5 -175.5zM135 271h294q-8 59 -47 91.5t-98 32.5q-61 0 -100 -31t-49 -93z" />
    <glyph glyph-name="Eogonek" unicode="&#x118;" 
d="M402 0l-31 -87q-3 -8 -3 -17q0 -18 10 -29.5t28 -11.5q17 0 30 14t13 36h59q0 -48 -28 -78.5t-74 -30.5q-44 0 -71.5 27.5t-27.5 72.5q0 20 10 42l26 62h-247v689h406v-84h-316v-224h276v-85h-276v-212h326v-84h-110z" />
    <glyph glyph-name="eogonek" unicode="&#x119;" horiz-adv-x="558" 
d="M516 235q0 -13 -2 -39h-380q10 -61 50.5 -92.5t102.5 -31.5q44 0 80.5 18.5t55.5 52.5l76 -30q-33 -65 -99 -97l-37 -103q-3 -8 -3 -17q0 -18 10 -29.5t28 -11.5t31 14t13 36h58q0 -48 -28 -78.5t-74 -30.5q-44 0 -71.5 27.5t-27.5 72.5q0 20 10 42l24 56q-21 -4 -49 -4
q-102 0 -171 68t-69 177t69 175.5t171 66.5q101 0 166.5 -66.5t65.5 -175.5zM135 271h294q-8 59 -47 91.5t-98 32.5q-61 0 -100 -31t-49 -93z" />
    <glyph glyph-name="Ecaron" unicode="&#x11a;" 
d="M329 757h-91l-110 154h80l75 -89l76 89h80zM186 84h326v-84h-416v689h406v-84h-316v-224h276v-85h-276v-212z" />
    <glyph glyph-name="ecaron" unicode="&#x11b;" horiz-adv-x="558" 
d="M323 535h-91l-110 154h80l75 -89l76 89h80zM516 235q0 -13 -2 -39h-380q10 -61 50.5 -92.5t102.5 -31.5q44 0 80.5 18.5t55.5 52.5l76 -30q-30 -59 -88 -91t-127 -32q-102 0 -171 68t-69 177t69 175.5t171 66.5q101 0 166.5 -66.5t65.5 -175.5zM135 271h294
q-8 59 -47 91.5t-98 32.5q-61 0 -100 -31t-49 -93z" />
    <glyph glyph-name="Gbreve" unicode="&#x11e;" horiz-adv-x="754" 
d="M377 772q-64 0 -96.5 37t-32.5 91h72q0 -27 15.5 -44t41.5 -17t41.5 18.5t15.5 42.5h73q0 -59 -35.5 -93.5t-94.5 -34.5zM397 -10q-146 0 -247 103t-101 250q0 148 101 251t247 103q134 0 232 -90l-63 -59q-73 65 -169 65q-108 0 -182.5 -79t-74.5 -191t74.5 -190.5
t182.5 -78.5q90 0 152 47.5t72 127.5q2 10 2 17h-200v79h300q0 -176 -87 -265.5t-239 -89.5z" />
    <glyph glyph-name="gbreve" unicode="&#x11f;" horiz-adv-x="608" 
d="M302 550q-64 0 -96.5 37t-32.5 91h72q0 -27 15.5 -44t41.5 -17t41.5 18.5t15.5 42.5h73q0 -59 -35.5 -93.5t-94.5 -34.5zM445 467h87v-396q0 -304 -254 -304q-65 0 -120.5 32.5t-89.5 92.5l74 39q21 -39 58.5 -60.5t77.5 -21.5q167 0 167 216v9q-23 -39 -68.5 -61.5
t-97.5 -22.5q-98 0 -166 68t-68 176t67.5 175.5t165.5 67.5q54 0 99 -21.5t68 -61.5v73zM286 72q65 0 112 45t47 118q0 72 -48.5 116t-110.5 44q-65 0 -109 -45t-44 -115q0 -69 44.5 -116t108.5 -47z" />
    <glyph glyph-name="Gdotaccent" unicode="&#x120;" horiz-adv-x="754" 
d="M378 769q-26 0 -44 16.5t-18 40.5q0 25 18 41.5t44 16.5t43.5 -16.5t17.5 -41.5t-17.5 -41t-43.5 -16zM397 -10q-146 0 -247 103t-101 250q0 148 101 251t247 103q134 0 232 -90l-63 -59q-73 65 -169 65q-108 0 -182.5 -79t-74.5 -191t74.5 -190.5t182.5 -78.5
q90 0 152 47.5t72 127.5q2 10 2 17h-200v79h300q0 -176 -87 -265.5t-239 -89.5z" />
    <glyph glyph-name="gdotaccent" unicode="&#x121;" horiz-adv-x="608" 
d="M303 547q-26 0 -44 16.5t-18 40.5q0 25 18 41.5t44 16.5t43.5 -16.5t17.5 -41.5t-17.5 -41t-43.5 -16zM445 467h87v-396q0 -304 -254 -304q-65 0 -120.5 32.5t-89.5 92.5l74 39q21 -39 58.5 -60.5t77.5 -21.5q167 0 167 216v9q-23 -39 -68.5 -61.5t-97.5 -22.5
q-98 0 -166 68t-68 176t67.5 175.5t165.5 67.5q54 0 99 -21.5t68 -61.5v73zM286 72q65 0 112 45t47 118q0 72 -48.5 116t-110.5 44q-65 0 -109 -45t-44 -115q0 -69 44.5 -116t108.5 -47z" />
    <glyph glyph-name="Gcommaaccent" unicode="&#x122;" horiz-adv-x="754" 
d="M397 -10q-146 0 -247 103t-101 250q0 148 101 251t247 103q134 0 232 -90l-63 -59q-73 65 -169 65q-108 0 -182.5 -79t-74.5 -191t74.5 -190.5t182.5 -78.5q90 0 152 47.5t72 127.5q2 10 2 17h-200v79h300q0 -176 -87 -265.5t-239 -89.5zM348 -233l-57 19q31 41 42 77.5
t5 95.5h87q1 -129 -77 -192z" />
    <glyph glyph-name="gcommaaccent" unicode="&#x123;" horiz-adv-x="608" 
d="M338 553h-87q-1 128 77 193l57 -19q-31 -41 -42 -78t-5 -96zM445 467h87v-396q0 -304 -254 -304q-65 0 -120.5 32.5t-89.5 92.5l74 39q21 -39 58.5 -60.5t77.5 -21.5q167 0 167 216v9q-23 -39 -68.5 -61.5t-97.5 -22.5q-98 0 -166 68t-68 176t67.5 175.5t165.5 67.5
q54 0 99 -21.5t68 -61.5v73zM286 72q65 0 112 45t47 118q0 72 -48.5 116t-110.5 44q-65 0 -109 -45t-44 -115q0 -69 44.5 -116t108.5 -47z" />
    <glyph glyph-name="Hbar" unicode="&#x126;" horiz-adv-x="714" 
d="M686 563v-60h-69v-503h-91v301h-338v-301h-91v503h-67v60h67v126h91v-126h338v126h91v-126h69zM526 384v119h-338v-119h338z" />
    <glyph glyph-name="hbar" unicode="&#x127;" horiz-adv-x="575" 
d="M318 477q88 0 138.5 -55t49.5 -152v-270h-87v265q0 58 -31.5 92t-81.5 34q-57 0 -100 -34t-43 -104v-253h-87v532h-47v60h47v130h87v-130h172v-60h-172v-136q19 39 65 60t90 21z" />
    <glyph glyph-name="Itilde" unicode="&#x128;" horiz-adv-x="282" 
d="M9 774q3 60 28 87.5t59 27.5q25 0 53.5 -21t35.5 -21q11 0 19.5 10t9.5 31h59q-3 -59 -29 -85.5t-59 -26.5q-24 0 -51 21t-38 21q-10 0 -18.5 -11t-9.5 -33h-59zM96 0v689h91v-689h-91z" />
    <glyph glyph-name="itilde" unicode="&#x129;" horiz-adv-x="238" 
d="M-13 552q3 60 28 87.5t59 27.5q25 0 53.5 -21t35.5 -21q11 0 19.5 10t9.5 31h59q-3 -59 -29 -85.5t-59 -26.5q-24 0 -51 21t-38 21q-10 0 -18.5 -11t-9.5 -33h-59zM76 0v467h87v-467h-87z" />
    <glyph glyph-name="Imacron" unicode="&#x12a;" horiz-adv-x="282" 
d="M16 798v77h251v-77h-251zM96 0v689h91v-689h-91z" />
    <glyph glyph-name="imacron" unicode="&#x12b;" horiz-adv-x="238" 
d="M-6 576v77h251v-77h-251zM76 0v467h87v-467h-87z" />
    <glyph glyph-name="Iogonek" unicode="&#x12e;" horiz-adv-x="282" 
d="M195 -95h59q0 -48 -28 -78.5t-75 -30.5q-43 0 -70.5 27.5t-27.5 72.5q0 20 10 42l33 76v675h91v-689h-40l-31 -87q-3 -8 -3 -17q0 -18 10.5 -29.5t27.5 -11.5q18 0 31 14t13 36z" />
    <glyph glyph-name="iogonek" unicode="&#x12f;" horiz-adv-x="239" 
d="M120 581q-25 0 -43 17t-18 41t18 41t43 17q26 0 44 -16.5t18 -41.5t-18 -41.5t-44 -16.5zM126 -204q-43 0 -70.5 27.5t-27.5 72.5q0 20 10 42l39 89v440h87v-467h-42l-31 -87q-3 -8 -3 -17q0 -18 10.5 -29.5t27.5 -11.5q18 0 31 14t13 36h59q0 -48 -28 -78.5t-75 -30.5z
" />
    <glyph glyph-name="Idotaccent" unicode="&#x130;" horiz-adv-x="282" 
d="M141 769q-26 0 -44 16.5t-18 40.5q0 25 18 41.5t44 16.5t43.5 -16.5t17.5 -41.5t-17.5 -41t-43.5 -16zM96 0v689h91v-689h-91z" />
    <glyph glyph-name="dotlessi" unicode="&#x131;" horiz-adv-x="238" 
d="M76 0v467h87v-467h-87z" />
    <glyph glyph-name="IJ" unicode="&#x132;" horiz-adv-x="572" 
d="M96 0v689h91v-689h-91zM264 -233q-22 0 -73 11l9 85q24 -8 64 -8q63 0 92.5 37.5t29.5 97.5v699h91v-699q0 -98 -52 -160.5t-161 -62.5z" />
    <glyph glyph-name="ij" unicode="&#x133;" horiz-adv-x="484" 
d="M119 581q-25 0 -43 17t-18 41t18 41t43 17q26 0 44 -16.5t18 -41.5t-18 -41.5t-44 -16.5zM365 581q-25 0 -43 17t-18 41t18 41t43 17q26 0 44 -16.5t18 -41.5t-18 -41.5t-44 -16.5zM76 0v467h87v-467h-87zM182 -227v82h53q89 0 87 119v493h87v-494q0 -200 -167 -200h-60z
" />
    <glyph glyph-name="Jcircumflex" unicode="&#x134;" horiz-adv-x="290" 
d="M-7 757l110 154h91l110 -154h-80l-76 89l-75 -89h-80zM-18 -233q-22 0 -73 11l9 85q24 -8 64 -8q63 0 92.5 37.5t29.5 97.5v699h91v-699q0 -98 -52 -160.5t-161 -62.5z" />
    <glyph glyph-name="jcircumflex" unicode="&#x135;" horiz-adv-x="246" 
d="M-29 553l110 154h91l110 -154h-79l-77 89l-75 -89h-80zM84 467h87v-494q0 -200 -167 -200h-60v82h53q89 0 87 119v493z" />
    <glyph glyph-name="Kcommaaccent" unicode="&#x136;" horiz-adv-x="571" 
d="M262 344l321 -344h-121l-276 295v-295h-90v689h90v-301l231 301h111zM249 -41h87q1 -129 -77 -192l-57 19q31 41 42 77.5t5 95.5z" />
    <glyph glyph-name="kcommaaccent" unicode="&#x137;" horiz-adv-x="486" 
d="M246 265l249 -265h-117l-215 228v-228h-87v722h87v-420l162 165h121zM208 -41h87q1 -129 -77 -192l-57 19q31 41 42 77.5t5 95.5z" />
    <glyph glyph-name="kgreenlandic" unicode="&#x138;" horiz-adv-x="455" 
d="M456 0h-122l-171 186v-186h-87v467h87v-186l156 186h116l-197 -232z" />
    <glyph glyph-name="Lacute" unicode="&#x139;" horiz-adv-x="490" 
d="M98 757l97 154h106l-119 -154h-84zM96 0v689h91v-605h282v-84h-373z" />
    <glyph glyph-name="lacute" unicode="&#x13a;" horiz-adv-x="238" 
d="M77 757l97 154h106l-119 -154h-84zM76 0v722h87v-722h-87z" />
    <glyph glyph-name="Lcommaaccent" unicode="&#x13b;" horiz-adv-x="490" 
d="M96 0v689h91v-605h282v-84h-373zM220 -233l-57 19q31 41 42 77.5t5 95.5h87q1 -129 -77 -192z" />
    <glyph glyph-name="lcommaaccent" unicode="&#x13c;" horiz-adv-x="238" 
d="M76 0v722h87v-722h-87zM89 -233l-57 19q31 41 42 77.5t5 95.5h87q1 -129 -77 -192z" />
    <glyph glyph-name="Lcaron" unicode="&#x13d;" horiz-adv-x="492" 
d="M96 0v689h91v-605h282v-84h-373zM313 498l-56 18q30 42 40.5 78.5t4.5 94.5h88q1 -128 -77 -191z" />
    <glyph glyph-name="lcaron" unicode="&#x13e;" horiz-adv-x="258" 
d="M76 0v722h87v-722h-87zM260 498l-56 18q30 42 40.5 78.5t5.5 94.5h87q1 -128 -77 -191z" />
    <glyph glyph-name="Lslash" unicode="&#x141;" horiz-adv-x="492" 
d="M189 84h282v-84h-373v253l-64 -40v70l64 40v366h91v-308l104 65v-71l-104 -65v-226z" />
    <glyph glyph-name="lslash" unicode="&#x142;" horiz-adv-x="321" 
d="M298 484v-70l-96 -60v-354h-87v299l-76 -48v71l76 48v352h87v-298z" />
    <glyph glyph-name="Nacute" unicode="&#x143;" horiz-adv-x="688" 
d="M513 911l-119 -154h-84l97 154h106zM502 689h91v-689h-88l-318 525v-525h-91v689h90l316 -523v523z" />
    <glyph glyph-name="nacute" unicode="&#x144;" horiz-adv-x="575" 
d="M458 689l-119 -154h-84l97 154h106zM318 477q88 0 138.5 -55t49.5 -152v-270h-87v265q0 58 -31.5 92t-81.5 34q-57 0 -100 -34t-43 -104v-253h-87v467h87v-71q19 39 65 60t90 21z" />
    <glyph glyph-name="Ncommaaccent" unicode="&#x145;" horiz-adv-x="688" 
d="M502 689h91v-689h-88l-318 525v-525h-91v689h90l316 -523v523zM304 -41h87q1 -129 -77 -192l-57 19q31 41 42 77.5t5 95.5z" />
    <glyph glyph-name="ncommaaccent" unicode="&#x146;" horiz-adv-x="575" 
d="M318 477q88 0 138.5 -55t49.5 -152v-270h-87v265q0 58 -31.5 92t-81.5 34q-57 0 -100 -34t-43 -104v-253h-87v467h87v-71q19 39 65 60t90 21zM249 -41h87q1 -129 -77 -192l-57 19q31 41 42 77.5t5 95.5z" />
    <glyph glyph-name="Ncaron" unicode="&#x147;" horiz-adv-x="688" 
d="M389 757h-91l-110 154h80l75 -89l76 89h80zM502 689h91v-689h-88l-318 525v-525h-91v689h90l316 -523v523z" />
    <glyph glyph-name="ncaron" unicode="&#x148;" horiz-adv-x="575" 
d="M334 535h-91l-110 154h80l75 -89l76 89h80zM318 477q88 0 138.5 -55t49.5 -152v-270h-87v265q0 58 -31.5 92t-81.5 34q-57 0 -100 -34t-43 -104v-253h-87v467h87v-71q19 39 65 60t90 21z" />
    <glyph glyph-name="napostrophe" unicode="&#x149;" horiz-adv-x="634" 
d="M150 689q1 -128 -77 -191l-56 18q30 42 40.5 78.5t4.5 94.5h88zM376 477q88 0 138.5 -54.5t49.5 -152.5v-270h-87v265q0 58 -31 92t-81 34q-57 0 -100 -34t-44 -104v-253h-87v467h87v-73q19 40 65 61.5t90 21.5z" />
    <glyph glyph-name="Eng" unicode="&#x14a;" horiz-adv-x="688" 
d="M502 689h91v-693q0 -98 -52 -160.5t-161 -62.5q-22 0 -73 11l9 85q24 -8 64 -8q63 0 92.5 37.5t29.5 97.5l-1 11l-314 519v-526h-91v689h90l316 -522v522z" />
    <glyph glyph-name="eng" unicode="&#x14b;" horiz-adv-x="575" 
d="M318 477q88 0 138.5 -55t49.5 -152v-297q0 -200 -167 -200h-60v82h53q89 0 87 119v291q0 58 -31.5 92t-81.5 34q-57 0 -100 -34t-43 -104v-253h-87v467h87v-71q19 39 65 60t90 21z" />
    <glyph glyph-name="Omacron" unicode="&#x14c;" horiz-adv-x="795" 
d="M272 798v77h251v-77h-251zM396 -10q-146 0 -247 103t-101 250q0 148 101 251t247 103q147 0 248.5 -103t101.5 -251q0 -147 -101.5 -250t-248.5 -103zM396 74q109 0 184 79t75 190q0 112 -75 191t-184 79q-108 0 -182.5 -79t-74.5 -191q0 -111 74.5 -190t182.5 -79z" />
    <glyph glyph-name="omacron" unicode="&#x14d;" horiz-adv-x="578" 
d="M164 576v77h251v-77h-251zM288 -10q-102 0 -173 68t-71 177q0 108 70.5 175t173.5 67t174 -67t71 -175t-71.5 -176.5t-173.5 -68.5zM288 72q66 0 112 46t46 117q0 70 -46 115t-112 45q-65 0 -110.5 -45t-45.5 -115q0 -71 45.5 -117t110.5 -46z" />
    <glyph glyph-name="Ohungarumlaut" unicode="&#x150;" horiz-adv-x="795" 
d="M293 757l81 154h84l-89 -154h-76zM429 757l89 154h87l-102 -154h-74zM396 -10q-146 0 -247 103t-101 250q0 148 101 251t247 103q147 0 248.5 -103t101.5 -251q0 -147 -101.5 -250t-248.5 -103zM396 74q109 0 184 79t75 190q0 112 -75 191t-184 79q-108 0 -182.5 -79
t-74.5 -191q0 -111 74.5 -190t182.5 -79z" />
    <glyph glyph-name="ohungarumlaut" unicode="&#x151;" horiz-adv-x="578" 
d="M185 535l81 154h84l-89 -154h-76zM321 535l89 154h87l-102 -154h-74zM288 -10q-102 0 -173 68t-71 177q0 108 70.5 175t173.5 67t174 -67t71 -175t-71.5 -176.5t-173.5 -68.5zM288 72q66 0 112 46t46 117q0 70 -46 115t-112 45q-65 0 -110.5 -45t-45.5 -115
q0 -71 45.5 -117t110.5 -46z" />
    <glyph glyph-name="OE" unicode="&#x152;" horiz-adv-x="1125" 
d="M747 84h327v-84h-417v106q-103 -116 -261 -116q-146 0 -247 103t-101 250q0 148 101 251t247 103q158 0 261 -116v108h407v-84h-317v-224h276v-85h-276v-212zM396 74q109 0 184 79t75 190q0 112 -75 191t-184 79q-108 0 -182.5 -79t-74.5 -191q0 -111 74.5 -190
t182.5 -79z" />
    <glyph glyph-name="oe" unicode="&#x153;" horiz-adv-x="960" 
d="M918 235q0 -13 -2 -39h-380q9 -61 49.5 -92.5t103.5 -31.5q95 0 136 71l75 -30q-29 -59 -86.5 -91t-127.5 -32q-127 0 -197 100q-34 -47 -87 -73.5t-114 -26.5q-102 0 -173 68t-71 177q0 108 70.5 175t173.5 67q62 0 114.5 -26t86.5 -72q70 98 197 98q101 0 166.5 -66.5
t65.5 -175.5zM288 72q66 0 112 46t46 117q0 70 -46 115t-112 45q-65 0 -110.5 -45t-45.5 -115q0 -71 45.5 -117t110.5 -46zM536 271h295q-8 59 -47 91.5t-98 32.5q-60 0 -99.5 -31.5t-50.5 -92.5z" />
    <glyph glyph-name="Racute" unicode="&#x154;" horiz-adv-x="618" 
d="M480 911l-119 -154h-84l97 154h106zM457 0l-180 260h-90v-260h-91v689h259q105 0 156.5 -62.5t51.5 -152.5q0 -83 -44.5 -143.5t-135.5 -69.5l183 -261h-109zM187 605v-262h144q141 0 141 131q0 58 -31.5 94.5t-83.5 36.5h-170z" />
    <glyph glyph-name="racute" unicode="&#x155;" horiz-adv-x="387" 
d="M365 689l-119 -154h-84l97 154h106zM295 477q53 0 81 -18l-14 -82q-33 16 -68 16q-66 0 -98 -61.5t-32 -160.5v-171h-88v467h88v-106q34 116 131 116z" />
    <glyph glyph-name="Rcommaaccent" unicode="&#x156;" horiz-adv-x="618" 
d="M383 261l183 -261h-109l-180 260h-90v-260h-91v689h259q105 0 156.5 -62.5t51.5 -152.5q0 -83 -44.5 -143.5t-135.5 -69.5zM187 605v-262h144q141 0 141 131q0 58 -31.5 94.5t-83.5 36.5h-170zM271 -41h87q1 -129 -77 -192l-57 19q31 41 42 77.5t5 95.5z" />
    <glyph glyph-name="rcommaaccent" unicode="&#x157;" horiz-adv-x="387" 
d="M295 477q53 0 81 -18l-14 -82q-33 16 -68 16q-66 0 -98 -61.5t-32 -160.5v-171h-88v467h88v-106q34 116 131 116zM76 -41h87q1 -128 -78 -192l-56 19q30 41 41 77.5t6 95.5z" />
    <glyph glyph-name="Rcaron" unicode="&#x158;" horiz-adv-x="618" 
d="M356 757h-91l-110 154h80l75 -89l76 89h80zM457 0l-180 260h-90v-260h-91v689h259q105 0 156.5 -62.5t51.5 -152.5q0 -83 -44.5 -143.5t-135.5 -69.5l183 -261h-109zM187 605v-262h144q141 0 141 131q0 58 -31.5 94.5t-83.5 36.5h-170z" />
    <glyph glyph-name="rcaron" unicode="&#x159;" horiz-adv-x="387" 
d="M241 535h-91l-110 154h80l75 -89l76 89h80zM295 477q53 0 81 -18l-14 -82q-33 16 -68 16q-66 0 -98 -61.5t-32 -160.5v-171h-88v467h88v-106q34 116 131 116z" />
    <glyph glyph-name="Sacute" unicode="&#x15a;" horiz-adv-x="570" 
d="M252 757l97 154h106l-119 -154h-84zM294 -10q-105 0 -173.5 62t-69.5 145h90q2 -49 44.5 -86t108.5 -37q65 0 102 34.5t37 82.5q0 81 -119 112l-89 22q-169 41 -169 177q0 87 67 141t160 54t155.5 -55t62.5 -145h-90q0 51 -37.5 83.5t-93.5 32.5q-54 0 -93.5 -30.5
t-39.5 -79.5q0 -72 100 -96l90 -22q90 -22 138.5 -70.5t48.5 -120.5q0 -84 -63.5 -144t-166.5 -60z" />
    <glyph glyph-name="sacute" unicode="&#x15b;" horiz-adv-x="436" 
d="M183 535l97 154h106l-119 -154h-84zM213 -10q-67 0 -119 40.5t-55 108.5h81q1 -31 26 -52t67 -21q44 0 69 18t25 47q0 47 -64 61l-64 15q-61 16 -92 48t-31 86q0 58 45 97t115 39q65 0 113 -35t48 -101h-84q-1 26 -23.5 43t-51.5 17q-33 0 -54 -18t-21 -45q0 -42 60 -56
l69 -17q122 -30 122 -135q0 -63 -52.5 -101.5t-128.5 -38.5z" />
    <glyph glyph-name="Scedilla" unicode="&#x15e;" horiz-adv-x="570" 
d="M524 194q0 -74 -51.5 -131.5t-137.5 -69.5l24 -55q10 -22 10 -42q0 -45 -27.5 -72.5t-71.5 -27.5q-46 0 -74 30.5t-28 78.5h59q0 -22 13 -36t30 -14q18 0 28 11.5t10 29.5q0 10 -3 17l-27 77q-99 6 -162.5 66.5t-64.5 140.5h90q2 -49 44.5 -86t108.5 -37q65 0 102 34.5
t37 82.5q0 81 -119 112l-89 22q-169 41 -169 177q0 87 67 141t160 54t155.5 -55t62.5 -145h-90q0 51 -37.5 83.5t-93.5 32.5q-54 0 -93.5 -30.5t-39.5 -79.5q0 -72 100 -96l90 -22q90 -22 138.5 -70.5t48.5 -120.5z" />
    <glyph glyph-name="scedilla" unicode="&#x15f;" horiz-adv-x="436" 
d="M394 130q0 -51 -36 -86.5t-93 -48.5l25 -57q10 -22 10 -42q0 -45 -27.5 -72.5t-71.5 -27.5q-46 0 -74 30.5t-28 78.5h59q0 -22 13 -36t30 -14q18 0 28 11.5t10 29.5q0 10 -3 17l-27 77q-67 2 -117 42t-53 107h81q1 -31 26 -52t67 -21q44 0 69 18t25 47q0 47 -64 61
l-64 15q-61 16 -92 48t-31 86q0 58 45 97t115 39q65 0 113 -35t48 -101h-84q-1 26 -23.5 43t-51.5 17q-33 0 -54 -18t-21 -45q0 -42 60 -56l69 -17q122 -30 122 -135z" />
    <glyph glyph-name="Scaron" unicode="&#x160;" horiz-adv-x="570" 
d="M240 757l-110 154h80l75 -89l76 89h80l-110 -154h-91zM294 -10q-105 0 -173.5 62t-69.5 145h90q2 -49 44.5 -86t108.5 -37q65 0 102 34.5t37 82.5q0 81 -119 112l-89 22q-169 41 -169 177q0 87 67 141t160 54t155.5 -55t62.5 -145h-90q0 51 -37.5 83.5t-93.5 32.5
q-54 0 -93.5 -30.5t-39.5 -79.5q0 -72 100 -96l90 -22q90 -22 138.5 -70.5t48.5 -120.5q0 -84 -63.5 -144t-166.5 -60z" />
    <glyph glyph-name="scaron" unicode="&#x161;" horiz-adv-x="436" 
d="M171 535l-110 154h80l75 -89l76 89h80l-110 -154h-91zM213 -10q-67 0 -119 40.5t-55 108.5h81q1 -31 26 -52t67 -21q44 0 69 18t25 47q0 47 -64 61l-64 15q-61 16 -92 48t-31 86q0 58 45 97t115 39q65 0 113 -35t48 -101h-84q-1 26 -23.5 43t-51.5 17q-33 0 -54 -18
t-21 -45q0 -42 60 -56l69 -17q122 -30 122 -135q0 -63 -52.5 -101.5t-128.5 -38.5z" />
    <glyph glyph-name="uni0162" unicode="&#x162;" horiz-adv-x="551" 
d="M531 605h-210v-578l39 -89q10 -22 10 -42q0 -45 -27.5 -72.5t-71.5 -27.5q-46 0 -74 30.5t-28 78.5h59q0 -22 13 -36t30 -14q18 0 28 11.5t10 29.5q0 10 -3 17l-31 87h-45v605h-210v84h511v-84z" />
    <glyph glyph-name="uni0163" unicode="&#x163;" horiz-adv-x="321" 
d="M300 392h-101v-371l36 -83q10 -22 10 -42q0 -45 -27.5 -72.5t-71.5 -27.5q-46 0 -74 30.5t-28 78.5h59q0 -22 13 -36t30 -14q18 0 28.5 11.5t10.5 29.5q0 7 -4 17l-31 87h-38v392h-84v75h84v177h87v-177h101v-75z" />
    <glyph glyph-name="Tcaron" unicode="&#x164;" horiz-adv-x="551" 
d="M321 757h-91l-110 154h80l75 -89l76 89h80zM531 689v-84h-210v-605h-91v605h-210v84h511z" />
    <glyph glyph-name="tcaron" unicode="&#x165;" horiz-adv-x="321" 
d="M421 689q1 -128 -77 -191l-56 18q30 41 40.5 77.5t5.5 95.5h87zM199 644v-177h101v-75h-101v-392h-87v392h-84v75h84v177h87z" />
    <glyph glyph-name="Tbar" unicode="&#x166;" horiz-adv-x="571" 
d="M541 605h-210v-225h132v-65h-132v-315h-91v315h-132v65h132v225h-210v84h511v-84z" />
    <glyph glyph-name="tbar" unicode="&#x167;" horiz-adv-x="321" 
d="M300 392h-101v-129h59v-59h-59v-204h-87v204h-56v59h56v129h-84v75h84v177h87v-177h101v-75z" />
    <glyph glyph-name="Umacron" unicode="&#x16a;" horiz-adv-x="678" 
d="M214 798v77h251v-77h-251zM339 -10q-106 0 -178.5 66.5t-72.5 179.5v453h91v-453q0 -77 45.5 -118t114.5 -41t114.5 41t45.5 118v453h91v-453q0 -113 -72.5 -179.5t-178.5 -66.5z" />
    <glyph glyph-name="umacron" unicode="&#x16b;" horiz-adv-x="575" 
d="M415 653v-77h-251v77h251zM413 467h87v-467h-87v73q-19 -40 -65 -61.5t-90 -21.5q-88 0 -138.5 54.5t-49.5 152.5v270h87v-265q0 -58 31 -92t81 -34q57 0 100 34t44 104v253z" />
    <glyph glyph-name="Uring" unicode="&#x16e;" horiz-adv-x="678" 
d="M337 756q-43 0 -73 30t-30 73q0 44 30 74.5t73 30.5q44 0 75 -30.5t31 -74.5q0 -43 -31 -73t-75 -30zM337 807q23 0 38.5 15t15.5 37t-15.5 37.5t-38.5 15.5q-21 0 -36 -15.5t-15 -37.5t15 -37t36 -15zM339 -10q-106 0 -178.5 66.5t-72.5 179.5v453h91v-453
q0 -77 45.5 -118t114.5 -41t114.5 41t45.5 118v453h91v-453q0 -113 -72.5 -179.5t-178.5 -66.5z" />
    <glyph glyph-name="uring" unicode="&#x16f;" horiz-adv-x="575" 
d="M287 534q-43 0 -73 30t-30 73q0 44 30 74.5t73 30.5q44 0 75 -30.5t31 -74.5q0 -43 -31 -73t-75 -30zM287 690q-21 0 -36 -15.5t-15 -37.5t15 -37t36 -15q23 0 38.5 15t15.5 37t-15.5 37.5t-38.5 15.5zM413 467h87v-467h-87v73q-19 -40 -65 -61.5t-90 -21.5
q-88 0 -138.5 54.5t-49.5 152.5v270h87v-265q0 -58 31 -92t81 -34q57 0 100 34t44 104v253z" />
    <glyph glyph-name="Uhungarumlaut" unicode="&#x170;" horiz-adv-x="678" 
d="M235 757l81 154h84l-89 -154h-76zM371 757l89 154h87l-102 -154h-74zM339 -10q-106 0 -178.5 66.5t-72.5 179.5v453h91v-453q0 -77 45.5 -118t114.5 -41t114.5 41t45.5 118v453h91v-453q0 -113 -72.5 -179.5t-178.5 -66.5z" />
    <glyph glyph-name="uhungarumlaut" unicode="&#x171;" horiz-adv-x="575" 
d="M350 689l-89 -154h-76l81 154h84zM395 535h-74l89 154h87zM413 467h87v-467h-87v73q-19 -40 -65 -61.5t-90 -21.5q-88 0 -138.5 54.5t-49.5 152.5v270h87v-265q0 -58 31 -92t81 -34q57 0 100 34t44 104v253z" />
    <glyph glyph-name="Uogonek" unicode="&#x172;" horiz-adv-x="678" 
d="M499 689h91v-453q0 -107 -66 -173t-165 -72l-27 -78q-3 -8 -3 -17q0 -18 10 -29.5t28 -11.5q17 0 30 14t13 36h59q0 -48 -28 -78.5t-74 -30.5q-44 0 -71.5 27.5t-27.5 72.5q0 20 10 42l23 54q-93 13 -153 77.5t-60 166.5v453h91v-453q0 -77 45.5 -118t114.5 -41t114.5 41
t45.5 118v453z" />
    <glyph glyph-name="uogonek" unicode="&#x173;" horiz-adv-x="575" 
d="M506 -95h59q0 -48 -28 -78.5t-74 -30.5q-44 0 -71.5 27.5t-27.5 72.5q0 20 10 42l39 89v46q-19 -40 -65 -61.5t-90 -21.5q-88 0 -138.5 54.5t-49.5 152.5v270h87v-265q0 -58 31 -92t81 -34q57 0 100 34t44 104v253h87v-467h-41l-31 -87q-4 -7 -4 -17q0 -18 10.5 -29.5
t28.5 -11.5q17 0 30 14t13 36z" />
    <glyph glyph-name="Wcircumflex" unicode="&#x174;" horiz-adv-x="903" 
d="M451 846l-75 -89h-80l110 154h91l110 -154h-80zM790 689h97l-233 -689h-79l-124 435l-123 -435h-79l-233 689h97l176 -545l128 451h69l129 -449z" />
    <glyph glyph-name="wcircumflex" unicode="&#x175;" horiz-adv-x="779" 
d="M389 624l-75 -89h-80l110 154h91l110 -154h-80zM670 467h94l-174 -467h-73l-129 347l-124 -347h-72l-178 467h94l119 -332l119 332h85l120 -332z" />
    <glyph glyph-name="Ycircumflex" unicode="&#x176;" horiz-adv-x="624" 
d="M311 846l-75 -89h-80l110 154h91l110 -154h-80zM513 689h109l-265 -371v-318h-91v318l-262 371h108l200 -282z" />
    <glyph glyph-name="ycircumflex" unicode="&#x177;" horiz-adv-x="502" 
d="M252 624l-75 -89h-80l110 154h91l110 -154h-80zM395 467h94l-290 -694h-92l97 240l-187 454h94l141 -344z" />
    <glyph glyph-name="Ydieresis" unicode="&#x178;" horiz-adv-x="624" 
d="M218 769q-26 0 -43.5 16.5t-17.5 41.5t17.5 41t43.5 16q24 0 41.5 -16.5t17.5 -40.5t-17.5 -41t-41.5 -17zM406 769q-25 0 -42.5 16.5t-17.5 41.5q0 24 17.5 40.5t42.5 16.5t43 -16.5t18 -40.5t-18 -41t-43 -17zM513 689h109l-265 -371v-318h-91v318l-262 371h108
l200 -282z" />
    <glyph glyph-name="Zacute" unicode="&#x179;" horiz-adv-x="566" 
d="M453 911l-119 -154h-84l97 154h106zM520 689v-78l-368 -527h368v-84h-480v78l366 527h-353v84h467z" />
    <glyph glyph-name="zacute" unicode="&#x17a;" horiz-adv-x="496" 
d="M417 689l-119 -154h-84l97 154h106zM450 467v-72l-288 -313h288v-82h-410v72l283 313h-268v82h395z" />
    <glyph glyph-name="Zdotaccent" unicode="&#x17b;" horiz-adv-x="566" 
d="M284 769q-26 0 -44 16.5t-18 40.5q0 25 18 41.5t44 16.5t43.5 -16.5t17.5 -41.5t-17.5 -41t-43.5 -16zM520 689v-78l-368 -527h368v-84h-480v78l366 527h-353v84h467z" />
    <glyph glyph-name="zdotaccent" unicode="&#x17c;" horiz-adv-x="496" 
d="M248 547q-26 0 -44 16.5t-18 40.5q0 25 18 41.5t44 16.5t43.5 -16.5t17.5 -41.5t-17.5 -41t-43.5 -16zM450 467v-72l-288 -313h288v-82h-410v72l283 313h-268v82h395z" />
    <glyph glyph-name="Zcaron" unicode="&#x17d;" horiz-adv-x="566" 
d="M329 757h-91l-110 154h80l75 -89l76 89h80zM520 689v-78l-368 -527h368v-84h-480v78l366 527h-353v84h467z" />
    <glyph glyph-name="zcaron" unicode="&#x17e;" horiz-adv-x="496" 
d="M293 535h-91l-110 154h80l75 -89l76 89h80zM450 467v-72l-288 -313h288v-82h-410v72l283 313h-268v82h395z" />
    <glyph glyph-name="longs" unicode="&#x17f;" horiz-adv-x="277" 
d="M290 722h50v-82h-35q-106 0 -104 -112v-528h-87v392h-90v75h90v49q0 96 43 151t133 55z" />
    <glyph glyph-name="florin" unicode="&#x192;" horiz-adv-x="567" 
d="M480 654h73l-16 -81h-57q-49 0 -71.5 -32t-34.5 -84l-9 -39h102v-82h-120l-38 -175q-10 -48 -23 -83.5t-34 -69.5t-54 -52t-77 -18l-86 1l16 76h58q49 0 71.5 34t34.5 88l44 199h-77v82h96l9 41q9 43 21 74t33 60.5t56 45t83 15.5z" />
    <glyph glyph-name="uni01CD" unicode="&#x1cd;" horiz-adv-x="625" 
d="M358 757h-91l-110 154h80l75 -89l76 89h80zM528 0l-67 177h-296l-67 -177h-95l262 689h96l262 -689h-95zM195 257h236l-118 312z" />
    <glyph glyph-name="uni01CE" unicode="&#x1ce;" horiz-adv-x="608" 
d="M348 535h-91l-110 154h80l75 -89l76 89h80zM445 467h87v-467h-87v74q-23 -39 -68.5 -61.5t-97.5 -22.5q-98 0 -166 68t-68 176t67.5 175.5t165.5 67.5q54 0 99 -21.5t68 -61.5v73zM286 72q65 0 112 45t47 118q0 72 -48.5 116t-110.5 44q-65 0 -109 -45t-44 -115
q0 -69 44.5 -116t108.5 -47z" />
    <glyph glyph-name="uni01CF" unicode="&#x1cf;" horiz-adv-x="282" 
d="M95 757l-110 154h80l75 -89l76 89h80l-110 -154h-91zM96 0v689h91v-689h-91z" />
    <glyph glyph-name="uni01D0" unicode="&#x1d0;" horiz-adv-x="238" 
d="M73 535l-110 154h80l75 -89l76 89h80l-110 -154h-91zM76 0v467h87v-467h-87z" />
    <glyph glyph-name="uni01D1" unicode="&#x1d1;" horiz-adv-x="795" 
d="M351 757l-110 154h80l75 -89l76 89h80l-110 -154h-91zM396 -10q-146 0 -247 103t-101 250q0 148 101 251t247 103q147 0 248.5 -103t101.5 -251q0 -147 -101.5 -250t-248.5 -103zM396 74q109 0 184 79t75 190q0 112 -75 191t-184 79q-108 0 -182.5 -79t-74.5 -191
q0 -111 74.5 -190t182.5 -79z" />
    <glyph glyph-name="uni01D2" unicode="&#x1d2;" horiz-adv-x="578" 
d="M243 535l-110 154h80l75 -89l76 89h80l-110 -154h-91zM288 -10q-102 0 -173 68t-71 177q0 108 70.5 175t173.5 67t174 -67t71 -175t-71.5 -176.5t-173.5 -68.5zM288 72q66 0 112 46t46 117q0 70 -46 115t-112 45q-65 0 -110.5 -45t-45.5 -115q0 -71 45.5 -117t110.5 -46z
" />
    <glyph glyph-name="uni01D3" unicode="&#x1d3;" horiz-adv-x="678" 
d="M293 757l-110 154h80l75 -89l76 89h80l-110 -154h-91zM339 -10q-106 0 -178.5 66.5t-72.5 179.5v453h91v-453q0 -77 45.5 -118t114.5 -41t114.5 41t45.5 118v453h91v-453q0 -113 -72.5 -179.5t-178.5 -66.5z" />
    <glyph glyph-name="uni01D4" unicode="&#x1d4;" horiz-adv-x="575" 
d="M334 535h-91l-110 154h80l75 -89l76 89h80zM413 467h87v-467h-87v73q-19 -40 -65 -61.5t-90 -21.5q-88 0 -138.5 54.5t-49.5 152.5v270h87v-265q0 -58 31 -92t81 -34q57 0 100 34t44 104v253z" />
    <glyph glyph-name="uni01D5" unicode="&#x1d5;" horiz-adv-x="678" 
d="M214 951v77h251v-77h-251zM245 769q-26 0 -43.5 16.5t-17.5 41.5t17.5 41t43.5 16q24 0 41.5 -16.5t17.5 -40.5t-17.5 -41t-41.5 -17zM433 769q-25 0 -42.5 16.5t-17.5 41.5q0 24 17.5 40.5t42.5 16.5t43 -16.5t18 -40.5t-18 -41t-43 -17zM339 -10q-106 0 -178.5 66.5
t-72.5 179.5v453h91v-453q0 -77 45.5 -118t114.5 -41t114.5 41t45.5 118v453h91v-453q0 -113 -72.5 -179.5t-178.5 -66.5z" />
    <glyph glyph-name="uni01D6" unicode="&#x1d6;" horiz-adv-x="575" 
d="M414 819v-77h-251v77h251zM195 547q-26 0 -43.5 16.5t-17.5 41.5t17.5 41t43.5 16q24 0 41.5 -16.5t17.5 -40.5t-17.5 -41t-41.5 -17zM323 605q0 24 17.5 40.5t42.5 16.5t43 -16.5t18 -40.5t-18 -41t-43 -17t-42.5 16.5t-17.5 41.5zM413 467h87v-467h-87v73
q-19 -40 -65 -61.5t-90 -21.5q-88 0 -138.5 54.5t-49.5 152.5v270h87v-265q0 -58 31 -92t81 -34q57 0 100 34t44 104v253z" />
    <glyph glyph-name="uni01D7" unicode="&#x1d7;" horiz-adv-x="678" 
d="M305 926l97 154h106l-119 -154h-84zM245 769q-26 0 -43.5 16.5t-17.5 41.5t17.5 41t43.5 16q24 0 41.5 -16.5t17.5 -40.5t-17.5 -41t-41.5 -17zM433 769q-25 0 -42.5 16.5t-17.5 41.5q0 24 17.5 40.5t42.5 16.5t43 -16.5t18 -40.5t-18 -41t-43 -17zM339 -10
q-106 0 -178.5 66.5t-72.5 179.5v453h91v-453q0 -77 45.5 -118t114.5 -41t114.5 41t45.5 118v453h91v-453q0 -113 -72.5 -179.5t-178.5 -66.5z" />
    <glyph glyph-name="uni01D8" unicode="&#x1d8;" horiz-adv-x="575" 
d="M457 863l-119 -154h-84l97 154h106zM195 547q-26 0 -43.5 16.5t-17.5 41.5t17.5 41t43.5 16q24 0 41.5 -16.5t17.5 -40.5t-17.5 -41t-41.5 -17zM323 605q0 24 17.5 40.5t42.5 16.5t43 -16.5t18 -40.5t-18 -41t-43 -17t-42.5 16.5t-17.5 41.5zM413 467h87v-467h-87v73
q-19 -40 -65 -61.5t-90 -21.5q-88 0 -138.5 54.5t-49.5 152.5v270h87v-265q0 -58 31 -92t81 -34q57 0 100 34t44 104v253z" />
    <glyph glyph-name="uni01D9" unicode="&#x1d9;" horiz-adv-x="678" 
d="M293 926l-110 154h80l75 -89l76 89h80l-110 -154h-91zM245 769q-26 0 -43.5 16.5t-17.5 41.5t17.5 41t43.5 16q24 0 41.5 -16.5t17.5 -40.5t-17.5 -41t-41.5 -17zM433 769q-25 0 -42.5 16.5t-17.5 41.5q0 24 17.5 40.5t42.5 16.5t43 -16.5t18 -40.5t-18 -41t-43 -17z
M339 -10q-106 0 -178.5 66.5t-72.5 179.5v453h91v-453q0 -77 45.5 -118t114.5 -41t114.5 41t45.5 118v453h91v-453q0 -113 -72.5 -179.5t-178.5 -66.5z" />
    <glyph glyph-name="uni01DA" unicode="&#x1da;" horiz-adv-x="575" 
d="M334 709h-91l-110 154h80l75 -89l76 89h80zM195 662q24 0 41.5 -16.5t17.5 -40.5t-17.5 -41t-41.5 -17q-26 0 -43.5 16.5t-17.5 41.5t17.5 41t43.5 16zM323 605q0 24 17.5 40.5t42.5 16.5t43 -16.5t18 -40.5t-18 -41t-43 -17t-42.5 16.5t-17.5 41.5zM413 467h87v-467h-87
v73q-19 -40 -65 -61.5t-90 -21.5q-88 0 -138.5 54.5t-49.5 152.5v270h87v-265q0 -58 31 -92t81 -34q57 0 100 34t44 104v253z" />
    <glyph glyph-name="uni01DB" unicode="&#x1db;" horiz-adv-x="678" 
d="M293 926l-118 154h106l97 -154h-85zM245 769q-26 0 -43.5 16.5t-17.5 41.5t17.5 41t43.5 16q24 0 41.5 -16.5t17.5 -40.5t-17.5 -41t-41.5 -17zM433 769q-25 0 -42.5 16.5t-17.5 41.5q0 24 17.5 40.5t42.5 16.5t43 -16.5t18 -40.5t-18 -41t-43 -17zM339 -10
q-106 0 -178.5 66.5t-72.5 179.5v453h91v-453q0 -77 45.5 -118t114.5 -41t114.5 41t45.5 118v453h91v-453q0 -113 -72.5 -179.5t-178.5 -66.5z" />
    <glyph glyph-name="uni01DC" unicode="&#x1dc;" horiz-adv-x="575" 
d="M327 709h-85l-118 154h106zM195 662q24 0 41.5 -16.5t17.5 -40.5t-17.5 -41t-41.5 -17q-26 0 -43.5 16.5t-17.5 41.5t17.5 41t43.5 16zM383 547q-25 0 -42.5 16.5t-17.5 41.5q0 24 17.5 40.5t42.5 16.5t43 -16.5t18 -40.5t-18 -41t-43 -17zM413 467h87v-467h-87v73
q-19 -40 -65 -61.5t-90 -21.5q-88 0 -138.5 54.5t-49.5 152.5v270h87v-265q0 -58 31 -92t81 -34q57 0 100 34t44 104v253z" />
    <glyph glyph-name="uni01E3" unicode="&#x1e3;" horiz-adv-x="894" 
d="M571 653v-77h-251v77h251zM852 235q0 -13 -2 -39h-379q10 -57 52 -90.5t100 -33.5q95 0 136 71l75 -30q-29 -59 -86.5 -91t-127.5 -32q-63 0 -116 27.5t-85 76.5q-90 -104 -208 -104q-77 0 -125 39t-48 104q0 64 48.5 106t139.5 42q92 0 154 -35v35q0 54 -32 84.5
t-91 30.5q-39 0 -77.5 -15t-63.5 -43l-54 52q62 87 195 87q130 0 180 -79q71 79 183 79q101 0 166.5 -66.5t65.5 -175.5zM471 271h294q-8 59 -47 91.5t-98 32.5q-127 0 -149 -124zM212 69q44 0 96.5 26t77.5 65l-6 16q-63 36 -147 36q-59 0 -85.5 -23.5t-26.5 -53.5
q0 -29 24 -47.5t67 -18.5z" />
    <glyph glyph-name="Aringacute" unicode="&#x1fa;" horiz-adv-x="625" 
d="M311 756q-43 0 -73 30t-30 73q0 32 17.5 58.5t45.5 38.5l46 79h105l-63 -82q26 -13 42 -38t16 -56q0 -43 -31 -73t-75 -30zM311 807q23 0 38.5 15t15.5 37t-15.5 37.5t-38.5 15.5q-21 0 -36 -15.5t-15 -37.5t15 -37t36 -15zM528 0l-67 177h-296l-67 -177h-95l262 689h96
l262 -689h-95zM195 257h236l-118 312z" />
    <glyph glyph-name="aringacute" unicode="&#x1fb;" horiz-adv-x="608" 
d="M301 534q-43 0 -72.5 30t-29.5 73q0 41 25.5 70t64.5 34l45 73h106l-76 -92q43 -31 43 -85q0 -44 -30.5 -73.5t-75.5 -29.5zM301 690q-21 0 -36 -15.5t-15 -37.5t15 -37t36 -15q23 0 39 15t16 37t-16 37.5t-39 15.5zM445 467h87v-467h-87v74q-23 -39 -68.5 -61.5
t-97.5 -22.5q-98 0 -166 68t-68 176t67.5 175.5t165.5 67.5q54 0 99 -21.5t68 -61.5v73zM286 72q65 0 112 45t47 118q0 72 -48.5 116t-110.5 44q-65 0 -109 -45t-44 -115q0 -69 44.5 -116t108.5 -47z" />
    <glyph glyph-name="AEacute" unicode="&#x1fc;" horiz-adv-x="914" 
d="M618 911l-119 -154h-84l97 154h106zM538 84h325v-84h-414v174h-262l-103 -174h-103l408 689h463v-84h-314v-224h275v-85h-275v-212zM238 260h211v343h-8z" />
    <glyph glyph-name="aeacute" unicode="&#x1fd;" horiz-adv-x="894" 
d="M614 689l-119 -154h-84l97 154h106zM852 235q0 -13 -2 -39h-379q10 -57 52 -90.5t100 -33.5q95 0 136 71l75 -30q-29 -59 -86.5 -91t-127.5 -32q-63 0 -116 27.5t-85 76.5q-90 -104 -208 -104q-77 0 -125 39t-48 104q0 64 48.5 106t139.5 42q92 0 154 -35v35
q0 54 -32 84.5t-91 30.5q-39 0 -77.5 -15t-63.5 -43l-54 52q62 87 195 87q130 0 180 -79q71 79 183 79q101 0 166.5 -66.5t65.5 -175.5zM471 271h294q-8 59 -47 91.5t-98 32.5q-127 0 -149 -124zM212 69q44 0 96.5 26t77.5 65l-6 16q-63 36 -147 36q-59 0 -85.5 -23.5
t-26.5 -53.5q0 -29 24 -47.5t67 -18.5z" />
    <glyph glyph-name="Oslashacute" unicode="&#x1fe;" horiz-adv-x="800" 
d="M569 911l-119 -154h-84l97 154h106zM667 572q82 -98 82 -229q0 -147 -101.5 -250t-248.5 -103q-126 0 -221 79l-79 -82l-46 46l79 82q-81 97 -81 228q0 148 101 251t247 103q127 0 223 -80l81 83l45 -45zM142 343q0 -92 53 -164l366 376q-71 58 -162 58
q-108 0 -182.5 -79t-74.5 -191zM399 74q109 0 184 78.5t75 190.5q0 91 -53 165l-366 -377q70 -57 160 -57z" />
    <glyph glyph-name="oslashacute" unicode="&#x1ff;" horiz-adv-x="581" 
d="M459 689l-119 -154h-84l97 154h106zM536 436l-50 -51q49 -62 49 -150q0 -108 -71.5 -176.5t-173.5 -68.5q-83 0 -145 45l-58 -59l-45 45l56 58q-52 65 -52 156q0 108 70.5 175t173.5 67q86 0 151 -48l50 52zM134 235q0 -51 26 -93l221 226q-41 27 -91 27
q-65 0 -110.5 -45t-45.5 -115zM448 235q0 48 -23 87l-220 -225q39 -25 85 -25q66 0 112 46t46 117z" />
    <glyph glyph-name="Scommaaccent" unicode="&#x218;" horiz-adv-x="570" 
d="M294 -10q-105 0 -173.5 62t-69.5 145h90q2 -49 44.5 -86t108.5 -37q65 0 102 34.5t37 82.5q0 81 -119 112l-89 22q-169 41 -169 177q0 87 67 141t160 54t155.5 -55t62.5 -145h-90q0 51 -37.5 83.5t-93.5 32.5q-54 0 -93.5 -30.5t-39.5 -79.5q0 -72 100 -96l90 -22
q90 -22 138.5 -70.5t48.5 -120.5q0 -84 -63.5 -144t-166.5 -60zM256 -233l-57 19q31 41 42 77.5t5 95.5h87q1 -129 -77 -192z" />
    <glyph glyph-name="scommaaccent" unicode="&#x219;" horiz-adv-x="436" 
d="M213 -10q-67 0 -119 40.5t-55 108.5h81q1 -31 26 -52t67 -21q44 0 69 18t25 47q0 47 -64 61l-64 15q-61 16 -92 48t-31 86q0 58 45 97t115 39q65 0 113 -35t48 -101h-84q-1 26 -23.5 43t-51.5 17q-33 0 -54 -18t-21 -45q0 -42 60 -56l69 -17q122 -30 122 -135
q0 -63 -52.5 -101.5t-128.5 -38.5zM187 -233l-57 19q31 41 42 77.5t5 95.5h87q1 -129 -77 -192z" />
    <glyph glyph-name="uni021A" unicode="&#x21a;" horiz-adv-x="551" 
d="M20 689h511v-84h-210v-605h-91v605h-210v84zM236 -41h87q1 -129 -77 -192l-57 19q31 41 42 77.5t5 95.5z" />
    <glyph glyph-name="uni021B" unicode="&#x21b;" horiz-adv-x="321" 
d="M199 467h101v-75h-101v-392h-87v392h-84v75h84v177h87v-177zM124 -41h87q1 -129 -77 -192l-57 19q31 41 42 77.5t5 95.5z" />
    <glyph glyph-name="circumflex" unicode="&#x2c6;" horiz-adv-x="521" 
d="M105 553l110 154h91l110 -154h-80l-76 89l-75 -89h-80z" />
    <glyph glyph-name="caron" unicode="&#x2c7;" horiz-adv-x="521" 
d="M215 553l-110 154h80l75 -89l76 89h80l-110 -154h-91z" />
    <glyph glyph-name="breve" unicode="&#x2d8;" horiz-adv-x="484" 
d="M241 566q-64 0 -96.5 37t-32.5 91h72q0 -27 15.5 -44t41.5 -17t41.5 19t15.5 42h73q0 -59 -35.5 -93.5t-94.5 -34.5z" />
    <glyph glyph-name="dotaccent" unicode="&#x2d9;" horiz-adv-x="523" 
d="M262 571q-26 0 -44 16.5t-18 41.5t18 41.5t44 16.5t43.5 -16.5t17.5 -41.5t-17.5 -41.5t-43.5 -16.5z" />
    <glyph glyph-name="ring" unicode="&#x2da;" horiz-adv-x="529" 
d="M263 534q-43 0 -73 30t-30 73q0 44 30 74.5t73 30.5q44 0 75 -30.5t31 -74.5q0 -43 -31 -73t-75 -30zM263 585q23 0 38.5 15t15.5 37t-15.5 37.5t-38.5 15.5q-21 0 -36 -15.5t-15 -37.5t15 -37t36 -15z" />
    <glyph glyph-name="ogonek" unicode="&#x2db;" horiz-adv-x="521" 
d="M259 -204q-44 0 -71.5 27.5t-27.5 72.5q0 20 10 42l40 94h56l-42 -119q-3 -8 -3 -17q0 -18 10 -29.5t28 -11.5q17 0 30 14t13 36h59q0 -48 -28 -78.5t-74 -30.5z" />
    <glyph glyph-name="tilde" unicode="&#x2dc;" horiz-adv-x="428" 
d="M82 569q3 60 28 87.5t59 27.5q25 0 53.5 -21t35.5 -21q11 0 19.5 10t9.5 32h59q-3 -59 -29 -86t-59 -27q-24 0 -51 21t-38 21q-10 0 -18.5 -11t-9.5 -33h-59z" />
    <glyph glyph-name="hungarumlaut" unicode="&#x2dd;" horiz-adv-x="472" 
d="M80 553l81 154h84l-89 -154h-76zM216 553l89 154h87l-102 -154h-74z" />
    <glyph glyph-name="gravecomb" unicode="&#x300;" horiz-adv-x="0" 
d="M-262 535l-118 154h106l97 -154h-85z" />
    <glyph glyph-name="acutecomb" unicode="&#x301;" horiz-adv-x="0" 
d="M-379 535l97 154h106l-119 -154h-84z" />
    <glyph glyph-name="uni0302" unicode="&#x302;" horiz-adv-x="0" 
d="M-416 535l110 154h91l110 -154h-80l-76 89l-75 -89h-80z" />
    <glyph glyph-name="tildecomb" unicode="&#x303;" horiz-adv-x="0" 
d="M-346 552q3 60 28 87.5t59 27.5q25 0 53.5 -21t35.5 -21q11 0 19.5 10t9.5 31h59q-3 -59 -29 -85.5t-59 -26.5q-24 0 -51 21t-38 21q-10 0 -18.5 -11t-9.5 -33h-59z" />
    <glyph glyph-name="uni0304" unicode="&#x304;" horiz-adv-x="0" 
d="M-371 576v77h251v-77h-251z" />
    <glyph glyph-name="uni0306" unicode="&#x306;" horiz-adv-x="0" 
d="M-243 550q-64 0 -96.5 37t-32.5 91h72q0 -27 15.5 -44t41.5 -17t41.5 18.5t15.5 42.5h73q0 -59 -35.5 -93.5t-94.5 -34.5z" />
    <glyph glyph-name="uni0307" unicode="&#x307;" horiz-adv-x="0" 
d="M-261 547q-26 0 -44 16.5t-18 40.5q0 25 18 41.5t44 16.5t43.5 -16.5t17.5 -41.5t-17.5 -41t-43.5 -16z" />
    <glyph glyph-name="uni0308" unicode="&#x308;" horiz-adv-x="0" 
d="M-369 547q-26 0 -43.5 16.5t-17.5 41.5t17.5 41t43.5 16q24 0 41.5 -16.5t17.5 -40.5t-17.5 -41t-41.5 -17zM-181 547q-25 0 -42.5 16.5t-17.5 41.5q0 24 17.5 40.5t42.5 16.5t43 -16.5t18 -40.5t-18 -41t-43 -17z" />
    <glyph glyph-name="uni030A" unicode="&#x30a;" horiz-adv-x="0" 
d="M-266 534q-43 0 -73 30t-30 73q0 44 30 74.5t73 30.5q44 0 75 -30.5t31 -74.5q0 -43 -31 -73t-75 -30zM-266 585q23 0 38.5 15t15.5 37t-15.5 37.5t-38.5 15.5q-21 0 -36 -15.5t-15 -37.5t15 -37t36 -15z" />
    <glyph glyph-name="uni030B" unicode="&#x30b;" horiz-adv-x="0" 
d="M-392 535l81 154h84l-89 -154h-76zM-256 535l89 154h87l-102 -154h-74z" />
    <glyph glyph-name="uni030C" unicode="&#x30c;" horiz-adv-x="0" 
d="M-306 535l-110 154h80l75 -89l76 89h80l-110 -154h-91z" />
    <glyph glyph-name="uni0326" unicode="&#x326;" horiz-adv-x="0" 
d="M-148 -233l-57 19q31 41 42 77.5t5 95.5h87q1 -129 -77 -192z" />
    <glyph glyph-name="uni0327" unicode="&#x327;" horiz-adv-x="0" 
d="M-259 -204q-46 0 -74 30.5t-28 78.5h59q0 -22 13 -36t30 -14q18 0 28 11.5t10 29.5q0 10 -3 17l-42 119h55l41 -94q10 -22 10 -42q0 -45 -27.5 -72.5t-71.5 -27.5z" />
    <glyph glyph-name="uni0328" unicode="&#x328;" horiz-adv-x="0" 
d="M-262 -204q-44 0 -71.5 27.5t-27.5 72.5q0 20 10 42l40 94h56l-42 -119q-3 -8 -3 -17q0 -18 10 -29.5t28 -11.5q17 0 30 14t13 36h59q0 -48 -28 -78.5t-74 -30.5z" />
    <glyph glyph-name="uni0394" unicode="&#x394;" horiz-adv-x="632" 
d="M364 689l261 -689h-620l262 689h97zM131 80h369l-184 489z" />
    <glyph glyph-name="uni03A9" unicode="&#x3a9;" horiz-adv-x="824" 
d="M760 354q0 -83 -38 -156t-104 -114h136v-84h-287v79q82 23 142 101.5t60 173.5q0 111 -74 185t-183 74q-110 0 -183.5 -74t-73.5 -185q0 -95 59.5 -173.5t141.5 -101.5v-79h-287v84h136q-65 41 -103 114t-38 156q0 147 100.5 245t247.5 98q148 0 248 -98t100 -245z" />
    <glyph glyph-name="pi" unicode="&#x3c0;" 
d="M518 385h-83v-245q0 -38 18.5 -53t57.5 -15v-82h-8q-74 2 -114.5 39t-40.5 112v244h-153v-385h-88v385h-70v82h481v-82z" />
    <glyph glyph-name="uni0401" unicode="&#x401;" 
d="M190 769q-26 0 -43.5 16.5t-17.5 41.5t17.5 41t43.5 16q24 0 41.5 -16.5t17.5 -40.5t-17.5 -41t-41.5 -17zM378 769q-25 0 -42.5 16.5t-17.5 41.5q0 24 17.5 40.5t42.5 16.5t43 -16.5t18 -40.5t-18 -41t-43 -17zM186 84h326v-84h-416v689h406v-84h-316v-224h276v-85h-276
v-212z" />
    <glyph glyph-name="uni0410" unicode="&#x410;" horiz-adv-x="625" 
d="M528 0l-67 177h-296l-67 -177h-95l262 689h96l262 -689h-95zM195 257h236l-118 312z" />
    <glyph glyph-name="uni0411" unicode="&#x411;" horiz-adv-x="603" 
d="M355 429q105 0 156.5 -62t51.5 -152t-51.5 -152.5t-156.5 -62.5h-259v689h399v-84h-308v-176h168zM357 84q52 0 83.5 36.5t31.5 94.5q0 131 -141 131h-144v-262h170z" />
    <glyph glyph-name="uni0412" unicode="&#x412;" horiz-adv-x="630" 
d="M454 367q58 -13 91 -63t33 -110q0 -78 -55 -136t-146 -58h-281v689h259q86 0 136 -47.5t50 -128.5q0 -113 -87 -146zM354 605h-167v-203h170q45 0 69 28t24 74t-25 73.5t-71 27.5zM358 84q61 0 95 33.5t34 84.5q0 50 -32 85t-92 35h-176v-238h171z" />
    <glyph glyph-name="uni0413" unicode="&#x413;" horiz-adv-x="471" 
d="M96 689h354v-84h-263v-605h-91v689z" />
    <glyph glyph-name="uni0414" unicode="&#x414;" horiz-adv-x="672" 
d="M562 84h59v-227h-91v143h-421v-143h-91v227h10q56 0 88.5 49t32.5 145v411h413v-605zM240 605v-328q0 -121 -50 -193h282v521h-232z" />
    <glyph glyph-name="uni0415" unicode="&#x415;" 
d="M186 84h326v-84h-416v689h406v-84h-316v-224h276v-85h-276v-212z" />
    <glyph glyph-name="uni0416" unicode="&#x416;" horiz-adv-x="865" 
d="M875 0h-122l-275 294v-294h-91v294l-275 -294h-122l322 343l-267 346h111l231 -301v301h91v-301l231 301h111l-267 -346z" />
    <glyph glyph-name="uni0417" unicode="&#x417;" horiz-adv-x="560" 
d="M387 369q57 -17 90 -62.5t33 -106.5q0 -94 -68.5 -152t-179.5 -58q-79 0 -142 38t-96 105l79 43q25 -47 66 -74.5t88 -27.5q69 0 115 35t46 89q0 58 -44.5 93.5t-112.5 35.5h-77v80h70q59 0 94 28.5t35 75.5q0 45 -32.5 73.5t-85.5 28.5q-38 0 -75 -18.5t-58 -48.5
l-66 50q29 46 83.5 73.5t117.5 27.5q95 0 152 -50.5t57 -134.5q0 -48 -23.5 -86t-65.5 -57z" />
    <glyph glyph-name="uni0418" unicode="&#x418;" horiz-adv-x="688" 
d="M502 689h90v-689h-91v525l-318 -525h-88v689h91v-523z" />
    <glyph glyph-name="uni0419" unicode="&#x419;" horiz-adv-x="688" 
d="M345 772q-59 0 -94.5 34.5t-35.5 93.5h73q0 -24 15.5 -42.5t41.5 -18.5t41.5 17t15.5 44h72q0 -54 -32.5 -91t-96.5 -37zM502 689h90v-689h-91v525l-318 -525h-88v689h91v-523z" />
    <glyph glyph-name="uni041A" unicode="&#x41a;" horiz-adv-x="571" 
d="M583 0h-121l-276 295v-295h-90v689h90v-301l231 301h111l-266 -345z" />
    <glyph glyph-name="uni041B" unicode="&#x41b;" horiz-adv-x="657" 
d="M148 689h413v-689h-90v605h-232v-359q0 -121 -55 -183.5t-150 -62.5h-17v84h10q121 0 121 163v442z" />
    <glyph glyph-name="uni041C" unicode="&#x41c;" horiz-adv-x="937" 
d="M881 0h-89l-64 525l-219 -450h-79l-221 450l-63 -525h-89l84 689h82l246 -511l245 511h82z" />
    <glyph glyph-name="uni041D" unicode="&#x41d;" horiz-adv-x="711" 
d="M525 689h91v-689h-91v301h-338v-301h-91v689h91v-305h338v305z" />
    <glyph glyph-name="uni041E" unicode="&#x41e;" horiz-adv-x="795" 
d="M396 -10q-146 0 -247 103t-101 250q0 148 101 251t247 103q147 0 248.5 -103t101.5 -251q0 -147 -101.5 -250t-248.5 -103zM396 74q109 0 184 79t75 190q0 112 -75 191t-184 79q-108 0 -182.5 -79t-74.5 -191q0 -111 74.5 -190t182.5 -79z" />
    <glyph glyph-name="uni041F" unicode="&#x41f;" horiz-adv-x="695" 
d="M96 689h504v-689h-91v607h-322v-607h-91v689z" />
    <glyph glyph-name="uni0420" unicode="&#x420;" horiz-adv-x="610" 
d="M370 689q102 0 153.5 -63t51.5 -152q0 -90 -51.5 -152.5t-153.5 -62.5h-183v-259h-91v689h274zM364 344q60 0 90 37.5t30 92.5q0 54 -29 92.5t-86 38.5h-182v-261h177z" />
    <glyph glyph-name="uni0421" unicode="&#x421;" horiz-adv-x="690" 
d="M398 -10q-146 0 -248 103t-102 250t102 250t248 103q78 0 145 -31t114 -86l-66 -56q-76 89 -193 89q-108 0 -183.5 -79t-75.5 -190t75.5 -190t183.5 -79q117 0 193 89l66 -56q-47 -55 -114 -86t-145 -31z" />
    <glyph glyph-name="uni0422" unicode="&#x422;" horiz-adv-x="551" 
d="M531 689v-84h-210v-605h-91v605h-210v84h511z" />
    <glyph glyph-name="uni0423" unicode="&#x423;" horiz-adv-x="598" 
d="M503 689h99l-357 -689h-99l119 223l-268 466h104l210 -378z" />
    <glyph glyph-name="uni0424" unicode="&#x424;" horiz-adv-x="846" 
d="M801 343q0 -116 -82 -186t-250 -79v-78h-91v78q-169 9 -251 78.5t-82 186.5q0 118 82 187.5t251 78.5v80h91v-80q168 -9 250 -79t82 -187zM136 343q0 -78 59.5 -125.5t182.5 -55.5v363q-123 -8 -182.5 -55.5t-59.5 -126.5zM469 162q123 8 182 55.5t59 125.5
q0 79 -59 126.5t-182 55.5v-363z" />
    <glyph glyph-name="uni0425" unicode="&#x425;" horiz-adv-x="607" 
d="M599 0h-109l-187 296l-187 -296h-108l241 371l-214 318h108l160 -245l161 245h108l-215 -319z" />
    <glyph glyph-name="uni0426" unicode="&#x426;" horiz-adv-x="723" 
d="M613 84h59v-227h-91v143h-485v689h91v-607h335v607h91v-605z" />
    <glyph glyph-name="uni0427" unicode="&#x427;" horiz-adv-x="647" 
d="M460 689h91v-689h-91v262q-77 -17 -178 -17q-233 0 -233 248v196h91v-195q0 -88 35 -126.5t114 -38.5q98 0 171 17v343z" />
    <glyph glyph-name="uni0428" unicode="&#x428;" horiz-adv-x="1005" 
d="M819 689h91v-689h-814v689h91v-607h270v607h91v-607h271v607z" />
    <glyph glyph-name="uni0429" unicode="&#x429;" horiz-adv-x="1020" 
d="M910 84h59v-227h-91v143h-782v689h91v-607h270v607h91v-607h271v607h91v-605z" />
    <glyph glyph-name="uni042A" unicode="&#x42a;" horiz-adv-x="656" 
d="M414 429q105 0 156.5 -62t51.5 -152q0 -89 -52 -152t-156 -63h-259v605h-141v84h232v-260h168zM416 84q52 0 83.5 36.5t31.5 94.5q0 131 -141 131h-144v-262h170z" />
    <glyph glyph-name="uni042B" unicode="&#x42b;" horiz-adv-x="849" 
d="M355 429q105 0 156.5 -62t51.5 -152t-51.5 -152.5t-156.5 -62.5h-259v689h91v-260h168zM662 689h91v-689h-91v689zM357 84q52 0 83.5 36.5t31.5 94.5q0 131 -141 131h-144v-262h170z" />
    <glyph glyph-name="uni042C" unicode="&#x42c;" horiz-adv-x="598" 
d="M355 429q105 0 156.5 -62t51.5 -152t-51.5 -152.5t-156.5 -62.5h-259v689h91v-260h168zM357 84q52 0 83.5 36.5t31.5 94.5q0 131 -141 131h-144v-262h170z" />
    <glyph glyph-name="uni042D" unicode="&#x42d;" horiz-adv-x="695" 
d="M297 696q146 0 247.5 -103t101.5 -250t-101.5 -250t-247.5 -103q-78 0 -145.5 31t-113.5 86l65 56q77 -89 194 -89q96 0 167 63.5t87 158.5h-351v85h352q-13 98 -85 164.5t-170 66.5q-117 0 -194 -89l-65 56q46 55 113.5 86t145.5 31z" />
    <glyph glyph-name="uni042E" unicode="&#x42e;" horiz-adv-x="1050" 
d="M651 697q147 0 248.5 -103t101.5 -251q0 -147 -101.5 -250t-248.5 -103q-135 0 -232.5 89.5t-112.5 221.5h-119v-301h-91v689h91v-305h119q15 134 112.5 223.5t232.5 89.5zM651 74q109 0 184 79t75 190q0 112 -75 191t-184 79q-108 0 -182 -79t-74 -191q0 -111 74 -190
t182 -79z" />
    <glyph glyph-name="uni042F" unicode="&#x42f;" horiz-adv-x="618" 
d="M263 689h259v-689h-91v260h-90l-180 -260h-109l183 261q-91 9 -135.5 69.5t-44.5 143.5q0 90 51.5 152.5t156.5 62.5zM287 343h144v262h-170q-52 0 -83.5 -36.5t-31.5 -94.5q0 -131 141 -131z" />
    <glyph glyph-name="uni0430" unicode="&#x430;" horiz-adv-x="608" 
d="M445 467h87v-467h-87v74q-23 -39 -68.5 -61.5t-97.5 -22.5q-98 0 -166 68t-68 176t67.5 175.5t165.5 67.5q54 0 99 -21.5t68 -61.5v73zM286 72q65 0 112 45t47 118q0 72 -48.5 116t-110.5 44q-65 0 -109 -45t-44 -115q0 -69 44.5 -116t108.5 -47z" />
    <glyph glyph-name="uni0431" unicode="&#x431;" horiz-adv-x="591" 
d="M311 477q97 0 166.5 -67.5t69.5 -174.5q0 -108 -71.5 -176.5t-173.5 -68.5q-109 0 -176.5 74.5t-67.5 228.5q0 350 312 400q28 4 40.5 11.5t25.5 24.5l71 -38q-11 -28 -43.5 -48t-74.5 -28q-121 -20 -171.5 -72t-63.5 -133q26 29 68.5 48t88.5 19zM302 72q65 0 111 46
t46 117q0 70 -46 115t-111 45q-66 0 -111.5 -44t-45.5 -113q0 -72 45 -119t112 -47z" />
    <glyph glyph-name="uni0432" unicode="&#x432;" horiz-adv-x="546" 
d="M417 249q42 -8 63 -41t21 -75q0 -53 -40 -93t-113 -40h-272v467h256q65 0 103.5 -33.5t38.5 -86.5q0 -78 -57 -98zM328 385h-165v-107h167q57 0 57 53q0 25 -15 39.5t-44 14.5zM340 82q36 0 54.5 17t18.5 43q0 27 -19 45t-55 18h-176v-123h177z" />
    <glyph glyph-name="uni0433" unicode="&#x433;" horiz-adv-x="385" 
d="M76 467h288v-82h-201v-385h-87v467z" />
    <glyph glyph-name="uni0434" unicode="&#x434;" horiz-adv-x="527" 
d="M441 55h41v-172h-88v117h-284v-117h-87v185h7q87 0 87 154v245h324v-412zM204 203q0 -87 -39 -123h188v305h-149v-182z" />
    <glyph glyph-name="uni0435" unicode="&#x435;" horiz-adv-x="558" 
d="M516 235q0 -13 -2 -39h-380q10 -61 50.5 -92.5t102.5 -31.5q44 0 80.5 18.5t55.5 52.5l76 -30q-30 -59 -88 -91t-127 -32q-102 0 -171 68t-69 177t69 175.5t171 66.5q101 0 166.5 -66.5t65.5 -175.5zM135 271h294q-8 59 -47 91.5t-98 32.5q-61 0 -100 -31t-49 -93z" />
    <glyph glyph-name="uni0436" unicode="&#x436;" horiz-adv-x="662" 
d="M663 0h-119l-170 177v-177h-87v175l-170 -175h-119l232 234l-190 233h109l138 -174v174h87v-177l139 177h109l-192 -233z" />
    <glyph glyph-name="uni0437" unicode="&#x437;" horiz-adv-x="432" 
d="M299 253q87 -28 89 -117q0 -64 -51.5 -105t-135.5 -41q-119 0 -174 82l68 49q37 -48 101 -48q46 0 75 19t29 49q0 32 -27.5 52t-71.5 20h-56v66h38q43 0 68 18t25 46q0 23 -22 37t-57 14q-61 0 -93 -38l-54 56q60 65 156 65q72 0 115 -34.5t43 -94.5q0 -30 -17 -55.5
t-48 -39.5z" />
    <glyph glyph-name="uni0438" unicode="&#x438;" horiz-adv-x="547" 
d="M392 467h79v-467h-87v324l-236 -324h-72v467h87v-317z" />
    <glyph glyph-name="uni0439" unicode="&#x439;" horiz-adv-x="547" 
d="M260 552q-64 0 -96.5 37t-32.5 91h72q0 -27 15.5 -44t41.5 -17t41.5 18.5t15.5 42.5h73q0 -59 -35.5 -93.5t-94.5 -34.5zM392 467h79v-467h-87v324l-236 -324h-72v467h87v-317z" />
    <glyph glyph-name="uni043A" unicode="&#x43a;" horiz-adv-x="443" 
d="M448 0h-115l-170 178v-178h-87v467h87v-175l138 175h106l-189 -233z" />
    <glyph glyph-name="uni043B" unicode="&#x43b;" horiz-adv-x="529" 
d="M117 467h336v-467h-87v385h-162v-200q0 -89 -40.5 -137t-109.5 -48h-31v77h11q41 0 62 24.5t21 85.5v280z" />
    <glyph glyph-name="uni043C" unicode="&#x43c;" horiz-adv-x="694" 
d="M645 0h-88l-40 306l-135 -253h-70l-135 253l-40 -306h-89l62 467h74l164 -317l160 317h76z" />
    <glyph glyph-name="uni043D" unicode="&#x43d;" horiz-adv-x="557" 
d="M394 467h88v-467h-88v194h-231v-194h-87v467h87v-195h231v195z" />
    <glyph glyph-name="uni043E" unicode="&#x43e;" horiz-adv-x="578" 
d="M288 -10q-102 0 -173 68t-71 177q0 108 70.5 175t173.5 67t174 -67t71 -175t-71.5 -176.5t-173.5 -68.5zM288 72q66 0 112 46t46 117q0 70 -46 115t-112 45q-65 0 -110.5 -45t-45.5 -115q0 -71 45.5 -117t110.5 -46z" />
    <glyph glyph-name="uni043F" unicode="&#x43f;" horiz-adv-x="541" 
d="M76 467h389v-467h-87v385h-215v-385h-87v467z" />
    <glyph glyph-name="uni0440" unicode="&#x440;" horiz-adv-x="608" 
d="M329 477q98 0 166 -68t68 -176q0 -109 -67.5 -176t-165.5 -67q-54 0 -99 21.5t-68 61.5v-300h-87v694h87v-74q23 39 68.5 61.5t97.5 22.5zM321 72q65 0 109.5 45t44.5 115q0 69 -44.5 116t-109.5 47t-111.5 -45t-46.5 -118q0 -72 48.5 -116t109.5 -44z" />
    <glyph glyph-name="uni0441" unicode="&#x441;" horiz-adv-x="507" 
d="M295 -9q-104 0 -177.5 67.5t-73.5 175.5t73.5 175.5t177.5 67.5q111 0 178 -74l-55 -57q-47 49 -120 49q-70 0 -118 -45t-48 -116t48 -116t118 -45q73 0 120 49l55 -57q-66 -74 -178 -74z" />
    <glyph glyph-name="uni0442" unicode="&#x442;" horiz-adv-x="411" 
d="M389 467v-82h-140v-385h-87v385h-140v82h367z" />
    <glyph glyph-name="uni0443" unicode="&#x443;" horiz-adv-x="502" 
d="M395 467h94l-290 -694h-92l97 240l-187 454h94l141 -344z" />
    <glyph glyph-name="uni0444" unicode="&#x444;" horiz-adv-x="678" 
d="M634 232q0 -102 -66.5 -166t-187.5 -74v-219h-83v219q-121 10 -187.5 74t-66.5 166q1 103 67 168t187 75v247h83v-246q121 -10 187.5 -75t66.5 -169zM380 74q82 8 124.5 49t42.5 109q-1 68 -43.5 110t-123.5 51v-319zM131 232q0 -68 42.5 -109t123.5 -49v319
q-81 -9 -123.5 -51t-42.5 -110z" />
    <glyph glyph-name="uni0445" unicode="&#x445;" horiz-adv-x="490" 
d="M481 0h-104l-132 183l-133 -183h-104l185 257l-151 210h105l98 -139l98 139h106l-152 -211z" />
    <glyph glyph-name="uni0446" unicode="&#x446;" horiz-adv-x="542" 
d="M443 82h55v-199h-87v117h-335v467h87v-385h193v385h87v-385z" />
    <glyph glyph-name="uni0447" unicode="&#x447;" horiz-adv-x="504" 
d="M342 467h87v-467h-87v162q-63 -10 -136 -10q-164 0 -164 179v136h88v-134q0 -56 24 -79t72 -23q59 0 116 9v227z" />
    <glyph glyph-name="uni0448" unicode="&#x448;" horiz-adv-x="735" 
d="M572 467h88v-467h-584v467h87v-385h161v385h87v-385h161v385z" />
    <glyph glyph-name="uni0449" unicode="&#x449;" horiz-adv-x="758" 
d="M660 82h53v-199h-86v117h-551v467h87v-385h161v385h87v-385h161v385h88v-385z" />
    <glyph glyph-name="uni044A" unicode="&#x44a;" horiz-adv-x="518" 
d="M325 298q82 0 121.5 -41.5t39.5 -105.5q0 -63 -38.5 -107t-116.5 -44h-212v385h-96v82h183v-169h119zM317 82q41 0 61.5 18.5t20.5 49.5q0 30 -20.5 48t-62.5 18h-110v-134h111z" />
    <glyph glyph-name="uni044B" unicode="&#x44b;" horiz-adv-x="664" 
d="M282 298q81 0 121 -41.5t40 -105.5q0 -62 -39 -106.5t-116 -44.5h-212v467h87v-169h119zM501 467h87v-467h-87v467zM273 82q41 0 62 18.5t21 49.5q0 30 -21 48t-62 18h-110v-134h110z" />
    <glyph glyph-name="uni044C" unicode="&#x44c;" horiz-adv-x="474" 
d="M282 298q81 0 121 -41.5t40 -105.5q0 -62 -39 -106.5t-116 -44.5h-212v467h87v-169h119zM273 82q41 0 62 18.5t21 49.5q0 30 -21 48t-62 18h-110v-134h110z" />
    <glyph glyph-name="uni044D" unicode="&#x44d;" horiz-adv-x="527" 
d="M232 477q105 0 178.5 -71.5t73.5 -171.5t-73.5 -172t-178.5 -72q-59 0 -110.5 25t-85.5 68l66 49q50 -60 128 -60q59 0 102 33.5t57 85.5h-227v79h229q-12 54 -56.5 89.5t-104.5 35.5q-78 0 -128 -60l-66 48q73 94 196 94z" />
    <glyph glyph-name="uni044E" unicode="&#x44e;" horiz-adv-x="772" 
d="M483 477q103 0 174 -67t71 -175t-71.5 -176.5t-173.5 -68.5q-92 0 -160 56t-81 148h-79v-194h-87v467h87v-195h78q13 93 81 149t161 56zM483 72q65 0 111.5 46t46.5 117q0 70 -46.5 115t-111.5 45q-66 0 -111.5 -44.5t-45.5 -115.5t45.5 -117t111.5 -46z" />
    <glyph glyph-name="uni044F" unicode="&#x44f;" horiz-adv-x="478" 
d="M207 467h196v-467h-88v170h-46l-122 -170h-103l130 173q-62 10 -93.5 50t-31.5 95q0 62 40.5 105.5t117.5 43.5zM224 245h91v140h-100q-37 0 -57.5 -19.5t-20.5 -49.5q0 -32 22 -51.5t65 -19.5z" />
    <glyph glyph-name="uni0451" unicode="&#x451;" horiz-adv-x="558" 
d="M184 547q-26 0 -43.5 16.5t-17.5 41.5t17.5 41t43.5 16q24 0 41.5 -16.5t17.5 -40.5t-17.5 -41t-41.5 -17zM372 547q-25 0 -42.5 16.5t-17.5 41.5q0 24 17.5 40.5t42.5 16.5t43 -16.5t18 -40.5t-18 -41t-43 -17zM516 235q0 -13 -2 -39h-380q10 -61 50.5 -92.5
t102.5 -31.5q44 0 80.5 18.5t55.5 52.5l76 -30q-30 -59 -88 -91t-127 -32q-102 0 -171 68t-69 177t69 175.5t171 66.5q101 0 166.5 -66.5t65.5 -175.5zM135 271h294q-8 59 -47 91.5t-98 32.5q-61 0 -100 -31t-49 -93z" />
    <glyph glyph-name="Wgrave" unicode="&#x1e80;" horiz-adv-x="903" 
d="M491 757h-85l-118 154h106zM790 689h97l-233 -689h-79l-124 435l-123 -435h-79l-233 689h97l176 -545l128 451h69l129 -449z" />
    <glyph glyph-name="wgrave" unicode="&#x1e81;" horiz-adv-x="779" 
d="M429 535h-85l-118 154h106zM670 467h94l-174 -467h-73l-129 347l-124 -347h-72l-178 467h94l119 -332l119 332h85l120 -332z" />
    <glyph glyph-name="Wacute" unicode="&#x1e82;" horiz-adv-x="903" 
d="M621 911l-119 -154h-84l97 154h106zM790 689h97l-233 -689h-79l-124 435l-123 -435h-79l-233 689h97l176 -545l128 451h69l129 -449z" />
    <glyph glyph-name="wacute" unicode="&#x1e83;" horiz-adv-x="779" 
d="M559 689l-119 -154h-84l97 154h106zM670 467h94l-174 -467h-73l-129 347l-124 -347h-72l-178 467h94l119 -332l119 332h85l120 -332z" />
    <glyph glyph-name="Wdieresis" unicode="&#x1e84;" horiz-adv-x="903" 
d="M358 769q-26 0 -43.5 16.5t-17.5 41.5t17.5 41t43.5 16q24 0 41.5 -16.5t17.5 -40.5t-17.5 -41t-41.5 -17zM546 769q-25 0 -42.5 16.5t-17.5 41.5q0 24 17.5 40.5t42.5 16.5t43 -16.5t18 -40.5t-18 -41t-43 -17zM790 689h97l-233 -689h-79l-124 435l-123 -435h-79
l-233 689h97l176 -545l128 451h69l129 -449z" />
    <glyph glyph-name="wdieresis" unicode="&#x1e85;" horiz-adv-x="779" 
d="M296 547q-26 0 -43.5 16.5t-17.5 41.5t17.5 41t43.5 16q24 0 41.5 -16.5t17.5 -40.5t-17.5 -41t-41.5 -17zM484 547q-25 0 -42.5 16.5t-17.5 41.5q0 24 17.5 40.5t42.5 16.5t43 -16.5t18 -40.5t-18 -41t-43 -17zM670 467h94l-174 -467h-73l-129 347l-124 -347h-72
l-178 467h94l119 -332l119 332h85l120 -332z" />
    <glyph glyph-name="uni1E9E" unicode="&#x1e9e;" horiz-adv-x="679" 
d="M448 414q87 -19 136 -76.5t49 -129.5q0 -101 -66 -159.5t-177 -58.5q-55 -2 -105 14l17 77q35 -10 89 -10q68 0 109.5 37.5t41.5 103.5q0 54 -44 90.5t-114 36.5h-21l-16 73l103 189q-49 12 -108 12q-80 0 -121 -43.5t-41 -120.5v-449h-91v451q0 114 66 180t189 66
q51 0 121.5 -12t110.5 -29v-15z" />
    <glyph glyph-name="Ygrave" unicode="&#x1ef2;" horiz-adv-x="624" 
d="M351 757h-85l-118 154h106zM513 689h109l-265 -371v-318h-91v318l-262 371h108l200 -282z" />
    <glyph glyph-name="ygrave" unicode="&#x1ef3;" horiz-adv-x="502" 
d="M292 535h-85l-118 154h106zM395 467h94l-290 -694h-92l97 240l-187 454h94l141 -344z" />
    <glyph glyph-name="endash" unicode="&#x2013;" horiz-adv-x="591" 
d="M69 196v75h453v-75h-453z" />
    <glyph glyph-name="emdash" unicode="&#x2014;" horiz-adv-x="797" 
d="M69 196v75h658v-75h-658z" />
    <glyph glyph-name="quoteleft" unicode="&#x2018;" horiz-adv-x="239" 
d="M58 435q-8 86 19.5 162t84.5 125l52 -19q-47 -67 -66 -125t-9 -143h-81z" />
    <glyph glyph-name="quoteright" unicode="&#x2019;" horiz-adv-x="240" 
d="M89 435l-52 19q47 67 66 125t10 143h80q9 -86 -18.5 -162t-85.5 -125z" />
    <glyph glyph-name="quotesinglbase" unicode="&#x201a;" horiz-adv-x="229" 
d="M52 -145l-52 19q47 67 66 125t10 143h80q9 -86 -18.5 -162t-85.5 -125z" />
    <glyph glyph-name="quotedblleft" unicode="&#x201c;" horiz-adv-x="386" 
d="M58 435q-8 86 19.5 162t84.5 125l52 -19q-47 -67 -66 -125t-9 -143h-81zM205 435q-9 86 18.5 162t85.5 125l51 -19q-47 -66 -65.5 -124.5t-9.5 -143.5h-80z" />
    <glyph glyph-name="quotedblright" unicode="&#x201d;" horiz-adv-x="386" 
d="M89 435l-52 19q47 67 66 125t10 143h80q9 -86 -18.5 -162t-85.5 -125zM235 435l-51 19q47 66 65.5 124.5t9.5 143.5h80q9 -86 -18.5 -162t-85.5 -125z" />
    <glyph glyph-name="quotedblbase" unicode="&#x201e;" horiz-adv-x="376" 
d="M52 -145l-52 19q47 67 66 125t10 143h80q9 -86 -18.5 -162t-85.5 -125zM198 -145l-51 19q47 67 65.5 125t9.5 143h80q9 -86 -18.5 -162t-85.5 -125z" />
    <glyph glyph-name="dagger" unicode="&#x2020;" horiz-adv-x="429" 
d="M171 -122v531h-121v88h121v180h86v-180h122v-88h-122v-531h-86z" />
    <glyph glyph-name="daggerdbl" unicode="&#x2021;" horiz-adv-x="429" 
d="M171 -122v205h-121v87h121v239h-121v88h121v180h86v-180h122v-88h-122v-239h122v-87h-122v-205h-86z" />
    <glyph glyph-name="bullet" unicode="&#x2022;" horiz-adv-x="448" 
d="M224 97q-62 0 -105 40.5t-43 101.5q0 60 43 100t105 40q61 0 104.5 -40t43.5 -100q0 -61 -43.5 -101.5t-104.5 -40.5z" />
    <glyph glyph-name="ellipsis" unicode="&#x2026;" horiz-adv-x="693" 
d="M121 -10q-26 0 -44.5 17.5t-18.5 43.5t18.5 43.5t44.5 17.5q27 0 46 -17.5t19 -43.5t-19 -43.5t-46 -17.5zM346 -10q-27 0 -45.5 17.5t-18.5 43.5t18.5 43.5t45.5 17.5t45.5 -17.5t18.5 -43.5t-18.5 -43.5t-45.5 -17.5zM570 -10q-26 0 -44.5 17.5t-18.5 43.5t18.5 43.5
t44.5 17.5q27 0 46 -17.5t19 -43.5t-19 -43.5t-46 -17.5z" />
    <glyph glyph-name="perthousand" unicode="&#x2030;" horiz-adv-x="944" 
d="M167 407q-56 0 -94.5 38.5t-38.5 94.5q0 55 38.5 94t94.5 39q55 0 94 -39t39 -94q0 -56 -39 -94.5t-94 -38.5zM122 0l317 654h59l-316 -654h-60zM167 471q29 0 49.5 19.5t20.5 49.5q0 28 -20.5 49t-49.5 21q-30 0 -49.5 -20.5t-19.5 -49.5q0 -30 19.5 -49.5t49.5 -19.5z
M460 -10q-56 0 -94 38t-38 94t38 95t94 39q55 0 94 -39t39 -95q0 -55 -38.5 -93.5t-94.5 -38.5zM779 -10q-56 0 -94.5 38t-38.5 94t38.5 95t94.5 39q55 0 94 -39.5t39 -94.5t-39 -93.5t-94 -38.5zM460 53q29 0 49.5 20t20.5 49t-20.5 49.5t-49.5 20.5q-30 0 -49.5 -20
t-19.5 -50q0 -29 19.5 -49t49.5 -20zM779 53q29 0 49.5 20t20.5 49t-20.5 49.5t-49.5 20.5q-30 0 -49.5 -20t-19.5 -50q0 -29 19.5 -49t49.5 -20z" />
    <glyph glyph-name="guilsinglleft" unicode="&#x2039;" horiz-adv-x="310" 
d="M182 26l-138 207l138 207h81l-138 -207l138 -207h-81z" />
    <glyph glyph-name="guilsinglright" unicode="&#x203a;" horiz-adv-x="310" 
d="M46 26l138 207l-138 207h82l138 -207l-138 -207h-82z" />
    <glyph glyph-name="fraction" unicode="&#x2044;" horiz-adv-x="180" 
d="M-171 -10l451 680h65l-450 -680h-66z" />
    <glyph glyph-name="uni2070" unicode="&#x2070;" horiz-adv-x="349" 
d="M176 515q-136 0 -136 186q0 188 136 188q133 0 133 -188q0 -186 -133 -186zM176 583q59 0 59 118q0 122 -59 122q-62 0 -62 -122q0 -118 62 -118z" />
    <glyph glyph-name="uni2074" unicode="&#x2074;" horiz-adv-x="360" 
d="M331 651v-62h-61v-69h-74v69h-175v25l186 270h63v-233h61zM113 651h83v126z" />
    <glyph glyph-name="uni2075" unicode="&#x2075;" horiz-adv-x="335" 
d="M186 768q50 0 83 -35t33 -86q0 -60 -43.5 -96t-101.5 -36q-34 0 -70.5 17.5t-55.5 45.5l54 41q10 -16 31 -26t38 -10q34 0 54 18t20 48q0 27 -17.5 44t-47.5 17q-45 0 -83 -28l-40 21l33 182h204v-67h-144l-14 -65q27 15 67 15z" />
    <glyph glyph-name="uni2076" unicode="&#x2076;" horiz-adv-x="345" 
d="M192 749q53 0 85.5 -31.5t32.5 -79.5q0 -53 -35 -88t-98 -35q-60 0 -98.5 42t-38.5 122q0 210 149 210q37 0 68.5 -18.5t45.5 -47.5l-53 -36q-18 36 -59 36q-74 0 -81 -98q30 24 82 24zM180 582q27 0 43 16t16 40q0 25 -16.5 40.5t-43.5 14.5q-24 0 -42.5 -12.5
t-18.5 -38.5q0 -31 17 -45.5t45 -14.5z" />
    <glyph glyph-name="uni2077" unicode="&#x2077;" horiz-adv-x="307" 
d="M28 884h260v-8l-142 -356h-81l120 297h-157v67z" />
    <glyph glyph-name="uni2078" unicode="&#x2078;" horiz-adv-x="349" 
d="M251 721q27 -12 45 -37.5t18 -56.5q0 -47 -41.5 -79.5t-97.5 -32.5q-57 0 -98 32.5t-41 79.5q0 31 17.5 56.5t43.5 37.5q-36 25 -36 72q0 41 33.5 68.5t80.5 27.5t81 -27.5t34 -68.5q0 -48 -39 -72zM175 830q-21 0 -35 -12t-14 -29t13.5 -30t35.5 -13q21 0 35 13t14 30
t-14 29t-35 12zM175 579q28 0 46.5 16t18.5 41q0 24 -18 40.5t-47 16.5q-30 0 -48 -16.5t-18 -40.5q0 -25 18.5 -41t47.5 -16z" />
    <glyph glyph-name="uni2079" unicode="&#x2079;" horiz-adv-x="345" 
d="M170 889q58 0 96.5 -42t38.5 -113q0 -219 -147 -219q-38 0 -69 19t-46 48l54 36q16 -35 59 -35q73 0 80 99q-32 -27 -83 -27q-52 0 -84.5 32t-32.5 80q0 54 35.5 88t98.5 34zM168 713q23 0 41.5 12t18.5 37q0 61 -61 61q-27 0 -43.5 -16.5t-16.5 -39.5q0 -24 17 -39.5
t44 -14.5z" />
    <glyph glyph-name="uni207A" unicode="&#x207a;" horiz-adv-x="288" 
d="M255 672v-45h-88v-89h-46v89h-88v45h88v87h46v-87h88z" />
    <glyph glyph-name="uni207B" unicode="&#x207b;" horiz-adv-x="300" 
d="M50 639v48h200v-48h-200z" />
    <glyph glyph-name="uni207C" unicode="&#x207c;" horiz-adv-x="350" 
d="M50 732v42h250v-42h-250zM50 615v42h250v-42h-250z" />
    <glyph glyph-name="uni207D" unicode="&#x207d;" horiz-adv-x="241" 
d="M213 411q-79 2 -127.5 72.5t-48.5 180.5t48.5 180.5t127.5 72.5v-49q-43 -2 -79 -49.5t-36 -154.5t36 -155t79 -50v-48z" />
    <glyph glyph-name="uni207E" unicode="&#x207e;" horiz-adv-x="241" 
d="M28 411v48q42 2 78.5 50t36.5 155t-36.5 154.5t-78.5 49.5v49q78 -2 126.5 -72.5t48.5 -180.5q0 -111 -48 -181t-127 -72z" />
    <glyph glyph-name="colonmonetary" unicode="&#x20a1;" horiz-adv-x="630" 
d="M360 95q107 0 172 74l60 -51q-42 -49 -102 -77.5t-130 -28.5q-30 0 -59 6l-27 -94l-48 14l27 93q-29 11 -55 26l-30 -102l-48 14l35 120q-111 95 -111 240q1 118 78.5 206.5t192.5 105.5l36 122l49 -14l-31 -105q36 -2 60 -8l28 96l49 -14l-28 -97q69 -29 114 -83
l-60 -50q-32 36 -77 55l-130 -445q17 -3 35 -3zM222 141q30 -21 54 -30l130 447q-20 4 -46 4h-15zM132 329q0 -83 50 -148l107 370q-70 -23 -113.5 -83.5t-43.5 -138.5z" />
    <glyph glyph-name="lira" unicode="&#x20a4;" horiz-adv-x="631" 
d="M382 356v-59h-315v59h76v87q0 104 60 160.5t146 56.5q82 0 139 -57.5t57 -149.5h-87q0 57 -32 92.5t-87 35.5q-44 0 -76.5 -37t-32.5 -101v-87h152zM496 167h87v-49q0 -52 -24.5 -85t-69.5 -33h-437v82h91v103h-76v60h315v-60h-152v-103h236q30 0 30 33v52z" />
    <glyph glyph-name="uni20A6" unicode="&#x20a6;" horiz-adv-x="750" 
d="M701 354h-78v-54h78v-51h-78v-249h-87l-159 249h-159v-249h-91v249h-78v51h78v54h-78v52h78v248h90l158 -248h157v248h91v-248h78v-52zM218 499v-93h59zM218 300h127l-35 54h-92v-54zM532 300v54h-124l34 -54h90zM532 158v91h-58z" />
    <glyph glyph-name="peseta" unicode="&#x20a7;" horiz-adv-x="1345" 
d="M370 689q102 0 153.5 -63t51.5 -152q0 -90 -51.5 -152.5t-153.5 -62.5h-183v-259h-91v689h274zM799 644v-177h101v-75h-101v-392h-87v392h-84v75h84v177h87zM364 344q60 0 90 37.5t30 92.5q0 54 -29 92.5t-86 38.5h-182v-261h177zM1183 265q121 -30 121 -135
q0 -63 -52.5 -101.5t-128.5 -38.5q-65 0 -121 40t-75 109h103q1 -31 26.5 -52t66.5 -21q44 0 69 18t25 47q0 47 -63 61l-65 15q-61 17 -92 48.5t-31 85.5q0 58 45.5 97t114.5 39q65 0 113 -35t48 -101h-84q0 26 -23 43t-52 17q-33 0 -54 -18t-21 -45q0 -42 61 -56z" />
    <glyph glyph-name="uni20A8" unicode="&#x20a8;" horiz-adv-x="596" 
d="M378 600q44 -42 56 -104h127l-21 -54h-102v-5q0 -81 -37.5 -138t-118.5 -70l162 -229h-109l-156 225l-114 -1v84h159q58 0 88.5 37t30.5 92v5h-278v54h270q-21 73 -111 73h-159l-1 85h497l-21 -54h-162z" />
    <glyph glyph-name="uni20A9" unicode="&#x20a9;" horiz-adv-x="950" 
d="M898 654l-90 -266h86v-52h-103l-18 -53h121v-51h-139l-78 -232h-79l-66 232h-115l-66 -232h-79l-78 232h-138v51h120l-18 53h-102v52h85l-90 266h97l85 -266h148l59 207h69l59 -207h148l85 266h97zM474 435l-13 -47h26zM250 336l17 -53h84l15 53h-116zM431 283h86l-15 53
h-56zM682 283l17 53h-116l15 -53h84zM312 144l25 88h-53zM637 144l28 88h-53z" />
    <glyph glyph-name="uni20AA" unicode="&#x20aa;" horiz-adv-x="815" 
d="M96 0v654h239q94 0 152.5 -59t58.5 -147v-225h-87v225q0 51 -34.5 85t-89.5 34h-152v-567h-87zM480 0q-94 0 -152 59t-58 147v225h86v-225q0 -51 34.5 -85.5t89.5 -34.5h152v568h88v-654h-240z" />
    <glyph glyph-name="dong" unicode="&#x20ab;" horiz-adv-x="662" 
d="M626 667v-60h-91v-548h-87v74q-23 -39 -68.5 -61.5t-97.5 -22.5q-99 0 -166.5 68t-67.5 176q0 109 67 176t166 67q54 0 99 -21.5t68 -61.5v154h-154v60h154v55h87v-55h91zM289 131q65 0 112 45t47 118q0 72 -48.5 115.5t-110.5 43.5q-65 0 -109.5 -45t-44.5 -114t45 -116
t109 -47zM117 -61v59h378v-59h-378z" />
    <glyph glyph-name="Euro" unicode="&#x20ac;" horiz-adv-x="760" 
d="M505 405v-54h-466v54h104q28 112 114.5 183.5t203.5 71.5q142 0 249 -109l-58 -59q-87 85 -191 85q-80 0 -141 -48.5t-84 -123.5h269zM461 73q105 0 191 86l58 -59q-106 -109 -249 -109q-118 0 -204 71.5t-114 183.5h-104v53h466v-53h-270q24 -75 85 -124t141 -49z" />
    <glyph glyph-name="uni20AE" unicode="&#x20ae;" horiz-adv-x="578" 
d="M546 569h-210v-146l92 67v-61l-92 -67v-62l92 67v-61l-92 -67v-239h-91v172l-91 -67v61l91 67v62l-91 -67v61l91 67v213h-210v85h511v-85z" />
    <glyph glyph-name="uni20B1" unicode="&#x20b1;" horiz-adv-x="680" 
d="M645 527v-47h-79q3 -20 3 -40v-14h76v-47h-83q-16 -62 -65.5 -98t-132.5 -36h-154v-245h-91v379h-68v47h68v54h-68v47h68v127h245q144 0 191 -127h90zM210 569v-42h242q-32 42 -89 42h-153zM478 440q0 18 -5 40h-263v-54h267q1 5 1 14zM358 329q75 0 105 50h-253v-50h148
z" />
    <glyph glyph-name="uni20B4" unicode="&#x20b4;" horiz-adv-x="575" 
d="M426 407h82v-57h-438v57h245l37 32q31 28 45 46t14 38q0 22 -16.5 35t-43.5 13h-252v83h263q63 0 101.5 -32.5t38.5 -86.5q0 -9 -1 -17.5t-4 -16.5t-4.5 -13.5t-7.5 -14t-7.5 -11.5t-10 -12.5t-9.5 -10.5l-12 -12l-10 -11zM70 247v56h438v-56h-255l-37 -32
q-31 -28 -44.5 -46t-13.5 -39q0 -22 16.5 -35t42.5 -13h272v-82h-283q-63 0 -101.5 32.5t-38.5 86.5q0 9 1 17.5t4 16.5t4.5 13.5t7.5 14t7.5 11.5t10 12.5t9.5 10.5l12 12l10 11l10 9h-72z" />
    <glyph glyph-name="uni20BA" unicode="&#x20ba;" horiz-adv-x="584" 
d="M460 373h86v-53q0 -146 -75 -233t-203 -87h-148v279l-67 -49v62l67 49v62l-67 -49v61l67 49v190h88v-125l119 87v-61l-119 -87v-62l119 87v-62l-119 -87v-258h60q90 0 141 62t51 172v53z" />
    <glyph glyph-name="uni20BD" unicode="&#x20bd;" horiz-adv-x="621" 
d="M380 260h-154v-67h245v-65h-245v-128h-91v128h-82v65h82v67h-82v76h82v318h245q103 0 154 -58t51 -146q0 -87 -50 -138.5t-155 -51.5zM379 569h-153v-225h148q120 0 120 106q0 51 -28.5 85t-86.5 34z" />
    <glyph glyph-name="uni2113" unicode="&#x2113;" horiz-adv-x="392" 
d="M206 189h-48v-31q0 -38 13 -55t48 -17h95v-86h-106q-137 0 -137 158v381q0 158 137 158q69 0 101.5 -43.5t32.5 -114.5v-190q0 -86 -28.5 -123t-107.5 -37zM208 615q-50 0 -50 -72v-282h41q32 0 43.5 17t11.5 49v216q0 72 -46 72z" />
    <glyph glyph-name="uni2116" unicode="&#x2116;" horiz-adv-x="959" 
d="M502 166v523h91v-689h-88l-318 525v-525h-91v689h90zM789 429q-54 0 -92.5 38.5t-38.5 91.5q0 54 38.5 92t92.5 38t92 -38t38 -92q0 -53 -38 -91.5t-92 -38.5zM789 624q-26 0 -45 -19t-19 -46q0 -26 19 -45.5t45 -19.5q27 0 46 19.5t19 45.5q0 27 -19 46t-46 19zM663 341
v46h252v-46h-252z" />
    <glyph glyph-name="uni2117" unicode="&#x2117;" horiz-adv-x="796" 
d="M397 697q146 0 248 -103.5t102 -250.5t-102 -250t-248 -103t-247.5 103t-101.5 250t101.5 250.5t247.5 103.5zM397 51q121 0 205.5 85t84.5 207t-84.5 208t-205.5 86q-120 0 -204.5 -86t-84.5 -208t84 -207t205 -85zM429 512q56 0 85 -34t29 -82q0 -45 -29 -80t-85 -35
h-68v-123h-67v354h135zM427 347q23 0 35 14t12 35t-11.5 35t-33.5 14h-68v-98h66z" />
    <glyph glyph-name="uni2120" unicode="&#x2120;" horiz-adv-x="972" 
d="M241 516q51 -15 83.5 -42.5t32.5 -78.5q0 -59 -44 -91.5t-107 -32.5t-103 33.5t-42 87.5h82q2 -22 19.5 -36t46.5 -14t48 13t19 35q0 35 -54 50l-51 15q-106 31 -106 118q0 54 41 88t102 34q59 0 97 -33t39 -89h-81q-2 49 -56 49q-27 0 -43 -13t-16 -34q0 -32 48 -46z
M909 276h-84l-30 260l-104 -214h-62l-105 215l-31 -261h-83l51 413h69l130 -276l129 276h69z" />
    <glyph glyph-name="trademark" unicode="&#x2122;" horiz-adv-x="946" 
d="M35 618v71h310v-71h-115v-342h-81v342h-114zM880 276h-85l-30 260l-103 -214h-63l-104 213l-31 -259h-84l52 413h68l131 -275l128 275h70z" />
    <glyph glyph-name="estimated" unicode="&#x212e;" horiz-adv-x="641" 
d="M324 -10q-119 0 -195 84.5t-76 205.5q0 123 75 206.5t200 83.5q124 0 198.5 -84.5t74.5 -206.5h-429v-193q66 -63 152 -63q76 0 123 33t87 94l31 -19q-44 -68 -99 -104.5t-142 -36.5zM172 312h309v163q-68 62 -153 62q-96 0 -156 -62v-163z" />
    <glyph glyph-name="oneeighth" unicode="&#x215b;" horiz-adv-x="774" 
d="M525 670h65l-450 -680h-66zM117 290v275l-90 -36v66l154 64h7v-369h-71zM676 200q27 -12 45 -37t18 -56q0 -48 -41.5 -80t-97.5 -32q-57 0 -98 32.5t-41 79.5q0 31 17.5 56t43.5 37q-36 27 -36 72q0 41 33.5 69t80.5 28q46 0 80.5 -28t34.5 -69q0 -48 -39 -72zM600 310
q-21 0 -35 -12t-14 -29q0 -18 13.5 -30.5t35.5 -12.5q21 0 35 12.5t14 30.5q0 17 -14 29t-35 12zM600 58q28 0 46.5 16.5t18.5 41.5q0 24 -18 40t-47 16q-30 0 -48 -16t-18 -40q0 -25 18.5 -41.5t47.5 -16.5z" />
    <glyph glyph-name="threeeighths" unicode="&#x215c;" horiz-adv-x="851" 
d="M602 670h65l-450 -680h-66zM284 392q0 -47 -39 -77t-100 -30q-78 0 -118 52l45 42q27 -30 68 -30q32 0 51 14.5t19 38.5q0 23 -17 37t-44 14h-36v51h17q30 0 47 15t16 36q-1 17 -16.5 27.5t-38.5 10.5q-43 0 -67 -31l-35 47q50 50 114 50q50 0 83.5 -27.5t33.5 -73.5
q0 -45 -52 -71q69 -25 69 -95zM753 200q27 -12 45 -37t18 -56q0 -48 -41.5 -80t-97.5 -32q-57 0 -98 32.5t-41 79.5q0 31 17.5 56t43.5 37q-36 27 -36 72q0 41 33.5 69t80.5 28q46 0 80.5 -28t34.5 -69q0 -48 -39 -72zM677 310q-21 0 -35 -12t-14 -29q0 -18 13.5 -30.5
t35.5 -12.5q21 0 35 12.5t14 30.5q0 17 -14 29t-35 12zM677 58q28 0 46.5 16.5t18.5 41.5q0 24 -18 40t-47 16q-30 0 -48 -16t-18 -40q0 -25 18.5 -41.5t47.5 -16.5z" />
    <glyph glyph-name="fiveeighths" unicode="&#x215d;" horiz-adv-x="864" 
d="M615 670h65l-450 -680h-66zM302 416q0 -59 -43.5 -95t-101.5 -36q-34 0 -70.5 17t-55.5 45l54 41q10 -16 31 -26t38 -10q34 0 54 18t20 48q0 27 -17.5 44t-47.5 17q-45 0 -83 -28l-40 21l33 183h204v-68h-144l-14 -65q27 15 67 15q50 0 83 -35t33 -86zM766 200
q27 -12 45 -37t18 -56q0 -48 -41.5 -80t-97.5 -32q-57 0 -98 32.5t-41 79.5q0 31 17.5 56t43.5 37q-36 27 -36 72q0 41 33.5 69t80.5 28q46 0 80.5 -28t34.5 -69q0 -48 -39 -72zM690 310q-21 0 -35 -12t-14 -29q0 -18 13.5 -30.5t35.5 -12.5q21 0 35 12.5t14 30.5
q0 17 -14 29t-35 12zM690 58q28 0 46.5 16.5t18.5 41.5q0 24 -18 40t-47 16q-30 0 -48 -16t-18 -40q0 -25 18.5 -41.5t47.5 -16.5z" />
    <glyph glyph-name="seveneighths" unicode="&#x215e;" horiz-adv-x="800" 
d="M557 670h65l-450 -680h-66zM156 290h-81l119 296h-156v68h260v-9zM702 200q27 -12 45 -37t18 -56q0 -48 -41.5 -80t-97.5 -32q-57 0 -98 32.5t-41 79.5q0 31 17.5 56t43.5 37q-36 27 -36 72q0 41 33.5 69t80.5 28q46 0 80.5 -28t34.5 -69q0 -48 -39 -72zM626 310
q-21 0 -35 -12t-14 -29q0 -18 13.5 -30.5t35.5 -12.5q21 0 35 12.5t14 30.5q0 17 -14 29t-35 12zM626 58q28 0 46.5 16.5t18.5 41.5q0 24 -18 40t-47 16q-30 0 -48 -16t-18 -40q0 -25 18.5 -41.5t47.5 -16.5z" />
    <glyph glyph-name="arrowleft" unicode="&#x2190;" horiz-adv-x="860" 
d="M816 387v-83h-622l169 -169l-58 -58l-269 270l269 270l58 -58l-172 -172h625z" />
    <glyph glyph-name="arrowup" unicode="&#x2191;" horiz-adv-x="595" 
d="M567 442l-58 -58l-172 172v-556h-82v554l-170 -170l-58 58l270 269z" />
    <glyph glyph-name="arrowright" unicode="&#x2192;" horiz-adv-x="860" 
d="M556 617l269 -270l-269 -270l-59 58l169 169h-621v83h624l-172 172z" />
    <glyph glyph-name="arrowdown" unicode="&#x2193;" horiz-adv-x="593" 
d="M508 294l58 -58l-270 -269l-270 269l58 58l170 -170v565h82v-567z" />
    <glyph glyph-name="arrowboth" unicode="&#x2194;" horiz-adv-x="1060" 
d="M758 633l269 -270l-269 -270l-58 58l173 172l-687 -1l173 -172l-58 -58l-269 270l268 271l58 -59l-168 -169l678 1l-168 169z" />
    <glyph glyph-name="arrowupdn" unicode="&#x2195;" horiz-adv-x="607" 
d="M343 22l172 172l58 -59l-270 -269l-270 269l58 59l170 -170v680l-170 -170l-58 58l270 270l270 -270l-58 -58l-172 172v-684z" />
    <glyph glyph-name="partialdiff" unicode="&#x2202;" 
d="M310 662q58 0 100 -24t64 -62t32.5 -89.5t9.5 -100t-8 -100.5q-20 -136 -95 -216t-186 -80q-87 0 -140 62.5t-40 151.5q12 87 79 151.5t152 64.5q39 0 79 -18t64 -53q12 102 -21 167.5t-105 65.5zM388 211q5 54 -30 88t-89 34q-52 -2 -90.5 -38.5t-45.5 -88.5
q-8 -56 23.5 -92t86.5 -36q54 2 95.5 39.5t49.5 93.5z" />
    <glyph glyph-name="emptyset" unicode="&#x2205;" horiz-adv-x="813" 
d="M760 660l-86 -86q82 -100 82 -229q0 -147 -101.5 -250.5t-248.5 -103.5q-132 0 -229 86l-85 -85l-37 39l85 85q-82 98 -82 229q0 148 101 251t247 103q134 0 231 -86l85 85zM119 345q0 -104 64 -186l410 410q-79 68 -187 68q-121 0 -204 -85t-83 -207zM696 345
q0 105 -65 186l-410 -410q77 -68 185 -68q122 0 206 85.5t84 206.5z" />
    <glyph glyph-name="product" unicode="&#x220f;" horiz-adv-x="712" 
d="M616 689v-849h-91v767h-338v-767h-91v849h520z" />
    <glyph glyph-name="summation" unicode="&#x2211;" horiz-adv-x="603" 
d="M564 689v-82h-400l215 -342l-216 -343h401v-82h-530v39l242 386l-242 385v39h530z" />
    <glyph glyph-name="minus" unicode="&#x2212;" horiz-adv-x="568" 
d="M70 224v80h428v-80h-428z" />
    <glyph glyph-name="radical" unicode="&#x221a;" horiz-adv-x="634" 
d="M554 853h93l-305 -1013h-87l-122 399h-138v74h209l95 -322z" />
    <glyph glyph-name="infinity" unicode="&#x221e;" horiz-adv-x="860" 
d="M637 468q73 0 121.5 -46t48.5 -123t-48.5 -122.5t-121.5 -45.5q-45 0 -80 17.5t-77 54.5l-50 45l-47 -45q-43 -37 -79 -54.5t-80 -17.5q-73 0 -121.5 45.5t-48.5 122.5t48.5 123t121.5 46q82 0 159 -72l47 -44l50 44q43 36 77.5 54t79.5 18zM236 214q48 0 93 42l46 43
l-54 50q-38 37 -85 37q-45 0 -72.5 -22t-27.5 -65q0 -42 27.5 -63.5t72.5 -21.5zM625 214q44 0 71 21.5t27 63.5q0 43 -27 65t-71 22q-50 0 -94 -43l-45 -44l45 -43q43 -42 94 -42z" />
    <glyph glyph-name="integral" unicode="&#x222b;" horiz-adv-x="355" 
d="M275 722h50v-82h-35q-108 0 -104 -112l72 -526q11 -70 -39.5 -116t-136.5 -46h-51v82h35q58 0 84.5 29.5t19.5 74.5l-71 490q-14 92 34 149t142 57z" />
    <glyph glyph-name="approxequal" unicode="&#x2248;" horiz-adv-x="688" 
d="M614 366q-26 -32 -66 -54.5t-84 -22.5q-21 0 -41.5 4t-32 8.5t-30.5 13t-25 10.5t-22.5 10t-27.5 12t-29 8t-35 4q-64 0 -117 -59l-35 51q27 32 68 54t85 22q20 0 40.5 -4.5t31.5 -8.5t30.5 -12.5t24.5 -10.5q6 -2 22.5 -10t27.5 -12t29 -8t35 -4q59 0 116 59zM619 169
q-26 -33 -67 -55.5t-85 -22.5q-20 0 -40.5 4.5t-31.5 8.5t-31 12.5t-24 10.5q-6 2 -23 10t-27.5 12t-28.5 8t-36 4q-62 0 -117 -59l-34 51q27 31 67.5 53.5t84.5 22.5q20 0 40.5 -4t32 -8.5t30.5 -13t25 -10.5q6 -3 22.5 -10.5t27.5 -11.5t28.5 -8t34.5 -4q65 0 117 58z" />
    <glyph glyph-name="notequal" unicode="&#x2260;" horiz-adv-x="602" 
d="M146 1l55 110h-130v84h171l56 110h-227v84h268l55 109h70l-55 -109h122v-84h-164l-56 -110h220v-84h-262l-55 -110h-68z" />
    <glyph glyph-name="lessequal" unicode="&#x2264;" horiz-adv-x="637" 
d="M562 139l-506 194v84l506 194v-94l-384 -142l384 -143v-93zM65 0v78h497v-78h-497z" />
    <glyph glyph-name="greaterequal" unicode="&#x2265;" horiz-adv-x="637" 
d="M75 139v93l384 143l-384 142v94l506 -194v-84zM75 0v78h497v-78h-497z" />
    <glyph glyph-name="filledbox" unicode="&#x25a0;" horiz-adv-x="698" 
d="M80 617h538v-538h-538v538z" />
    <glyph glyph-name="uni25A1" unicode="&#x25a1;" horiz-adv-x="636" 
d="M51 617h538v-538h-538v538zM122 546v-396h396v396h-396z" />
    <glyph glyph-name="triagup" unicode="&#x25b2;" horiz-adv-x="779" 
d="M80 69l309 535l310 -536z" />
    <glyph glyph-name="uni25B6" unicode="&#x25b6;" horiz-adv-x="696" 
d="M81 673l535 -309l-536 -311z" />
    <glyph glyph-name="triagdn" unicode="&#x25bc;" horiz-adv-x="779" 
d="M80 603l619 1l-310 -536z" />
    <glyph glyph-name="uni25C0" unicode="&#x25c0;" horiz-adv-x="696" 
d="M615 673l1 -620l-536 311z" />
    <glyph glyph-name="lozenge" unicode="&#x25ca;" horiz-adv-x="600" 
d="M284 710l223 -356l-223 -354h-20l-223 354l223 356h20zM420 354l-146 234l-146 -234l146 -234z" />
    <glyph glyph-name="circle" unicode="&#x25cb;" horiz-adv-x="694" 
d="M644 353q0 -123 -87 -210t-210 -87t-210 87t-87 210t87 210t210 87t210 -87t87 -210zM572 353q0 93 -66 159t-159 66t-159 -66.5t-66 -158.5q0 -93 66 -159t159 -66t159 66t66 159z" />
    <glyph glyph-name="uni2605" unicode="&#x2605;" horiz-adv-x="879" 
d="M584 250l90 -275l-235 170l-234 -170l89 275l-234 171h290l89 276l90 -276h290z" />
    <glyph glyph-name="uni2610" unicode="&#x2610;" horiz-adv-x="696" 
d="M348 -6q-124 0 -211 87t-87 211q0 123 87 210t211 87q123 0 210.5 -87.5t87.5 -209.5q0 -124 -87.5 -211t-210.5 -87zM348 69q94 0 158.5 64.5t64.5 158.5q0 93 -64.5 157.5t-158.5 64.5t-158.5 -64t-64.5 -158t64.5 -158.5t158.5 -64.5z" />
    <glyph glyph-name="uni2611" unicode="&#x2611;" horiz-adv-x="723" 
d="M685 654l-123 -185q59 -80 59 -177q0 -124 -87.5 -211t-210.5 -87t-210.5 87t-87.5 211q0 123 87.5 210t210.5 87q100 0 179 -60l109 166zM546 292q0 59 -28 110l-179 -270h-26l-158 220l63 56l106 -149l137 208q-60 47 -138 47q-94 0 -158.5 -64t-64.5 -158t64.5 -158.5
t158.5 -64.5t158.5 64.5t64.5 158.5z" />
    <glyph glyph-name="uni261C" unicode="&#x261c;" horiz-adv-x="992" 
d="M30 459q2 31 21.5 49t53.5 18l346 -1l-22 47q-14 25 -6.5 55t26.5 40q20 11 37 13.5t40 -8.5t47 -40l176 -217v34q0 17 12.5 30t30.5 13h85q17 0 30 -13.5t13 -29.5v-406q0 -16 -13 -29.5t-30 -13.5h-85q-18 0 -30.5 13t-12.5 30v46h-387q-41 5 -60 23t-16 44q3 18 16 30
q-70 9 -63 73q4 17 11 27q-68 20 -57 71q5 23 16 32l-104 2q-36 1 -56 18.5t-19 49.5zM108 433l284 -5q42 -1 62.5 -23.5t17.5 -56.5q-3 -28 -15 -36q58 -8 58 -63q0 -37 -30 -50q19 -5 24.5 -29t-2.5 -39l242 -1l1 221l-209 248q-3 3 -9 9.5t-9 9t-8 7t-8 6t-7.5 2.5
t-8.5 0.5t-9 -3.5q-15 -8 -16 -22t5.5 -27.5t21.5 -33.5l99 -138q5 -7 3.5 -15.5t-7.5 -11.5q-18 -13 -33 8l-67 87l-380 3q-30 0 -30 -24q0 -23 30 -23zM258 329h134q31 0 34 25q2 15 -9 25t-32 10l-115 -1q-41 0 -38 -35q2 -21 26 -24zM306 225l133 -2q32 0 32 27
q0 34 -33 34l-127 -2q-28 0 -31 -27q-1 -27 26 -30zM361 134l78 -2q34 -2 34 20q0 14 -7 19.5t-25 6.5l-85 3q-25 1 -25 -20q0 -13 5.5 -19.5t24.5 -7.5z" />
    <glyph glyph-name="uni261E" unicode="&#x261e;" horiz-adv-x="992" 
d="M962 459q1 -32 -19 -49.5t-56 -18.5l-104 -2q11 -9 16 -32q11 -51 -57 -71q7 -10 11 -27q7 -64 -63 -73q13 -12 16 -30q3 -26 -16 -44t-60 -23h-387v-46q0 -17 -12.5 -30t-30.5 -13h-85q-17 0 -30 13.5t-13 29.5v406q0 16 13 29.5t30 13.5h85q18 0 30.5 -13t12.5 -30v-34
l176 217q24 29 47 40t40 8.5t37 -13.5q19 -10 26.5 -40t-6.5 -55l-22 -47l346 1q34 0 53.5 -18t21.5 -49zM884 433q30 0 30 23q0 24 -30 24l-380 -3q-55 -70 -67 -87q-15 -21 -33 -8q-6 3 -7.5 11.5t3.5 15.5l99 138q15 20 21.5 33.5t5.5 27.5t-16 22q-5 3 -9 3.5t-8.5 -0.5
t-7.5 -2.5t-8 -6t-8 -7t-9 -9t-9 -9.5l-209 -248l1 -221l242 1q-8 15 -2.5 39t24.5 29q-30 13 -30 50q0 55 58 63q-12 8 -15 36q-3 34 17.5 56.5t62.5 23.5zM734 329q24 3 26 24q3 35 -38 35l-115 1q-21 0 -32 -10t-9 -25q3 -25 34 -25h134zM686 225q27 3 26 30
q-3 27 -31 27l-127 2q-33 0 -33 -34q0 -27 32 -27zM631 134q19 1 24.5 7.5t5.5 19.5q0 21 -25 20l-85 -3q-18 -1 -25 -6.5t-7 -19.5q0 -22 34 -20z" />
    <glyph glyph-name="diamond" unicode="&#x2666;" horiz-adv-x="645" 
d="M323 -25l-243 365l243 365l244 -365z" />
    <glyph glyph-name="uni267C" unicode="&#x267c;" horiz-adv-x="868" 
d="M434 -10q-146 0 -250 103.5t-104 250.5q0 146 104 250t250 104q147 0 250.5 -104t103.5 -250q0 -147 -103.5 -250.5t-250.5 -103.5zM353 405l71 125q9 9 15 -2l41 -69l-39 -24l129 1l63 112l-42 -25l-28 46q-8 13 -20.5 21t-20.5 10l-8 1l-162 1q-19 -2 -33 -10.5
t-19 -15.5l-4 -8l-57 -98zM509 61v49l54 1q15 0 28 7t19 14l5 6l81 140q8 17 8 33.5t-4 24.5l-4 8l-57 97l-113 -64l72 -126q2 -5 -0.5 -8t-8.5 -3l-81 -1v46l-64 -112zM302 110h113l-1 130h-144q-13 2 -6 14l40 71l40 -23l-66 111l-128 -1l42 -24l-26 -47q-7 -13 -8 -28
t2 -23l3 -8l81 -140q12 -16 26.5 -24t23.5 -8h8z" />
    <glyph glyph-name="uni2713" unicode="&#x2713;" horiz-adv-x="600" 
d="M617 695l74 -41l-346 -522h-26l-157 220l62 56l106 -149z" />
    <glyph glyph-name="uni2B24" unicode="&#x2b24;" horiz-adv-x="754" 
d="M674 353q0 -123 -87 -210t-210 -87t-210 87t-87 210t87 210t210 87t210 -87t87 -210z" />
    <glyph glyph-name="uniF6DD" unicode="&#xf6dd;" horiz-adv-x="1165" 
d="M557 474q0 -83 -44.5 -143.5t-135.5 -69.5l183 -261h-109l-180 260h-90v-260h-91v689h259q104 0 156 -63t52 -152zM181 605v-262h144q141 0 141 131q0 58 -31.5 94.5t-83.5 36.5h-170zM899 477q99 0 166.5 -68t67.5 -176q0 -109 -67 -176t-166 -67q-54 0 -99 21.5
t-68 61.5v-300h-87v694h87v-74q23 39 68.5 61.5t97.5 22.5zM892 72q65 0 109.5 45t44.5 115q0 69 -45 116t-109 47q-65 0 -112 -45t-47 -118q0 -72 48.5 -116t110.5 -44z" />
    <glyph glyph-name="centsuperior" unicode="&#xf6e0;" horiz-adv-x="305" 
d="M167 582q32 0 50 24l59 -34q-39 -50 -93 -56v-65h-35v65q-52 7 -86.5 43.5t-34.5 90.5t34.5 89.5t86.5 42.5v67h35v-67q54 -6 93 -56l-59 -33q-18 23 -50 23q-30 0 -48 -18.5t-18 -47.5t18 -48.5t48 -19.5z" />
    <glyph glyph-name="commasuperior" unicode="&#xf6e2;" horiz-adv-x="183" 
d="M55 424l-37 20q40 52 48 148h64q-2 -82 -75 -168z" />
    <glyph glyph-name="periodsuperior" unicode="&#xf6e8;" horiz-adv-x="165" 
d="M82 515q-18 0 -31 12.5t-13 30.5t13 30.5t31 12.5t31.5 -12.5t13.5 -30.5t-13.5 -30.5t-31.5 -12.5z" />
    <glyph glyph-name="uniF8FF" unicode="&#xf8ff;" horiz-adv-x="981" 
d="M80 0v700h821v-700h-821zM521 367q12 0 16 7h1l2 -6h8v73h-11v-19q0 -5 1 -9h-1q-5 8 -15 8t-16 -7q-5 -8 -5 -20t5 -20q6 -7 15 -7zM673 434q0 -3 1 -5q1 -1 5 -1t5 1q1 2 1 5t-1 5q-1 1 -5 1t-5 -1q-1 -2 -1 -5zM201 368l20 57h1q0 -4 -1 -10v-47h11v69h-16l-20 -55
l-19 55h-16v-69h10v33q0 16 -1 25h1l20 -58h10zM381 376q-4 0 -5 2q-2 1 -2 6v28h15v8h-15v12h-7l-4 -11l-8 -4v-5h8v-29q0 -16 15 -16h6q1 0 2.5 0.5t2.5 1.5v8q-2 -1 -8 -1zM298 394q0 11 -7 20q-6 7 -18 7t-19 -7q-6 -7 -6 -20q0 -8 3 -14q3 -7 9 -10q4 -3 13 -3
q12 0 18 7q7 9 7 20zM348 383q0 2 -2 6q-1 2 -4 5q-7 3 -10 4l-4 2t-3.5 2t-2.5 1q-2 2 -2 4q0 5 9 5q5 0 14 -3l4 8q-8 4 -18 4t-15 -4q-5 -3 -5 -10q0 -6 3 -9q3 -4 12 -7l8 -4q3 0 3 -2q2 -2 2 -4q0 -6 -11 -6q-5 0 -17 4v-9q6 -3 17 -3t16 4q6 5 6 12zM442 368v35
q0 10 -5 14q-4 4 -15 4q-6 0 -9 -1q-6 -2 -10 -4l4 -8q3 3 7 3q3 1 8 1q6 0 7 -2q2 -2 2 -8v-2l-9 -1q-13 0 -18 -4q-6 -5 -6 -12q0 -8 4 -12t12 -4t10 1q3 2 8 7l3 -7h7zM487 421q-6 0 -9 -3q-6 -4 -7 -7h-1l-1 9h-9v-52h11v27q0 5 4 11q5 5 11 5q3 0 5 -1l1 11h-5z
M589 367h10l8 3v9l-9 -3q-1 0 -3.5 -0.5t-4.5 -0.5q-8 0 -11 5q-4 3 -4 11h35v6q0 12 -6 18t-17 6t-17 -7q-7 -7 -7 -21q0 -12 7 -19t19 -7zM659 383q0 4 -1 6t-4 5q-7 3 -10 4l-10 5q-2 2 -2 4q0 5 9 5q5 0 14 -3l4 8q-8 4 -18 4t-15 -4q-5 -3 -5 -10q0 -6 3 -9q3 -4 12 -7
q1 0 2.5 -1l3 -2t2.5 -1q3 0 3 -2q1 -1 1 -4q0 -6 -10 -6q-5 0 -17 4v-9q6 -3 17 -3t16 4t5 12zM729 420h-1q-2 1 -3 1h-5q-10 0 -15 -5q-6 -4 -6 -13q0 -6 3 -9q3 -5 7 -6q-1 0 -5 -4q-2 -2 -2 -5l1 -4q1 -3 4 -3q-4 -1 -8 -5q-3 -3 -3 -8q0 -7 5 -11q8 -4 17 -4q13 0 21 5
q7 4 7 14q0 7 -4 11q-4 3 -14 3h-9q-2 0 -4 1h-2q-2 2 -2 3q0 3 4 5h5q10 0 15 4q6 4 6 13q0 1 -1 3v2l-2 4l9 2v6h-18zM805 402q0 19 -19 19q-4 0 -10 -2q-4 -1 -7 -6l-2 7h-9v-52h12v26q0 10 3 14t10 4q5 0 8 -3q2 -2 2 -9v-32h12v34zM685 420h-12v-52h12v52zM710 403
q0 5 3 8q1 3 7 3t7 -3q3 -3 3 -8q0 -10 -10 -10q-3 0 -7 2q-3 3 -3 8zM587 413q4 0 8 -4t4 -10h-24q0 7 4 10q4 4 8 4zM259 394q0 9 4 13q3 5 10 5q13 0 13 -18t-13 -18q-14 0 -14 18zM524 376q-6 0 -9 4t-3 14q0 8 3 13t9 5q7 0 10 -4q4 -4 4 -14v-2q0 -9 -4 -12
q-3 -4 -10 -4zM418 375q-4 0 -6 2q-2 1 -2 6q0 4 3 7q6 2 12 2l6 1v-5q0 -6 -3 -9q-4 -4 -10 -4zM706 359q0 5 2 7q4 2 8 2h8q7 0 9 -2q3 -2 3 -5q0 -4 -5 -6q-5 -3 -13 -3q-5 0 -9 2q-3 2 -3 5zM679 250q10 0 15 8h1l2 -7h8v74h-11v-19q0 -1 0.5 -4t0.5 -5q-6 7 -16 7
t-16 -7q-5 -8 -5 -20t5 -20q6 -7 16 -7zM185 311h21v9h-52v-9h20v-60h11v60zM431 280h26v9h-26v22h28v9h-39v-69h11v29zM230 251l-2 -5q-3 -9 -11 -9h-6v-8q3 -1 7 -1q15 0 21 16l22 60h-12q-3 -10 -5.5 -18t-4.5 -13l-2 -5q-1 -2 -1 -6h-1q0 6 -3 12l-11 30h-12zM298 250
q8 0 15 7q6 7 6 20q0 14 -6 20q-4 7 -15 7t-16 -8l-2 8h-9v-76h11v29q6 -7 16 -7zM357 250q6 0 9 1q5 0 8 3v9q-4 -3 -8 -3q-3 -1 -9 -1q-7 0 -11 4q-4 6 -4 12h35v6q0 11 -6 17t-16 6q-12 0 -18 -7t-6 -20t6 -20q7 -7 20 -7zM519 277q0 13 -7 20q-6 7 -18 7t-18 -7
q-7 -6 -7 -20q0 -8 3 -14q3 -5 9 -10q6 -3 13 -3q11 0 18 7t7 20zM579 251v53h-11v-27q0 -9 -3 -14q-4 -4 -10 -4q-5 0 -8 3t-3 9v33h-11v-35q0 -9 5 -14t14 -5q4 0 10 2q5 4 7 6l2 -7h8zM643 285q0 19 -18 19q-7 0 -10 -2q-3 -1 -7 -5l-2 7h-9v-53h11v26q0 8 4 14q3 4 10 4
q5 0 8 -3q2 -4 2 -9v-32h11v34zM750 304q-6 0 -9 -2t-7 -8l-2 10h-9v-53h11v27q0 7 5 12q3 4 10 4h5l1 10h-5zM780 251l-2 -5q-3 -9 -11 -9h-6v-8q3 -1 7 -1q15 0 21 16l22 60h-12q-2 -8 -4.5 -14.5t-4 -10.5t-2.5 -7t-1 -4q-1 -2 -1 -6h-1q0 6 -3 12l-11 30h-12zM355 296
q5 0 8 -3q3 -5 3 -10h-24q2 6 4 10q3 3 9 3zM295 295q6 0 9 -4q3 -5 3 -14t-3 -13q-3 -5 -9 -5q-7 0 -10 5q-3 3 -3 13v2q0 9 3 12q3 4 10 4zM481 277q0 9 3 14q3 4 10 4q13 0 13 -18t-13 -18t-13 18zM682 259q-7 0 -10 5q-3 4 -3 13q0 8 3 14q4 4 9 4q7 0 11 -4q3 -5 3 -14
v-1q0 -8 -3 -13q-4 -4 -10 -4z" />
    <glyph glyph-name="IJ.alt" horiz-adv-x="678" 
d="M96 0v689h91v-689h-91zM377 -10q-22 0 -73 11l9 85q24 -8 64 -8q63 0 92.5 37.5t29.5 97.5v476h91v-476q0 -98 -52 -160.5t-161 -62.5z" />
    <glyph glyph-name="J.alt" horiz-adv-x="391" 
d="M90 -10q-21 0 -74 11l9 85q24 -8 65 -8q62 0 91.5 37.5t29.5 97.5v476h91v-476q0 -98 -51.5 -160.5t-160.5 -62.5z" />
    <glyph glyph-name="Jcircumflex.alt" horiz-adv-x="391" 
d="M100 757l111 154h90l110 -154h-79l-77 89l-75 -89h-80zM90 -10q-21 0 -74 11l9 85q24 -8 65 -8q62 0 91.5 37.5t29.5 97.5v476h91v-476q0 -98 -51.5 -160.5t-160.5 -62.5z" />
    <glyph glyph-name="W.alt" horiz-adv-x="911" 
d="M793 689h97l-211 -689h-79l-144 506l-145 -506h-78l-212 689h97l153 -537l148 512h74l147 -512z" />
    <glyph glyph-name="Wacute.alt" horiz-adv-x="911" 
d="M625 911l-118 -154h-84l97 154h105zM793 689h97l-211 -689h-79l-144 506l-145 -506h-78l-212 689h97l153 -537l148 512h74l147 -512z" />
    <glyph glyph-name="Wcircumflex.alt" horiz-adv-x="911" 
d="M456 846l-75 -89h-80l110 154h91l110 -154h-79zM793 689h97l-211 -689h-79l-144 506l-145 -506h-78l-212 689h97l153 -537l148 512h74l147 -512z" />
    <glyph glyph-name="Wdieresis.alt" horiz-adv-x="911" 
d="M362 769q-25 0 -42.5 16.5t-17.5 41.5q0 24 17.5 40.5t42.5 16.5t42.5 -16.5t17.5 -40.5q0 -25 -17.5 -41.5t-42.5 -16.5zM551 769q-25 0 -43 17t-18 41t18 40.5t43 16.5t42.5 -16.5t17.5 -40.5q0 -25 -17.5 -41.5t-42.5 -16.5zM793 689h97l-211 -689h-79l-144 506
l-145 -506h-78l-212 689h97l153 -537l148 512h74l147 -512z" />
    <glyph glyph-name="Wgrave.alt" horiz-adv-x="911" 
d="M495 757h-84l-118 154h106zM793 689h97l-211 -689h-79l-144 506l-145 -506h-78l-212 689h97l153 -537l148 512h74l147 -512z" />
    <glyph glyph-name="A.c2sc" 
d="M458 0l-55 142h-244l-55 -142h-94l223 564h96l223 -564h-94zM188 219h186l-93 241z" />
    <glyph glyph-name="Aacute.c2sc" 
d="M427 754l-104 -131h-74l83 131h95zM458 0l-55 142h-244l-55 -142h-94l223 564h96l223 -564h-94zM188 219h186l-93 241z" />
    <glyph glyph-name="Abreve.c2sc" 
d="M281 636q-56 0 -84 30.5t-28 74.5h63q0 -22 12.5 -35t36.5 -13q22 0 34.5 14t12.5 34h64q0 -48 -30.5 -76.5t-80.5 -28.5zM458 0l-55 142h-244l-55 -142h-94l223 564h96l223 -564h-94zM188 219h186l-93 241z" />
    <glyph glyph-name="uni01CD.c2sc" 
d="M325 623h-88l-95 131h72l66 -74l68 74h71zM458 0l-55 142h-244l-55 -142h-94l223 564h96l223 -564h-94zM188 219h186l-93 241z" />
    <glyph glyph-name="Acircumflex.c2sc" 
d="M280 697l-66 -74h-72l95 131h88l94 -131h-71zM458 0l-55 142h-244l-55 -142h-94l223 564h96l223 -564h-94zM188 219h186l-93 241z" />
    <glyph glyph-name="Adieresis.c2sc" 
d="M198 637q-22 0 -38 14t-16 35t16 35t38 14t37.5 -14t15.5 -35t-15.5 -35t-37.5 -14zM364 637q-23 0 -38.5 14t-15.5 35t15.5 35t38.5 14q22 0 37.5 -14t15.5 -35t-15.5 -35t-37.5 -14zM458 0l-55 142h-244l-55 -142h-94l223 564h96l223 -564h-94zM188 219h186l-93 241z
" />
    <glyph glyph-name="Agrave.c2sc" 
d="M317 623h-74l-105 131h96zM458 0l-55 142h-244l-55 -142h-94l223 564h96l223 -564h-94zM188 219h186l-93 241z" />
    <glyph glyph-name="Amacron.c2sc" 
d="M391 720v-63h-220v63h220zM458 0l-55 142h-244l-55 -142h-94l223 564h96l223 -564h-94zM188 219h186l-93 241z" />
    <glyph glyph-name="Aogonek.c2sc" 
d="M531 -78h53q0 -42 -25 -66.5t-65 -24.5q-37 0 -61 23t-24 59q0 18 8 36l33 71l-47 122h-244l-55 -142h-94l223 564h96l223 -564h-58l-29 -71q-3 -7 -3 -16q0 -14 9 -23.5t23 -9.5q16 0 26.5 12t10.5 30zM188 219h186l-93 241z" />
    <glyph glyph-name="Aring.c2sc" 
d="M280 620q-39 0 -65.5 25.5t-26.5 63.5t26.5 64t65.5 26t66.5 -26.5t27.5 -63.5t-27.5 -63t-66.5 -26zM280 756q-20 0 -33.5 -14t-13.5 -33t13.5 -32t33.5 -13t34.5 13t14.5 32t-14.5 33t-34.5 14zM458 0l-55 142h-244l-55 -142h-94l223 564h96l223 -564h-94zM188 219h186
l-93 241z" />
    <glyph glyph-name="Aringacute.c2sc" 
d="M280 620q-39 0 -65.5 25.5t-26.5 63.5q0 59 56 83l41 70h96l-60 -72q53 -26 53 -81q0 -37 -27.5 -63t-66.5 -26zM280 664q20 0 34.5 13t14.5 32t-14.5 33t-34.5 14t-33.5 -14t-13.5 -33t13.5 -32t33.5 -13zM458 0l-55 142h-244l-55 -142h-94l223 564h96l223 -564h-94z
M188 219h186l-93 241z" />
    <glyph glyph-name="Atilde.c2sc" 
d="M243 674q-9 0 -16.5 -9t-8.5 -27h-52q3 50 25.5 73t51.5 23q21 0 45 -17t31 -17q8 0 15.5 8t8.5 26h53q-3 -49 -25.5 -72t-51.5 -23q-20 0 -43.5 17.5t-32.5 17.5zM458 0l-55 142h-244l-55 -142h-94l223 564h96l223 -564h-94zM188 219h186l-93 241z" />
    <glyph glyph-name="AE.c2sc" horiz-adv-x="807" 
d="M481 80h274v-80h-362v139h-216l-83 -139h-103l342 564h413v-80h-265v-167h232v-79h-232v-158zM226 220h167v263h-9z" />
    <glyph glyph-name="AEacute.c2sc" horiz-adv-x="807" 
d="M545 754l-104 -131h-74l82 131h96zM481 80h274v-80h-362v139h-216l-83 -139h-103l342 564h413v-80h-265v-167h232v-79h-232v-158zM226 220h167v263h-9z" />
    <glyph glyph-name="B.c2sc" horiz-adv-x="561" 
d="M401 301q51 -10 80 -51t29 -91q0 -64 -47 -111.5t-129 -47.5h-245v564h225q76 0 120.5 -39.5t44.5 -104.5q0 -39 -18.5 -72t-59.5 -47zM312 484h-134v-151h136q36 0 56 21t20 56q0 33 -20.5 53.5t-57.5 20.5zM317 80q49 0 76.5 25.5t27.5 62.5q0 36 -26.5 62.5
t-74.5 26.5h-142v-177h139z" />
    <glyph glyph-name="C.c2sc" horiz-adv-x="611" 
d="M349 -8q-126 0 -213.5 85t-87.5 205t87.5 204t213.5 84q140 0 227 -103l-66 -53q-62 73 -160 73q-89 0 -150.5 -60t-61.5 -145q0 -86 61.5 -146.5t150.5 -60.5q97 0 160 73l66 -52q-86 -104 -227 -104z" />
    <glyph glyph-name="Cacute.c2sc" horiz-adv-x="611" 
d="M271 623l83 131h95l-104 -131h-74zM349 -8q-126 0 -213.5 85t-87.5 205t87.5 204t213.5 84q140 0 227 -103l-66 -53q-62 73 -160 73q-89 0 -150.5 -60t-61.5 -145q0 -86 61.5 -146.5t150.5 -60.5q97 0 160 73l66 -52q-86 -104 -227 -104z" />
    <glyph glyph-name="Ccaron.c2sc" horiz-adv-x="611" 
d="M295 623l-95 131h70l67 -74l67 74h72l-95 -131h-86zM349 -8q-126 0 -213.5 85t-87.5 205t87.5 204t213.5 84q140 0 227 -103l-66 -53q-62 73 -160 73q-89 0 -150.5 -60t-61.5 -145q0 -86 61.5 -146.5t150.5 -60.5q97 0 160 73l66 -52q-86 -104 -227 -104z" />
    <glyph glyph-name="Ccedilla.c2sc" horiz-adv-x="611" 
d="M350 75q97 0 160 73l66 -52q-78 -94 -202 -103l21 -44q9 -20 9 -36q0 -36 -24.5 -59t-61.5 -23q-40 0 -64.5 24.5t-24.5 66.5h52q0 -18 10 -30t26 -12q15 0 24 9t9 24q0 9 -3 16l-26 64q-116 11 -194.5 93.5t-78.5 195.5q0 120 87.5 204t213.5 84q140 0 227 -103l-66 -53
q-62 73 -160 73q-89 0 -150.5 -60t-61.5 -145q0 -86 61.5 -146.5t150.5 -60.5z" />
    <glyph glyph-name="Cdotaccent.c2sc" horiz-adv-x="611" 
d="M343 633q-23 0 -39 15t-16 37t16 36.5t39 14.5t39.5 -14.5t16.5 -36.5t-16.5 -37t-39.5 -15zM349 -8q-126 0 -213.5 85t-87.5 205t87.5 204t213.5 84q140 0 227 -103l-66 -53q-62 73 -160 73q-89 0 -150.5 -60t-61.5 -145q0 -86 61.5 -146.5t150.5 -60.5q97 0 160 73
l66 -52q-86 -104 -227 -104z" />
    <glyph glyph-name="D.c2sc" horiz-adv-x="637" 
d="M89 0v564h230q124 0 195 -79.5t71 -203.5q0 -123 -71 -202t-195 -79h-230zM178 80h141q84 0 130.5 57t46.5 144t-46.5 145t-130.5 58h-141v-404z" />
    <glyph glyph-name="Eth.c2sc" horiz-adv-x="642" 
d="M323 564q124 0 195.5 -80t71.5 -203t-71.5 -202t-195.5 -79h-230v249h-65v65h65v250h230zM323 80q84 0 130.5 57t46.5 144q0 88 -46.5 145.5t-130.5 57.5h-141v-170h136v-65h-136v-169h141z" />
    <glyph glyph-name="Dcaron.c2sc" horiz-adv-x="637" 
d="M241 623l-95 131h71l67 -74l67 74h72l-95 -131h-87zM89 0v564h230q124 0 195 -79.5t71 -203.5q0 -123 -71 -202t-195 -79h-230zM178 80h141q84 0 130.5 57t46.5 144t-46.5 145t-130.5 58h-141v-404z" />
    <glyph glyph-name="Dcroat.c2sc" horiz-adv-x="642" 
d="M323 564q124 0 195.5 -80t71.5 -203t-71.5 -202t-195.5 -79h-230v249h-65v65h65v250h230zM323 80q84 0 130.5 57t46.5 144q0 88 -46.5 145.5t-130.5 57.5h-141v-170h136v-65h-136v-169h141z" />
    <glyph glyph-name="E.c2sc" horiz-adv-x="505" 
d="M177 80h275v-80h-363v564h355v-80h-267v-166h233v-81h-233v-157z" />
    <glyph glyph-name="Eacute.c2sc" horiz-adv-x="505" 
d="M400 754l-105 -131h-74l83 131h96zM177 80h275v-80h-363v564h355v-80h-267v-166h233v-81h-233v-157z" />
    <glyph glyph-name="Ecaron.c2sc" horiz-adv-x="505" 
d="M297 623h-87l-94 131h71l67 -74l66 74h71zM177 80h275v-80h-363v564h355v-80h-267v-166h233v-81h-233v-157z" />
    <glyph glyph-name="Ecircumflex.c2sc" horiz-adv-x="505" 
d="M254 697l-67 -74h-71l94 131h87l94 -131h-71zM177 80h275v-80h-363v564h355v-80h-267v-166h233v-81h-233v-157z" />
    <glyph glyph-name="Edieresis.c2sc" horiz-adv-x="505" 
d="M171 637q-23 0 -38.5 14t-15.5 35t15.5 35t38.5 14q22 0 37.5 -14t15.5 -35t-15.5 -35t-37.5 -14zM336 637q-22 0 -37.5 14t-15.5 35t15.5 35t37.5 14q23 0 38.5 -14t15.5 -35t-15.5 -35t-38.5 -14zM177 80h275v-80h-363v564h355v-80h-267v-166h233v-81h-233v-157z" />
    <glyph glyph-name="Edotaccent.c2sc" horiz-adv-x="505" 
d="M254 633q-23 0 -39 15t-16 37t16 36.5t39 14.5t39 -14.5t16 -36.5t-16 -37t-39 -15zM177 80h275v-80h-363v564h355v-80h-267v-166h233v-81h-233v-157z" />
    <glyph glyph-name="Egrave.c2sc" horiz-adv-x="505" 
d="M290 623h-74l-104 131h95zM177 80h275v-80h-363v564h355v-80h-267v-166h233v-81h-233v-157z" />
    <glyph glyph-name="Emacron.c2sc" horiz-adv-x="505" 
d="M365 720v-63h-222v63h222zM177 80h275v-80h-363v564h355v-80h-267v-166h233v-81h-233v-157z" />
    <glyph glyph-name="Eogonek.c2sc" horiz-adv-x="505" 
d="M358 0l-29 -71q-2 -5 -2 -16q0 -15 8.5 -24t23.5 -9q16 0 26 12t11 30h52q0 -42 -24.5 -66.5t-64.5 -24.5q-37 0 -61.5 23t-24.5 59q0 19 9 36l25 51h-218v564h355v-80h-267v-166h233v-81h-233v-157h275v-80h-94z" />
    <glyph glyph-name="F.c2sc" horiz-adv-x="475" 
d="M439 484h-261v-167h207v-80h-207v-237h-89v564h350v-80z" />
    <glyph glyph-name="G.c2sc" horiz-adv-x="666" 
d="M349 -8q-126 0 -213.5 84.5t-87.5 204.5t87.5 205t213.5 85q120 0 204 -79l-62 -58q-62 54 -142 54q-89 0 -150 -60.5t-61 -146.5q0 -85 61 -146.5t150 -61.5q72 0 121.5 33.5t61.5 91.5q1 5 1 14h-171v75h269q-1 -147 -76 -221t-206 -74z" />
    <glyph glyph-name="Gbreve.c2sc" horiz-adv-x="666" 
d="M333 636q-56 0 -84 30.5t-28 74.5h63q0 -22 12.5 -35t36.5 -13q22 0 34.5 14t12.5 34h64q0 -48 -30.5 -76.5t-80.5 -28.5zM349 -8q-126 0 -213.5 84.5t-87.5 204.5t87.5 205t213.5 85q120 0 204 -79l-62 -58q-62 54 -142 54q-89 0 -150 -60.5t-61 -146.5q0 -85 61 -146.5
t150 -61.5q72 0 121.5 33.5t61.5 91.5q1 5 1 14h-171v75h269q-1 -147 -76 -221t-206 -74z" />
    <glyph glyph-name="Gcommaaccent.c2sc" horiz-adv-x="666" 
d="M349 -8q-126 0 -213.5 84.5t-87.5 204.5t87.5 205t213.5 85q120 0 204 -79l-62 -58q-62 54 -142 54q-89 0 -150 -60.5t-61 -146.5q0 -85 61 -146.5t150 -61.5q72 0 121.5 33.5t61.5 91.5q1 5 1 14h-171v75h269q-1 -147 -76 -221t-206 -74zM303 -191l-49 19q47 57 40 139
h83q1 -102 -74 -158z" />
    <glyph glyph-name="Gdotaccent.c2sc" horiz-adv-x="666" 
d="M333 633q-23 0 -39.5 15t-16.5 37q0 21 16.5 36t39.5 15t39.5 -14.5t16.5 -36.5t-16.5 -37t-39.5 -15zM349 -8q-126 0 -213.5 84.5t-87.5 204.5t87.5 205t213.5 85q120 0 204 -79l-62 -58q-62 54 -142 54q-89 0 -150 -60.5t-61 -146.5q0 -85 61 -146.5t150 -61.5
q72 0 121.5 33.5t61.5 91.5q1 5 1 14h-171v75h269q-1 -147 -76 -221t-206 -74z" />
    <glyph glyph-name="H.c2sc" horiz-adv-x="628" 
d="M450 564h89v-564h-89v240h-272v-240h-89v564h89v-244h272v244z" />
    <glyph glyph-name="Hbar.c2sc" horiz-adv-x="632" 
d="M601 467v-53h-60v-414h-89v240h-272v-240h-89v414h-59v53h59v97h89v-97h272v97h89v-97h60zM452 320v94h-272v-94h272z" />
    <glyph glyph-name="I.c2sc" horiz-adv-x="266" 
d="M89 0v564h89v-564h-89z" />
    <glyph glyph-name="IJ.c2sc" horiz-adv-x="512" 
d="M89 0v564h89v-564h-89zM239 -192q-27 0 -69 11l9 81q19 -6 60 -6q49 0 72.5 27.5t23.5 72.5v570h89v-570q0 -82 -45 -134t-140 -52z" />
    <glyph glyph-name="Iacute.c2sc" horiz-adv-x="266" 
d="M101 623l83 131h95l-104 -131h-74zM89 0v564h89v-564h-89z" />
    <glyph glyph-name="uni01CF.c2sc" horiz-adv-x="266" 
d="M89 623l-95 131h71l67 -74l67 74h72l-95 -131h-87zM89 0v564h89v-564h-89z" />
    <glyph glyph-name="Icircumflex.c2sc" horiz-adv-x="266" 
d="M-6 623l95 131h87l95 -131h-72l-67 74l-67 -74h-71zM89 0v564h89v-564h-89z" />
    <glyph glyph-name="Idieresis.c2sc" horiz-adv-x="266" 
d="M50 637q-22 0 -38 14t-16 35t16 35t38 14q23 0 38 -14t15 -35t-15 -35t-38 -14zM216 637q-23 0 -39 14t-16 35t16 35t39 14q22 0 37.5 -14t15.5 -35t-15.5 -35t-37.5 -14zM89 0v564h89v-564h-89z" />
    <glyph glyph-name="Idotaccent.c2sc" horiz-adv-x="266" 
d="M133 633q-23 0 -39 15t-16 37t16 36.5t39 14.5t39.5 -14.5t16.5 -36.5t-16.5 -37t-39.5 -15zM89 0v564h89v-564h-89z" />
    <glyph glyph-name="Igrave.c2sc" horiz-adv-x="266" 
d="M95 623l-104 131h95l83 -131h-74zM89 0v564h89v-564h-89z" />
    <glyph glyph-name="Imacron.c2sc" horiz-adv-x="266" 
d="M23 657v63h221v-63h-221zM89 0v564h89v-564h-89z" />
    <glyph glyph-name="Iogonek.c2sc" horiz-adv-x="266" 
d="M174 -78h52q0 -42 -25 -66.5t-65 -24.5q-37 0 -61 23t-24 59q0 19 9 36l29 60v555h89v-564h-42l-29 -71q-3 -8 -3 -16q0 -14 9 -23.5t23 -9.5q16 0 26.5 12t11.5 30z" />
    <glyph glyph-name="Itilde.c2sc" horiz-adv-x="266" 
d="M18 638q3 50 25 73t51 23q21 0 45.5 -17t31.5 -17q9 0 16.5 8t8.5 26h52q-2 -49 -25 -72t-52 -23q-20 0 -44 17.5t-33 17.5q-7 0 -14.5 -9t-8.5 -27h-53zM89 0v564h89v-564h-89z" />
    <glyph glyph-name="J.c2sc" horiz-adv-x="274" 
d="M1 -192q-27 0 -69 11l9 81q19 -6 60 -6q49 0 72.5 27.5t23.5 72.5v570h89v-570q0 -82 -45 -134t-140 -52z" />
    <glyph glyph-name="Jcircumflex.c2sc" horiz-adv-x="274" 
d="M2 623l95 131h87l95 -131h-71l-68 74l-66 -74h-72zM1 -192q-27 0 -69 11l9 81q19 -6 60 -6q49 0 72.5 27.5t23.5 72.5v570h89v-570q0 -82 -45 -134t-140 -52z" />
    <glyph glyph-name="K.c2sc" horiz-adv-x="517" 
d="M520 0h-121l-222 225v-225h-88v564h88v-227l185 227h110l-229 -283z" />
    <glyph glyph-name="Kcommaaccent.c2sc" horiz-adv-x="517" 
d="M243 281l277 -281h-121l-222 225v-225h-88v564h88v-227l185 227h110zM222 -33h82q1 -103 -73 -158l-50 19q48 58 41 139z" />
    <glyph glyph-name="L.c2sc" horiz-adv-x="443" 
d="M89 0v564h89v-484h238v-80h-327z" />
    <glyph glyph-name="Lacute.c2sc" horiz-adv-x="443" 
d="M91 623l83 131h95l-104 -131h-74zM89 0v564h89v-484h238v-80h-327z" />
    <glyph glyph-name="Lcaron.c2sc" horiz-adv-x="445" 
d="M89 0v564h89v-484h238v-80h-327zM293 397l-49 20q26 35 36 66.5t6 80.5h79q-2 -109 -72 -167z" />
    <glyph glyph-name="Lcommaaccent.c2sc" horiz-adv-x="443" 
d="M89 0v564h89v-484h238v-80h-327zM195 -191l-50 19q47 57 40 139h83q0 -104 -73 -158z" />
    <glyph glyph-name="Lslash.c2sc" horiz-adv-x="446" 
d="M181 80h238v-80h-327v207l-58 -36v62l58 35v296h89v-242l89 54v-60l-89 -55v-181z" />
    <glyph glyph-name="M.c2sc" horiz-adv-x="820" 
d="M765 0h-88l-51 400l-177 -337h-75l-178 338l-51 -401h-89l73 564h78l204 -401l203 401h79z" />
    <glyph glyph-name="N.c2sc" horiz-adv-x="608" 
d="M430 564h89v-564h-84l-257 402v-402h-89v564h86l255 -398v398z" />
    <glyph glyph-name="Nacute.c2sc" horiz-adv-x="608" 
d="M450 754l-104 -131h-74l83 131h95zM430 564h89v-564h-84l-257 402v-402h-89v564h86l255 -398v398z" />
    <glyph glyph-name="Ncaron.c2sc" horiz-adv-x="608" 
d="M347 623h-87l-95 131h72l66 -74l68 74h71zM430 564h89v-564h-84l-257 402v-402h-89v564h86l255 -398v398z" />
    <glyph glyph-name="Ncommaaccent.c2sc" horiz-adv-x="608" 
d="M430 564h89v-564h-84l-257 402v-402h-89v564h86l255 -398v398zM225 -172q47 57 39 139h84q0 -103 -74 -158z" />
    <glyph glyph-name="Eng.c2sc" horiz-adv-x="608" 
d="M430 564h89v-566q0 -83 -45 -134.5t-140 -51.5q-29 0 -69 10l9 82q19 -6 60 -6q50 0 73.5 28t22.5 72v14l-252 390v-402h-89v564h86l255 -398v398z" />
    <glyph glyph-name="Ntilde.c2sc" horiz-adv-x="608" 
d="M265 674q-8 0 -15.5 -9t-8.5 -27h-52q3 50 25 73t51 23q21 0 46 -17t31 -17q8 0 15.5 8t8.5 26h53q-3 -49 -25.5 -72t-51.5 -23q-20 0 -44 17.5t-33 17.5zM430 564h89v-564h-84l-257 402v-402h-89v564h86l255 -398v398z" />
    <glyph glyph-name="O.c2sc" horiz-adv-x="699" 
d="M349 -8q-126 0 -213 84.5t-87 205.5q0 120 87 204.5t213 84.5t213.5 -84.5t87.5 -204.5t-87.5 -205t-213.5 -85zM349 75q90 0 150.5 60t60.5 147q0 85 -61 145.5t-150 60.5t-149.5 -60t-60.5 -146q0 -87 60.5 -147t149.5 -60z" />
    <glyph glyph-name="Oacute.c2sc" horiz-adv-x="699" 
d="M318 623l82 131h96l-104 -131h-74zM349 -8q-126 0 -213 84.5t-87 205.5q0 120 87 204.5t213 84.5t213.5 -84.5t87.5 -204.5t-87.5 -205t-213.5 -85zM349 75q90 0 150.5 60t60.5 147q0 85 -61 145.5t-150 60.5t-149.5 -60t-60.5 -146q0 -87 60.5 -147t149.5 -60z" />
    <glyph glyph-name="uni01D1.c2sc" horiz-adv-x="699" 
d="M305 623l-94 131h71l67 -74l67 74h72l-95 -131h-88zM349 -8q-126 0 -213 84.5t-87 205.5q0 120 87 204.5t213 84.5t213.5 -84.5t87.5 -204.5t-87.5 -205t-213.5 -85zM349 75q90 0 150.5 60t60.5 147q0 85 -61 145.5t-150 60.5t-149.5 -60t-60.5 -146q0 -87 60.5 -147
t149.5 -60z" />
    <glyph glyph-name="Ocircumflex.c2sc" horiz-adv-x="699" 
d="M211 623l94 131h88l95 -131h-72l-67 74l-67 -74h-71zM349 -8q-126 0 -213 84.5t-87 205.5q0 120 87 204.5t213 84.5t213.5 -84.5t87.5 -204.5t-87.5 -205t-213.5 -85zM349 75q90 0 150.5 60t60.5 147q0 85 -61 145.5t-150 60.5t-149.5 -60t-60.5 -146q0 -87 60.5 -147
t149.5 -60z" />
    <glyph glyph-name="Odieresis.c2sc" horiz-adv-x="699" 
d="M267 637q-22 0 -38 14t-16 35t16 35t38 14q21 0 37 -14t16 -35t-16 -35t-37 -14zM432 637q-22 0 -38 14t-16 35t16 35t38 14t38 -14t16 -35t-16 -35t-38 -14zM349 -8q-126 0 -213 84.5t-87 205.5q0 120 87 204.5t213 84.5t213.5 -84.5t87.5 -204.5t-87.5 -205t-213.5 -85
zM349 75q90 0 150.5 60t60.5 147q0 85 -61 145.5t-150 60.5t-149.5 -60t-60.5 -146q0 -87 60.5 -147t149.5 -60z" />
    <glyph glyph-name="Ograve.c2sc" horiz-adv-x="699" 
d="M311 623l-104 131h95l83 -131h-74zM349 -8q-126 0 -213 84.5t-87 205.5q0 120 87 204.5t213 84.5t213.5 -84.5t87.5 -204.5t-87.5 -205t-213.5 -85zM349 75q90 0 150.5 60t60.5 147q0 85 -61 145.5t-150 60.5t-149.5 -60t-60.5 -146q0 -87 60.5 -147t149.5 -60z" />
    <glyph glyph-name="Ohungarumlaut.c2sc" horiz-adv-x="699" 
d="M260 623l73 131h74l-79 -131h-68zM377 623l80 131h77l-90 -131h-67zM349 -8q-126 0 -213 84.5t-87 205.5q0 120 87 204.5t213 84.5t213.5 -84.5t87.5 -204.5t-87.5 -205t-213.5 -85zM349 75q90 0 150.5 60t60.5 147q0 85 -61 145.5t-150 60.5t-149.5 -60t-60.5 -146
q0 -87 60.5 -147t149.5 -60z" />
    <glyph glyph-name="Omacron.c2sc" horiz-adv-x="699" 
d="M239 657v63h221v-63h-221zM349 -8q-126 0 -213 84.5t-87 205.5q0 120 87 204.5t213 84.5t213.5 -84.5t87.5 -204.5t-87.5 -205t-213.5 -85zM349 75q90 0 150.5 60t60.5 147q0 85 -61 145.5t-150 60.5t-149.5 -60t-60.5 -146q0 -87 60.5 -147t149.5 -60z" />
    <glyph glyph-name="Oslash.c2sc" horiz-adv-x="702" 
d="M581 469q71 -80 71 -187q0 -120 -87.5 -205t-213.5 -85q-109 0 -191 65l-68 -67l-39 36l69 67q-71 80 -71 189q0 120 87 204.5t213 84.5q108 0 192 -66l69 68l39 -36zM141 282q0 -72 43 -128l297 291q-56 43 -130 43q-89 0 -149.5 -60t-60.5 -146zM351 75q90 0 151 60
t61 147q0 71 -44 126l-297 -291q57 -42 129 -42z" />
    <glyph glyph-name="Oslashacute.c2sc" horiz-adv-x="702" 
d="M498 754l-105 -131h-74l83 131h96zM581 469q71 -80 71 -187q0 -120 -87.5 -205t-213.5 -85q-109 0 -191 65l-68 -67l-39 36l69 67q-71 80 -71 189q0 120 87 204.5t213 84.5q108 0 192 -66l69 68l39 -36zM141 282q0 -72 43 -128l297 291q-56 43 -130 43q-89 0 -149.5 -60
t-60.5 -146zM351 75q90 0 151 60t61 147q0 71 -44 126l-297 -291q57 -42 129 -42z" />
    <glyph glyph-name="Otilde.c2sc" horiz-adv-x="699" 
d="M235 638q3 50 25 73t51 23q21 0 45.5 -17t30.5 -17q9 0 16.5 8t7.5 26h53q-3 -49 -25.5 -72t-51.5 -23q-20 0 -43.5 17.5t-32.5 17.5q-8 0 -15.5 -9t-7.5 -27h-53zM349 -8q-126 0 -213 84.5t-87 205.5q0 120 87 204.5t213 84.5t213.5 -84.5t87.5 -204.5t-87.5 -205
t-213.5 -85zM349 75q90 0 150.5 60t60.5 147q0 85 -61 145.5t-150 60.5t-149.5 -60t-60.5 -146q0 -87 60.5 -147t149.5 -60z" />
    <glyph glyph-name="OE.c2sc" horiz-adv-x="978" 
d="M650 80h275v-80h-364v79q-81 -87 -212 -87q-126 0 -213 84.5t-87 205.5q0 120 87 204.5t213 84.5q131 0 212 -87v80h356v-80h-267v-166h233v-81h-233v-157zM349 75q90 0 150.5 60t60.5 147q0 85 -61 145.5t-150 60.5t-149.5 -60t-60.5 -146q0 -87 60.5 -147t149.5 -60z
" />
    <glyph glyph-name="P.c2sc" horiz-adv-x="543" 
d="M326 564q89 0 135 -52.5t46 -126.5t-46 -126t-135 -52h-148v-207h-89v564h237zM321 287q48 0 72.5 28.5t24.5 69.5q0 40 -24 69.5t-70 29.5h-146v-197h143z" />
    <glyph glyph-name="Thorn.c2sc" horiz-adv-x="526" 
d="M298 461q79 0 131.5 -48.5t52.5 -127.5q0 -81 -52.5 -131t-131.5 -50h-120v-104h-89v564h89v-103h120zM297 185q42 0 70 28t28 71q0 44 -29.5 70t-73.5 26h-114v-195h119z" />
    <glyph glyph-name="Q.c2sc" horiz-adv-x="699" 
d="M650 281q0 -76 -37 -140t-101 -103l60 -93l-66 -40l-65 101q-45 -14 -92 -14q-126 0 -213 84.5t-87 204.5q0 121 87 205.5t213 84.5t213.5 -85t87.5 -205zM349 75q15 0 45 4l-59 92l66 39l65 -101q44 28 69 73.5t25 98.5q0 86 -61 146.5t-150 60.5t-149.5 -60.5
t-60.5 -146.5t60.5 -146t149.5 -60z" />
    <glyph glyph-name="R.c2sc" horiz-adv-x="554" 
d="M396 0l-151 210h-67v-210h-89v564h227q91 0 137 -52t46 -127q0 -67 -38.5 -116t-115.5 -57l158 -212h-107zM178 484v-199h118q57 0 85.5 27t28.5 72q0 43 -26 71.5t-71 28.5h-135z" />
    <glyph glyph-name="Racute.c2sc" horiz-adv-x="554" 
d="M423 754l-104 -131h-74l83 131h95zM396 0l-151 210h-67v-210h-89v564h227q91 0 137 -52t46 -127q0 -67 -38.5 -116t-115.5 -57l158 -212h-107zM178 484v-199h118q57 0 85.5 27t28.5 72q0 43 -26 71.5t-71 28.5h-135z" />
    <glyph glyph-name="Rcaron.c2sc" horiz-adv-x="554" 
d="M320 623h-86l-95 131h72l66 -74l67 74h71zM396 0l-151 210h-67v-210h-89v564h227q91 0 137 -52t46 -127q0 -67 -38.5 -116t-115.5 -57l158 -212h-107zM178 484v-199h118q57 0 85.5 27t28.5 72q0 43 -26 71.5t-71 28.5h-135z" />
    <glyph glyph-name="Rcommaaccent.c2sc" horiz-adv-x="554" 
d="M345 212l158 -212h-107l-151 210h-67v-210h-89v564h227q91 0 137 -52t46 -127q0 -67 -38.5 -116t-115.5 -57zM178 484v-199h118q57 0 85.5 27t28.5 72q0 43 -26 71.5t-71 28.5h-135zM239 -33h82q1 -103 -73 -158l-50 19q46 57 41 139z" />
    <glyph glyph-name="S.c2sc" horiz-adv-x="511" 
d="M261 -8q-91 0 -149.5 50t-59.5 121h89q2 -37 35.5 -64t85.5 -27q51 0 82 24.5t31 59.5q0 59 -96 83l-75 19q-148 38 -148 150q0 72 58 117.5t139 45.5q82 0 136 -45t55 -121h-88q-1 38 -30.5 62t-74.5 24q-43 0 -74 -22.5t-31 -58.5q0 -51 81 -71l74 -18
q163 -40 163 -161q0 -73 -56.5 -120.5t-146.5 -47.5z" />
    <glyph glyph-name="Sacute.c2sc" horiz-adv-x="511" 
d="M224 623l83 131h95l-104 -131h-74zM261 -8q-91 0 -149.5 50t-59.5 121h89q2 -37 35.5 -64t85.5 -27q51 0 82 24.5t31 59.5q0 59 -96 83l-75 19q-148 38 -148 150q0 72 58 117.5t139 45.5q82 0 136 -45t55 -121h-88q-1 38 -30.5 62t-74.5 24q-43 0 -74 -22.5t-31 -58.5
q0 -51 81 -71l74 -18q163 -40 163 -161q0 -73 -56.5 -120.5t-146.5 -47.5z" />
    <glyph glyph-name="Scaron.c2sc" horiz-adv-x="511" 
d="M213 623l-95 131h71l67 -74l66 74h72l-95 -131h-86zM261 -8q-91 0 -149.5 50t-59.5 121h89q2 -37 35.5 -64t85.5 -27q51 0 82 24.5t31 59.5q0 59 -96 83l-75 19q-148 38 -148 150q0 72 58 117.5t139 45.5q82 0 136 -45t55 -121h-88q-1 38 -30.5 62t-74.5 24
q-43 0 -74 -22.5t-31 -58.5q0 -51 81 -71l74 -18q163 -40 163 -161q0 -73 -56.5 -120.5t-146.5 -47.5z" />
    <glyph glyph-name="Scedilla.c2sc" horiz-adv-x="511" 
d="M464 160q0 -65 -46 -110.5t-122 -55.5l22 -45q8 -18 8 -36q0 -36 -24 -59t-61 -23q-40 0 -65 24.5t-25 66.5h53q0 -18 10 -30t26 -12q15 0 24 9.5t9 23.5q0 9 -3 16l-26 64q-85 4 -138 53t-54 117h89q2 -37 35.5 -64t85.5 -27q51 0 82 24.5t31 59.5q0 59 -96 83l-75 19
q-148 38 -148 150q0 72 58 117.5t139 45.5q82 0 136 -45t55 -121h-88q-1 38 -30.5 62t-74.5 24q-43 0 -74 -22.5t-31 -58.5q0 -51 81 -71l74 -18q163 -40 163 -161z" />
    <glyph glyph-name="Scommaaccent.c2sc" horiz-adv-x="511" 
d="M261 -8q-91 0 -149.5 50t-59.5 121h89q2 -37 35.5 -64t85.5 -27q51 0 82 24.5t31 59.5q0 59 -96 83l-75 19q-148 38 -148 150q0 72 58 117.5t139 45.5q82 0 136 -45t55 -121h-88q-1 38 -30.5 62t-74.5 24q-43 0 -74 -22.5t-31 -58.5q0 -51 81 -71l74 -18
q163 -40 163 -161q0 -73 -56.5 -120.5t-146.5 -47.5zM227 -191l-51 19q46 57 41 139h83q0 -102 -73 -158z" />
    <glyph glyph-name="uni1E9E.c2sc" horiz-adv-x="605" 
d="M400 340q73 -14 115 -59t42 -107q0 -82 -57.5 -132t-150.5 -50q-52 -2 -93 12l14 76q28 -9 75 -9q56 0 89.5 29t33.5 79q0 44 -36.5 73t-94.5 29h-21l-12 54l86 146q-37 9 -84 9q-65 0 -99.5 -34.5t-34.5 -98.5v-357h-89v357q0 102 59 158t166 56q46 0 105.5 -11.5
t95.5 -27.5v-12z" />
    <glyph glyph-name="T.c2sc" horiz-adv-x="495" 
d="M468 564v-80h-176v-484h-89v484h-176v80h441z" />
    <glyph glyph-name="Tbar.c2sc" horiz-adv-x="509" 
d="M475 484h-176v-178h107v-53h-107v-253h-89v253h-107v53h107v178h-176v80h441v-80z" />
    <glyph glyph-name="Tcaron.c2sc" horiz-adv-x="495" 
d="M290 623h-86l-95 131h72l66 -74l67 74h71zM468 564v-80h-176v-484h-89v484h-176v80h441z" />
    <glyph glyph-name="uni0162.c2sc" horiz-adv-x="495" 
d="M468 484h-176v-466l33 -69q9 -20 9 -36q0 -36 -24.5 -59t-61.5 -23q-40 0 -64.5 24.5t-24.5 66.5h52q0 -18 10.5 -30t26.5 -12q15 0 23.5 9t8.5 24q0 6 -2 16l-29 71h-46v484h-176v80h441v-80z" />
    <glyph glyph-name="uni021A.c2sc" horiz-adv-x="495" 
d="M468 564v-80h-176v-484h-89v484h-176v80h441zM168 -172q47 57 40 139h83q0 -102 -73 -158z" />
    <glyph glyph-name="U.c2sc" horiz-adv-x="602" 
d="M302 -8q-92 0 -155.5 55.5t-63.5 148.5v368h89v-365q0 -60 37 -91t93 -31t92.5 31t36.5 91v365h89v-368q0 -93 -63.5 -148.5t-154.5 -55.5z" />
    <glyph glyph-name="Uacute.c2sc" horiz-adv-x="602" 
d="M270 623l81 131h96l-104 -131h-73zM302 -8q-92 0 -155.5 55.5t-63.5 148.5v368h89v-365q0 -60 37 -91t93 -31t92.5 31t36.5 91v365h89v-368q0 -93 -63.5 -148.5t-154.5 -55.5z" />
    <glyph glyph-name="uni01D3.c2sc" horiz-adv-x="602" 
d="M257 623l-94 131h71l67 -74l67 74h72l-95 -131h-88zM302 -8q-92 0 -155.5 55.5t-63.5 148.5v368h89v-365q0 -60 37 -91t93 -31t92.5 31t36.5 91v365h89v-368q0 -93 -63.5 -148.5t-154.5 -55.5z" />
    <glyph glyph-name="Ucircumflex.c2sc" horiz-adv-x="602" 
d="M163 623l94 131h88l95 -131h-72l-67 74l-67 -74h-71zM302 -8q-92 0 -155.5 55.5t-63.5 148.5v368h89v-365q0 -60 37 -91t93 -31t92.5 31t36.5 91v365h89v-368q0 -93 -63.5 -148.5t-154.5 -55.5z" />
    <glyph glyph-name="Udieresis.c2sc" horiz-adv-x="602" 
d="M219 637q-23 0 -38.5 14t-15.5 35t15.5 35t38.5 14q21 0 37 -14t16 -35t-16 -35t-37 -14zM384 637q-23 0 -38.5 14t-15.5 35t15.5 35t38.5 14q22 0 37.5 -14t15.5 -35t-15.5 -35t-37.5 -14zM302 -8q-92 0 -155.5 55.5t-63.5 148.5v368h89v-365q0 -60 37 -91t93 -31
t92.5 31t36.5 91v365h89v-368q0 -93 -63.5 -148.5t-154.5 -55.5z" />
    <glyph glyph-name="uni01D7.c2sc" horiz-adv-x="602" 
d="M270 768l81 131h96l-104 -131h-73zM219 637q-23 0 -38.5 14t-15.5 35t15.5 35t38.5 14q21 0 37 -14t16 -35t-16 -35t-37 -14zM384 637q-23 0 -38.5 14t-15.5 35t15.5 35t38.5 14q22 0 37.5 -14t15.5 -35t-15.5 -35t-37.5 -14zM302 -8q-92 0 -155.5 55.5t-63.5 148.5v368
h89v-365q0 -60 37 -91t93 -31t92.5 31t36.5 91v365h89v-368q0 -93 -63.5 -148.5t-154.5 -55.5z" />
    <glyph glyph-name="uni01D9.c2sc" horiz-adv-x="602" 
d="M257 768l-94 131h71l67 -74l67 74h72l-95 -131h-88zM219 637q-23 0 -38.5 14t-15.5 35t15.5 35t38.5 14q21 0 37 -14t16 -35t-16 -35t-37 -14zM384 637q-23 0 -38.5 14t-15.5 35t15.5 35t38.5 14q22 0 37.5 -14t15.5 -35t-15.5 -35t-37.5 -14zM302 -8q-92 0 -155.5 55.5
t-63.5 148.5v368h89v-365q0 -60 37 -91t93 -31t92.5 31t36.5 91v365h89v-368q0 -93 -63.5 -148.5t-154.5 -55.5z" />
    <glyph glyph-name="uni01DB.c2sc" horiz-adv-x="602" 
d="M263 768l-104 131h95l83 -131h-74zM219 637q-23 0 -38.5 14t-15.5 35t15.5 35t38.5 14q21 0 37 -14t16 -35t-16 -35t-37 -14zM384 637q-23 0 -38.5 14t-15.5 35t15.5 35t38.5 14q22 0 37.5 -14t15.5 -35t-15.5 -35t-37.5 -14zM302 -8q-92 0 -155.5 55.5t-63.5 148.5v368
h89v-365q0 -60 37 -91t93 -31t92.5 31t36.5 91v365h89v-368q0 -93 -63.5 -148.5t-154.5 -55.5z" />
    <glyph glyph-name="uni01D5.c2sc" horiz-adv-x="602" 
d="M190 792v63h222v-63h-222zM219 637q-23 0 -38.5 14t-15.5 35t15.5 35t38.5 14q21 0 37 -14t16 -35t-16 -35t-37 -14zM384 637q-23 0 -38.5 14t-15.5 35t15.5 35t38.5 14q22 0 37.5 -14t15.5 -35t-15.5 -35t-37.5 -14zM302 -8q-92 0 -155.5 55.5t-63.5 148.5v368h89v-365
q0 -60 37 -91t93 -31t92.5 31t36.5 91v365h89v-368q0 -93 -63.5 -148.5t-154.5 -55.5z" />
    <glyph glyph-name="Ugrave.c2sc" horiz-adv-x="602" 
d="M263 623l-104 131h95l83 -131h-74zM302 -8q-92 0 -155.5 55.5t-63.5 148.5v368h89v-365q0 -60 37 -91t93 -31t92.5 31t36.5 91v365h89v-368q0 -93 -63.5 -148.5t-154.5 -55.5z" />
    <glyph glyph-name="Uhungarumlaut.c2sc" horiz-adv-x="602" 
d="M212 623l73 131h74l-80 -131h-67zM329 623l80 131h77l-90 -131h-67zM302 -8q-92 0 -155.5 55.5t-63.5 148.5v368h89v-365q0 -60 37 -91t93 -31t92.5 31t36.5 91v365h89v-368q0 -93 -63.5 -148.5t-154.5 -55.5z" />
    <glyph glyph-name="Umacron.c2sc" horiz-adv-x="602" 
d="M190 657v63h222v-63h-222zM302 -8q-92 0 -155.5 55.5t-63.5 148.5v368h89v-365q0 -60 37 -91t93 -31t92.5 31t36.5 91v365h89v-368q0 -93 -63.5 -148.5t-154.5 -55.5z" />
    <glyph glyph-name="Uogonek.c2sc" horiz-adv-x="602" 
d="M431 564h89v-368q0 -87 -56.5 -142t-141.5 -61l-26 -64q-3 -7 -3 -16q0 -14 9.5 -23.5t23.5 -9.5q16 0 26.5 12t10.5 30h52q0 -42 -24.5 -66.5t-64.5 -24.5q-38 0 -61.5 22.5t-23.5 59.5q0 18 8 36l21 45q-81 9 -134 63.5t-53 138.5v368h89v-365q0 -60 37 -91t93 -31
t92.5 31t36.5 91v365z" />
    <glyph glyph-name="Uring.c2sc" horiz-adv-x="602" 
d="M300 620q-38 0 -65 26t-27 63t27 63.5t65 26.5q40 0 67.5 -26t27.5 -64q0 -37 -27.5 -63t-67.5 -26zM300 664q20 0 35 13t15 32t-15 33t-35 14q-19 0 -33 -14t-14 -33t14 -32t33 -13zM302 -8q-92 0 -155.5 55.5t-63.5 148.5v368h89v-365q0 -60 37 -91t93 -31t92.5 31
t36.5 91v365h89v-368q0 -93 -63.5 -148.5t-154.5 -55.5z" />
    <glyph glyph-name="V.c2sc" horiz-adv-x="499" 
d="M378 564h92l-179 -564h-83l-179 564h92l129 -418z" />
    <glyph glyph-name="W.c2sc" horiz-adv-x="794" 
d="M678 564h95l-200 -564h-75l-101 338l-101 -338h-75l-200 564h95l143 -415l103 337h71l102 -337z" />
    <glyph glyph-name="Wacute.c2sc" horiz-adv-x="794" 
d="M543 754l-104 -131h-74l83 131h95zM678 564h95l-200 -564h-75l-101 338l-101 -338h-75l-200 564h95l143 -415l103 337h71l102 -337z" />
    <glyph glyph-name="Wcircumflex.c2sc" horiz-adv-x="794" 
d="M397 697l-67 -74h-71l95 131h87l95 -131h-72zM678 564h95l-200 -564h-75l-101 338l-101 -338h-75l-200 564h95l143 -415l103 337h71l102 -337z" />
    <glyph glyph-name="Wdieresis.c2sc" horiz-adv-x="794" 
d="M315 637q-23 0 -38.5 14t-15.5 35t15.5 35t38.5 14q21 0 37 -14t16 -35t-16 -35t-37 -14zM480 637q-23 0 -38.5 14t-15.5 35t15.5 35t38.5 14q22 0 37.5 -14t15.5 -35t-15.5 -35t-37.5 -14zM678 564h95l-200 -564h-75l-101 338l-101 -338h-75l-200 564h95l143 -415
l103 337h71l102 -337z" />
    <glyph glyph-name="Wgrave.c2sc" horiz-adv-x="794" 
d="M433 623h-74l-104 131h96zM678 564h95l-200 -564h-75l-101 338l-101 -338h-75l-200 564h95l143 -415l103 337h71l102 -337z" />
    <glyph glyph-name="X.c2sc" horiz-adv-x="551" 
d="M536 0h-106l-154 230l-155 -230h-105l206 303l-184 261h107l131 -189l131 189h107l-185 -261z" />
    <glyph glyph-name="Y.c2sc" 
d="M448 564h106l-228 -306v-258h-90v259l-226 305h106l165 -225z" />
    <glyph glyph-name="Yacute.c2sc" 
d="M427 754l-104 -131h-74l82 131h96zM448 564h106l-228 -306v-258h-90v259l-226 305h106l165 -225z" />
    <glyph glyph-name="Ycircumflex.c2sc" 
d="M281 697l-67 -74h-71l94 131h87l95 -131h-72zM448 564h106l-228 -306v-258h-90v259l-226 305h106l165 -225z" />
    <glyph glyph-name="Ydieresis.c2sc" 
d="M199 637q-23 0 -38.5 14t-15.5 35t15.5 35t38.5 14q21 0 36.5 -14t15.5 -35t-15.5 -35t-36.5 -14zM363 637q-22 0 -37.5 14t-15.5 35t15.5 35t37.5 14q23 0 38.5 -14t15.5 -35t-15.5 -35t-38.5 -14zM448 564h106l-228 -306v-258h-90v259l-226 305h106l165 -225z" />
    <glyph glyph-name="Ygrave.c2sc" 
d="M317 623h-74l-104 131h95zM448 564h106l-228 -306v-258h-90v259l-226 305h106l165 -225z" />
    <glyph glyph-name="Z.c2sc" horiz-adv-x="512" 
d="M462 564v-71l-306 -413h306v-80h-417v71l304 413h-294v80h407z" />
    <glyph glyph-name="Zacute.c2sc" horiz-adv-x="512" 
d="M403 754l-105 -131h-73l82 131h96zM462 564v-71l-306 -413h306v-80h-417v71l304 413h-294v80h407z" />
    <glyph glyph-name="Zcaron.c2sc" horiz-adv-x="512" 
d="M300 623h-88l-94 131h71l67 -74l67 74h72zM462 564v-71l-306 -413h306v-80h-417v71l304 413h-294v80h407z" />
    <glyph glyph-name="Zdotaccent.c2sc" horiz-adv-x="512" 
d="M257 633q-23 0 -39.5 15t-16.5 37t16.5 36.5t39.5 14.5t39 -14.5t16 -36.5t-16 -37t-39 -15zM462 564v-71l-306 -413h306v-80h-417v71l304 413h-294v80h407z" />
    <glyph glyph-name="IJ.alt.c2sc" horiz-adv-x="616" 
d="M89 0v564h89v-564h-89zM347 -8q-27 0 -69 11l8 81q24 -7 61 -7q49 0 72.5 28t23.5 72v387h89v-387q0 -81 -45 -133t-140 -52z" />
    <glyph glyph-name="J.alt.c2sc" horiz-adv-x="359" 
d="M91 -8q-27 0 -69 11l9 81q22 -7 60 -7q49 0 72.5 28t23.5 72v387h89v-387q0 -81 -45 -133t-140 -52z" />
    <glyph glyph-name="Jcircumflex.alt.c2sc" horiz-adv-x="359" 
d="M92 623l96 131h86l95 -131h-71l-68 74l-66 -74h-72zM91 -8q-27 0 -69 11l9 81q22 -7 60 -7q49 0 72.5 28t23.5 72v387h89v-387q0 -81 -45 -133t-140 -52z" />
    <glyph glyph-name="W.alt.c2sc" horiz-adv-x="753" 
d="M628 564h96l-166 -563h-75l-106 389l-106 -389h-76l-166 563h96l109 -405l106 384h73l107 -382z" />
    <glyph glyph-name="Wacute.alt.c2sc" horiz-adv-x="753" 
d="M524 754l-104 -131h-74l82 131h96zM628 564h96l-166 -563h-75l-106 389l-106 -389h-76l-166 563h96l109 -405l106 384h73l107 -382z" />
    <glyph glyph-name="Wcircumflex.alt.c2sc" horiz-adv-x="753" 
d="M377 697l-67 -74h-71l95 131h87l95 -131h-72zM628 564h96l-166 -563h-75l-106 389l-106 -389h-76l-166 563h96l109 -405l106 384h73l107 -382z" />
    <glyph glyph-name="Wdieresis.alt.c2sc" horiz-adv-x="753" 
d="M295 637q-22 0 -37.5 14t-15.5 35t15.5 35t37.5 14t37.5 -14t15.5 -35t-15.5 -35t-37.5 -14zM460 637q-22 0 -38 14t-16 35t16 35t38 14q23 0 38.5 -14t15.5 -35t-15.5 -35t-38.5 -14zM628 564h96l-166 -563h-75l-106 389l-106 -389h-76l-166 563h96l109 -405l106 384h73
l107 -382z" />
    <glyph glyph-name="Wgrave.alt.c2sc" horiz-adv-x="753" 
d="M414 623h-74l-104 131h95zM628 564h96l-166 -563h-75l-106 389l-106 -389h-76l-166 563h96l109 -405l106 384h73l107 -382z" />
    <glyph glyph-name="i.loclTRK" horiz-adv-x="238" 
d="M119 547q-26 0 -44 16.5t-18 40.5q0 25 18 41.5t44 16.5t43.5 -16.5t17.5 -41.5t-17.5 -41t-43.5 -16zM76 0v467h87v-467h-87z" />
    <glyph glyph-name="a.alt" horiz-adv-x="552" 
d="M270 477q97 0 155 -53.5t58 -142.5v-281h-87v72q-24 -35 -72.5 -58.5t-104.5 -23.5q-82 0 -131.5 39.5t-49.5 103.5q0 67 53.5 107.5t142.5 40.5q94 0 162 -35v35q0 53 -34 84.5t-93 31.5q-51 0 -93.5 -16.5t-61.5 -41.5l-52 51q28 39 85 63t123 24zM222 69
q52 0 101 23.5t73 62.5v24q-63 33 -154 33q-56 0 -88.5 -21t-32.5 -56q0 -30 26.5 -48t74.5 -18z" />
    <glyph glyph-name="aacute.alt" horiz-adv-x="552" 
d="M435 689l-118 -154h-85l97 154h106zM270 477q97 0 155 -53.5t58 -142.5v-281h-87v72q-24 -35 -72.5 -58.5t-104.5 -23.5q-82 0 -131.5 39.5t-49.5 103.5q0 67 53.5 107.5t142.5 40.5q94 0 162 -35v35q0 53 -34 84.5t-93 31.5q-51 0 -93.5 -16.5t-61.5 -41.5l-52 51
q28 39 85 63t123 24zM222 69q52 0 101 23.5t73 62.5v24q-63 33 -154 33q-56 0 -88.5 -21t-32.5 -56q0 -30 26.5 -48t74.5 -18z" />
    <glyph glyph-name="abreve.alt" horiz-adv-x="552" 
d="M268 550q-65 0 -97 37t-32 91h71q0 -27 15.5 -44t42.5 -17q25 0 40.5 18.5t15.5 42.5h74q0 -59 -35.5 -93.5t-94.5 -34.5zM270 477q97 0 155 -53.5t58 -142.5v-281h-87v72q-24 -35 -72.5 -58.5t-104.5 -23.5q-82 0 -131.5 39.5t-49.5 103.5q0 67 53.5 107.5t142.5 40.5
q94 0 162 -35v35q0 53 -34 84.5t-93 31.5q-51 0 -93.5 -16.5t-61.5 -41.5l-52 51q28 39 85 63t123 24zM222 69q52 0 101 23.5t73 62.5v24q-63 33 -154 33q-56 0 -88.5 -21t-32.5 -56q0 -30 26.5 -48t74.5 -18z" />
    <glyph glyph-name="uni01CE.alt" horiz-adv-x="552" 
d="M314 535h-90l-110 154h79l75 -89l77 89h79zM270 477q97 0 155 -53.5t58 -142.5v-281h-87v72q-24 -35 -72.5 -58.5t-104.5 -23.5q-82 0 -131.5 39.5t-49.5 103.5q0 67 53.5 107.5t142.5 40.5q94 0 162 -35v35q0 53 -34 84.5t-93 31.5q-51 0 -93.5 -16.5t-61.5 -41.5
l-52 51q28 39 85 63t123 24zM222 69q52 0 101 23.5t73 62.5v24q-63 33 -154 33q-56 0 -88.5 -21t-32.5 -56q0 -30 26.5 -48t74.5 -18z" />
    <glyph glyph-name="acircumflex.alt" horiz-adv-x="552" 
d="M268 624l-76 -89h-79l110 154h90l111 -154h-80zM270 477q97 0 155 -53.5t58 -142.5v-281h-87v72q-24 -35 -72.5 -58.5t-104.5 -23.5q-82 0 -131.5 39.5t-49.5 103.5q0 67 53.5 107.5t142.5 40.5q94 0 162 -35v35q0 53 -34 84.5t-93 31.5q-51 0 -93.5 -16.5t-61.5 -41.5
l-52 51q28 39 85 63t123 24zM222 69q52 0 101 23.5t73 62.5v24q-63 33 -154 33q-56 0 -88.5 -21t-32.5 -56q0 -30 26.5 -48t74.5 -18z" />
    <glyph glyph-name="adieresis.alt" horiz-adv-x="552" 
d="M174 547q-26 0 -43.5 16.5t-17.5 41.5t17.5 41t43.5 16q24 0 41.5 -16.5t17.5 -40.5t-17.5 -41t-41.5 -17zM362 547q-25 0 -42.5 16.5t-17.5 41.5q0 24 17.5 40.5t42.5 16.5t43 -16.5t18 -40.5t-18 -41t-43 -17zM270 477q97 0 155 -53.5t58 -142.5v-281h-87v72
q-24 -35 -72.5 -58.5t-104.5 -23.5q-82 0 -131.5 39.5t-49.5 103.5q0 67 53.5 107.5t142.5 40.5q94 0 162 -35v35q0 53 -34 84.5t-93 31.5q-51 0 -93.5 -16.5t-61.5 -41.5l-52 51q28 39 85 63t123 24zM222 69q52 0 101 23.5t73 62.5v24q-63 33 -154 33q-56 0 -88.5 -21
t-32.5 -56q0 -30 26.5 -48t74.5 -18z" />
    <glyph glyph-name="agrave.alt" horiz-adv-x="552" 
d="M306 535h-84l-118 154h105zM270 477q97 0 155 -53.5t58 -142.5v-281h-87v72q-24 -35 -72.5 -58.5t-104.5 -23.5q-82 0 -131.5 39.5t-49.5 103.5q0 67 53.5 107.5t142.5 40.5q94 0 162 -35v35q0 53 -34 84.5t-93 31.5q-51 0 -93.5 -16.5t-61.5 -41.5l-52 51q28 39 85 63
t123 24zM222 69q52 0 101 23.5t73 62.5v24q-63 33 -154 33q-56 0 -88.5 -21t-32.5 -56q0 -30 26.5 -48t74.5 -18z" />
    <glyph glyph-name="amacron.alt" horiz-adv-x="552" 
d="M394 653v-77h-251v77h251zM270 477q97 0 155 -53.5t58 -142.5v-281h-87v72q-24 -35 -72.5 -58.5t-104.5 -23.5q-82 0 -131.5 39.5t-49.5 103.5q0 67 53.5 107.5t142.5 40.5q94 0 162 -35v35q0 53 -34 84.5t-93 31.5q-51 0 -93.5 -16.5t-61.5 -41.5l-52 51q28 39 85 63
t123 24zM222 69q52 0 101 23.5t73 62.5v24q-63 33 -154 33q-56 0 -88.5 -21t-32.5 -56q0 -30 26.5 -48t74.5 -18z" />
    <glyph glyph-name="aogonek.alt" horiz-adv-x="552" 
d="M502 -95h58q0 -49 -27.5 -79t-74.5 -30q-44 0 -71 27.5t-27 72.5q0 22 9 42l27 62v72q-26 -36 -74 -59t-103 -23q-82 0 -131.5 39.5t-49.5 103.5q0 67 53.5 107.5t142.5 40.5q92 0 162 -35v35q0 53 -34 84.5t-93 31.5q-51 0 -93.5 -16.5t-61.5 -41.5l-52 51q28 39 85 63
t123 24q97 0 155 -53.5t58 -142.5v-281h-29l-31 -87q-3 -8 -3 -17q0 -18 10 -29.5t28 -11.5t31 14t13 36zM222 69q52 0 101 24t73 63v22q-66 34 -154 34q-56 0 -88.5 -21t-32.5 -56q0 -30 26.5 -48t74.5 -18z" />
    <glyph glyph-name="aring.alt" horiz-adv-x="552" 
d="M266 534q-43 0 -73 30t-30 73q0 44 30 74.5t73 30.5q45 0 75.5 -30.5t30.5 -74.5t-30.5 -73.5t-75.5 -29.5zM266 690q-21 0 -36 -15.5t-15 -37.5t15 -37t36 -15q23 0 39 15t16 37t-16 37.5t-39 15.5zM270 477q97 0 155 -53.5t58 -142.5v-281h-87v72q-24 -35 -72.5 -58.5
t-104.5 -23.5q-82 0 -131.5 39.5t-49.5 103.5q0 67 53.5 107.5t142.5 40.5q94 0 162 -35v35q0 53 -34 84.5t-93 31.5q-51 0 -93.5 -16.5t-61.5 -41.5l-52 51q28 39 85 63t123 24zM222 69q52 0 101 23.5t73 62.5v24q-63 33 -154 33q-56 0 -88.5 -21t-32.5 -56q0 -30 26.5 -48
t74.5 -18z" />
    <glyph glyph-name="aringacute.alt" horiz-adv-x="552" 
d="M267 534q-43 0 -73 30t-30 73q0 40 25.5 69.5t63.5 34.5l46 73h106l-76 -92q44 -29 44 -85q0 -43 -31 -73t-75 -30zM267 690q-22 0 -37 -15.5t-15 -37.5t15 -37t37 -15q23 0 38.5 15t15.5 37t-15.5 37.5t-38.5 15.5zM270 477q97 0 155 -53.5t58 -142.5v-281h-87v72
q-24 -35 -72.5 -58.5t-104.5 -23.5q-82 0 -131.5 39.5t-49.5 103.5q0 67 53.5 107.5t142.5 40.5q94 0 162 -35v35q0 53 -34 84.5t-93 31.5q-51 0 -93.5 -16.5t-61.5 -41.5l-52 51q28 39 85 63t123 24zM222 69q52 0 101 23.5t73 62.5v24q-63 33 -154 33q-56 0 -88.5 -21
t-32.5 -56q0 -30 26.5 -48t74.5 -18z" />
    <glyph glyph-name="atilde.alt" horiz-adv-x="552" 
d="M223 596q-9 0 -17.5 -11t-9.5 -33h-60q3 60 28 87.5t59 27.5q25 0 53.5 -21t36.5 -21q10 0 18.5 10t9.5 31h60q-3 -59 -29 -85.5t-59 -26.5q-25 0 -52 21t-38 21zM270 477q97 0 155 -53.5t58 -142.5v-281h-87v72q-24 -35 -72.5 -58.5t-104.5 -23.5q-82 0 -131.5 39.5
t-49.5 103.5q0 67 53.5 107.5t142.5 40.5q94 0 162 -35v35q0 53 -34 84.5t-93 31.5q-51 0 -93.5 -16.5t-61.5 -41.5l-52 51q28 39 85 63t123 24zM222 69q52 0 101 23.5t73 62.5v24q-64 33 -154 33q-56 0 -88.5 -21t-32.5 -56q0 -30 26.5 -48t74.5 -18z" />
    <glyph glyph-name="l.alt" horiz-adv-x="287" 
d="M238 0q-165 0 -165 199v523h87v-522q0 -24 2.5 -42t10.5 -37t26.5 -29t45.5 -10h31v-82h-38z" />
    <glyph glyph-name="lacute.alt" horiz-adv-x="287" 
d="M80 757l97 154h106l-119 -154h-84zM238 0q-165 0 -165 199v523h87v-522q0 -24 2.5 -42t10.5 -37t26.5 -29t45.5 -10h31v-82h-38z" />
    <glyph glyph-name="lcaron.alt" horiz-adv-x="287" 
d="M238 0q-165 0 -165 199v523h87v-522q0 -24 2.5 -42t10.5 -37t26.5 -29t45.5 -10h31v-82h-38zM261 498l-56 18q30 42 40.5 78.5t4.5 94.5h88q1 -128 -77 -191z" />
    <glyph glyph-name="lcommaaccent.alt" horiz-adv-x="287" 
d="M238 0q-165 0 -165 199v523h87v-522q0 -24 2.5 -42t10.5 -37t26.5 -29t45.5 -10h31v-82h-38zM167 -233l-57 19q31 41 42 77.5t5 95.5h87q1 -129 -77 -192z" />
    <glyph glyph-name="lslash.alt" horiz-adv-x="349" 
d="M280 82h31v-82h-38q-165 0 -165 199v96l-70 -44v71l70 44v356h87v-302l102 64v-70l-102 -64v-150q0 -24 2.5 -42t10.5 -37t26.5 -29t45.5 -10z" />
    <glyph glyph-name="t.alt" horiz-adv-x="336" 
d="M272 0q-167 0 -167 199v193h-84v75h84v126l87 27v-153h99v-75h-99v-192q-2 -118 87 -118h27v-82h-34z" />
    <glyph glyph-name="tbar.alt" horiz-adv-x="349" 
d="M288 82h27v-82h-34q-167 0 -167 199v27h-58v59h58v107h-84v75h84v126l87 27v-153h99v-75h-99v-107h57v-59h-57v-26q0 -118 87 -118z" />
    <glyph glyph-name="tcaron.alt" horiz-adv-x="336" 
d="M335 498l-56 18q30 41 40.5 77.5t5.5 95.5h87q1 -128 -77 -191zM272 0q-167 0 -167 199v193h-84v75h84v126l87 27v-153h99v-75h-99v-192q-2 -118 87 -118h27v-82h-34z" />
    <glyph glyph-name="uni0163.alt" horiz-adv-x="336" 
d="M306 0h-34q-12 0 -17 1l27 -63q10 -22 10 -42q0 -45 -27.5 -72.5t-71.5 -27.5q-46 0 -74 30.5t-28 78.5h59q0 -22 13 -36t30 -14q18 0 28.5 11.5t10.5 29.5q0 10 -4 17l-36 102q-87 39 -87 184v193h-84v75h84v126l87 27v-153h99v-75h-99v-192q-2 -118 87 -118h27v-82z
" />
    <glyph glyph-name="uni021B.alt" horiz-adv-x="336" 
d="M272 0q-167 0 -167 199v193h-84v75h84v126l87 27v-153h99v-75h-99v-192q-2 -118 87 -118h27v-82h-34zM191 -233l-56 19q30 41 41 77.5t6 95.5h87q1 -128 -78 -192z" />
    <glyph glyph-name="y.alt" horiz-adv-x="501" 
d="M394 467h94l-229 -550q-37 -82 -77.5 -116t-111.5 -34q-30 0 -54 7v79q18 -5 52 -5q43 0 65 23.5t46 80.5l25 61l-187 454h94l141 -339z" />
    <glyph glyph-name="yacute.alt" horiz-adv-x="501" 
d="M422 689l-119 -154h-84l97 154h106zM394 467h94l-229 -550q-37 -82 -77.5 -116t-111.5 -34q-30 0 -54 7v79q18 -5 52 -5q43 0 65 23.5t46 80.5l25 61l-187 454h94l141 -339z" />
    <glyph glyph-name="ycircumflex.alt" horiz-adv-x="501" 
d="M252 624l-75 -89h-80l110 154h91l110 -154h-80zM394 467h94l-229 -550q-37 -82 -77.5 -116t-111.5 -34q-30 0 -54 7v79q18 -5 52 -5q43 0 65 23.5t46 80.5l25 61l-187 454h94l141 -339z" />
    <glyph glyph-name="ydieresis.alt" horiz-adv-x="501" 
d="M158 547q-26 0 -43.5 16.5t-17.5 41.5t17.5 41t43.5 16q24 0 41.5 -16.5t17.5 -40.5t-17.5 -41t-41.5 -17zM346 547q-25 0 -42.5 16.5t-17.5 41.5q0 24 17.5 40.5t42.5 16.5t43 -16.5t18 -40.5t-18 -41t-43 -17zM394 467h94l-229 -550q-37 -82 -77.5 -116t-111.5 -34
q-30 0 -54 7v79q18 -5 52 -5q43 0 65 23.5t46 80.5l25 61l-187 454h94l141 -339z" />
    <glyph glyph-name="ygrave.alt" horiz-adv-x="501" 
d="M291 535h-85l-118 154h106zM394 467h94l-229 -550q-37 -82 -77.5 -116t-111.5 -34q-30 0 -54 7v79q18 -5 52 -5q43 0 65 23.5t46 80.5l25 61l-187 454h94l141 -339z" />
    <glyph glyph-name="f_b" horiz-adv-x="947" 
d="M669 477q99 0 166 -67.5t67 -175.5t-68 -176t-166 -68q-52 0 -97.5 22.5t-68.5 61.5v-74h-87v640h-110q-106 0 -104 -112v-61h109v-75h-109v-392h-87v392h-90v75h90v49q0 96 43 151t133 55h212v-328q23 40 68 61.5t99 21.5zM661 72q64 0 108.5 47t44.5 116q0 70 -44 115
t-109 45q-62 0 -110.5 -44t-48.5 -116q0 -73 47 -118t112 -45z" />
    <glyph glyph-name="f_f_b" horiz-adv-x="1287" 
d="M1010 477q99 0 166 -67t67 -176q0 -108 -67.5 -176t-165.5 -68q-52 0 -98 22.5t-69 61.5v-74h-87v640h-109q-106 0 -104 -112v-61h109v-75h-109v-392h-87v392h-255v-392h-87v392h-90v75h90v49q0 96 43 151t133 55h50v-82h-35q-106 0 -104 -112v-61h255v49q0 96 42.5 151
t133.5 55h211v-328q23 40 68 61.5t99 21.5zM1002 72q64 0 109 47t45 116q0 70 -44.5 115t-109.5 45q-62 0 -110.5 -44t-48.5 -116q0 -73 47 -118t112 -45z" />
    <glyph glyph-name="f_f_j" horiz-adv-x="918" 
d="M842 467v-494q0 -200 -166 -200h-61v82h53q89 0 87 119v418h-212v-392h-87v392h-255v-392h-87v392h-90v75h90v49q0 96 43 151t133 55h50v-82h-35q-106 0 -104 -112v-61h255v49q0 96 42.5 151t133.5 55h28v-82h-13q-106 0 -104 -112v-61h299zM799 697q26 0 43.5 -16.5
t17.5 -41.5t-17.5 -41.5t-43.5 -16.5t-44 16.5t-18 41.5t18 41.5t44 16.5z" />
    <glyph glyph-name="f_f_k" horiz-adv-x="1164" 
d="M1173 0h-116l-216 229v-229h-87v640h-107q-106 0 -104 -112v-61h109v-75h-109v-392h-87v392h-255v-392h-87v392h-90v75h90v49q0 96 43 151t133 55h50v-82h-35q-106 0 -104 -112v-61h255v49q0 96 42.5 151t133.5 55h209v-420l163 165h120l-200 -202z" />
    <glyph glyph-name="f_j" horiz-adv-x="576" 
d="M501 467v-494q0 -200 -167 -200h-60v82h53q89 0 87 119v418h-213v-392h-87v392h-90v75h90v49q0 96 43 151t133 55h29v-82h-14q-106 0 -104 -112v-61h300zM457 697q26 0 44 -16.5t18 -41.5t-18 -41.5t-44 -16.5q-25 0 -43 17t-18 41t18 41t43 17z" />
    <glyph glyph-name="f_k" horiz-adv-x="823" 
d="M832 0h-117l-215 229v-229h-87v640h-108q-106 0 -104 -112v-61h109v-75h-109v-392h-87v392h-90v75h90v49q0 96 43 151t133 55h210v-420l162 165h121l-200 -202z" />
    <glyph glyph-name="f_b.c2sc" horiz-adv-x="1036" 
d="M89 0v564h350v-80h-261v-167h207v-80h-207v-237h-89zM876 301q51 -10 80 -51t29 -91q0 -64 -47 -111.5t-129 -47.5h-245v564h225q76 0 120.5 -39.5t44.5 -104.5q0 -39 -18.5 -72t-59.5 -47zM787 484h-134v-151h136q36 0 56 21t20 56q0 33 -20.5 53.5t-57.5 20.5zM792 80
q49 0 76.5 25.5t27.5 62.5q0 36 -26.5 62.5t-74.5 26.5h-142v-177h139z" />
    <glyph glyph-name="f_f.c2sc" horiz-adv-x="950" 
d="M89 0v564h350v-80h-261v-167h207v-80h-207v-237h-89zM914 484h-261v-167h207v-80h-207v-237h-89v564h350v-80z" />
    <glyph glyph-name="f_f_b.c2sc" horiz-adv-x="1511" 
d="M89 0v564h350v-80h-261v-167h207v-80h-207v-237h-89zM564 0v564h350v-80h-261v-167h207v-80h-207v-237h-89zM1351 301q51 -10 80 -51t29 -91q0 -64 -47 -111.5t-129 -47.5h-245v564h225q76 0 120.5 -39.5t44.5 -104.5q0 -39 -18.5 -72t-59.5 -47zM1262 484h-134v-151h136
q36 0 56 21t20 56q0 33 -20.5 53.5t-57.5 20.5zM1267 80q49 0 76.5 25.5t27.5 62.5q0 36 -26.5 62.5t-74.5 26.5h-142v-177h139z" />
    <glyph glyph-name="f_f_i.c2sc" horiz-adv-x="1216" 
d="M89 0v564h350v-80h-261v-167h207v-80h-207v-237h-89zM564 0v564h350v-80h-261v-167h207v-80h-207v-237h-89zM1039 564h89v-564h-89v564z" />
    <glyph glyph-name="f_f_j.c2sc" horiz-adv-x="1224" 
d="M89 0v564h350v-80h-261v-167h207v-80h-207v-237h-89zM653 484v-167h207v-80h-207v-237h-89v564h350v-80h-261zM1047 564h89v-570q0 -82 -45 -134t-140 -52q-27 0 -69 11l9 81q19 -6 60 -6q49 0 72.5 27.5t23.5 72.5v570z" />
    <glyph glyph-name="f_f_k.c2sc" horiz-adv-x="1467" 
d="M89 0v564h350v-80h-261v-167h207v-80h-207v-237h-89zM564 0v564h350v-80h-261v-167h207v-80h-207v-237h-89zM1470 0h-121l-222 225v-225h-88v564h88v-227l185 227h110l-229 -283z" />
    <glyph glyph-name="f_f_l.c2sc" horiz-adv-x="1393" 
d="M89 0v564h350v-80h-261v-167h207v-80h-207v-237h-89zM564 0v564h350v-80h-261v-167h207v-80h-207v-237h-89zM1128 80h238v-80h-327v564h89v-484z" />
    <glyph glyph-name="f_j.c2sc" horiz-adv-x="749" 
d="M178 484v-167h207v-80h-207v-237h-89v564h350v-80h-261zM572 564h89v-570q0 -82 -45 -134t-140 -52q-27 0 -69 11l9 81q19 -6 60 -6q49 0 72.5 27.5t23.5 72.5v570z" />
    <glyph glyph-name="f_k.c2sc" horiz-adv-x="992" 
d="M89 0v564h350v-80h-261v-167h207v-80h-207v-237h-89zM995 0h-121l-222 225v-225h-88v564h88v-227l185 227h110l-229 -283z" />
    <glyph glyph-name="fi.c2sc" horiz-adv-x="741" 
d="M89 0v564h350v-80h-261v-167h207v-80h-207v-237h-89zM564 564h89v-564h-89v564z" />
    <glyph glyph-name="fl.c2sc" horiz-adv-x="918" 
d="M89 0v564h350v-80h-261v-167h207v-80h-207v-237h-89zM653 80h238v-80h-327v564h89v-484z" />
    <glyph glyph-name="a.smcp" 
d="M458 0l-55 142h-244l-55 -142h-94l223 564h96l223 -564h-94zM188 219h186l-93 241z" />
    <glyph glyph-name="aacute.smcp" 
d="M427 754l-104 -131h-74l83 131h95zM458 0l-55 142h-244l-55 -142h-94l223 564h96l223 -564h-94zM188 219h186l-93 241z" />
    <glyph glyph-name="abreve.smcp" 
d="M281 636q-56 0 -84 30.5t-28 74.5h63q0 -22 12.5 -35t36.5 -13q22 0 34.5 14t12.5 34h64q0 -48 -30.5 -76.5t-80.5 -28.5zM458 0l-55 142h-244l-55 -142h-94l223 564h96l223 -564h-94zM188 219h186l-93 241z" />
    <glyph glyph-name="uni01CE.smcp" 
d="M325 623h-88l-95 131h72l66 -74l68 74h71zM458 0l-55 142h-244l-55 -142h-94l223 564h96l223 -564h-94zM188 219h186l-93 241z" />
    <glyph glyph-name="acircumflex.smcp" 
d="M280 697l-66 -74h-72l95 131h88l94 -131h-71zM458 0l-55 142h-244l-55 -142h-94l223 564h96l223 -564h-94zM188 219h186l-93 241z" />
    <glyph glyph-name="adieresis.smcp" 
d="M198 637q-22 0 -38 14t-16 35t16 35t38 14t37.5 -14t15.5 -35t-15.5 -35t-37.5 -14zM364 637q-23 0 -38.5 14t-15.5 35t15.5 35t38.5 14q22 0 37.5 -14t15.5 -35t-15.5 -35t-37.5 -14zM458 0l-55 142h-244l-55 -142h-94l223 564h96l223 -564h-94zM188 219h186l-93 241z
" />
    <glyph glyph-name="agrave.smcp" 
d="M317 623h-74l-105 131h96zM458 0l-55 142h-244l-55 -142h-94l223 564h96l223 -564h-94zM188 219h186l-93 241z" />
    <glyph glyph-name="ij.alt.smcp" horiz-adv-x="616" 
d="M89 0v564h89v-564h-89zM347 -8q-27 0 -69 11l8 81q24 -7 61 -7q49 0 72.5 28t23.5 72v387h89v-387q0 -81 -45 -133t-140 -52z" />
    <glyph glyph-name="j.alt.smcp" horiz-adv-x="359" 
d="M91 -8q-27 0 -69 11l9 81q22 -7 60 -7q49 0 72.5 28t23.5 72v387h89v-387q0 -81 -45 -133t-140 -52z" />
    <glyph glyph-name="jcircumflex.alt.smcp" horiz-adv-x="359" 
d="M92 623l96 131h86l95 -131h-71l-68 74l-66 -74h-72zM91 -8q-27 0 -69 11l9 81q22 -7 60 -7q49 0 72.5 28t23.5 72v387h89v-387q0 -81 -45 -133t-140 -52z" />
    <glyph glyph-name="w.alt.smcp" horiz-adv-x="753" 
d="M628 564h96l-166 -563h-75l-106 389l-106 -389h-76l-166 563h96l109 -405l106 384h73l107 -382z" />
    <glyph glyph-name="wacute.alt.smcp" horiz-adv-x="753" 
d="M524 754l-104 -131h-74l82 131h96zM628 564h96l-166 -563h-75l-106 389l-106 -389h-76l-166 563h96l109 -405l106 384h73l107 -382z" />
    <glyph glyph-name="wcircumflex.alt.smcp" horiz-adv-x="753" 
d="M377 697l-67 -74h-71l95 131h87l95 -131h-72zM628 564h96l-166 -563h-75l-106 389l-106 -389h-76l-166 563h96l109 -405l106 384h73l107 -382z" />
    <glyph glyph-name="wdieresis.alt.smcp" horiz-adv-x="753" 
d="M295 637q-22 0 -37.5 14t-15.5 35t15.5 35t37.5 14t37.5 -14t15.5 -35t-15.5 -35t-37.5 -14zM460 637q-22 0 -38 14t-16 35t16 35t38 14q23 0 38.5 -14t15.5 -35t-15.5 -35t-38.5 -14zM628 564h96l-166 -563h-75l-106 389l-106 -389h-76l-166 563h96l109 -405l106 384h73
l107 -382z" />
    <glyph glyph-name="wgrave.alt.smcp" horiz-adv-x="753" 
d="M414 623h-74l-104 131h95zM628 564h96l-166 -563h-75l-106 389l-106 -389h-76l-166 563h96l109 -405l106 384h73l107 -382z" />
    <glyph glyph-name="amacron.smcp" 
d="M391 720v-63h-220v63h220zM458 0l-55 142h-244l-55 -142h-94l223 564h96l223 -564h-94zM188 219h186l-93 241z" />
    <glyph glyph-name="aogonek.smcp" 
d="M531 -78h53q0 -42 -25 -66.5t-65 -24.5q-37 0 -61 23t-24 59q0 18 8 36l33 71l-47 122h-244l-55 -142h-94l223 564h96l223 -564h-58l-29 -71q-3 -7 -3 -16q0 -14 9 -23.5t23 -9.5q16 0 26.5 12t10.5 30zM188 219h186l-93 241z" />
    <glyph glyph-name="aring.smcp" 
d="M280 620q-39 0 -65.5 25.5t-26.5 63.5t26.5 64t65.5 26t66.5 -26.5t27.5 -63.5t-27.5 -63t-66.5 -26zM280 756q-20 0 -33.5 -14t-13.5 -33t13.5 -32t33.5 -13t34.5 13t14.5 32t-14.5 33t-34.5 14zM458 0l-55 142h-244l-55 -142h-94l223 564h96l223 -564h-94zM188 219h186
l-93 241z" />
    <glyph glyph-name="aringacute.smcp" 
d="M280 620q-39 0 -65.5 25.5t-26.5 63.5q0 59 56 83l41 70h96l-60 -72q53 -26 53 -81q0 -37 -27.5 -63t-66.5 -26zM280 664q20 0 34.5 13t14.5 32t-14.5 33t-34.5 14t-33.5 -14t-13.5 -33t13.5 -32t33.5 -13zM458 0l-55 142h-244l-55 -142h-94l223 564h96l223 -564h-94z
M188 219h186l-93 241z" />
    <glyph glyph-name="atilde.smcp" 
d="M243 674q-9 0 -16.5 -9t-8.5 -27h-52q3 50 25.5 73t51.5 23q21 0 45 -17t31 -17q8 0 15.5 8t8.5 26h53q-3 -49 -25.5 -72t-51.5 -23q-20 0 -43.5 17.5t-32.5 17.5zM458 0l-55 142h-244l-55 -142h-94l223 564h96l223 -564h-94zM188 219h186l-93 241z" />
    <glyph glyph-name="ae.smcp" horiz-adv-x="807" 
d="M481 80h274v-80h-362v139h-216l-83 -139h-103l342 564h413v-80h-265v-167h232v-79h-232v-158zM226 220h167v263h-9z" />
    <glyph glyph-name="aeacute.smcp" horiz-adv-x="807" 
d="M545 754l-104 -131h-74l82 131h96zM481 80h274v-80h-362v139h-216l-83 -139h-103l342 564h413v-80h-265v-167h232v-79h-232v-158zM226 220h167v263h-9z" />
    <glyph glyph-name="b.smcp" horiz-adv-x="561" 
d="M401 301q51 -10 80 -51t29 -91q0 -64 -47 -111.5t-129 -47.5h-245v564h225q76 0 120.5 -39.5t44.5 -104.5q0 -39 -18.5 -72t-59.5 -47zM312 484h-134v-151h136q36 0 56 21t20 56q0 33 -20.5 53.5t-57.5 20.5zM317 80q49 0 76.5 25.5t27.5 62.5q0 36 -26.5 62.5
t-74.5 26.5h-142v-177h139z" />
    <glyph glyph-name="c.smcp" horiz-adv-x="611" 
d="M349 -8q-126 0 -213.5 85t-87.5 205t87.5 204t213.5 84q140 0 227 -103l-66 -53q-62 73 -160 73q-89 0 -150.5 -60t-61.5 -145q0 -86 61.5 -146.5t150.5 -60.5q97 0 160 73l66 -52q-86 -104 -227 -104z" />
    <glyph glyph-name="cacute.smcp" horiz-adv-x="611" 
d="M271 623l83 131h95l-104 -131h-74zM349 -8q-126 0 -213.5 85t-87.5 205t87.5 204t213.5 84q140 0 227 -103l-66 -53q-62 73 -160 73q-89 0 -150.5 -60t-61.5 -145q0 -86 61.5 -146.5t150.5 -60.5q97 0 160 73l66 -52q-86 -104 -227 -104z" />
    <glyph glyph-name="ccaron.smcp" horiz-adv-x="611" 
d="M295 623l-95 131h70l67 -74l67 74h72l-95 -131h-86zM349 -8q-126 0 -213.5 85t-87.5 205t87.5 204t213.5 84q140 0 227 -103l-66 -53q-62 73 -160 73q-89 0 -150.5 -60t-61.5 -145q0 -86 61.5 -146.5t150.5 -60.5q97 0 160 73l66 -52q-86 -104 -227 -104z" />
    <glyph glyph-name="ccedilla.smcp" horiz-adv-x="611" 
d="M350 75q97 0 160 73l66 -52q-78 -94 -202 -103l21 -44q9 -20 9 -36q0 -36 -24.5 -59t-61.5 -23q-40 0 -64.5 24.5t-24.5 66.5h52q0 -18 10 -30t26 -12q15 0 24 9t9 24q0 9 -3 16l-26 64q-116 11 -194.5 93.5t-78.5 195.5q0 120 87.5 204t213.5 84q140 0 227 -103l-66 -53
q-62 73 -160 73q-89 0 -150.5 -60t-61.5 -145q0 -86 61.5 -146.5t150.5 -60.5z" />
    <glyph glyph-name="cdotaccent.smcp" horiz-adv-x="611" 
d="M343 633q-23 0 -39 15t-16 37t16 36.5t39 14.5t39.5 -14.5t16.5 -36.5t-16.5 -37t-39.5 -15zM349 -8q-126 0 -213.5 85t-87.5 205t87.5 204t213.5 84q140 0 227 -103l-66 -53q-62 73 -160 73q-89 0 -150.5 -60t-61.5 -145q0 -86 61.5 -146.5t150.5 -60.5q97 0 160 73
l66 -52q-86 -104 -227 -104z" />
    <glyph glyph-name="d.smcp" horiz-adv-x="637" 
d="M89 0v564h230q124 0 195 -79.5t71 -203.5q0 -123 -71 -202t-195 -79h-230zM178 80h141q84 0 130.5 57t46.5 144t-46.5 145t-130.5 58h-141v-404z" />
    <glyph glyph-name="eth.smcp" horiz-adv-x="642" 
d="M323 564q124 0 195.5 -80t71.5 -203t-71.5 -202t-195.5 -79h-230v249h-65v65h65v250h230zM323 80q84 0 130.5 57t46.5 144q0 88 -46.5 145.5t-130.5 57.5h-141v-170h136v-65h-136v-169h141z" />
    <glyph glyph-name="dcaron.smcp" horiz-adv-x="637" 
d="M241 623l-95 131h71l67 -74l67 74h72l-95 -131h-87zM89 0v564h230q124 0 195 -79.5t71 -203.5q0 -123 -71 -202t-195 -79h-230zM178 80h141q84 0 130.5 57t46.5 144t-46.5 145t-130.5 58h-141v-404z" />
    <glyph glyph-name="dcroat.smcp" horiz-adv-x="642" 
d="M323 564q124 0 195.5 -80t71.5 -203t-71.5 -202t-195.5 -79h-230v249h-65v65h65v250h230zM323 80q84 0 130.5 57t46.5 144q0 88 -46.5 145.5t-130.5 57.5h-141v-170h136v-65h-136v-169h141z" />
    <glyph glyph-name="e.smcp" horiz-adv-x="505" 
d="M177 80h275v-80h-363v564h355v-80h-267v-166h233v-81h-233v-157z" />
    <glyph glyph-name="eacute.smcp" horiz-adv-x="505" 
d="M400 754l-105 -131h-74l83 131h96zM177 80h275v-80h-363v564h355v-80h-267v-166h233v-81h-233v-157z" />
    <glyph glyph-name="ecaron.smcp" horiz-adv-x="505" 
d="M297 623h-87l-94 131h71l67 -74l66 74h71zM177 80h275v-80h-363v564h355v-80h-267v-166h233v-81h-233v-157z" />
    <glyph glyph-name="ecircumflex.smcp" horiz-adv-x="505" 
d="M254 697l-67 -74h-71l94 131h87l94 -131h-71zM177 80h275v-80h-363v564h355v-80h-267v-166h233v-81h-233v-157z" />
    <glyph glyph-name="edieresis.smcp" horiz-adv-x="505" 
d="M171 637q-23 0 -38.5 14t-15.5 35t15.5 35t38.5 14q22 0 37.5 -14t15.5 -35t-15.5 -35t-37.5 -14zM336 637q-22 0 -37.5 14t-15.5 35t15.5 35t37.5 14q23 0 38.5 -14t15.5 -35t-15.5 -35t-38.5 -14zM177 80h275v-80h-363v564h355v-80h-267v-166h233v-81h-233v-157z" />
    <glyph glyph-name="edotaccent.smcp" horiz-adv-x="505" 
d="M254 633q-23 0 -39 15t-16 37t16 36.5t39 14.5t39 -14.5t16 -36.5t-16 -37t-39 -15zM177 80h275v-80h-363v564h355v-80h-267v-166h233v-81h-233v-157z" />
    <glyph glyph-name="egrave.smcp" horiz-adv-x="505" 
d="M290 623h-74l-104 131h95zM177 80h275v-80h-363v564h355v-80h-267v-166h233v-81h-233v-157z" />
    <glyph glyph-name="emacron.smcp" horiz-adv-x="505" 
d="M365 720v-63h-222v63h222zM177 80h275v-80h-363v564h355v-80h-267v-166h233v-81h-233v-157z" />
    <glyph glyph-name="eogonek.smcp" horiz-adv-x="505" 
d="M358 0l-29 -71q-2 -5 -2 -16q0 -15 8.5 -24t23.5 -9q16 0 26 12t11 30h52q0 -42 -24.5 -66.5t-64.5 -24.5q-37 0 -61.5 23t-24.5 59q0 19 9 36l25 51h-218v564h355v-80h-267v-166h233v-81h-233v-157h275v-80h-94z" />
    <glyph glyph-name="f.smcp" horiz-adv-x="475" 
d="M439 484h-261v-167h207v-80h-207v-237h-89v564h350v-80z" />
    <glyph glyph-name="g.smcp" horiz-adv-x="666" 
d="M349 -8q-126 0 -213.5 84.5t-87.5 204.5t87.5 205t213.5 85q120 0 204 -79l-62 -58q-62 54 -142 54q-89 0 -150 -60.5t-61 -146.5q0 -85 61 -146.5t150 -61.5q72 0 121.5 33.5t61.5 91.5q1 5 1 14h-171v75h269q-1 -147 -76 -221t-206 -74z" />
    <glyph glyph-name="gbreve.smcp" horiz-adv-x="666" 
d="M333 636q-56 0 -84 30.5t-28 74.5h63q0 -22 12.5 -35t36.5 -13q22 0 34.5 14t12.5 34h64q0 -48 -30.5 -76.5t-80.5 -28.5zM349 -8q-126 0 -213.5 84.5t-87.5 204.5t87.5 205t213.5 85q120 0 204 -79l-62 -58q-62 54 -142 54q-89 0 -150 -60.5t-61 -146.5q0 -85 61 -146.5
t150 -61.5q72 0 121.5 33.5t61.5 91.5q1 5 1 14h-171v75h269q-1 -147 -76 -221t-206 -74z" />
    <glyph glyph-name="gcommaaccent.smcp" horiz-adv-x="666" 
d="M349 -8q-126 0 -213.5 84.5t-87.5 204.5t87.5 205t213.5 85q120 0 204 -79l-62 -58q-62 54 -142 54q-89 0 -150 -60.5t-61 -146.5q0 -85 61 -146.5t150 -61.5q72 0 121.5 33.5t61.5 91.5q1 5 1 14h-171v75h269q-1 -147 -76 -221t-206 -74zM303 -191l-49 19q47 57 40 139
h83q1 -102 -74 -158z" />
    <glyph glyph-name="gdotaccent.smcp" horiz-adv-x="666" 
d="M333 633q-23 0 -39.5 15t-16.5 37q0 21 16.5 36t39.5 15t39.5 -14.5t16.5 -36.5t-16.5 -37t-39.5 -15zM349 -8q-126 0 -213.5 84.5t-87.5 204.5t87.5 205t213.5 85q120 0 204 -79l-62 -58q-62 54 -142 54q-89 0 -150 -60.5t-61 -146.5q0 -85 61 -146.5t150 -61.5
q72 0 121.5 33.5t61.5 91.5q1 5 1 14h-171v75h269q-1 -147 -76 -221t-206 -74z" />
    <glyph glyph-name="h.smcp" horiz-adv-x="628" 
d="M450 564h89v-564h-89v240h-272v-240h-89v564h89v-244h272v244z" />
    <glyph glyph-name="hbar.smcp" horiz-adv-x="632" 
d="M601 467v-53h-60v-414h-89v240h-272v-240h-89v414h-59v53h59v97h89v-97h272v97h89v-97h60zM452 320v94h-272v-94h272z" />
    <glyph glyph-name="i.smcp" horiz-adv-x="266" 
d="M89 0v564h89v-564h-89z" />
    <glyph glyph-name="iacute.smcp" horiz-adv-x="266" 
d="M101 623l83 131h95l-104 -131h-74zM89 0v564h89v-564h-89z" />
    <glyph glyph-name="uni01D0.smcp" horiz-adv-x="266" 
d="M89 623l-95 131h71l67 -74l67 74h72l-95 -131h-87zM89 0v564h89v-564h-89z" />
    <glyph glyph-name="icircumflex.smcp" horiz-adv-x="266" 
d="M-6 623l95 131h87l95 -131h-72l-67 74l-67 -74h-71zM89 0v564h89v-564h-89z" />
    <glyph glyph-name="idieresis.smcp" horiz-adv-x="266" 
d="M50 637q-22 0 -38 14t-16 35t16 35t38 14q23 0 38 -14t15 -35t-15 -35t-38 -14zM216 637q-23 0 -39 14t-16 35t16 35t39 14q22 0 37.5 -14t15.5 -35t-15.5 -35t-37.5 -14zM89 0v564h89v-564h-89z" />
    <glyph glyph-name="i.loclTRK.smcp" horiz-adv-x="266" 
d="M133 633q-23 0 -39 15t-16 37t16 36.5t39 14.5t39.5 -14.5t16.5 -36.5t-16.5 -37t-39.5 -15zM89 0v564h89v-564h-89z" />
    <glyph glyph-name="igrave.smcp" horiz-adv-x="266" 
d="M95 623l-104 131h95l83 -131h-74zM89 0v564h89v-564h-89z" />
    <glyph glyph-name="ij.smcp" horiz-adv-x="512" 
d="M89 0v564h89v-564h-89zM239 -192q-27 0 -69 11l9 81q19 -6 60 -6q49 0 72.5 27.5t23.5 72.5v570h89v-570q0 -82 -45 -134t-140 -52z" />
    <glyph glyph-name="imacron.smcp" horiz-adv-x="266" 
d="M23 657v63h221v-63h-221zM89 0v564h89v-564h-89z" />
    <glyph glyph-name="iogonek.smcp" horiz-adv-x="266" 
d="M174 -78h52q0 -42 -25 -66.5t-65 -24.5q-37 0 -61 23t-24 59q0 19 9 36l29 60v555h89v-564h-42l-29 -71q-3 -8 -3 -16q0 -14 9 -23.5t23 -9.5q16 0 26.5 12t11.5 30z" />
    <glyph glyph-name="itilde.smcp" horiz-adv-x="266" 
d="M18 638q3 50 25 73t51 23q21 0 45.5 -17t31.5 -17q9 0 16.5 8t8.5 26h52q-2 -49 -25 -72t-52 -23q-20 0 -44 17.5t-33 17.5q-7 0 -14.5 -9t-8.5 -27h-53zM89 0v564h89v-564h-89z" />
    <glyph glyph-name="j.smcp" horiz-adv-x="274" 
d="M1 -192q-27 0 -69 11l9 81q19 -6 60 -6q49 0 72.5 27.5t23.5 72.5v570h89v-570q0 -82 -45 -134t-140 -52z" />
    <glyph glyph-name="jcircumflex.smcp" horiz-adv-x="274" 
d="M2 623l95 131h87l95 -131h-71l-68 74l-66 -74h-72zM1 -192q-27 0 -69 11l9 81q19 -6 60 -6q49 0 72.5 27.5t23.5 72.5v570h89v-570q0 -82 -45 -134t-140 -52z" />
    </font>
</defs>
</svg>
