<?xml version="1.0" encoding="utf-8"?>
<!-- Generator: Adobe Illustrator 19.2.1, SVG Export Plug-In . SVG Version: 6.00 Build 0)  -->
<svg version="1.1" id="Layer_1" xmlns="http://www.w3.org/2000/svg" xmlns:xlink="http://www.w3.org/1999/xlink" x="0px" y="0px"
	 viewBox="0 0 324 153.4" style="enable-background:new 0 0 324 153.4;" xml:space="preserve">
<style type="text/css">
	.st0{clip-path:url(#SVGID_2_);fill:url(#SVGID_3_);}
	.st1{clip-path:url(#SVGID_5_);fill:url(#SVGID_6_);}
	.st2{clip-path:url(#SVGID_8_);fill:url(#SVGID_9_);}
	.st3{clip-path:url(#SVGID_11_);fill:url(#SVGID_12_);}
	.st4{clip-path:url(#SVGID_14_);fill:url(#SVGID_15_);}
	.st5{clip-path:url(#SVGID_17_);fill:url(#SVGID_18_);}
</style>
<g>
	<defs>
		<path id="SVGID_1_" d="M26.7,92.6c-0.2-2.6-0.3-11.3-0.3-21c0-9.8,0.1-18.4,0.3-21c0.6-8,3.8-13.7,11.2-13.7
			c7.4,0,10.6,5.7,11.2,13.7c0.2,2.6,0.3,11.3,0.3,21c0,9.7-0.1,18.4-0.3,21c-0.6,8-3.8,13.7-11.2,13.7
			C30.5,106.3,27.3,100.6,26.7,92.6 M0,71.6c0,20.2,17,36.5,37.9,36.5c21,0,37.9-16.3,37.9-36.5c0-20.2-17-36.5-37.9-36.5
			C17,35,0,51.4,0,71.6"/>
	</defs>
	<clipPath id="SVGID_2_">
		<use xlink:href="#SVGID_1_"  style="overflow:visible;"/>
	</clipPath>
	
		<linearGradient id="SVGID_3_" gradientUnits="userSpaceOnUse" x1="0" y1="153.405" x2="1" y2="153.405" gradientTransform="matrix(391.4052 225.9779 225.9779 -391.4052 -34725.8594 60058.707)">
		<stop  offset="0" style="stop-color:#4F4344"/>
		<stop  offset="0.2043" style="stop-color:#514546"/>
		<stop  offset="0.2779" style="stop-color:#584C4D"/>
		<stop  offset="0.3303" style="stop-color:#635858"/>
		<stop  offset="0.3725" style="stop-color:#736869"/>
		<stop  offset="0.3856" style="stop-color:#7A6F70"/>
		<stop  offset="0.4031" style="stop-color:#736969"/>
		<stop  offset="0.4695" style="stop-color:#5F5455"/>
		<stop  offset="0.5348" style="stop-color:#534748"/>
		<stop  offset="0.5976" style="stop-color:#4F4344"/>
		<stop  offset="0.8171" style="stop-color:#6F6465"/>
		<stop  offset="0.8875" style="stop-color:#625657"/>
		<stop  offset="1" style="stop-color:#4F4344"/>
	</linearGradient>
	<polygon class="st0" points="19,2.2 107.5,53.3 56.9,140.9 -31.6,89.8 	"/>
</g>
<g>
	<defs>
		<path id="SVGID_4_" d="M284.7,2.7c-0.3,0.3-0.6,0.6-0.9,1c-0.8,1-1.3,2.4-1.3,2.4l-7.4,18l1.2,1.2l18-7.4c0,0,1.4-0.5,2.4-1.3
			c0.3-0.3,0.7-0.5,1-0.9c3.6-3.6,3.6-9.4,0-13C296,0.9,293.6,0,291.2,0S286.5,0.9,284.7,2.7"/>
	</defs>
	<clipPath id="SVGID_5_">
		<use xlink:href="#SVGID_4_"  style="overflow:visible;"/>
	</clipPath>
	
		<linearGradient id="SVGID_6_" gradientUnits="userSpaceOnUse" x1="0" y1="153.4086" x2="1" y2="153.4086" gradientTransform="matrix(391.4052 225.9779 225.9779 -391.4052 -34638.6328 59907.5039)">
		<stop  offset="0" style="stop-color:#4F4344"/>
		<stop  offset="0.2043" style="stop-color:#514546"/>
		<stop  offset="0.2779" style="stop-color:#584C4D"/>
		<stop  offset="0.3303" style="stop-color:#635858"/>
		<stop  offset="0.3725" style="stop-color:#736869"/>
		<stop  offset="0.3856" style="stop-color:#7A6F70"/>
		<stop  offset="0.4031" style="stop-color:#736969"/>
		<stop  offset="0.4695" style="stop-color:#5F5455"/>
		<stop  offset="0.5348" style="stop-color:#534748"/>
		<stop  offset="0.5976" style="stop-color:#4F4344"/>
		<stop  offset="0.8171" style="stop-color:#6F6465"/>
		<stop  offset="0.8875" style="stop-color:#625657"/>
		<stop  offset="1" style="stop-color:#4F4344"/>
	</linearGradient>
	<polygon class="st1" points="281.7,-11.3 312.3,6.3 294.8,36.6 264.2,19 	"/>
</g>
<g>
	<defs>
		<path id="SVGID_7_" d="M25.9,129.4c0,6.4,5.3,11.6,11.7,11.6c6.5,0,11.7-5.2,11.7-11.6c0-6.4-5.2-11.5-11.7-11.5
			C31.2,117.8,25.9,123,25.9,129.4"/>
	</defs>
	<clipPath id="SVGID_8_">
		<use xlink:href="#SVGID_7_"  style="overflow:visible;"/>
	</clipPath>
	
		<linearGradient id="SVGID_9_" gradientUnits="userSpaceOnUse" x1="0" y1="153.405" x2="1" y2="153.405" gradientTransform="matrix(391.4052 225.9779 225.9779 -391.4052 -34751.0039 60102.1367)">
		<stop  offset="0" style="stop-color:#4F4344"/>
		<stop  offset="0.2043" style="stop-color:#514546"/>
		<stop  offset="0.2779" style="stop-color:#584C4D"/>
		<stop  offset="0.3303" style="stop-color:#635858"/>
		<stop  offset="0.3725" style="stop-color:#736869"/>
		<stop  offset="0.3856" style="stop-color:#7A6F70"/>
		<stop  offset="0.4031" style="stop-color:#736969"/>
		<stop  offset="0.4695" style="stop-color:#5F5455"/>
		<stop  offset="0.5348" style="stop-color:#534748"/>
		<stop  offset="0.5976" style="stop-color:#4F4344"/>
		<stop  offset="0.8171" style="stop-color:#6F6465"/>
		<stop  offset="0.8875" style="stop-color:#625657"/>
		<stop  offset="1" style="stop-color:#4F4344"/>
	</linearGradient>
	<polygon class="st2" points="31.8,107.7 59.4,123.6 43.5,151.1 15.9,135.1 	"/>
</g>
<g>
	<defs>
		<path id="SVGID_10_" d="M274.6,68.4c0-4,0.1-16.1,0.3-17.9c0.6-8,3.8-13.7,11.2-13.7c7.4,0,10.6,5.7,11.2,13.7
			c0.2,2.5,0.3,8.8,0.3,17.9c0,0.7-0.6,1.3-1.3,1.3h-20.5C275.1,69.7,274.5,69.1,274.6,68.4 M248.2,71.6c0,20.2,17,36.5,37.9,36.5
			c10.5,0,20-4.1,26.9-10.8l-1.5-1.6c-3.6,3.4-7.1,5.8-11.5,7.6c-4.5,1.7-13.7,4.1-19,1.6c-5.2-2.5-6.2-9.7-6.2-15.7
			c0-6.3-0.1-13.6-0.1-16.5c0-0.7,0.6-1.3,1.3-1.3H324c0-20.1-17-36.4-37.9-36.4C265.1,35.1,248.2,51.4,248.2,71.6"/>
	</defs>
	<clipPath id="SVGID_11_">
		<use xlink:href="#SVGID_10_"  style="overflow:visible;"/>
	</clipPath>
	
		<linearGradient id="SVGID_12_" gradientUnits="userSpaceOnUse" x1="0" y1="153.405" x2="1" y2="153.405" gradientTransform="matrix(391.4052 225.9779 225.9779 -391.4052 -34663.875 59951.2227)">
		<stop  offset="0" style="stop-color:#4F4344"/>
		<stop  offset="0.2043" style="stop-color:#514546"/>
		<stop  offset="0.2779" style="stop-color:#584C4D"/>
		<stop  offset="0.3303" style="stop-color:#635858"/>
		<stop  offset="0.3725" style="stop-color:#736869"/>
		<stop  offset="0.3856" style="stop-color:#7A6F70"/>
		<stop  offset="0.4031" style="stop-color:#736969"/>
		<stop  offset="0.4695" style="stop-color:#5F5455"/>
		<stop  offset="0.5348" style="stop-color:#534748"/>
		<stop  offset="0.5976" style="stop-color:#4F4344"/>
		<stop  offset="0.8171" style="stop-color:#6F6465"/>
		<stop  offset="0.8875" style="stop-color:#625657"/>
		<stop  offset="1" style="stop-color:#4F4344"/>
	</linearGradient>
	<polygon class="st3" points="267.1,2.2 355.6,53.3 305,140.9 216.5,89.8 	"/>
</g>
<g>
	<defs>
		<path id="SVGID_13_" d="M194.4,16.5v1.8h1.2c1.2,0,2.1,1,2.1,2.1v68.6c0,7.9,4.2,15.7,12.1,17.9c7.8,2.1,15.6,0.6,22.6-3.2
			c1.4-0.7,2.7-1.5,4-2.3v-2.2c-1.4,0.7-2.9,1.6-4.8,2.4c-1.4,0.6-2.9,0.9-4.3,0.3c-3.6-1.5-4.6-6.4-4.6-11.2c0-2.6,0-42.2,0-52
			c0-1.2,1-2.1,2.1-2.1h10.4v-1.8H225c-1.2,0-2.1-0.9-2.1-2.1V20.8c0-2.4-1.9-4.3-4.3-4.3H194.4z"/>
	</defs>
	<clipPath id="SVGID_14_">
		<use xlink:href="#SVGID_13_"  style="overflow:visible;"/>
	</clipPath>
	
		<linearGradient id="SVGID_15_" gradientUnits="userSpaceOnUse" x1="0" y1="153.4042" x2="1" y2="153.4042" gradientTransform="matrix(391.4052 225.9779 225.9779 -391.4052 -34677.5742 59974.9531)">
		<stop  offset="0" style="stop-color:#4F4344"/>
		<stop  offset="0.2043" style="stop-color:#514546"/>
		<stop  offset="0.2779" style="stop-color:#584C4D"/>
		<stop  offset="0.3303" style="stop-color:#635858"/>
		<stop  offset="0.3725" style="stop-color:#736869"/>
		<stop  offset="0.3856" style="stop-color:#7A6F70"/>
		<stop  offset="0.4031" style="stop-color:#736969"/>
		<stop  offset="0.4695" style="stop-color:#5F5455"/>
		<stop  offset="0.5348" style="stop-color:#534748"/>
		<stop  offset="0.5976" style="stop-color:#4F4344"/>
		<stop  offset="0.8171" style="stop-color:#6F6465"/>
		<stop  offset="0.8875" style="stop-color:#625657"/>
		<stop  offset="1" style="stop-color:#4F4344"/>
	</linearGradient>
	<polygon class="st4" points="205,-1.7 276.7,39.7 226,127.4 154.3,86 	"/>
</g>
<g>
	<defs>
		<path id="SVGID_16_" d="M129.4,103.6c-4.6-2-7.7-5.8-7.7-11V46.2c0-1.8,1.2-3.1,2.6-3.9c1.3-0.7,8.5-4.4,14.8,0.7
			c6.4,5.1,8.9,15.5,8.9,29.4c0,13.8-1.3,20.9-5.2,27c-2.1,3.3-5.5,5.1-9.1,5.1C132.4,104.5,130.9,104.2,129.4,103.6 M125.6,39.6
			c-0.5,0.3-2,1.2-3,1.5c-0.2,0.1-0.5,0.1-0.7-0.1c-0.2-0.2-0.2-0.5-0.2-0.8v-0.9c0-2.4-1.9-4.3-4.3-4.3l-24.1,0v1.8h1.2
			c1.2,0,2.1,1,2.1,2.1v110.4c0,1.2-0.9,2.1-2.1,2.1h-1.2v1.8h31.9v-1.8h-1.4c-1.2,0-2.1-1-2.1-2.1v-46.7c0-0.9,1-1.1,1.6-0.6
			c5.6,3.8,12.5,6,20.1,6c20.9,0,32.9-16.3,32.9-36.5c0-20.2-11.9-36.5-32.9-36.5C136.8,35,131.1,36.7,125.6,39.6"/>
	</defs>
	<clipPath id="SVGID_17_">
		<use xlink:href="#SVGID_16_"  style="overflow:visible;"/>
	</clipPath>
	
		<linearGradient id="SVGID_18_" gradientUnits="userSpaceOnUse" x1="0" y1="153.418" x2="1" y2="153.418" gradientTransform="matrix(391.4052 225.9779 225.9779 -391.4052 -34714.4414 60038.8125)">
		<stop  offset="0" style="stop-color:#4F4344"/>
		<stop  offset="0.2043" style="stop-color:#514546"/>
		<stop  offset="0.2779" style="stop-color:#584C4D"/>
		<stop  offset="0.3303" style="stop-color:#635858"/>
		<stop  offset="0.3725" style="stop-color:#736869"/>
		<stop  offset="0.3856" style="stop-color:#7A6F70"/>
		<stop  offset="0.4031" style="stop-color:#736969"/>
		<stop  offset="0.4695" style="stop-color:#5F5455"/>
		<stop  offset="0.5348" style="stop-color:#534748"/>
		<stop  offset="0.5976" style="stop-color:#4F4344"/>
		<stop  offset="0.8171" style="stop-color:#6F6465"/>
		<stop  offset="0.8875" style="stop-color:#625657"/>
		<stop  offset="1" style="stop-color:#4F4344"/>
	</linearGradient>
	<polygon class="st5" points="114.1,-0.9 227.6,64.6 155.6,189.3 42.1,123.8 	"/>
</g>
</svg>
