<?xml version="1.0" encoding="utf-8"?>
<!-- Generator: Adobe Illustrator 19.2.1, SVG Export Plug-In . SVG Version: 6.00 Build 0)  -->
<svg version="1.1" id="Layer_1" xmlns="http://www.w3.org/2000/svg" xmlns:xlink="http://www.w3.org/1999/xlink" x="0px" y="0px"
	 viewBox="0 0 75.8 105.9" style="enable-background:new 0 0 75.8 105.9;" xml:space="preserve">
<style type="text/css">
	.st0{clip-path:url(#SVGID_2_);fill:#4C3E3F;}
</style>
<g>
	<defs>
		<rect id="SVGID_1_" width="75.8" height="105.9"/>
	</defs>
	<clipPath id="SVGID_2_">
		<use xlink:href="#SVGID_1_"  style="overflow:visible;"/>
	</clipPath>
	<path class="st0" d="M37.9,0C17,0,0,16.3,0,36.5C0,56.7,17,73,37.9,73c21,0,37.9-16.3,37.9-36.5C75.8,16.3,58.9,0,37.9,0
		 M49.2,57.6c-0.6,8-3.8,13.7-11.2,13.7c-7.4,0-10.6-5.7-11.2-13.7c-0.2-2.6-0.3-11.3-0.3-21c0-9.8,0.1-18.4,0.3-21
		c0.6-8,3.8-13.7,11.2-13.7c7.4,0,10.6,5.7,11.2,13.7c0.2,2.6,0.3,11.3,0.3,21C49.5,46.3,49.4,55,49.2,57.6"/>
	<path class="st0" d="M37.7,82.8c-6.5,0-11.7,5.2-11.7,11.6c0,6.4,5.3,11.5,11.7,11.5c6.5,0,11.7-5.2,11.7-11.5
		C49.4,87.9,44.2,82.8,37.7,82.8"/>
</g>
</svg>
